<svg width="1255" height="1043" viewBox="0 0 1255 1043" fill="none" xmlns="http://www.w3.org/2000/svg">
<path d="M217.046 589.127C217.046 589.127 217.046 577.335 200.548 560.865C184.049 544.396 173.476 534.956 173.476 534.956C173.476 534.956 165.227 562.027 180.535 578.526C191.799 590.116 204.012 600.746 217.046 610.302V589.127Z" fill="white"/>
<path d="M193.112 662.528C193.112 662.528 193.112 650.909 176.614 634.266C160.115 617.622 149.542 608.385 149.542 608.385C149.542 608.385 141.293 635.602 156.688 651.955C167.952 663.546 180.165 674.175 193.199 683.731L193.112 662.528Z" fill="white"/>
<path d="M216 609.053C216 609.053 217.249 597.435 235.374 582.679C253.499 567.924 265.06 559.791 265.06 559.791C265.06 559.791 270.375 587.588 253.441 602.372C241.024 612.719 227.761 622.008 213.793 630.141L216 609.053Z" fill="white"/>
<path d="M187.1 695.902C187.1 695.902 189.569 684.283 209.146 671.735C228.723 659.187 241.097 652.071 241.097 652.071C241.097 652.071 243.479 680.275 225.063 693.2C211.622 702.176 197.457 710.017 182.714 716.641L187.1 695.902Z" fill="white"/>
<path d="M192.531 790.593C192.531 790.593 192.531 778.829 209.03 762.331C225.528 745.832 236.101 736.421 236.101 736.421C236.101 736.421 244.35 763.522 229.043 779.991C217.79 791.646 205.576 802.334 192.531 811.942V790.593Z" fill="white"/>
<path d="M192.27 813.714C192.27 813.714 193.926 802.095 179.954 783.389C165.983 764.683 156.717 753.907 156.717 753.907C156.717 753.907 144.692 779.526 157.501 798.029C166.999 811.113 177.58 823.375 189.133 834.685L192.27 813.714Z" fill="white"/>
<path d="M176.004 882.205C176.004 882.205 176.004 870.587 192.473 853.943C208.942 837.3 219.573 828.034 219.573 828.034C219.573 828.034 227.823 855.134 212.515 871.603C201.256 883.208 189.043 893.848 176.004 903.409V882.205Z" fill="white"/>
<path d="M187.012 944.306C187.012 944.306 184.108 932.92 195.726 912.791C207.345 892.662 215.39 880.84 215.39 880.84C215.39 880.84 230.204 904.977 219.573 924.787C211.626 938.858 202.512 952.237 192.328 964.784L187.012 944.306Z" fill="white"/>
<path d="M218.528 585.991C217.7 598.244 216.197 610.443 214.026 622.531C207.49 656.225 191.195 677.922 184.689 708.334C178.183 738.745 196.889 778.045 191.864 816.996C186.839 855.948 171.531 877.79 176.004 903.845C180.477 929.9 203.802 1001.99 203.802 1001.99" stroke="#263238" stroke-width="1.09196" stroke-linecap="round" stroke-linejoin="round"/>
<path d="M215.826 616.867L233.603 603.244" stroke="#263238" stroke-width="1.09196" stroke-linecap="round" stroke-linejoin="round"/>
<path d="M216.669 601.182L209.233 587.966" stroke="#263238" stroke-width="1.09196" stroke-linecap="round" stroke-linejoin="round"/>
<path d="M185.734 706.939C185.734 706.939 200.606 695.786 215.884 684.632" stroke="#263238" stroke-width="1.09196" stroke-linecap="round" stroke-linejoin="round"/>
<path d="M193.112 683.732C193.112 683.732 180.709 659.449 166.68 643.328" stroke="#263238" stroke-width="1.09196" stroke-linecap="round" stroke-linejoin="round"/>
<path d="M193.112 807.353C201.6 791.705 212.314 777.371 224.918 764.8" stroke="#263238" stroke-width="1.09196" stroke-linecap="round" stroke-linejoin="round"/>
<path d="M190.236 823.88C185.71 813.26 180.318 803.03 174.115 793.294C165.402 780.485 164.182 778.771 164.182 778.771" stroke="#263238" stroke-width="1.09196" stroke-linecap="round" stroke-linejoin="round"/>
<path d="M176.004 903.845C179.764 894.462 184.24 885.382 189.394 876.687C194.567 868.638 200.396 861.031 206.822 853.943" stroke="#263238" stroke-width="1.09196" stroke-linecap="round" stroke-linejoin="round"/>
<path d="M192.386 964.813C191.515 955.859 193.049 946.834 196.83 938.671C203.017 926.704 210.046 910.99 212.951 904.803" stroke="#263238" stroke-width="1.09196" stroke-linecap="round" stroke-linejoin="round"/>
<path d="M82.5033 746.326C82.5033 746.326 81.1672 738.919 89.8811 726.807C98.595 714.695 104.056 707.607 104.056 707.607C104.056 707.607 112.16 723.699 104.346 735.695C98.553 744.196 92.0526 752.193 84.9141 759.6L82.5033 746.326Z" fill="white"/>
<path d="M105.48 789.838C105.48 789.838 104.202 782.46 112.77 770.319C121.339 758.177 126.945 751.148 126.945 751.148C126.945 751.148 135.049 767.211 127.235 779.236C121.436 787.723 114.936 795.71 107.803 803.112L105.48 789.838Z" fill="white"/>
<path d="M85.3212 758.787C85.3212 758.787 83.288 751.584 70.3043 744.264C57.3205 736.944 49.2166 733.197 49.2166 733.197C49.2166 733.197 48.8971 751.235 61.1256 758.642C70.0371 763.782 79.3648 768.164 89.0101 771.742L85.3212 758.787Z" fill="white"/>
<path d="M112.886 810.112C112.886 810.112 109.981 803.141 96.4456 797.332C82.91 791.522 74.2832 788.473 74.2832 788.473C74.2832 788.473 75.8517 806.423 88.8064 812.523C98.1903 816.695 107.906 820.076 117.853 822.631L112.886 810.112Z" fill="white"/>
<path d="M119.771 870.064C119.771 870.064 118.463 862.686 106.351 854.146C94.2388 845.607 86.5415 840.843 86.5415 840.843C86.5415 840.843 84.334 858.707 95.7201 867.392C104.038 873.447 112.851 878.791 122.065 883.367L119.771 870.064Z" fill="white"/>
<path d="M122.443 884.529C122.443 884.529 120.119 877.412 126.858 864.196C133.597 850.98 138.157 843.196 138.157 843.196C138.157 843.196 148.468 857.951 142.456 870.935C137.917 880.173 132.612 889.015 126.596 897.367L122.443 884.529Z" fill="white"/>
<path d="M143.123 944.103C143.123 944.103 143.995 936.667 155.613 927.43C167.232 918.194 174.61 912.907 174.61 912.907C174.61 912.907 177.863 930.625 166.97 939.92C159.014 946.434 150.522 952.264 141.584 957.348L143.123 944.103Z" fill="white"/>
<path d="M140.073 925.717C140.073 925.717 138.795 918.339 126.654 909.799C114.512 901.26 106.873 896.496 106.873 896.496C106.873 896.496 104.637 914.447 116.023 923.161C124.341 929.216 133.153 934.56 142.368 939.136L140.073 925.717Z" fill="white"/>
<path d="M139.899 965.859C139.899 965.859 140.538 958.394 130.982 947.066C121.426 935.738 115.181 929.173 115.181 929.173C115.181 929.173 108.5 945.904 117.33 957.174C123.843 965.139 131.014 972.543 138.766 979.307L139.899 965.859Z" fill="white"/>
<path d="M81.168 744.583C83.0268 752.179 85.3055 759.665 87.9939 767.007C95.7202 787.34 108.326 799.278 115.675 817.635C123.024 835.992 115.675 862.599 122.966 886.562C130.256 910.525 142.252 922.492 142.369 939.31C142.485 956.128 136.356 1001.59 136.356 1001.59" stroke="#263238" stroke-width="1.09196" stroke-linecap="round" stroke-linejoin="round"/>
<path d="M86.2799 763.667L73.6738 757.044" stroke="#263238" stroke-width="1.09196" stroke-linecap="round" stroke-linejoin="round"/>
<path d="M84.0723 753.907L87.2964 744.816" stroke="#263238" stroke-width="1.09196" stroke-linecap="round" stroke-linejoin="round"/>
<path d="M114.978 816.88C114.978 816.88 104.434 811.506 93.6289 806.162" stroke="#263238" stroke-width="1.09196" stroke-linecap="round" stroke-linejoin="round"/>
<path d="M107.803 803.112C110.896 793.36 114.974 783.949 119.973 775.024" stroke="#263238" stroke-width="1.09196" stroke-linecap="round" stroke-linejoin="round"/>
<path d="M121.223 880.636C114.192 871.749 105.916 863.922 96.6494 857.399" stroke="#263238" stroke-width="1.09196" stroke-linecap="round" stroke-linejoin="round"/>
<path d="M124.737 890.687C126.412 883.541 128.676 876.546 131.505 869.773C135.572 860.798 136.153 859.636 136.153 859.636" stroke="#263238" stroke-width="1.09196" stroke-linecap="round" stroke-linejoin="round"/>
<path d="M141.846 952.207C145.943 947.12 150.482 942.406 155.41 938.119C158.512 935.796 161.426 933.232 164.124 930.451" stroke="#263238" stroke-width="1.09196" stroke-linecap="round" stroke-linejoin="round"/>
<path d="M142.427 939.31C139.047 933.845 135.25 928.65 131.07 923.77C126.968 919.336 122.509 915.246 117.737 911.542" stroke="#263238" stroke-width="1.09196" stroke-linecap="round" stroke-linejoin="round"/>
<path d="M138.766 979.307C138.339 973.612 136.393 968.136 133.131 963.448C127.961 956.593 121.832 947.501 119.363 943.929" stroke="#263238" stroke-width="1.09196" stroke-linecap="round" stroke-linejoin="round"/>
<path d="M1209.47 781.182H936.699V804.448H1209.47V781.182Z" stroke="#263238" stroke-width="1.09196" stroke-linecap="round" stroke-linejoin="round"/>
<path d="M1196.84 804.739H949.363V1002.92H1196.84V804.739Z" stroke="#263238" stroke-width="1.09196" stroke-linecap="round" stroke-linejoin="round"/>
<path d="M1187.92 817.664H957.961V877.935H1187.92V817.664Z" stroke="#263238" stroke-width="1.09196" stroke-linecap="round" stroke-linejoin="round"/>
<path d="M1084.05 842.238H1061.05V853.333H1084.05V842.238Z" stroke="#263238" stroke-width="1.09196" stroke-linecap="round" stroke-linejoin="round"/>
<path d="M1187.92 893.795H957.961V954.066H1187.92V893.795Z" stroke="#263238" stroke-width="1.09196" stroke-linecap="round" stroke-linejoin="round"/>
<path d="M1084.05 918.368H1061.05V929.464H1084.05V918.368Z" stroke="#263238" stroke-width="1.09196" stroke-linecap="round" stroke-linejoin="round"/>
<path d="M1081.67 620.12H967.488V732.181H1081.67V620.12Z" fill="#263238" stroke="#263238" stroke-width="1.09196" stroke-linecap="round" stroke-linejoin="round"/>
<path d="M1031.97 775.634V727.969H1017.19V775.634H996.041V780.834H1017.19H1031.97H1053.12V775.634H1031.97Z" stroke="#263238" stroke-width="1.09196" stroke-linecap="round" stroke-linejoin="round"/>
<path d="M974.634 624.187V725.674" stroke="#5C5C5C" stroke-width="1.09196" stroke-linecap="round" stroke-linejoin="round"/>
<path d="M993.659 624.187V725.674" stroke="#5C5C5C" stroke-width="1.09196" stroke-linecap="round" stroke-linejoin="round"/>
<path d="M1024.59 624.187V725.674" stroke="#5C5C5C" stroke-width="1.09196" stroke-linecap="round" stroke-linejoin="round"/>
<path d="M1061.05 624.187V725.674" stroke="#5C5C5C" stroke-width="1.09196" stroke-linecap="round" stroke-linejoin="round"/>
<path d="M1134.3 307.232H948.057V557.321H1134.3V307.232Z" stroke="#263238" stroke-width="1.09196" stroke-linecap="round" stroke-linejoin="round"/>
<path d="M1116.47 331.167H965.891V533.387H1116.47V331.167Z" stroke="#263238" stroke-width="1.09196" stroke-linecap="round" stroke-linejoin="round"/>
<path d="M911.719 241.936H547.769V1002.92H911.719V241.936Z" stroke="#263238" stroke-width="1.09196" stroke-linecap="round" stroke-linejoin="round"/>
<path d="M713.188 277.896H580.853V476.427H713.188V277.896Z" stroke="#263238" stroke-width="1.09196" stroke-linecap="round" stroke-linejoin="round"/>
<path d="M694.191 306.448H599.878V447.904H694.191V306.448Z" stroke="#263238" stroke-width="1.09196" stroke-linecap="round" stroke-linejoin="round"/>
<path d="M599.878 306.448L580.853 277.896" stroke="#263238" stroke-width="1.09196" stroke-linecap="round" stroke-linejoin="round"/>
<path d="M694.162 306.448L713.187 277.896" stroke="#263238" stroke-width="1.09196" stroke-linecap="round" stroke-linejoin="round"/>
<path d="M694.162 447.904L713.187 476.427" stroke="#263238" stroke-width="1.09196" stroke-linecap="round" stroke-linejoin="round"/>
<path d="M599.878 447.904L580.853 476.427" stroke="#263238" stroke-width="1.09196" stroke-linecap="round" stroke-linejoin="round"/>
<path d="M872.245 277.896H739.91V476.427H872.245V277.896Z" stroke="#263238" stroke-width="1.09196" stroke-linecap="round" stroke-linejoin="round"/>
<path d="M853.249 306.448H758.936V447.904H853.249V306.448Z" stroke="#263238" stroke-width="1.09196" stroke-linecap="round" stroke-linejoin="round"/>
<path d="M758.935 306.448L739.91 277.896" stroke="#263238" stroke-width="1.09196" stroke-linecap="round" stroke-linejoin="round"/>
<path d="M853.22 306.448L872.245 277.896" stroke="#263238" stroke-width="1.09196" stroke-linecap="round" stroke-linejoin="round"/>
<path d="M853.22 447.904L872.245 476.427" stroke="#263238" stroke-width="1.09196" stroke-linecap="round" stroke-linejoin="round"/>
<path d="M758.935 447.904L739.91 476.427" stroke="#263238" stroke-width="1.09196" stroke-linecap="round" stroke-linejoin="round"/>
<path d="M713.188 527.607H580.853V726.139H713.188V527.607Z" stroke="#263238" stroke-width="1.09196" stroke-linecap="round" stroke-linejoin="round"/>
<path d="M694.191 556.131H599.878V697.587H694.191V556.131Z" stroke="#263238" stroke-width="1.09196" stroke-linecap="round" stroke-linejoin="round"/>
<path d="M599.878 556.131L580.853 527.607" stroke="#263238" stroke-width="1.09196" stroke-linecap="round" stroke-linejoin="round"/>
<path d="M694.162 556.131L713.187 527.607" stroke="#263238" stroke-width="1.09196" stroke-linecap="round" stroke-linejoin="round"/>
<path d="M694.162 697.586L713.187 726.139" stroke="#263238" stroke-width="1.09196" stroke-linecap="round" stroke-linejoin="round"/>
<path d="M599.878 697.586L580.853 726.139" stroke="#263238" stroke-width="1.09196" stroke-linecap="round" stroke-linejoin="round"/>
<path d="M872.245 527.607H739.91V726.139H872.245V527.607Z" stroke="#263238" stroke-width="1.09196" stroke-linecap="round" stroke-linejoin="round"/>
<path d="M853.249 556.131H758.936V697.587H853.249V556.131Z" stroke="#263238" stroke-width="1.09196" stroke-linecap="round" stroke-linejoin="round"/>
<path d="M758.935 556.131L739.91 527.607" stroke="#263238" stroke-width="1.09196" stroke-linecap="round" stroke-linejoin="round"/>
<path d="M853.22 556.131L872.245 527.607" stroke="#263238" stroke-width="1.09196" stroke-linecap="round" stroke-linejoin="round"/>
<path d="M853.22 697.586L872.245 726.139" stroke="#263238" stroke-width="1.09196" stroke-linecap="round" stroke-linejoin="round"/>
<path d="M758.935 697.586L739.91 726.139" stroke="#263238" stroke-width="1.09196" stroke-linecap="round" stroke-linejoin="round"/>
<path d="M713.188 781.124H580.853V979.655H713.188V781.124Z" stroke="#263238" stroke-width="1.09196" stroke-linecap="round" stroke-linejoin="round"/>
<path d="M694.191 809.647H599.878V951.103H694.191V809.647Z" stroke="#263238" stroke-width="1.09196" stroke-linecap="round" stroke-linejoin="round"/>
<path d="M599.878 809.647L580.853 781.124" stroke="#263238" stroke-width="1.09196" stroke-linecap="round" stroke-linejoin="round"/>
<path d="M694.162 809.647L713.187 781.124" stroke="#263238" stroke-width="1.09196" stroke-linecap="round" stroke-linejoin="round"/>
<path d="M694.162 951.103L713.187 979.627" stroke="#263238" stroke-width="1.09196" stroke-linecap="round" stroke-linejoin="round"/>
<path d="M599.878 951.103L580.853 979.627" stroke="#263238" stroke-width="1.09196" stroke-linecap="round" stroke-linejoin="round"/>
<path d="M872.245 781.124H739.91V979.655H872.245V781.124Z" stroke="#263238" stroke-width="1.09196" stroke-linecap="round" stroke-linejoin="round"/>
<path d="M853.249 809.647H758.936V951.103H853.249V809.647Z" stroke="#263238" stroke-width="1.09196" stroke-linecap="round" stroke-linejoin="round"/>
<path d="M758.935 809.647L739.91 781.124" stroke="#263238" stroke-width="1.09196" stroke-linecap="round" stroke-linejoin="round"/>
<path d="M853.22 809.647L872.245 781.124" stroke="#263238" stroke-width="1.09196" stroke-linecap="round" stroke-linejoin="round"/>
<path d="M853.22 951.103L872.245 979.627" stroke="#263238" stroke-width="1.09196" stroke-linecap="round" stroke-linejoin="round"/>
<path d="M758.935 951.103L739.91 979.627" stroke="#263238" stroke-width="1.09196" stroke-linecap="round" stroke-linejoin="round"/>
<path d="M887.495 644.286C894.714 644.286 900.566 638.434 900.566 631.215C900.566 623.997 894.714 618.145 887.495 618.145C880.276 618.145 874.424 623.997 874.424 631.215C874.424 638.434 880.276 644.286 887.495 644.286Z" stroke="#263238" stroke-width="1.09196" stroke-linecap="round" stroke-linejoin="round"/>
<path d="M1253.48 1002.92H1" stroke="#263238" stroke-width="1.09196" stroke-linecap="round" stroke-linejoin="round"/>
<path d="M412.848 682.25H713.913C725.353 682.25 736.324 686.794 744.414 694.884C752.503 702.973 757.047 713.944 757.047 725.384V1002.95H369.743V725.355C369.751 713.925 374.295 702.966 382.377 694.884C390.459 686.802 401.418 682.258 412.848 682.25Z" fill="#263238" stroke="#263238" stroke-width="1.09196" stroke-miterlimit="10"/>
<path d="M389.059 682.25H690.008C701.448 682.25 712.419 686.794 720.508 694.883C728.598 702.972 733.142 713.944 733.142 725.383V1002.95H345.838V725.354C345.842 719.685 346.963 714.072 349.138 708.837C351.313 703.601 354.498 698.846 358.513 694.842C362.527 690.839 367.291 687.666 372.532 685.505C377.774 683.344 383.39 682.238 389.059 682.25Z" fill="#787878" stroke="#263238" stroke-width="1.09196" stroke-miterlimit="10"/>
<path d="M472.48 457.518C472.48 457.518 435.766 447.933 439.745 410.405C443.724 372.877 472.48 360.097 494.062 356.088C515.643 352.08 546.781 352.109 546.781 352.109C546.781 352.109 540.391 339.329 565.138 336.918C589.886 334.507 658.58 358.499 685.739 407.21C712.897 455.921 707.291 536.582 695.324 562.956C683.357 589.33 672.087 643.618 694.511 661.975C716.934 680.333 759.226 700.317 752.836 751.438C746.445 802.56 690.531 804.07 692.913 831.287C695.295 858.503 748.827 878.429 735.263 925.542C721.698 972.655 641.82 979.859 587.504 949.505C533.187 919.152 545.967 820.917 529.208 766.513C512.448 712.109 448.517 703.512 438.932 658.838C429.346 614.165 462.169 591.741 478.086 554.272C494.004 516.802 472.48 457.518 472.48 457.518Z" fill="#263238" stroke="#263238" stroke-width="1.09196" stroke-linecap="round" stroke-linejoin="round"/>
<path d="M546.781 352.109C546.781 352.109 444.102 345.196 407.358 395.911" stroke="#263238" stroke-width="1.09196" stroke-linecap="round" stroke-linejoin="round"/>
<path d="M664.738 381.969C664.738 381.969 728.146 430.157 730.673 503.702C733.2 577.247 701.627 602.46 696.428 635.572C691.229 668.685 718.009 687.536 718.009 687.536" stroke="#263238" stroke-width="1.09196" stroke-linecap="round" stroke-linejoin="round"/>
<path d="M676.153 398.438C676.153 398.438 730.673 447.817 739.562 516.366C748.45 584.916 739.562 593.717 739.562 593.717" stroke="#263238" stroke-width="1.09196" stroke-linecap="round" stroke-linejoin="round"/>
<path d="M287.194 822.515C287.194 822.515 253.645 873.636 245.658 893.591C237.67 913.546 238.483 929.521 259.251 934.256C280.02 938.991 311.971 914.446 322.253 903.176C332.535 891.906 351.793 856.847 351.793 856.847L287.194 822.515Z" fill="white" stroke="#263238" stroke-width="1.09196" stroke-linecap="round" stroke-linejoin="round"/>
<path d="M505.245 649.195C505.245 649.195 422.172 648.411 400.678 655.585C379.184 662.76 276.069 821.701 276.069 821.701L347.959 868.844L379.097 834.482C379.097 834.482 387.811 878.429 387.811 892.807C387.811 907.185 377.412 1003.18 377.412 1003.18H617.015C617.015 1003.18 621.024 913.575 634.443 888.828C647.863 864.08 666.394 830.532 666.394 830.532L734.276 874.45L776.77 772.119C776.77 772.119 668.95 686.752 641.763 674.756C614.576 662.76 505.245 649.195 505.245 649.195Z" fill="white" stroke="#263238" stroke-width="1.09196" stroke-linecap="round" stroke-linejoin="round"/>
<path d="M379.038 834.482C379.038 834.482 381.943 808.776 385.574 784.812C389.204 760.849 403.989 731.367 403.989 731.367" stroke="#263238" stroke-width="1.09196" stroke-linecap="round" stroke-linejoin="round"/>
<path d="M666.568 830.502L625.206 806.946" stroke="#263238" stroke-width="1.09196" stroke-linecap="round" stroke-linejoin="round"/>
<path d="M658.377 829.079C658.377 829.079 621.43 825.39 606.907 819.842" stroke="#263238" stroke-width="1.09196" stroke-linecap="round" stroke-linejoin="round"/>
<path d="M400.881 796.024L542.424 1036.82L548.117 1033.57L558.719 813.917L400.881 796.024Z" fill="#263238" stroke="#263238" stroke-width="1.09196" stroke-linecap="round" stroke-linejoin="round"/>
<path d="M395.188 796.024L383.802 1010.79L542.424 1036.82L552.997 813.917L395.188 796.024Z" fill="#575757" stroke="#263238" stroke-width="1.09196" stroke-linecap="round" stroke-linejoin="round"/>
<path d="M453.746 865.968L486.307 870.034L480.614 1005.1L422.027 995.34L453.746 865.968Z" fill="#263238" stroke="#263238" stroke-width="1.09196" stroke-linecap="round" stroke-linejoin="round"/>
<path d="M505.245 649.195C505.245 649.195 483.925 648.992 460.107 649.718C457.244 673.122 456.573 696.743 458.103 720.272C461.298 758.613 469.285 764.219 490.867 757.828C512.448 751.438 556.337 697.122 569.118 677.951C573.007 672.29 576.455 666.337 579.429 660.146C542.831 653.872 505.245 649.195 505.245 649.195Z" fill="white" stroke="#263238" stroke-width="1.09196" stroke-linecap="round" stroke-linejoin="round"/>
<path d="M475.676 608.472C475.676 608.472 471.406 707.52 472.19 720.301C472.974 733.081 490.867 746.646 503.647 737.06C516.428 727.475 554.856 669.876 558.835 659.478C562.815 649.079 567.549 602.082 567.549 602.082C567.549 602.082 533.216 622.85 510.066 620.439C486.916 618.029 475.676 608.472 475.676 608.472Z" fill="white" stroke="#263238" stroke-width="1.09196" stroke-linecap="round" stroke-linejoin="round"/>
<path d="M260.036 875.234C248.069 890.396 235.288 909.567 239.268 923.945C243.247 938.323 262.505 944.713 304.767 943.9C347.029 943.086 464.522 946.31 466.904 947.095C469.286 947.879 553.142 955.808 556.338 955.808C559.533 955.808 577.106 948.605 581.898 942.215C586.691 935.825 590.612 911.077 590.612 911.077C590.612 911.077 602.579 899.11 603.393 889.525C603.516 886.598 602.924 883.685 601.669 881.039C600.414 878.392 598.533 876.09 596.189 874.334C596.007 869.202 595.208 864.111 593.807 859.171C591.396 850.457 573.823 854.379 564.238 852.781C554.653 851.184 540.304 847.988 534.698 853.565C529.092 859.142 482.792 899.11 482.792 899.11C482.792 899.11 410.902 893.504 365.387 876.744C319.871 859.985 294.31 856.76 275.924 874.334" fill="white"/>
<path d="M260.036 875.234C248.069 890.396 235.288 909.567 239.268 923.945C243.247 938.323 262.505 944.713 304.767 943.9C347.029 943.086 464.522 946.31 466.904 947.095C469.286 947.879 553.142 955.808 556.338 955.808C559.533 955.808 577.106 948.605 581.898 942.215C586.691 935.825 590.612 911.077 590.612 911.077C590.612 911.077 602.579 899.11 603.393 889.525C603.516 886.598 602.924 883.685 601.669 881.039C600.414 878.392 598.533 876.09 596.189 874.334C596.007 869.202 595.208 864.111 593.807 859.171C591.396 850.457 573.823 854.379 564.238 852.781C554.653 851.184 540.304 847.988 534.698 853.565C529.092 859.142 482.792 899.11 482.792 899.11C482.792 899.11 410.902 893.504 365.387 876.744C319.871 859.985 294.31 856.76 275.924 874.334" stroke="#263238" stroke-width="1.09196" stroke-linecap="round" stroke-linejoin="round"/>
<path d="M596.276 874.42L553.955 864.835" stroke="#263238" stroke-width="1.09196" stroke-linecap="round" stroke-linejoin="round"/>
<path d="M443.144 472.361C443.144 472.361 419.907 458.825 416.073 472.361C412.238 485.897 443.144 472.361 443.144 472.361Z" fill="white" stroke="#263238" stroke-width="1.09196" stroke-linecap="round" stroke-linejoin="round"/>
<path d="M440.239 483.979C440.239 483.979 419.907 499.432 431.525 500.42C443.144 501.407 440.239 483.979 440.239 483.979Z" fill="white" stroke="#263238" stroke-width="1.09196" stroke-linecap="round" stroke-linejoin="round"/>
<path d="M568.043 407.442C568.043 407.442 469.983 439.655 468.588 448.107C467.194 456.56 440.588 520.956 446.194 565.774C451.8 610.593 486.394 629.066 517.212 631.68C554.74 634.875 594.679 584.567 594.679 584.567C594.679 584.567 615.418 576.579 626.63 571.002C637.842 565.426 639.236 549.973 639.236 549.973C639.236 549.973 611.467 529.35 587.649 488.743C573.352 464.124 566.539 435.872 568.043 407.442Z" fill="white" stroke="#263238" stroke-width="1.09196" stroke-linecap="round" stroke-linejoin="round"/>
<path d="M519.012 466.261C519.585 476.09 517.143 485.859 512.012 494.262C507.064 501.732 499.62 507.199 491.012 509.686C491.012 509.686 492.406 525.08 503.618 525.08" stroke="#263238" stroke-width="1.09196" stroke-linecap="round" stroke-linejoin="round"/>
<path d="M476.489 484.56C476.489 484.56 487.672 473.377 503.648 486.942" stroke="#263238" stroke-width="2.18392" stroke-linecap="round" stroke-linejoin="round"/>
<path d="M541.175 497.457C541.175 497.457 563.541 495.046 569.117 510.237" stroke="#263238" stroke-width="2.18392" stroke-linecap="round" stroke-linejoin="round"/>
<path d="M510.037 544.57C510.037 544.57 492.464 538.18 478.086 547.765C463.708 557.35 460.513 572.542 468.501 577.334C476.489 582.127 490.053 562.143 499.639 574.139C509.224 586.135 525.199 605.277 531.59 586.891C537.98 568.504 522.817 547.765 510.037 544.57Z" fill="#263238" stroke="#263238" stroke-width="1.09196" stroke-linecap="round" stroke-linejoin="round"/>
<path d="M501.759 576.753C511.431 588.633 525.664 603.97 531.589 586.891C532.191 585.13 532.601 583.308 532.809 581.459C522.846 580.413 512.041 578.758 501.759 576.753Z" fill="white" stroke="#263238" stroke-width="1.09196" stroke-linecap="round" stroke-linejoin="round"/>
<path d="M524.415 554.882C520.811 550.033 515.785 546.429 510.037 544.57C510.037 544.57 493.916 538.761 479.916 546.691C494.517 550.557 509.394 553.295 524.415 554.882Z" fill="white" stroke="#263238" stroke-width="1.09196" stroke-linecap="round" stroke-linejoin="round"/>
<path d="M464.261 568.04C464.023 569.831 464.294 571.653 465.044 573.297C465.794 574.941 466.992 576.34 468.501 577.334C472.568 579.745 478.058 575.795 483.751 572.89C475.821 571.06 468.995 569.289 464.261 568.04Z" fill="white" stroke="#263238" stroke-width="1.09196" stroke-linecap="round" stroke-linejoin="round"/>
<path d="M515.672 459.029C515.672 459.029 514.772 453.539 502.921 453.539C491.07 453.539 471.899 468.062 471.899 468.062" stroke="#263238" stroke-width="1.09196" stroke-linecap="round" stroke-linejoin="round"/>
<path d="M542.162 464.489C542.162 464.489 551.283 455.368 560.403 466.319C566.349 473.826 571.236 482.114 574.926 490.95" stroke="#263238" stroke-width="1.09196" stroke-linecap="round" stroke-linejoin="round"/>
<path d="M597.089 509.424C535.772 470.792 568.043 407.442 568.043 407.442C568.043 407.442 507.045 459.726 468.588 448.107" stroke="#263238" stroke-width="1.09196" stroke-linecap="round" stroke-linejoin="round"/>
<path d="M582.711 550.96C582.711 550.96 573.997 561.359 573.997 566.936C573.997 572.513 591.57 595.692 598.774 586.106C605.977 576.521 596.363 569.347 593.168 559.761C589.973 550.176 582.711 550.96 582.711 550.96Z" fill="white" stroke="#263238" stroke-width="1.09196" stroke-linecap="round" stroke-linejoin="round"/>
<path d="M698.519 547.765C698.519 547.765 643.331 521.42 625.032 511.835C606.733 502.249 597.09 509.424 597.09 509.424C597.09 509.424 564.325 537.395 565.923 542.188C567.52 546.981 585.907 562.143 585.907 562.143C585.907 562.143 597.09 578.118 610.654 582.127C624.219 586.135 644.203 591.683 648.211 585.293C652.22 578.903 648.211 569.346 648.211 569.346C648.211 569.346 659.365 578.932 666.568 580.529C673.772 582.127 688.934 580.529 688.934 580.529C688.934 580.529 719.288 776.186 719.288 805.726C719.288 835.266 732.068 866.433 754.434 873.636C776.799 880.84 802.331 864.051 807.124 840.088C811.916 816.124 809.535 789.779 795.157 760.21C780.779 730.641 727.275 594.936 716.877 575.737C706.478 556.537 704.91 552.558 698.519 547.765Z" fill="white" stroke="#263238" stroke-width="1.09196" stroke-linecap="round" stroke-linejoin="round"/>
<path d="M617.857 584.509C617.857 584.509 628.227 556.566 632.235 550.176" stroke="#263238" stroke-width="1.09196" stroke-linecap="round" stroke-linejoin="round"/>
<path d="M600.284 575.737C600.284 575.737 613.849 539.748 618.525 533.387" stroke="#263238" stroke-width="1.09196" stroke-linecap="round" stroke-linejoin="round"/>
<path d="M585.906 562.143C585.906 562.143 596.276 534.201 601.882 524.615" stroke="#263238" stroke-width="1.09196" stroke-linecap="round" stroke-linejoin="round"/>
<path d="M304.273 328.669L276.505 319.403L298.115 257.709H271.973L281.936 217.886C271.811 203.169 256.4 192.923 238.911 189.282C221.422 185.642 203.203 188.886 188.045 198.339C172.888 207.793 161.96 222.728 157.537 240.036C153.114 257.343 155.536 275.69 164.299 291.257C188.088 341.304 252.512 395.33 277.579 415.111L304.273 328.669Z" fill="#263238"/>
<path d="M350.573 187.649C332.903 187.64 315.9 194.396 303.053 206.529L291.929 242.285L322.805 240.745L293.497 310.282L324.344 317.98L296.111 416.476C319.755 397.886 386.562 342.495 410.903 291.257C416.877 280.698 419.981 268.758 419.903 256.626C419.825 244.494 416.57 232.594 410.461 222.112C404.351 211.631 395.602 202.933 385.084 196.886C374.566 190.839 362.647 187.654 350.515 187.649H350.573Z" fill="#263238"/>
</svg>
