<svg width="1253" height="1228" viewBox="0 0 1253 1228" fill="none" xmlns="http://www.w3.org/2000/svg">
<path d="M36.416 1187.34H1181.14" stroke="#263238" stroke-linecap="round" stroke-linejoin="round"/>
<path d="M931.554 1187.34L931.554 204.997L525.336 204.997V1187.34H931.554Z" stroke="#263238" stroke-miterlimit="10"/>
<path d="M1147.72 156.709L931.554 205.624H989.87V1185.66" stroke="#263238" stroke-miterlimit="10"/>
<path d="M989.869 205.624L1147.52 173.346" stroke="#263238" stroke-miterlimit="10"/>
<path d="M702.278 601.386V245.109H562.799V601.386H702.278Z" stroke="#263238" stroke-miterlimit="10"/>
<path d="M702.278 245.109H688.034V601.386H702.278V245.109Z" stroke="#263238" stroke-miterlimit="10"/>
<path d="M373.207 1187.34V350.003L473.857 328.01V1187.34H373.207Z" stroke="#263238" stroke-miterlimit="10"/>
<path d="M373.094 1187.34V350.032L470.638 328.694V1187.34H373.094Z" stroke="#263238" stroke-miterlimit="10"/>
<path d="M381.896 697.421V381.426L414.972 374.503V693.233L381.896 697.421Z" stroke="#263238" stroke-miterlimit="10"/>
<path d="M381.896 381.426V697.421L385.23 696.994V380.743L381.896 381.426Z" stroke="#263238" stroke-miterlimit="10"/>
<path d="M201.764 1187.34V387.494L270.478 372.481V1187.34H201.764Z" stroke="#263238" stroke-miterlimit="10"/>
<path d="M201.678 1187.34V387.523L268.284 372.965V1187.34H201.678Z" stroke="#263238" stroke-miterlimit="10"/>
<path d="M207.718 719.585V417.92L230.395 413.163V716.708L207.718 719.585Z" stroke="#263238" stroke-miterlimit="10"/>
<path d="M207.718 417.92V719.585L210.025 719.3V417.436L207.718 417.92Z" stroke="#263238" stroke-miterlimit="10"/>
<path d="M525.507 251.319L116.583 347.269" stroke="#263238" stroke-miterlimit="10"/>
<path d="M1188.35 95.772L719.285 205.852" stroke="#263238" stroke-miterlimit="10"/>
<path d="M185.554 272.116L1017.42 32.8125" stroke="#263238" stroke-miterlimit="10"/>
<path d="M527.416 61.3008H1179.8" stroke="#263238" stroke-miterlimit="10"/>
<path d="M285.919 143.917H974.685" stroke="#263238" stroke-miterlimit="10"/>
<path d="M162.763 223.686H527.415" stroke="#263238" stroke-miterlimit="10"/>
<path d="M392.295 281.204H249.511" stroke="#263238" stroke-miterlimit="10"/>
<path d="M893.094 722.234L893.863 783.798C893.863 783.798 900.216 918.719 907.053 968.118C913.89 1017.52 937.65 1172.75 937.65 1172.75L973.346 1173.49C968.674 978.887 975.426 980.568 979.927 946.097C982.206 928.605 985.624 818.554 985.624 818.554L992.462 820.064C992.462 820.064 1022.55 980.226 1027.13 988.687C1031.72 997.148 1074.48 1176.43 1074.48 1176.43L1102.14 1159.85C1102.14 1159.85 1092.8 991.764 1093.4 977.519C1093.99 963.275 1075.31 854.364 1076.82 823.197C1078.33 792.031 1063.91 714.514 1063.91 714.514C1063.91 714.514 954.743 757.189 893.094 722.234Z" fill="#7A7A7A" stroke="#263238" stroke-linecap="round" stroke-linejoin="round"/>
<path d="M1051 968.175L1099.92 1081.76" stroke="#263238" stroke-linecap="round" stroke-linejoin="round"/>
<path d="M1062.03 1026.55L1099.92 1114.89" stroke="#263238" stroke-linecap="round" stroke-linejoin="round"/>
<path d="M985.823 818.554L953.062 807.557" stroke="#263238" stroke-linecap="round" stroke-linejoin="round"/>
<path d="M1058.84 750.608L1004.94 784.168L1046.62 769.952" stroke="#263238" stroke-linecap="round" stroke-linejoin="round"/>
<path d="M903.235 760.779L932.721 770.949L912.38 771.975" stroke="#263238" stroke-linecap="round" stroke-linejoin="round"/>
<path d="M972.377 1159.48C972.377 1159.48 956.11 1110.65 954.087 1085.23" stroke="#263238" stroke-linecap="round" stroke-linejoin="round"/>
<path d="M962.206 755.708L968.331 771.975C968.331 771.975 963.232 783.171 963.232 787.216C963.232 791.262 971.379 796.39 971.379 796.39" stroke="#263238" stroke-linecap="round" stroke-linejoin="round"/>
<path d="M975.425 756.705C977.396 763.348 978.76 770.156 979.499 777.046C979.499 783.171 972.377 811.631 972.377 811.631" stroke="#263238" stroke-linecap="round" stroke-linejoin="round"/>
<path d="M933.377 482.931C933.377 482.931 839.137 530.051 836.858 534.609C834.578 539.167 844.464 670.955 844.464 670.955L835.348 792.544L852.184 796.304L890.929 700.554C891.916 706.974 891.916 713.507 890.929 719.926C889.419 732.091 905.372 744.996 919.047 748.814C932.721 752.631 984.428 752.603 1013.29 747.275C1042.15 741.948 1070.26 727.533 1070.26 721.436C1070.26 715.34 1049.75 630.273 1049.75 630.273C1049.75 630.273 1037.59 482.845 1033.8 477.518C1030.01 472.191 960.754 478.287 933.377 482.931Z" fill="white" stroke="#263238" stroke-linecap="round" stroke-linejoin="round"/>
<path d="M887.795 684.629L852.44 556.944" stroke="#263238" stroke-linecap="round" stroke-linejoin="round"/>
<path d="M910.585 661.81C910.585 661.81 993.8 620.787 984.655 634.461C975.51 648.136 957.306 653.833 957.306 653.833" stroke="#263238" stroke-linecap="round" stroke-linejoin="round"/>
<path d="M895.886 501.876C898.934 507.83 904.005 518.969 904.005 526.604C904.005 537.515 909.845 571.815 939.274 559.821C968.702 547.828 955.826 515.151 953.518 500.993C952.43 494.123 950.984 487.314 949.188 480.595C943.091 481.364 937.792 482.133 933.263 482.845C933.377 482.931 915.942 491.477 895.886 501.876Z" fill="#263238" stroke="#263238" stroke-linecap="round" stroke-linejoin="round"/>
<path d="M1031.41 477.233C1033.52 477.315 1035.6 477.869 1037.48 478.854C1039.35 479.84 1040.99 481.233 1042.26 482.931C1046.25 488.628 1071.69 552.101 1085.39 572.612C1099.09 593.124 1107.61 624.49 1094.51 636.455C1081.4 648.42 1079.29 650.5 1070.18 645.942C1061.06 641.384 1039.98 591.187 1039.98 591.187C1039.98 591.187 1033.71 505.123 1032.57 498.856" fill="white"/>
<path d="M1031.41 477.233C1033.52 477.315 1035.6 477.869 1037.48 478.854C1039.35 479.84 1040.99 481.233 1042.26 482.931C1046.25 488.628 1071.69 552.101 1085.39 572.612C1099.09 593.124 1107.61 624.49 1094.51 636.455C1081.4 648.42 1079.29 650.5 1070.18 645.942C1061.06 641.384 1039.98 591.187 1039.98 591.187C1039.98 591.187 1033.71 505.123 1032.57 498.856" stroke="#263238" stroke-linecap="round" stroke-linejoin="round"/>
<path d="M900.329 495.95C900.329 495.95 910.585 511.334 911.155 524.438C911.725 537.543 925.969 550.648 936.794 538.113C947.62 525.578 941.353 495.921 941.353 484.526C941.353 473.13 936.225 453.188 936.225 453.188C936.225 453.188 929.387 479.968 919.701 486.235C913.601 490.141 907.108 493.397 900.329 495.95Z" fill="#B2B2B2" stroke="#263238" stroke-linecap="round" stroke-linejoin="round"/>
<path d="M946.196 430.54C950.131 416.277 949.923 401.188 945.598 387.038C938.362 363.478 906.34 355.046 886.399 358.066C866.457 361.085 850.161 384.019 849.563 395.499C848.965 406.98 855.004 429.315 858.109 434.158C861.215 439.001 867.767 449.257 867.767 441.394C867.767 433.532 865.972 411.197 865.972 411.197H902.21C902.21 411.197 903.15 420.142 919.103 427.521C935.057 434.899 934.8 438.916 933.604 440.796C932.407 442.676 939.045 440.796 942.15 438.375C944.197 436.187 945.597 433.475 946.196 430.54Z" fill="#263238" stroke="#263238" stroke-linecap="round" stroke-linejoin="round"/>
<path d="M858.223 399.943C858.223 399.943 860.103 429.885 858.223 442.99C856.343 456.094 863.209 468.629 866.342 475.438C869.476 482.247 884.433 501.078 897.537 507.26C910.642 513.442 921.866 501.562 926.225 496.633C929.558 492.816 935.114 480.253 937.621 474.555C938.408 472.694 938.852 470.706 938.931 468.686L939.444 456.721C939.444 456.721 951.181 448.744 951.893 437.349C952.606 425.953 943.774 424.244 940.042 428.631C938.262 430.614 936.598 432.697 935.057 434.87C935.057 434.87 936.282 421.139 932.55 418.632C928.818 416.125 918.305 417.378 915.086 409.288C913.264 404.708 912.002 399.926 911.326 395.043C911.326 395.043 880.672 409.943 858.223 399.943Z" fill="#B2B2B2" stroke="#263238" stroke-linecap="round" stroke-linejoin="round"/>
<path d="M883.18 449.229L882.353 453.075C882.132 454.384 882.268 455.728 882.746 456.966C883.225 458.204 884.029 459.29 885.073 460.11C886.117 460.929 887.363 461.452 888.679 461.623C889.995 461.794 891.334 461.606 892.552 461.08C896.911 458.602 901.896 454.841 898.791 451.109" stroke="#263238" stroke-linecap="round" stroke-linejoin="round"/>
<path d="M890.045 472.304C895.469 471.831 900.727 470.193 905.461 467.504C910.196 464.815 914.295 461.137 917.479 456.721" stroke="#263238" stroke-linecap="round" stroke-linejoin="round"/>
<path d="M896.626 471.222C896.626 471.222 905.173 482.048 910.87 477.062C916.568 472.077 914.032 461.735 914.032 461.735C909.067 466.236 903.1 469.488 896.626 471.222Z" fill="#263238" stroke="#263238" stroke-linecap="round" stroke-linejoin="round"/>
<path d="M873.152 448.118C874.568 448.118 875.716 445.988 875.716 443.36C875.716 440.733 874.568 438.603 873.152 438.603C871.736 438.603 870.588 440.733 870.588 443.36C870.588 445.988 871.736 448.118 873.152 448.118Z" fill="#263238"/>
<path d="M902.836 444.243C904.252 444.243 905.4 442.113 905.4 439.486C905.4 436.858 904.252 434.728 902.836 434.728C901.42 434.728 900.272 436.858 900.272 439.486C900.272 442.113 901.42 444.243 902.836 444.243Z" fill="#263238"/>
<path d="M893.464 431.082C893.464 431.082 901.498 422.336 911.953 422.535" stroke="#263238" stroke-linecap="round" stroke-linejoin="round"/>
<path d="M863.579 428.404C863.579 428.404 872.354 425.982 877.823 432.05" stroke="#263238" stroke-linecap="round" stroke-linejoin="round"/>
<path d="M1000.32 509.453C1000.32 509.453 991.208 476.777 987.39 467.661C983.573 458.544 956.993 453.217 954.714 453.217C952.435 453.217 945.597 451.679 946.367 455.496C947.136 459.314 949.386 462.333 953.204 467.661C956.651 472.022 960.463 476.082 964.599 479.797C967.807 488.17 971.615 496.301 975.995 504.126C980.553 510.963 984.37 517.06 984.37 517.06L1000.32 509.453Z" fill="#B2B2B2" stroke="#263238" stroke-linecap="round" stroke-linejoin="round"/>
<path d="M952.35 465.838C952.35 465.838 953.717 462.505 956.224 464.727C958.731 466.949 970.953 473.9 973.46 476.948C974.83 478.527 975.954 480.304 976.793 482.219" stroke="#263238" stroke-linecap="round" stroke-linejoin="round"/>
<path d="M948.446 458.715C949.61 457.97 950.967 457.583 952.349 457.604C954.002 457.889 969.442 467.063 973.459 469C975.686 470.072 977.672 471.584 979.299 473.444" stroke="#263238" stroke-linecap="round" stroke-linejoin="round"/>
<path d="M949.843 453.73C949.843 453.73 972.349 461.792 974.856 463.16C976.589 464.262 978.097 465.683 979.3 467.347" stroke="#263238" stroke-linecap="round" stroke-linejoin="round"/>
<path d="M1000.32 509.454C1000.32 509.454 1069.66 587.712 1078.21 592.298C1086.76 596.885 1098.15 609.961 1097.58 620.787C1097.01 631.612 1096.44 645.287 1079.92 646.996C1063.4 648.705 1050.29 623.066 1036.62 603.124C1022.94 583.182 984.313 517.117 984.313 517.117L1000.32 509.454Z" fill="white" stroke="#263238" stroke-linecap="round" stroke-linejoin="round"/>
<path d="M835.347 792.543C835.347 792.543 826.801 817.328 822.584 825.334C818.368 833.339 823.667 847.184 823.667 850.973C823.667 854.762 832.726 861.115 835.404 862.198C838.082 863.28 848.196 861.657 848.196 861.657C848.196 861.657 851.928 854.705 847.141 854.705H839.677C837 854.705 836.458 840.86 836.458 840.86L841.273 833.368C841.273 833.368 838.595 848.324 842.327 848.837C843.253 848.877 844.177 848.724 845.042 848.39C845.906 848.055 846.692 847.546 847.35 846.893C848.009 846.24 848.525 845.459 848.866 844.597C849.208 843.735 849.367 842.812 849.335 841.886V829.066C849.335 824.792 852.526 817.841 853.067 809.865C853.436 805.325 853.138 800.757 852.184 796.304L835.347 792.543Z" fill="#B2B2B2" stroke="#263238" stroke-linecap="round" stroke-linejoin="round"/>
<path d="M1068.9 1182.81C1068.9 1182.81 1066.87 1172.78 1076.93 1160.22C1086.99 1147.65 1101.54 1152.67 1108.07 1158.19C1114.59 1163.72 1116.13 1171.75 1123.17 1176.28C1127.48 1179.11 1131.08 1182.9 1133.71 1187.34H1068.38L1068.9 1182.81Z" fill="white" stroke="#263238" stroke-linecap="round" stroke-linejoin="round"/>
<path d="M976.594 1182.81C976.594 1182.81 978.616 1172.78 968.56 1160.22C958.503 1147.65 943.946 1152.67 937.393 1158.19C930.841 1163.72 929.36 1171.75 922.323 1176.28C918.01 1179.11 914.404 1182.9 911.782 1187.34H977.106L976.594 1182.81Z" fill="white" stroke="#263238" stroke-linecap="round" stroke-linejoin="round"/>
<path d="M589.662 1117.03C587.291 1126.47 583.77 1135.59 579.178 1144.18C572.398 1155.89 563.139 1172.52 563.139 1178.71C563.235 1181.57 563.024 1184.43 562.513 1187.25H606.926C609.477 1181.09 611.386 1174.69 612.624 1168.14C614.476 1157.65 611.997 1162.58 617.552 1145.35C620.776 1134.06 620.776 1122.1 617.552 1110.82C617.552 1110.82 601.485 1119.51 589.662 1117.03Z" fill="white" stroke="#263238" stroke-linecap="round" stroke-linejoin="round"/>
<path d="M730.51 726.821C741.349 727.133 752.053 724.346 761.363 718.787C776.775 709.557 778.997 660.015 784.553 631.641C790.108 603.266 784.553 587.854 772.217 553.297C759.882 518.741 722.875 462.134 706.836 460.795C690.797 459.456 680.94 481.136 674.758 528.626C668.576 576.117 675.014 667.593 686.153 691.666C697.292 715.739 718.801 726.194 730.51 726.821Z" fill="#545454" stroke="#263238" stroke-linecap="round" stroke-linejoin="round"/>
<path d="M517.131 687.336C513.482 703.545 511.412 720.07 510.949 736.678C510.949 759.469 506.647 784.795 509.097 807.614C511.547 830.434 525.506 894.39 532.913 921.568C540.321 948.746 542.172 964.13 542.172 970.91C542.172 977.691 550.719 1025.81 558.211 1044.98C565.704 1064.15 587.811 1110.36 588.409 1112.21C589.007 1114.07 587.184 1120.22 596.956 1120.76C606.727 1121.3 616.67 1115.2 617.296 1107.8C617.923 1100.39 616.071 969.657 616.071 960.398C616.071 951.139 626.897 847.584 626.897 847.584C626.897 847.584 627.267 911.54 625.416 938.747C623.564 965.953 622.339 1046.69 624.191 1075.06C626.042 1103.44 623.592 1171.93 623.592 1171.93L659.345 1173.15C659.345 1173.15 664.901 1116.4 672.906 1096.69C680.911 1076.97 693.902 1018.34 701.395 987.519C708.887 956.695 708.802 943.732 708.175 941.938C707.548 940.143 732.703 868.323 734.555 804.167C735.745 767.111 734.851 730.018 731.877 693.062C731.877 693.062 681.282 706.623 613.451 699.842C545.619 693.062 517.843 680.727 517.843 680.727L517.131 687.336Z" fill="#263238" stroke="#263238" stroke-linecap="round" stroke-linejoin="round"/>
<path d="M583.566 417.806C583.566 417.806 529.438 450.254 507.245 461.65C485.053 473.045 512.06 570.988 512.06 581.301C512.06 591.614 511.804 681.951 513.598 688.56C515.393 695.17 525.62 707.192 554.451 719.898C583.281 732.604 660.2 732.49 687.834 723.487C715.468 714.485 730.567 708.474 735.296 695.255C740.025 682.037 734.356 599.733 730.139 576.943C725.923 554.152 727.746 488.628 728.943 471.82C730.139 455.012 730.738 450.796 714.528 439.372C698.318 427.948 655.642 415.954 646.64 414.729C637.637 413.504 615.388 406.382 583.566 417.806Z" fill="white"/>
<mask id="mask0_1270_177230" style="mask-type:luminance" maskUnits="userSpaceOnUse" x="498" y="411" width="240" height="319">
<path d="M583.566 417.806C583.566 417.806 529.438 450.254 507.245 461.65C485.053 473.045 512.06 570.988 512.06 581.301C512.06 591.614 511.804 681.951 513.598 688.56C515.393 695.17 525.62 707.192 554.451 719.898C583.281 732.604 660.2 732.49 687.834 723.487C715.468 714.485 730.567 708.474 735.296 695.255C740.025 682.037 734.356 599.733 730.139 576.943C725.923 554.152 727.746 488.628 728.943 471.82C730.139 455.012 730.738 450.796 714.528 439.372C698.318 427.948 655.642 415.954 646.64 414.729C637.637 413.504 615.388 406.382 583.566 417.806Z" fill="white"/>
</mask>
<g mask="url(#mask0_1270_177230)">
<path d="M629.547 482.503H596.215M629.547 482.503V449.172M629.547 482.503H630.401M596.215 482.503V449.172M596.215 482.503H663.733M596.215 482.503V483.358M596.215 449.172H629.547M596.215 449.172V448.317M596.215 449.172H663.733M629.547 449.172H630.401M545.221 654.289H527.843V687.621H561.174M545.221 654.289H561.174M545.221 654.289V653.434H561.174M545.221 654.289H595.36M561.174 687.621V654.289M561.174 687.621H562.029M561.174 654.289H562.029M544.508 653.434H561.174M544.508 653.434H527.843V620.103H561.174M544.508 653.434H545.078V654.289H544.366M544.508 653.434L544.366 654.289M561.174 653.434V620.103M561.174 653.434H562.029M561.174 653.434H595.36M561.174 620.103H562.029M629.547 585.917H596.215M629.547 585.917V619.248M629.547 585.917H630.401M596.215 585.917V619.248H629.547M596.215 585.917V585.062M596.215 585.917H663.733M629.547 619.248H630.401M629.547 483.358H596.215M629.547 483.358V516.69M629.547 483.358H630.401M596.215 483.358V516.69M596.215 483.358H630.401M596.215 516.69H629.547M596.215 516.69H663.733M596.215 516.69V517.544M629.547 516.69H630.401M629.547 534.922V517.544M629.547 534.922V550.876M629.547 534.922H630.401V550.876M629.547 517.544H596.215M629.547 517.544H630.401M629.547 517.544V533.498V534.21H630.401V517.544M596.215 517.544V550.876H629.547M596.215 517.544H630.401M629.547 550.876H630.401M629.547 551.73H596.215V585.062M629.547 551.73V585.062M629.547 551.73H630.401M596.215 585.062H629.547M629.547 585.062H630.401M629.547 585.062H663.733M544.508 619.248H561.174M544.508 619.248H527.843V585.917H561.174M544.508 619.248H545.078M544.508 619.248L544.366 620.103M561.174 619.248V585.917M561.174 619.248H562.029M561.174 585.917H562.029M595.36 517.544V533.498V550.876H562.029M595.36 517.544H562.029M595.36 517.544H545.221M595.36 517.544V516.69M562.029 517.544V550.876M562.029 517.544V534.21H561.174V533.498V517.544M562.029 517.544H561.174M562.029 550.876H561.174M562.029 550.876V534.922H561.174V550.876M663.733 482.503V449.172M663.733 482.503H630.401M663.733 482.503V483.358M663.733 482.503V534.21H664.587V419.173L663.733 418.917V482.503ZM663.733 449.172H630.401M663.733 449.172V448.317H596.215M630.401 449.172V482.503M697.919 620.103H664.587M697.919 620.103V653.434M697.919 620.103H698.774M664.587 620.103V653.434M664.587 620.103V619.248M664.587 620.103H732.105M664.587 653.434H697.919M664.587 653.434H732.105M664.587 653.434V654.289M697.919 653.434H698.774M562.029 585.062H595.36M562.029 585.062V551.73M562.029 585.062H561.174M595.36 585.062V551.73H562.029M595.36 585.062V585.917M595.36 585.062H561.174M562.029 551.73H561.174M562.029 619.248H595.36V585.917M562.029 619.248V585.917M595.36 585.917H562.029M595.36 585.917H545.221V585.062H561.174M562.029 721.807H595.36V688.475M562.029 721.807V688.475M562.029 721.807H561.174V688.475H562.029M562.029 721.807H560.035L562.883 722.661H595.389V721.807H562.029ZM595.36 688.475H562.029M595.36 688.475V687.621M595.36 688.475H545.221V687.621H595.36M630.401 516.69H663.733M630.401 516.69V483.358M663.733 516.69V483.358M663.733 516.69V517.544M663.733 483.358H630.401M562.029 449.172V482.503M562.029 449.172H595.36M562.029 449.172H561.174V482.503H562.029M562.029 482.503H595.36M595.36 482.503V449.172M595.36 482.503V483.358M595.36 482.503H545.221M595.36 482.503V534.21H596.215V414.131M595.36 482.503V482.532V414.302L596.215 414.131M595.36 449.172V448.317H545.221M595.36 449.172H545.221M562.029 687.621H595.36M562.029 687.621V654.289M595.36 687.621V654.289M595.36 654.289H562.029M595.36 654.289V653.434M629.547 414.986H596.215M629.547 414.986V448.317M629.547 414.986H630.401V448.317H629.547M629.547 414.986H647.808L646.64 414.786C645.529 414.644 644.218 414.416 642.737 414.131H596.215M596.215 414.986V448.317M596.215 414.986V414.131M596.215 448.317H629.547M562.029 653.434H595.36M562.029 653.434V620.103M595.36 653.434V620.103H562.029M697.919 483.358H664.587M697.919 483.358V516.69M697.919 483.358H698.774V516.69H697.919M664.587 483.358V516.69M664.587 483.358V482.503M664.587 483.358H728.345C728.345 483.073 728.345 482.788 728.345 482.503H664.587M664.587 516.69H697.919M664.587 516.69V517.544M664.587 516.69H727.547V517.544H664.587M697.919 534.922V517.544M697.919 534.922V550.876M697.919 534.922H698.774V550.876H697.919M697.919 517.544H664.587M697.919 517.544H698.774V534.21H697.919V533.498V517.544ZM664.587 517.544V550.876M664.587 550.876H697.919M664.587 550.876H727.803C727.803 551.161 727.803 551.445 727.803 551.73H664.445V550.876H664.587ZM697.919 449.172H664.587M697.919 449.172V482.503M697.919 449.172H698.774V482.503H697.919M697.919 449.172H725.695C725.485 448.873 725.257 448.588 725.011 448.317H664.587V449.172M664.587 449.172V482.503M664.587 482.503H697.919M663.733 517.544V533.498V550.876H630.401M663.733 517.544H630.401M630.401 517.544V550.876M697.919 551.73H664.587V585.062M697.919 551.73V585.062M697.919 551.73H698.774V585.062H697.919M664.587 585.062H697.919M664.587 585.062V585.917M664.587 585.062H731.478V585.917H664.587M629.547 620.103H596.215V653.434M629.547 620.103V653.434M629.547 620.103H630.401M596.215 653.434H629.547M596.215 653.434V654.289M629.547 653.434H630.401M629.547 653.434H663.733M732.105 653.434V620.103M732.105 653.434H698.774M732.105 653.434V654.289M732.105 620.103H698.774M732.105 620.103V619.248H664.587M698.774 620.103V653.434M595.36 516.69V483.358M595.36 516.69H562.029M595.36 516.69H561.174M595.36 483.358H562.029M595.36 483.358H561.174M562.029 483.358V516.69M562.029 483.358H561.174M562.029 516.69H561.174M697.919 585.917H664.587M697.919 585.917V619.248M697.919 585.917H698.774V619.248H697.919M664.587 585.917V619.248M664.587 619.248H697.919M698.774 687.621H732.105M698.774 687.621V654.289M698.774 687.621H697.919M698.774 687.621H664.587M732.105 687.621V654.289M732.105 687.621V688.475H664.587V687.621M732.105 654.289H698.774M698.774 654.289H697.919M698.774 654.289H664.587M544.508 516.69H561.174M544.508 516.69H527.843V483.358M544.508 516.69V517.544M544.508 516.69H545.221M561.174 516.69V483.358M561.174 516.69H545.221M561.174 483.358H527.843M561.174 483.358H545.221M527.843 483.358V482.503H544.508M527.843 483.358H543.654H544.508M697.919 654.289H664.587M697.919 654.289V687.621M664.587 654.289V687.621M664.587 687.621H697.919M544.508 585.062H561.174M544.508 585.062H527.843V551.73H561.174M544.508 585.062H545.078V585.917H544.366M544.508 585.062L544.366 585.917M561.174 585.062V551.73M630.401 721.807H663.733M630.401 721.807V688.475M630.401 721.807H629.547M630.401 721.807H596.215M663.733 721.807V688.475M663.733 721.807V722.661H596.215V721.807M663.733 688.475H630.401M663.733 688.475H596.215M663.733 688.475V687.621M630.401 688.475H629.547M596.215 688.475V721.807M596.215 688.475H629.547M596.215 688.475V687.621M596.215 721.807H629.547M629.547 721.807V688.475M629.547 654.289H596.215M629.547 654.289V687.621M629.547 654.289H630.401M596.215 654.289V687.621M596.215 654.289H663.733M596.215 687.621H629.547M629.547 687.621H630.401M629.547 687.621H663.733M630.401 653.434H663.733M630.401 653.434V620.103M663.733 653.434V620.103H630.401M663.733 653.434V654.289M544.508 550.876H561.174M544.508 550.876H527.843V517.544H561.174M544.508 550.876H545.078M544.508 550.876L544.366 551.73M561.174 550.876V517.544M630.401 619.248H663.733V585.917M630.401 619.248V585.917M663.733 585.917H630.401M663.733 585.917V585.062M630.401 687.621H663.733M630.401 687.621V654.289M663.733 687.621V654.289M663.733 654.289H630.401M630.401 585.062H663.733M630.401 585.062V551.73M663.733 585.062V551.73H630.401M545.221 516.69V517.544M545.221 517.544H544.508M545.221 448.317V449.172M545.221 448.317H544.508M545.221 449.172H544.508M545.221 482.503V483.358M545.221 482.503H544.508M545.221 483.358H544.508M544.508 517.544H527.7V516.69H544.366V517.544H544.508ZM544.508 448.317V449.172M544.508 448.317H543.654H531.347L529.865 449.172H544.508M544.508 482.503V483.358M545.078 619.248H561.032H595.218V620.103H545.078M545.078 619.248V620.103M545.078 620.103H544.366M545.078 550.876H561.032H595.218V551.73H545.078M545.078 550.876V551.73M545.078 551.73H544.366M596.073 534.922V688.475V688.333V728.217H595.218V534.922M596.073 534.922H595.218M596.073 534.922V534.21H595.218V534.922M664.445 534.922V688.475V688.618V727.932H663.59V534.922M664.445 534.922H663.59M664.445 534.922V534.21H663.59V534.922M544.366 654.289V653.434H527.7V654.289M544.366 654.289H544.508H527.7M544.366 585.917V585.062H527.7V585.917H544.508H544.366ZM544.366 620.103V619.248H527.7V620.103H544.508H544.366ZM544.366 551.73V550.876H527.7V551.73H544.508H544.366ZM526.846 534.21V450.881L527.7 450.397V533.498V534.21M526.846 534.21H527.7M526.846 534.21V534.922M527.7 534.21V534.922M527.7 654.289V534.922M527.7 654.289V704.941L526.846 704.315V534.922M527.7 534.922H526.846M562.029 430.597L561.174 431.082V448.175H562.029V430.597ZM630.401 412.137H629.547V414.216H630.401V412.137ZM698.774 431.224L697.919 430.854V448.403H698.774V431.224ZM592.682 414.986H595.36V414.273C594.477 414.558 593.566 414.758 592.682 414.986ZM629.547 729.669H630.401V722.661H629.547V729.669ZM697.919 719.955L698.774 719.642V688.475H697.919V719.955ZM664.587 721.807V722.661H689.8L692.392 721.807H664.587ZM736.749 654.289C736.749 654.004 736.749 653.719 736.749 653.434H732.988V654.289H736.749ZM736.492 688.475V687.621H732.874V688.475H736.492ZM734.812 620.103C734.812 619.818 734.812 619.533 734.812 619.248H733.017V620.103H734.812ZM629.404 619.248H596.073V620.103H663.59V619.248H629.404ZM629.404 550.876H596.073V551.73H663.59V550.876H629.404ZM731.963 653.434V700.982C732.248 700.583 732.561 700.184 732.817 699.785V598.793C732.533 595.945 732.248 593.381 731.963 590.902V653.577V653.434ZM544.366 687.621V688.475H545.078V687.621H544.366ZM561.032 534.922H561.886V534.21H561.032V534.922ZM629.404 534.922H630.259V534.21H629.404V534.922ZM697.776 534.922H698.631V534.21H697.776V534.922ZM500.465 516.69C500.465 516.974 500.465 517.259 500.465 517.544H526.732V516.69H500.465ZM498.585 482.503C498.585 482.788 498.585 483.073 498.585 483.358H526.903V482.503H498.585ZM512.174 653.434V654.289H526.846V653.434H512.174ZM511.918 585.062V585.917H526.846V585.062H511.918ZM513.314 687.621C513.333 687.909 513.38 688.196 513.456 688.475H526.846V687.621H513.314ZM543.654 687.621H527.7V688.475H544.508V687.621H543.654ZM511.946 619.248V620.103H526.846V619.248H511.946ZM506.248 550.876L506.419 551.73H526.846V550.876H506.248Z" stroke="white" stroke-width="0.25" stroke-miterlimit="10"/>
</g>
<path d="M583.566 417.806C583.566 417.806 529.438 450.254 507.245 461.65C485.053 473.045 512.06 570.988 512.06 581.301C512.06 591.614 511.804 681.951 513.598 688.56C515.393 695.17 525.62 707.192 554.451 719.898C583.281 732.604 660.2 732.49 687.834 723.487C715.468 714.485 730.567 708.474 735.296 695.255C740.025 682.037 734.356 599.733 730.139 576.943C725.923 554.152 727.746 488.628 728.943 471.82C730.139 455.012 730.738 450.796 714.528 439.372C698.318 427.948 655.642 415.954 646.64 414.729C637.637 413.504 615.388 406.382 583.566 417.806Z" stroke="#263238" stroke-linecap="round" stroke-linejoin="round"/>
<path d="M549.722 596.885C549.722 596.885 645.642 571.245 655.67 568.254" stroke="#263238" stroke-linecap="round" stroke-linejoin="round"/>
<path d="M594.106 572.47L659.972 561.018" stroke="#263238" stroke-linecap="round" stroke-linejoin="round"/>
<path d="M591.372 422.621C591.372 422.621 608.18 478.487 617.211 491.705C626.242 504.924 633.421 497.089 638.834 486.891C644.247 476.692 659.858 426.21 659.858 426.21C659.858 426.21 626.812 407.579 591.372 422.621Z" fill="#263238" stroke="#263238" stroke-linecap="round" stroke-linejoin="round"/>
<path d="M602.768 434.301C602.768 434.301 613.992 471.564 620.003 480.367C626.014 489.17 630.829 483.985 634.418 477.176C638.008 470.367 648.435 436.722 648.435 436.722C648.435 436.722 626.413 424.301 602.768 434.301Z" fill="white" stroke="#263238" stroke-linecap="round" stroke-linejoin="round"/>
<path d="M567.441 385.016C567.441 385.016 567.441 396.212 571.772 403.049C573.294 405.153 575.248 406.907 577.503 408.194C579.758 409.481 582.262 410.272 584.848 410.513L580.489 380.03C580.489 380.03 568.666 371.313 567.441 385.016Z" fill="white" stroke="#263238" stroke-linecap="round" stroke-linejoin="round"/>
<path d="M663.903 414.871C668.774 409.951 672.025 403.658 673.219 396.838C675.099 385.642 676.98 376.298 673.219 371.939C669.459 367.581 665.128 373.193 664.53 381.284C663.932 389.374 663.903 414.871 663.903 414.871Z" fill="white" stroke="#263238" stroke-linecap="round" stroke-linejoin="round"/>
<path d="M573.652 387.494C575.235 398.882 577.731 410.123 581.116 421.111C586.102 436.039 604.135 453.474 617.838 460.311C631.541 467.148 644.589 454.1 652.024 444.756C659.46 435.412 664.474 416.752 666.268 406.183C668.063 395.613 666.268 378.15 669.374 367.581C672.479 357.011 661.311 334.591 644.589 323.395C627.866 312.199 589.207 322.768 580.489 339.577C571.772 356.385 573.652 387.494 573.652 387.494Z" fill="white" stroke="#263238" stroke-linecap="round" stroke-linejoin="round"/>
<path d="M591.087 409.915C591.087 409.915 595.446 418.005 611.029 411.14" stroke="#263238" stroke-linecap="round" stroke-linejoin="round"/>
<path d="M634.646 409.915C634.646 409.915 639.004 418.005 654.587 411.14" stroke="#263238" stroke-linecap="round" stroke-linejoin="round"/>
<path d="M589.207 401.824C589.207 401.824 601.656 396.838 609.747 396.838" stroke="#263238" stroke-width="2" stroke-linecap="round" stroke-linejoin="round"/>
<path d="M634.02 397.465C634.02 397.465 641.484 395.585 652.68 402.422" stroke="#263238" stroke-width="2" stroke-linecap="round" stroke-linejoin="round"/>
<path d="M615.359 424.843C615.359 424.843 612.852 431.68 621.056 433.56C629.261 435.44 631.027 429.828 632.281 426.096" stroke="#263238" stroke-linecap="round" stroke-linejoin="round"/>
<path d="M614.732 439.771H633.392" stroke="#263238" stroke-linecap="round" stroke-linejoin="round"/>
<path d="M568.667 371.826C568.667 371.826 556.844 385.529 562.456 388.634C568.068 391.739 586.102 388.634 586.102 388.634C586.102 388.634 573.025 395.471 583.623 397.978C594.221 400.485 629.661 377.523 629.661 377.523C629.661 377.523 622.823 389.346 635.358 388.719C647.893 388.093 662.109 363.08 662.109 363.08L665.214 396.696C665.214 396.696 667.721 397.323 668.975 392.964C670.228 388.605 671.453 382.366 671.453 382.366C671.453 382.366 680.797 377.409 680.797 371.797C680.797 366.185 672.08 351.855 672.08 351.855C672.08 351.855 682.022 354.334 680.171 337.611C679.503 332.671 677.537 327.996 674.475 324.062C671.412 320.129 667.362 317.077 662.736 315.219C662.736 315.219 654.645 299.664 645.928 295.932C637.21 292.2 645.928 302.769 645.928 302.769C645.928 302.769 618.55 290.32 598.637 294.052C578.723 297.784 561.915 339.634 560.661 348.18C559.408 356.727 566.359 352.539 566.359 352.539C566.359 352.539 547.072 375.558 554.536 377.438C562 379.318 568.667 371.826 568.667 371.826Z" fill="#263238" stroke="#263238" stroke-linecap="round" stroke-linejoin="round"/>
<path d="M727.974 452.534C737.102 463.884 745.295 475.955 752.474 488.629C763.87 509.055 798.74 566.146 808.967 582.356C819.194 598.566 806.545 620.217 793.327 626.2C780.108 632.182 764.496 629.219 750.594 614.206C736.692 599.192 722.96 552.329 722.96 552.329C722.96 552.329 721.764 488.629 724.157 465.809" fill="white"/>
<mask id="mask1_1270_177230" style="mask-type:luminance" maskUnits="userSpaceOnUse" x="722" y="452" width="91" height="178">
<path d="M727.974 452.534C737.102 463.884 745.295 475.955 752.474 488.629C763.87 509.055 798.74 566.146 808.967 582.356C819.194 598.566 806.545 620.217 793.327 626.2C780.108 632.182 764.496 629.219 750.594 614.206C736.692 599.192 722.96 552.329 722.96 552.329C722.96 552.329 721.764 488.629 724.157 465.809" fill="white"/>
</mask>
<g mask="url(#mask1_1270_177230)">
<path d="M800.477 585.917H767.146V619.249H800.477V585.917Z" stroke="white" stroke-width="0.25" stroke-miterlimit="10"/>
<path d="M766.291 534.21V533.498V517.544H750.337H749.625H748.913H732.959V533.498V534.21V534.922V550.876H748.913H749.625H750.337H766.291V534.922V534.21Z" stroke="white" stroke-width="0.25" stroke-miterlimit="10"/>
<path d="M767.146 513.984L766.291 512.559V516.69H767.146V513.984Z" stroke="white" stroke-width="0.25" stroke-miterlimit="10"/>
<path d="M766.291 533.498V534.21H767.146V533.498V517.544H766.291V533.498Z" stroke="white" stroke-width="0.25" stroke-miterlimit="10"/>
<path d="M766.291 517.545H769.14L768.627 516.69H750.224V517.545H766.291Z" stroke="white" stroke-width="0.25" stroke-miterlimit="10"/>
<path d="M750.337 516.69H749.625V517.545H750.337V516.69Z" stroke="white" stroke-width="0.25" stroke-miterlimit="10"/>
<path d="M767.146 534.922H766.291V550.876H767.146V534.922Z" stroke="white" stroke-width="0.25" stroke-miterlimit="10"/>
<path d="M767.146 551.73H766.291V585.062H767.146V551.73Z" stroke="white" stroke-width="0.25" stroke-miterlimit="10"/>
<path d="M767.146 585.917H766.291V619.249H767.146V585.917Z" stroke="white" stroke-width="0.25" stroke-miterlimit="10"/>
<path d="M766.291 626.057L767.146 626.427V620.103H766.291V626.057Z" stroke="white" stroke-width="0.25" stroke-miterlimit="10"/>
<path d="M800.477 585.917V585.062H767.145H766.29H750.337V585.917H766.29H767.145H800.477Z" stroke="white" stroke-width="0.25" stroke-miterlimit="10"/>
<path d="M810.648 585.917C810.648 585.632 810.391 585.347 810.249 585.062H801.332V585.917H810.648Z" stroke="white" stroke-width="0.25" stroke-miterlimit="10"/>
<path d="M767.145 619.249H755.75C756.092 619.562 756.462 619.818 756.804 620.103H800.477V619.249H767.145Z" stroke="white" stroke-width="0.25" stroke-miterlimit="10"/>
<path d="M802.586 619.249H801.332V620.103H801.731C802.016 619.818 802.301 619.676 802.586 619.249Z" stroke="white" stroke-width="0.25" stroke-miterlimit="10"/>
<path d="M789.936 551.731L789.423 550.876H750.337V551.731H789.936Z" stroke="white" stroke-width="0.25" stroke-miterlimit="10"/>
<path d="M801.332 585.917V570.333L800.478 568.938V621.356L801.332 620.502V585.917Z" stroke="white" stroke-width="0.25" stroke-miterlimit="10"/>
<path d="M750.337 585.062H749.625V585.917H750.337V585.062Z" stroke="white" stroke-width="0.25" stroke-miterlimit="10"/>
<path d="M750.337 550.876H749.625V551.731H750.337V550.876Z" stroke="white" stroke-width="0.25" stroke-miterlimit="10"/>
<path d="M767.146 534.21H766.291V534.922H767.146V534.21Z" stroke="white" stroke-width="0.25" stroke-miterlimit="10"/>
<path d="M748.913 517.545H749.625V516.69H748.913H732.959V517.545H748.913Z" stroke="white" stroke-width="0.25" stroke-miterlimit="10"/>
<path d="M722.646 516.69V517.545H732.105V516.69H722.646Z" stroke="white" stroke-width="0.25" stroke-miterlimit="10"/>
<path d="M723.131 482.503C723.131 482.788 723.131 483.073 723.131 483.358H732.133V482.503H723.131Z" stroke="white" stroke-width="0.25" stroke-miterlimit="10"/>
<path d="M748.913 483.358H749.283L748.77 482.503H732.959V483.358H748.913Z" stroke="white" stroke-width="0.25" stroke-miterlimit="10"/>
<path d="M732.959 533.498V458.972L732.104 457.833V534.21H732.959V533.498Z" stroke="white" stroke-width="0.25" stroke-miterlimit="10"/>
<path d="M748.913 585.062H734.498L734.84 585.917H749.625V585.062H748.913Z" stroke="white" stroke-width="0.25" stroke-miterlimit="10"/>
<path d="M722.903 550.876V551.731H732.077V550.876H722.903Z" stroke="white" stroke-width="0.25" stroke-miterlimit="10"/>
<path d="M748.913 550.876H732.959V551.731H748.913H749.625V550.876H748.913Z" stroke="white" stroke-width="0.25" stroke-miterlimit="10"/>
<path d="M732.959 534.922H732.104V579.08L732.959 581.245V534.922Z" stroke="white" stroke-width="0.25" stroke-miterlimit="10"/>
<path d="M732.959 534.21H732.104V534.922H732.959V534.21Z" stroke="white" stroke-width="0.25" stroke-miterlimit="10"/>
</g>
<path d="M727.974 452.534C737.102 463.884 745.295 475.955 752.474 488.629C763.87 509.055 798.74 566.146 808.967 582.356C819.194 598.566 806.545 620.217 793.327 626.2C780.108 632.182 764.496 629.219 750.594 614.206C736.692 599.192 722.96 552.329 722.96 552.329C722.96 552.329 721.764 488.629 724.157 465.809" stroke="#263238" stroke-linecap="round" stroke-linejoin="round"/>
<path d="M677.863 423.162L670.456 544.666L740.395 707.705L755.808 689.188L685.868 550.848L693.902 428.091L677.863 423.162Z" fill="#263238" stroke="#263238" stroke-linecap="round" stroke-linejoin="round"/>
<path d="M811.247 582.413C811.247 582.413 805.235 564.379 789.025 559.622C772.816 554.864 728.345 552.414 719.343 550.591C710.34 548.768 707.32 545.805 705.526 539.794C703.731 533.783 701.908 516.348 698.916 512.758C695.925 509.169 676.667 510.337 669.459 510.337C662.252 510.337 658.064 514.553 658.662 519.368C659.26 524.182 656.839 538.597 656.839 543.383C657.089 546.227 658.295 548.902 660.261 550.972C662.227 553.042 664.837 554.384 667.665 554.779C671.498 555.514 675.463 555.097 679.06 553.582C679.06 553.582 683.248 559.593 687.464 560.79C690.816 561.635 694.224 562.235 697.663 562.585C697.663 562.585 721.137 588.338 735.553 602.241C749.968 616.143 760.195 631.669 781.134 631.669C802.073 631.669 811.759 615.459 814.152 604.634C816.545 593.808 811.247 582.413 811.247 582.413Z" fill="white" stroke="#263238" stroke-linecap="round" stroke-linejoin="round"/>
<path d="M659.858 521.732H683.874" stroke="#263238" stroke-linecap="round" stroke-linejoin="round"/>
<path d="M658.662 533.156L683.874 532.558" stroke="#263238" stroke-linecap="round" stroke-linejoin="round"/>
<path d="M656.839 543.355L678.49 543.953" stroke="#263238" stroke-linecap="round" stroke-linejoin="round"/>
<path d="M789.025 559.594C772.786 554.779 728.344 552.386 719.342 550.563C716.555 550.11 713.861 549.205 711.365 547.885C711.711 553.011 710.045 558.069 706.722 561.987C705.222 563.811 703.563 565.498 701.765 567.029C709.115 575.034 724.812 591.956 735.552 602.241C749.967 616.058 760.195 631.669 781.134 631.669C802.073 631.669 811.759 615.459 814.152 604.634C816.545 593.808 811.16 582.413 811.16 582.413C811.16 582.413 805.235 564.38 789.025 559.594Z" fill="white"/>
<mask id="mask2_1270_177230" style="mask-type:luminance" maskUnits="userSpaceOnUse" x="701" y="547" width="114" height="85">
<path d="M789.025 559.594C772.786 554.779 728.344 552.386 719.342 550.563C716.555 550.11 713.861 549.205 711.365 547.885C711.711 553.011 710.045 558.069 706.722 561.987C705.222 563.811 703.563 565.498 701.765 567.029C709.115 575.034 724.812 591.956 735.552 602.241C749.967 616.058 760.195 631.669 781.134 631.669C802.073 631.669 811.759 615.459 814.152 604.634C816.545 593.808 811.16 582.413 811.16 582.413C811.16 582.413 805.235 564.38 789.025 559.594Z" fill="white"/>
</mask>
<g mask="url(#mask2_1270_177230)">
<path d="M800.477 585.917H767.146V619.249H800.477V585.917Z" stroke="white" stroke-width="0.25" stroke-miterlimit="10"/>
<path d="M766.291 628.593L767.146 628.991V620.103H766.291V628.593Z" stroke="white" stroke-width="0.25" stroke-miterlimit="10"/>
<path d="M767.146 555.69H766.291V585.176H767.146V555.69Z" stroke="white" stroke-width="0.25" stroke-miterlimit="10"/>
<path d="M767.146 585.917H766.291V619.249H767.146V585.917Z" stroke="white" stroke-width="0.25" stroke-miterlimit="10"/>
<path d="M812.613 585.917C812.613 585.603 812.414 585.318 812.3 585.062H801.332V585.917H812.613Z" stroke="white" stroke-width="0.25" stroke-miterlimit="10"/>
<path d="M766.291 585.917H767.146H800.478V585.062H767.146H766.291H750.338V585.917H766.291Z" stroke="white" stroke-width="0.25" stroke-miterlimit="10"/>
<path d="M767.146 619.249H752.475L753.415 620.103H800.392V619.249H767.146Z" stroke="white" stroke-width="0.25" stroke-miterlimit="10"/>
<path d="M806.603 620.103L807.258 619.249H801.304V620.103H806.603Z" stroke="white" stroke-width="0.25" stroke-miterlimit="10"/>
<path d="M800.478 619.248V625.801L801.332 625.145V566.972L800.478 566.203V619.248Z" stroke="white" stroke-width="0.25" stroke-miterlimit="10"/>
<path d="M750.337 585.062H749.625V585.917H750.337V585.062Z" stroke="white" stroke-width="0.25" stroke-miterlimit="10"/>
<path d="M718.602 585.062L719.428 585.917H732.105V585.062H718.602Z" stroke="white" stroke-width="0.25" stroke-miterlimit="10"/>
<path d="M748.914 585.917H749.626V585.062H748.914H732.96V585.917H748.914Z" stroke="white" stroke-width="0.25" stroke-miterlimit="10"/>
<path d="M728.401 551.731C725.553 551.417 722.989 551.132 721.165 550.876H711.337V551.731H728.401Z" stroke="white" stroke-width="0.25" stroke-miterlimit="10"/>
<path d="M732.105 585.917V598.879L732.96 599.734V552.187H732.105V586.002V585.917Z" stroke="white" stroke-width="0.25" stroke-miterlimit="10"/>
</g>
<path d="M789.025 559.594C772.786 554.779 728.344 552.386 719.342 550.563C716.555 550.11 713.861 549.205 711.365 547.885C711.711 553.011 710.045 558.069 706.722 561.987C705.222 563.811 703.563 565.498 701.765 567.029C709.115 575.034 724.812 591.956 735.552 602.241C749.967 616.058 760.195 631.669 781.134 631.669C802.073 631.669 811.759 615.459 814.152 604.634C816.545 593.808 811.16 582.413 811.16 582.413C811.16 582.413 805.235 564.38 789.025 559.594Z" stroke="#263238" stroke-linecap="round" stroke-linejoin="round"/>
<path d="M503.314 463.872C495.61 469.376 490.141 477.464 487.902 486.663C484.198 502.075 455.824 595.831 450.268 618.052C444.713 640.273 439.414 681.154 448.046 697.193C456.678 713.232 494.91 746.506 494.91 746.506L522.059 729.869C522.059 729.869 512.801 705.198 510.949 695.341C509.481 688.616 506.982 682.159 503.542 676.197C503.542 676.197 513.798 608.793 516.276 604.976C518.755 601.158 518.726 563.041 518.726 530.336C518.574 510.002 515.248 489.817 508.869 470.51" fill="white"/>
<mask id="mask3_1270_177230" style="mask-type:luminance" maskUnits="userSpaceOnUse" x="443" y="463" width="80" height="284">
<path d="M503.314 463.872C495.61 469.376 490.141 477.464 487.902 486.663C484.198 502.075 455.824 595.831 450.268 618.052C444.713 640.273 439.414 681.154 448.046 697.193C456.678 713.232 494.91 746.506 494.91 746.506L522.059 729.869C522.059 729.869 512.801 705.198 510.949 695.341C509.481 688.616 506.982 682.159 503.542 676.197C503.542 676.197 513.798 608.793 516.276 604.976C518.755 601.158 518.726 563.041 518.726 530.336C518.574 510.002 515.248 489.817 508.869 470.51" fill="white"/>
</mask>
<g mask="url(#mask3_1270_177230)">
<path d="M492.801 585.917H459.47V619.249H492.801V585.917Z" stroke="white" stroke-width="0.25" stroke-miterlimit="10"/>
<path d="M492.801 654.289H459.47V687.621H492.801V654.289Z" stroke="white" stroke-width="0.25" stroke-miterlimit="10"/>
<path d="M492.801 620.103H459.47V653.435H492.801V620.103Z" stroke="white" stroke-width="0.25" stroke-miterlimit="10"/>
<path d="M493.656 473.786L492.802 475.068V482.504H493.656V473.786Z" stroke="white" stroke-width="0.25" stroke-miterlimit="10"/>
<path d="M493.656 483.358H492.802V516.69H493.656V483.358Z" stroke="white" stroke-width="0.25" stroke-miterlimit="10"/>
<path d="M492.802 533.498V534.21H493.656V533.498V517.544H492.802V533.498Z" stroke="white" stroke-width="0.25" stroke-miterlimit="10"/>
<path d="M518.157 516.69H479.469L479.213 517.545H518.214C518.214 517.26 518.185 517.117 518.157 516.69Z" stroke="white" stroke-width="0.25" stroke-miterlimit="10"/>
<path d="M512.601 483.358C512.601 483.073 512.459 482.788 512.373 482.503H489.183C489.183 482.788 488.956 483.073 488.87 483.358H512.601Z" stroke="white" stroke-width="0.25" stroke-miterlimit="10"/>
<path d="M493.656 534.922H492.802V550.876H493.656V534.922Z" stroke="white" stroke-width="0.25" stroke-miterlimit="10"/>
<path d="M493.656 551.73H492.802V585.062H493.656V551.73Z" stroke="white" stroke-width="0.25" stroke-miterlimit="10"/>
<path d="M493.656 620.103H492.802V653.435H493.656V620.103Z" stroke="white" stroke-width="0.25" stroke-miterlimit="10"/>
<path d="M493.656 585.917H492.802V619.249H493.656V585.917Z" stroke="white" stroke-width="0.25" stroke-miterlimit="10"/>
<path d="M493.656 654.289H492.802V687.621H493.656V654.289Z" stroke="white" stroke-width="0.25" stroke-miterlimit="10"/>
<path d="M492.802 738.615V739.327H493.656V738.615V722.662H492.802V738.615Z" stroke="white" stroke-width="0.25" stroke-miterlimit="10"/>
<path d="M493.656 688.476H492.802V721.807H493.656V688.476Z" stroke="white" stroke-width="0.25" stroke-miterlimit="10"/>
<path d="M468.586 721.807L469.412 722.662H519.409L519.125 721.807H468.586Z" stroke="white" stroke-width="0.25" stroke-miterlimit="10"/>
<path d="M444.371 653.435C444.371 653.719 444.371 654.004 444.371 654.289H458.615V653.435H444.371Z" stroke="white" stroke-width="0.25" stroke-miterlimit="10"/>
<path d="M459.47 653.435V654.289H506.989V653.435H459.47Z" stroke="white" stroke-width="0.25" stroke-miterlimit="10"/>
<path d="M459.498 585.062V585.917H518.241C518.241 585.632 518.241 585.347 518.241 585.062H459.498Z" stroke="white" stroke-width="0.25" stroke-miterlimit="10"/>
<path d="M444.799 687.621C444.799 687.905 444.799 688.19 444.998 688.475H458.502V687.621H444.799Z" stroke="white" stroke-width="0.25" stroke-miterlimit="10"/>
<path d="M459.47 687.621V688.475H509.097L508.812 687.621H459.47Z" stroke="white" stroke-width="0.25" stroke-miterlimit="10"/>
<path d="M459.47 619.249V620.103H512.8L512.971 619.249H459.47Z" stroke="white" stroke-width="0.25" stroke-miterlimit="10"/>
<path d="M449.984 619.249C449.984 619.533 449.984 619.818 449.784 620.103H458.616V619.249H449.984Z" stroke="white" stroke-width="0.25" stroke-miterlimit="10"/>
<path d="M469.469 550.876L469.213 551.731H518.697V550.876H469.469Z" stroke="white" stroke-width="0.25" stroke-miterlimit="10"/>
<path d="M459.47 654.289V585.147L458.615 587.996V711.124L459.47 712.064V654.289Z" stroke="white" stroke-width="0.25" stroke-miterlimit="10"/>
<path d="M493.656 534.21H492.802V534.923H493.656V534.21Z" stroke="white" stroke-width="0.25" stroke-miterlimit="10"/>
<path d="M492.802 744.683L493.656 745.452V740.04H492.802V744.683Z" stroke="white" stroke-width="0.25" stroke-miterlimit="10"/>
<path d="M493.656 739.328H492.802V740.04H493.656V739.328Z" stroke="white" stroke-width="0.25" stroke-miterlimit="10"/>
</g>
<path d="M503.314 463.872C495.61 469.376 490.141 477.464 487.902 486.663C484.198 502.075 455.824 595.831 450.268 618.052C444.713 640.273 439.414 681.154 448.046 697.193C456.678 713.232 494.91 746.506 494.91 746.506L522.059 729.869C522.059 729.869 512.801 705.198 510.949 695.341C509.481 688.616 506.982 682.159 503.542 676.197C503.542 676.197 513.798 608.793 516.276 604.976C518.755 601.158 518.726 563.041 518.726 530.336C518.574 510.002 515.248 489.817 508.869 470.51" stroke="#263238" stroke-linecap="round" stroke-linejoin="round"/>
<path d="M499.61 510.906C499.61 510.906 506.761 543.839 518.213 588.224" stroke="#263238" stroke-linecap="round" stroke-linejoin="round"/>
<path d="M485.68 739.156C485.68 739.156 502.317 716.366 517.729 718.189" stroke="#263238" stroke-linecap="round" stroke-linejoin="round"/>
<path d="M469.641 674.402C469.641 674.402 488.756 665.855 503.542 676.225" stroke="#263238" stroke-linecap="round" stroke-linejoin="round"/>
<path d="M522.059 729.897C522.059 729.897 531.318 732.974 534.993 734.826C538.668 736.678 538.696 741.008 544.252 745.31C549.807 749.612 554.137 750.865 552.285 753.344C550.434 755.822 547.955 758.87 543.739 758.272C539.523 757.674 531.403 750.865 531.403 750.865C531.403 750.865 515.364 777.388 514.738 779.353C514.111 781.319 508.584 774.425 503.029 765.793C499.418 759.844 496.711 753.393 494.995 746.649L522.059 729.897Z" fill="white" stroke="#263238" stroke-linecap="round" stroke-linejoin="round"/>
<path d="M626.897 847.698L625.017 793.712" stroke="white" stroke-linecap="round" stroke-linejoin="round"/>
<path d="M617.639 793.712L636.754 789.41" stroke="white" stroke-linecap="round" stroke-linejoin="round"/>
<path d="M621.143 1181.04C621.143 1181.04 618.55 1169.82 631.484 1155.8C644.418 1141.78 663.163 1147.25 671.596 1153.55C680.028 1159.85 681.937 1168.71 690.996 1173.75C696.403 1176.78 701.043 1181.01 704.557 1186.11H620.487L621.143 1181.04Z" fill="white" stroke="#263238" stroke-linecap="round" stroke-linejoin="round"/>
<path d="M319.905 365.045C319.905 365.045 335.004 377.267 345.06 379.289C355.117 381.312 365.914 387.836 360.9 403.733C355.886 419.629 341.471 430.341 342.183 437.52C342.895 444.699 330.788 464.128 332.126 474.897C333.465 485.665 346.513 501.505 353.692 525.236C360.871 548.967 342.24 551.303 329.961 568.396C317.683 585.489 280.363 591.415 243.698 575.604C207.034 559.793 187.604 531.019 197.689 505.835C207.774 480.651 225.01 477.803 226.434 460.567C227.859 443.332 212.19 409.516 225.01 387.209C237.83 364.903 252.33 359.889 269.594 356.299C286.858 352.71 309.136 358.578 319.905 365.045Z" fill="#263238" stroke="#263238" stroke-linecap="round" stroke-linejoin="round"/>
<path d="M355.374 548.995C355.374 548.995 388.563 618.45 396.312 656.169C404.06 693.888 402.009 710.297 376.74 721.18C351.471 732.062 316.914 717.59 312.014 656.482C307.114 595.375 317.712 536.403 340.075 536.403C343.728 536.249 347.31 537.449 350.133 539.773C352.956 542.097 354.822 545.381 355.374 548.995Z" fill="white" stroke="#263238" stroke-linecap="round" stroke-linejoin="round"/>
<path d="M348.792 522.416C348.792 522.416 362.296 523.811 369.76 533.127C377.224 542.443 379.076 568.538 382.808 580.675C386.54 592.811 403.775 611.414 408.903 628.222C414.031 645.03 407.023 653.861 396.311 656.198C385.6 658.534 378.591 645.486 372.068 635.686C365.486 625 360.17 613.585 356.228 601.671C352.04 590.019 344.12 536.432 341.784 530.449C339.448 524.467 342.724 522.416 348.792 522.416Z" fill="white" stroke="#263238" stroke-linecap="round" stroke-linejoin="round"/>
<path d="M382.808 580.674C379.076 568.538 377.11 542.443 369.76 533.127C362.41 523.811 348.792 522.416 348.792 522.416C342.724 522.416 339.448 524.267 341.784 530.335C344.12 536.403 352.04 589.99 356.228 601.557V601.699C364.836 594.762 374.803 589.705 385.486 586.856C384.406 584.882 383.51 582.813 382.808 580.674Z" fill="white" stroke="#263238" stroke-linecap="round" stroke-linejoin="round"/>
<path d="M263.269 1127.37C261.247 1135.43 258.243 1143.2 254.324 1150.53C248.626 1160.53 240.649 1174.72 240.649 1179.99C240.733 1182.45 240.561 1184.91 240.137 1187.34H277.998C280.134 1182.08 281.719 1176.62 282.727 1171.04C284.294 1162.1 282.214 1166.31 286.943 1151.58C289.687 1141.96 289.687 1131.75 286.943 1122.13C286.943 1122.13 273.269 1129.62 263.269 1127.37Z" fill="white" stroke="#263238" stroke-linecap="round" stroke-linejoin="round"/>
<path d="M271.275 464.926C271.275 464.926 275.89 494.326 276.717 505.921C277.799 520.649 257.173 524.153 240.08 529.395C232.987 531.589 219.341 535.406 215.495 552.357C211.649 569.308 229.169 600.446 237.915 615.744C246.661 631.042 254.296 646.882 254.296 655.628C254.296 664.374 240.65 694.429 233.528 714.627C226.406 734.826 220.965 758.357 221.506 798.241C222.047 838.125 253.755 900.971 259.766 912.452C265.777 923.932 265.777 928.832 265.777 928.832C265.777 928.832 258.114 945.213 255.407 950.683C252.701 956.153 237.915 1005.87 242.274 1040.31C246.633 1074.75 258.94 1118.57 260.022 1123.47C260.036 1123.65 260.036 1123.83 260.022 1124.01C260.567 1127.16 262.094 1130.06 264.387 1132.29C266.679 1134.52 269.619 1135.97 272.785 1136.43C276.617 1136.95 280.505 1135.98 283.64 1133.72C286.776 1131.45 288.918 1128.07 289.622 1124.26C293.097 1105.4 298.938 1073.38 300.077 1065.43C301.729 1054.04 303.923 1026.09 303.923 1026.09L307.199 1010.25C307.199 1010.25 308.823 1144.15 308.823 1152.32C308.823 1160.5 309.934 1174.18 309.934 1174.18L342.553 1161.41C342.553 1161.41 349.277 1101.59 353.635 1074.72C357.994 1047.86 363.464 1015.18 370.586 981.28C377.708 947.378 395.172 880.203 398.448 824.593C401.724 768.984 391.896 736.051 391.896 736.051C391.896 736.051 374.945 678.675 370.586 667.678C366.227 656.682 360.188 632.153 361.299 627.253C362.41 622.353 372.21 605.374 372.21 588.452C372.21 571.53 358.564 549.109 358.564 539.822C358.564 530.535 356.37 526.148 347.169 521.248C337.967 516.348 328.594 517.943 320.389 510.308C312.185 502.673 310.561 474.783 310.561 474.783L271.275 464.926Z" fill="#7A7A7A" stroke="#263238" stroke-linecap="round" stroke-linejoin="round"/>
<path d="M347.225 521.219C337.938 516.291 328.651 517.914 320.446 510.28C312.241 502.645 310.617 474.754 310.617 474.754L271.275 464.926C271.275 464.926 275.89 494.326 276.716 505.921C277.599 518.085 263.697 522.587 249.225 526.746C260.791 546.26 288.738 585.09 323.295 575.176C340.587 570.134 351.327 552.386 357.994 532.444C356.683 527.743 353.635 524.609 347.225 521.219Z" fill="white" stroke="#263238" stroke-linecap="round" stroke-linejoin="round"/>
<path d="M309.164 1181.7C309.164 1181.7 306.885 1171.87 318.224 1159.59C329.562 1147.31 338.166 1149.22 345.402 1154.63C352.638 1160.04 362.353 1170.87 370.272 1175.29C375.022 1177.93 379.097 1181.64 382.181 1186.11H308.595L309.164 1181.7Z" fill="white" stroke="#263238" stroke-linecap="round" stroke-linejoin="round"/>
<path d="M372.353 588.338C372.353 571.387 358.707 548.995 358.707 539.708C358.707 530.421 356.513 526.033 347.311 521.133C338.993 516.718 330.646 517.544 323.125 512.273C324.492 514.78 331.443 529.566 311.387 540.762C292.385 551.274 272.472 527.03 267.344 520.222C260.023 524.182 249.596 526.546 240.195 529.424C233.101 531.617 219.455 535.435 215.609 552.385C211.763 569.336 229.283 600.474 238.029 615.772C246.775 631.07 254.41 646.91 254.41 655.656C254.41 664.402 240.764 694.457 233.642 714.656C231.563 720.61 229.625 726.849 227.945 733.686C250.365 741.919 311.729 758.471 390.728 731.35C386.625 717.505 374.404 676.709 370.786 667.678C366.399 656.739 360.388 632.153 361.499 627.253C362.61 622.353 372.353 605.431 372.353 588.338Z" fill="#263238" stroke="#263238" stroke-linecap="round" stroke-linejoin="round"/>
<path d="M329.221 514.61L379.759 590.418L370.728 667.65L377.081 684.572L386.654 590.019L346.057 519.966L329.221 514.61Z" fill="white" stroke="#263238" stroke-linecap="round" stroke-linejoin="round"/>
<path d="M383.948 586.572C383.948 586.572 369.418 588.11 369.02 590.788C369.033 593.76 369.425 596.718 370.188 599.591C370.188 599.591 369.02 605.289 370.558 608.138C371.46 609.643 371.987 611.343 372.096 613.095C372.096 613.095 371.697 616.941 374.005 618.479C376.313 620.017 376.683 621.157 376.683 621.157C376.683 621.157 377.082 624.974 378.991 626.114C380.899 627.253 394.289 628.023 398.505 626.513C402.721 625.003 403.491 618.479 403.861 615.402C404.212 611.205 404.345 606.993 404.26 602.782C404.26 598.566 403.491 590.532 401.952 587.854C400.414 585.176 388.164 585.803 383.948 586.572Z" fill="white" stroke="#263238" stroke-linecap="round" stroke-linejoin="round"/>
<path d="M370.188 599.591L392.75 598.053" stroke="#263238" stroke-linecap="round" stroke-linejoin="round"/>
<path d="M372.096 609.932L392.38 609.533" stroke="#263238" stroke-linecap="round" stroke-linejoin="round"/>
<path d="M376.683 621.043L392.75 620.273" stroke="#263238" stroke-linecap="round" stroke-linejoin="round"/>
<path d="M311.33 385.471C311.33 385.471 301.957 397.009 291.872 407.835C281.472 419.796 271.851 432.414 263.07 445.61C256.575 454.983 253.612 461.934 259.395 471.25C265.178 480.566 284.721 499.454 302.954 504.012C313.894 506.861 324.321 493.699 328.594 482.161C332.867 470.623 341.585 453.929 340.872 444.556C340.16 435.184 330.844 405.67 330.844 405.67C330.844 405.67 316.401 389.061 311.33 385.471Z" fill="white" stroke="#263238" stroke-linecap="round" stroke-linejoin="round"/>
<path d="M318.765 421.766C318.765 421.766 312.07 427.919 315.432 434.073C318.794 440.226 327.169 444.699 324.377 448.602C321.585 452.505 312.07 451.963 312.07 451.963" stroke="#263238" stroke-linecap="round" stroke-linejoin="round"/>
<path d="M313.751 464.242C313.751 464.242 300.333 467.604 291.388 458.088" stroke="#263238" stroke-linecap="round" stroke-linejoin="round"/>
<path d="M278.54 420.654C279.281 418.034 296.545 411.937 303.126 422.877" stroke="#263238" stroke-linecap="round" stroke-linejoin="round"/>
<path d="M318.766 421.766C318.766 421.766 325.489 413.931 333.323 420.085" stroke="#263238" stroke-linecap="round" stroke-linejoin="round"/>
<path d="M294.749 462.02C294.749 462.02 293.069 472.076 297.598 474.299C302.128 476.521 308.224 465.382 308.224 465.382C308.224 465.382 300.333 463.131 294.749 462.02Z" fill="#263238" stroke="#263238" stroke-linecap="round" stroke-linejoin="round"/>
<path d="M281.901 434.5C281.901 434.5 291.958 428.803 299.764 432.848" stroke="#263238" stroke-linecap="round" stroke-linejoin="round"/>
<path d="M286.346 434.5C286.346 434.5 295.861 431.651 300.334 435.07" stroke="#263238" stroke-linecap="round" stroke-linejoin="round"/>
<path d="M317.113 433.503C317.113 433.503 327.17 427.805 334.976 431.822" stroke="#263238" stroke-linecap="round" stroke-linejoin="round"/>
<path d="M321.586 433.503C321.586 433.503 331.073 430.654 335.545 434.073" stroke="#263238" stroke-linecap="round" stroke-linejoin="round"/>
<path d="M231.391 534.21C231.391 534.21 212.788 535.834 205.752 551.132C198.715 566.43 209.569 575.176 216.15 584.464C222.731 593.751 229.255 612.354 239.624 613.436C249.994 614.519 262.045 610.16 264.21 595.403C266.375 580.646 248.37 560.989 245.635 557.143" fill="white"/>
<path d="M231.391 534.21C231.391 534.21 212.788 535.834 205.752 551.132C198.715 566.43 209.569 575.176 216.15 584.464C222.731 593.751 229.255 612.354 239.624 613.436C249.994 614.519 262.045 610.16 264.21 595.403C266.375 580.646 248.37 560.989 245.635 557.143" stroke="#263238" stroke-linecap="round" stroke-linejoin="round"/>
<path d="M378.278 532.272C378.278 532.272 385.429 535.121 386.825 536.888C388.147 540.016 390.152 542.81 392.693 545.064C396.539 547.913 398.078 550.192 395.542 550.961C393.007 551.73 391.468 551.445 387.366 548.91C383.264 546.374 382.495 543.525 379.959 542.243C377.424 540.961 378.278 532.272 378.278 532.272Z" fill="white" stroke="#263238" stroke-linecap="round" stroke-linejoin="round"/>
<path d="M249.025 613.294C246.566 614.039 243.965 614.189 241.436 613.733C238.907 613.277 236.522 612.226 234.478 610.669C232.434 609.112 230.789 607.091 229.678 604.774C228.566 602.457 228.021 599.91 228.086 597.341C227.875 588.623 231.004 580.154 236.832 573.667C249.965 560.562 271.816 560.562 289.308 552.899C306.8 545.235 330.816 536.518 338.479 533.241C346.142 529.965 369.987 519.966 374.346 519.966C378.705 519.966 382.75 522.216 392.579 524.41C398.533 525.72 405.683 526.034 405.142 529.851C404.601 533.669 401.325 531.504 395.314 531.504C389.303 531.504 379.446 530.421 379.446 530.421L383.491 541.816C383.738 543.481 383.376 545.18 382.47 546.598C381.565 548.017 380.177 549.061 378.562 549.537L362.523 554.38C360.731 555.014 358.821 555.243 356.929 555.051C355.038 554.859 353.212 554.25 351.584 553.269C349.96 552.186 343.408 547.258 343.408 547.258C343.408 547.258 318.252 562.556 307.341 572.413C296.43 582.27 276.175 601.357 260.335 608.451C256.657 610.273 252.882 611.89 249.025 613.294Z" fill="white" stroke="#263238" stroke-linecap="round" stroke-linejoin="round"/>
<path d="M366.341 531.047C369.555 537.198 372.261 543.601 374.432 550.192Z" fill="white"/>
<path d="M366.341 531.047C369.555 537.198 372.261 543.601 374.432 550.192" stroke="#263238" stroke-linecap="round" stroke-linejoin="round"/>
<path d="M357.566 536.119C357.566 536.119 365.258 547.514 365.258 553.44Z" fill="white"/>
<path d="M357.566 536.119C357.566 536.119 365.258 547.514 365.258 553.44" stroke="#263238" stroke-linecap="round" stroke-linejoin="round"/>
<path d="M379.446 530.506L377.822 526.119" stroke="#263238" stroke-linecap="round" stroke-linejoin="round"/>
<path d="M350.787 552.3C350.787 552.3 347.454 548.397 350.473 548.084C352.144 547.852 353.844 548.173 355.316 548.995L351.983 545.064" fill="white"/>
<path d="M350.787 552.3C350.787 552.3 347.454 548.397 350.473 548.084C352.144 547.852 353.844 548.173 355.316 548.995L351.983 545.064" stroke="#263238" stroke-linecap="round" stroke-linejoin="round"/>
<path d="M340.787 763.599L322.811 772.972C322.811 772.972 323.523 867.867 321.358 923.961C319.193 980.055 307.342 1010.28 307.342 1010.28" stroke="#263238" stroke-linecap="round" stroke-linejoin="round"/>
</svg>
