<svg width="1254" height="1256" viewBox="0 0 1254 1256" fill="none" xmlns="http://www.w3.org/2000/svg">
<g opacity="0.15">
<path d="M70.4482 0.428223V929.342" stroke="black" stroke-miterlimit="10"/>
<path d="M189.905 0.428223V929.342" stroke="black" stroke-miterlimit="10"/>
<path d="M309.362 0.428223V929.342" stroke="black" stroke-miterlimit="10"/>
<path d="M428.846 0.428223V929.342" stroke="black" stroke-miterlimit="10"/>
<path d="M548.302 0.428223V929.342" stroke="black" stroke-miterlimit="10"/>
<path d="M667.759 0.428223V929.342" stroke="black" stroke-miterlimit="10"/>
<path d="M787.216 0.428223V929.342" stroke="black" stroke-miterlimit="10"/>
<path d="M906.699 0.428223V929.342" stroke="black" stroke-miterlimit="10"/>
<path d="M1026.16 0.428223V929.342" stroke="black" stroke-miterlimit="10"/>
<path d="M1145.61 0.428223V929.342" stroke="black" stroke-miterlimit="10"/>
<path d="M1211.53 21.3789H4.52637" stroke="black" stroke-miterlimit="10"/>
<path d="M1211.53 148.106H4.52637" stroke="black" stroke-miterlimit="10"/>
<path d="M1211.53 274.807H4.52637" stroke="black" stroke-miterlimit="10"/>
<path d="M1211.53 401.534H4.52637" stroke="black" stroke-miterlimit="10"/>
<path d="M1211.53 528.235H4.52637" stroke="black" stroke-miterlimit="10"/>
<path d="M1211.53 654.963H4.52637" stroke="black" stroke-miterlimit="10"/>
<path d="M1211.53 781.663H4.52637" stroke="black" stroke-miterlimit="10"/>
<path d="M1211.53 908.391H4.52637" stroke="black" stroke-miterlimit="10"/>
</g>
<path d="M795.348 1003.58L755.87 1024.43L777.79 1041.99L798.579 1045.51L840.346 1025.53L823.866 1003.58H795.348Z" fill="white" stroke="#263238" stroke-linecap="round" stroke-linejoin="round"/>
<path d="M755.87 1024.43L747.146 1051.87L779.487 1067.54H803.481L850.983 1052.35L840.346 1025.53L798.58 1045.51L777.791 1041.99L755.87 1024.43Z" fill="#9DA3A5" stroke="#263238" stroke-linecap="round" stroke-linejoin="round"/>
<path d="M777.79 1041.99L779.486 1067.54H803.48L798.579 1045.51L777.79 1041.99Z" fill="#9DA3A5" stroke="#263238" stroke-linecap="round" stroke-linejoin="round"/>
<path d="M798.579 1045.51L840.346 1025.53L850.983 1052.35L803.48 1067.54L798.579 1045.51Z" fill="#9DA3A5" stroke="#263238" stroke-linecap="round" stroke-linejoin="round"/>
<path d="M708.475 1058.74L685.451 1057.77L655.075 1064.12L687.417 1073.41L708.475 1058.74Z" fill="white" stroke="#263238" stroke-linecap="round" stroke-linejoin="round"/>
<path d="M655.075 1064.12L650.201 1079.79L693.772 1090.08L687.417 1073.41L655.075 1064.12Z" fill="#9DA3A5" stroke="#263238" stroke-linecap="round" stroke-linejoin="round"/>
<path d="M708.475 1058.74L725.602 1074.41L693.772 1090.08L687.417 1073.41L708.475 1058.74Z" fill="#9DA3A5" stroke="#263238" stroke-linecap="round" stroke-linejoin="round"/>
<path d="M804.961 1078.31L783.876 1087.63L797.098 1093.99L818.157 1087.63L804.961 1078.31Z" fill="white" stroke="#263238" stroke-linecap="round" stroke-linejoin="round"/>
<path d="M783.876 1087.63L781.938 1100.37L799.064 1110.14L819.638 1099.37L818.157 1087.63L797.098 1093.99L783.876 1087.63Z" fill="#9DA3A5" stroke="#263238" stroke-linecap="round" stroke-linejoin="round"/>
<path d="M797.099 1093.99L799.064 1110.14L819.638 1099.37L818.157 1087.63L797.099 1093.99Z" fill="#9DA3A5" stroke="#263238" stroke-linecap="round" stroke-linejoin="round"/>
<path d="M1098.59 629.946H1028.36L1003.29 723.982L900.479 609.884H830.248L846.54 730.256L766.292 749.079L870.372 863.177L807.682 954.709L1113.65 1067.57H1183.85L1098.59 629.946Z" fill="#9DA3A5" stroke="#263238" stroke-linecap="round" stroke-linejoin="round"/>
<path d="M830.249 609.884L795.133 632.45L776.337 730.256L696.089 749.079L800.169 863.177L737.452 954.709L1113.65 1067.57L1028.36 629.946L933.063 723.982L830.249 609.884Z" fill="white" stroke="#263238" stroke-linecap="round" stroke-linejoin="round"/>
<path d="M795.106 819.553L793.437 827.066" stroke="#263238" stroke-linecap="round" stroke-linejoin="round"/>
<path d="M776.337 730.256L782.854 731.764L796.614 741.297L792.387 764.59L783.904 776.25L796.614 793.189L797.665 808.027" stroke="#263238" stroke-linecap="round" stroke-linejoin="round"/>
<path d="M783.904 776.251L779.676 796.367L754.255 810.128" stroke="#263238" stroke-linecap="round" stroke-linejoin="round"/>
<path d="M939.66 778.163L963.923 788.962L958.618 828.143L955.44 845.081L973.456 880.008" stroke="#263238" stroke-linecap="round" stroke-linejoin="round"/>
<path d="M933.063 723.981L915.209 730.714L916.259 767.768L929.724 773.773" stroke="#263238" stroke-linecap="round" stroke-linejoin="round"/>
<path d="M927.301 895.25L928.97 902.252" stroke="#263238" stroke-linecap="round" stroke-linejoin="round"/>
<path d="M955.441 845.081L952.29 868.375L922.614 875.78L925.146 886.282" stroke="#263238" stroke-linecap="round" stroke-linejoin="round"/>
<path d="M760.96 341.403L583.525 159.794L516.741 183.949L499.453 347.973L131.496 525.758H200.919L534.999 381.581L570.949 488.327H640.372L723.529 445.348L722.155 369.113L760.96 341.403Z" fill="#515B60" stroke="#263238" stroke-linecap="round" stroke-linejoin="round"/>
<path d="M499.453 347.973L131.496 525.758H200.919L534.999 381.581L537.019 387.586L548.571 374.714L500.18 341.106L499.453 347.973Z" fill="#515B60" stroke="#263238" stroke-linecap="round" stroke-linejoin="round"/>
<path d="M691.538 341.402H760.961L722.156 369.112H652.733L691.538 341.402Z" fill="#515B60" stroke="#263238" stroke-linecap="round" stroke-linejoin="round"/>
<path d="M654.107 445.348H723.529L722.156 369.112H652.733L654.107 445.348Z" fill="#9DA3A5" stroke="#263238" stroke-linecap="round" stroke-linejoin="round"/>
<path d="M760.96 341.403L583.525 159.794H514.103L691.537 341.403H760.96Z" fill="#9DA3A5" stroke="#263238" stroke-linecap="round" stroke-linejoin="round"/>
<path d="M691.537 341.403L514.103 159.794L188.344 277.635L7.27344 60.8569V381.688L131.497 525.758L465.577 381.581L570.95 488.327L654.106 445.348L652.733 369.112L691.537 341.403Z" fill="white" stroke="#263238" stroke-linecap="round" stroke-linejoin="round"/>
<path d="M652.733 369.112L643.065 353.736L598.606 357.991L572.135 336.798L550.941 316.682" stroke="#263238" stroke-linecap="round" stroke-linejoin="round"/>
<path d="M498.565 345.873L487.416 350.559" stroke="#263238" stroke-linecap="round" stroke-linejoin="round"/>
<path d="M572.135 336.797L555.197 338.925L540.359 328.342L513.699 339.517" stroke="#263238" stroke-linecap="round" stroke-linejoin="round"/>
<path d="M7.27344 3.5791V60.8569L188.344 277.635L227.148 263.766L7.27344 3.5791Z" fill="#9DA3A5" stroke="#263238" stroke-linecap="round" stroke-linejoin="round"/>
<g opacity="0.3">
<path d="M1032.32 251.702C1032.32 238.022 1025.48 227.17 1002.94 219.387L1001.95 219.037V178.159C1004.67 178.28 1007.37 178.65 1010.03 179.263L1012.07 188.446C1014.09 197.117 1018.27 199.46 1021.93 199.46C1023.54 199.493 1025.13 199.009 1026.45 198.079C1027.77 197.149 1028.76 195.822 1029.28 194.29C1028.34 181.041 1016.89 171.508 1001.89 170.054V154.893H995.269V170.054C977.576 171.292 965.054 184.137 965.054 200.295C965.054 216.991 975.422 226.012 992.953 232.179L995.107 232.933V274.107C991.077 274.027 987.064 273.558 983.124 272.707L981.077 263.605C979.084 254.772 975.422 252.591 971.41 252.591C969.768 252.55 968.157 253.032 966.807 253.966C965.456 254.9 964.438 256.238 963.896 257.788C964.543 272.06 977.657 281.809 995.107 282.024V299.097H1001.79V281.916C1020.96 279.897 1032.32 267.967 1032.32 251.702ZM978.034 196.794C978.034 186.022 985.224 179.829 995.215 178.428V216.694C984.282 212.844 978.034 207.054 978.034 196.794ZM1001.73 273.892V235.329C1014.01 240.042 1019.26 245.051 1019.26 254.88C1019.32 265.651 1012.58 272.357 1001.79 273.892H1001.73Z" stroke="black" stroke-miterlimit="10"/>
<path d="M998.123 328.503C1054.13 328.503 1099.54 283.099 1099.54 227.089C1099.54 171.08 1054.13 125.675 998.123 125.675C942.114 125.675 896.709 171.08 896.709 227.089C896.709 283.099 942.114 328.503 998.123 328.503Z" stroke="black" stroke-miterlimit="10"/>
<path d="M998.123 316.386C1047.44 316.386 1087.42 276.406 1087.42 227.089C1087.42 177.772 1047.44 137.793 998.123 137.793C948.806 137.793 908.827 177.772 908.827 227.089C908.827 276.406 948.806 316.386 998.123 316.386Z" stroke="black" stroke-miterlimit="10"/>
</g>
<g opacity="0.3">
<path d="M326.786 115.631C326.786 105.801 321.885 98.019 305.7 92.3908L305 92.1485V62.8498C306.96 62.942 308.907 63.2124 310.817 63.6577L312.298 70.2552C313.725 76.4758 316.741 78.1454 319.353 78.1454C320.535 78.2032 321.702 77.8706 322.675 77.199C323.649 76.5274 324.374 75.554 324.739 74.4292C324.066 64.9233 315.853 58.0834 305.108 57.087V46.3154H300.315V57.087C287.604 58.0026 278.771 67.1854 278.771 78.7917C278.771 90.3981 285.962 97.1842 298.537 101.762L300.072 102.301V131.922C297.183 131.879 294.305 131.546 291.482 130.926L290.028 124.409C288.654 117.919 285.961 116.331 283.08 116.331C281.903 116.295 280.746 116.636 279.777 117.305C278.808 117.973 278.079 118.934 277.694 120.047C278.152 130.307 287.577 137.308 300.072 137.524V149.749H304.812V137.308C318.626 135.854 326.786 127.291 326.786 115.631ZM287.873 76.2335C287.873 68.4241 293.044 64.0616 300.207 63.0383V90.5058C292.317 87.7591 287.873 83.5851 287.873 76.2335ZM304.812 131.545V103.889C313.618 107.256 317.388 110.837 317.388 117.893C317.441 125.621 312.621 130.441 304.812 131.545Z" stroke="black" stroke-miterlimit="10"/>
<path d="M302.227 170.727C342.412 170.727 374.989 138.15 374.989 97.9651C374.989 57.7798 342.412 25.2031 302.227 25.2031C262.041 25.2031 229.465 57.7798 229.465 97.9651C229.465 138.15 262.041 170.727 302.227 170.727Z" stroke="black" stroke-miterlimit="10"/>
<path d="M317.098 160.291C351.514 152.08 372.756 117.523 364.545 83.1081C356.333 48.6926 321.777 27.4502 287.362 35.6618C252.946 43.8735 231.704 78.4295 239.915 112.845C248.127 147.26 282.683 168.503 317.098 160.291Z" stroke="black" stroke-miterlimit="10"/>
</g>
<g opacity="0.3">
<path d="M1176.47 537.471C1176.47 530.901 1173.19 525.677 1162.36 521.906L1161.88 521.745V502.114C1163.19 502.185 1164.5 502.374 1165.78 502.679L1166.78 507.069C1167.72 511.243 1169.74 512.454 1171.49 512.454C1172.27 512.472 1173.03 512.241 1173.66 511.795C1174.3 511.349 1174.77 510.712 1175.02 509.977C1174.59 503.595 1169.1 499.017 1161.88 498.344V491.046H1158.67V498.317C1154.84 498.379 1151.18 499.932 1148.47 502.647C1145.76 505.361 1144.21 509.024 1144.16 512.858C1144.16 520.937 1149.11 525.219 1157.62 528.181L1158.67 528.531V548.378C1156.74 548.327 1154.81 548.102 1152.91 547.704L1151.94 543.342C1150.97 539.087 1149.25 537.956 1147.28 537.956C1146.5 537.934 1145.72 538.162 1145.08 538.607C1144.43 539.052 1143.94 539.692 1143.67 540.434C1143.97 547.327 1150.3 551.986 1158.67 552.148V560.226H1161.88V551.878C1171.01 551.044 1176.47 545.281 1176.47 537.471ZM1150.38 511.081C1150.31 508.816 1151.15 506.617 1152.7 504.963C1154.24 503.308 1156.38 502.333 1158.65 502.248V520.641C1153.37 518.81 1150.38 516.036 1150.38 511.081ZM1161.77 548.135V529.608C1167.67 531.87 1170.2 534.267 1170.2 539.006C1170.29 541.329 1169.45 543.592 1167.88 545.302C1166.31 547.012 1164.12 548.03 1161.8 548.135H1161.77Z" stroke="black" stroke-miterlimit="10"/>
<path d="M1190.73 563.566C1211.64 546.614 1214.85 515.92 1197.9 495.009C1180.94 474.098 1150.25 470.888 1129.34 487.839C1108.43 504.791 1105.22 535.485 1122.17 556.396C1139.12 577.308 1169.81 580.517 1190.73 563.566Z" stroke="black" stroke-miterlimit="10"/>
<path d="M1160.02 568.575C1183.73 568.575 1202.95 549.357 1202.95 525.65C1202.95 501.944 1183.73 482.726 1160.02 482.726C1136.31 482.726 1117.1 501.944 1117.1 525.65C1117.1 549.357 1136.31 568.575 1160.02 568.575Z" stroke="black" stroke-miterlimit="10"/>
</g>
<g opacity="0.3">
<path d="M818.077 415.969C818.077 409.371 814.792 404.174 803.966 400.404L803.482 400.242V380.611C804.797 380.671 806.104 380.851 807.386 381.15L808.383 385.566C809.352 389.74 811.345 390.952 813.122 390.952C813.897 390.965 814.655 390.732 815.289 390.287C815.923 389.842 816.4 389.207 816.65 388.474C816.192 382.119 810.699 377.514 803.482 376.841V369.436H800.304V376.706C796.469 376.769 792.81 378.322 790.1 381.036C787.391 383.751 785.845 387.413 785.789 391.248C785.789 399.327 790.771 403.608 799.254 406.571L800.304 406.948V426.767C798.365 426.744 796.434 426.518 794.541 426.094L793.572 421.732C792.602 417.477 790.879 416.346 788.913 416.346C788.124 416.326 787.348 416.557 786.699 417.008C786.051 417.458 785.562 418.103 785.305 418.85C785.628 425.717 791.929 430.403 800.304 430.537V438.616H803.509V430.295C812.611 429.514 818.077 423.778 818.077 415.969ZM792.01 389.578C791.945 387.309 792.78 385.106 794.335 383.451C795.889 381.796 798.035 380.823 800.304 380.746V399.138C794.918 397.28 792.01 394.506 792.01 389.578ZM803.401 426.633V408.079C809.298 410.341 811.83 412.764 811.83 417.477C811.91 419.804 811.071 422.07 809.494 423.784C807.916 425.497 805.727 426.521 803.401 426.633Z" stroke="black" stroke-miterlimit="10"/>
<path d="M809.437 452.172C836.012 447.882 854.078 422.861 849.788 396.286C845.498 369.711 820.477 351.646 793.902 355.935C767.327 360.225 749.261 385.247 753.551 411.822C757.841 438.397 782.862 456.462 809.437 452.172Z" stroke="black" stroke-miterlimit="10"/>
<path d="M801.65 447.045C825.357 447.045 844.575 427.827 844.575 404.12C844.575 380.413 825.357 361.195 801.65 361.195C777.944 361.195 758.726 380.413 758.726 404.12C758.726 427.827 777.944 447.045 801.65 447.045Z" stroke="black" stroke-miterlimit="10"/>
</g>
<g opacity="0.3">
<path d="M115.77 713.049C115.77 703.247 110.842 695.464 94.6849 689.836L93.9578 689.567V660.295C95.9263 660.386 97.8823 660.656 99.8014 661.103L101.283 667.7C102.71 673.921 105.699 675.591 108.338 675.591C109.519 675.648 110.686 675.316 111.66 674.644C112.633 673.973 113.358 672.999 113.724 671.874C113.05 662.395 104.837 655.555 94.0656 654.559V643.626H89.1914V654.398C76.481 655.286 67.6483 664.496 67.6483 676.102C67.6483 687.709 75.0537 694.522 87.6295 698.965L89.1914 699.504V729.125C86.3037 729.055 83.4284 728.721 80.6011 728.129L79.1469 721.585C77.6928 715.257 75.0537 713.695 72.1993 713.695C71.0226 713.659 69.8654 714.001 68.8964 714.669C67.9275 715.338 67.1977 716.298 66.8135 717.411C67.2713 727.644 76.6695 734.646 89.1914 734.861V747.114H93.9848V734.646C107.611 733.299 115.77 724.736 115.77 713.049ZM76.858 673.679C76.858 665.869 82.0014 661.507 89.1914 660.51V687.951C81.3012 685.204 76.858 681.057 76.858 673.679ZM93.8501 728.991V701.335C102.656 704.701 106.426 708.309 106.426 715.365C106.426 723.093 101.606 727.887 93.8501 728.991Z" stroke="black" stroke-miterlimit="10"/>
<path d="M91.2112 768.172C131.397 768.172 163.973 735.596 163.973 695.41C163.973 655.225 131.397 622.648 91.2112 622.648C51.0259 622.648 18.4492 655.225 18.4492 695.41C18.4492 735.596 51.0259 768.172 91.2112 768.172Z" stroke="black" stroke-miterlimit="10"/>
<path d="M136.503 740.725C161.521 715.706 161.521 675.143 136.503 650.125C111.484 625.106 70.9211 625.106 45.9026 650.125C20.8841 675.143 20.8841 715.706 45.9026 740.725C70.9211 765.743 111.484 765.743 136.503 740.725Z" stroke="black" stroke-miterlimit="10"/>
</g>
<path d="M242.713 1003.72L234.634 1042.79C234.634 1042.79 206.089 1064.53 199.869 1067.03C192.026 1070.57 184.369 1074.51 176.925 1078.82C173.828 1080.68 174.448 1084.4 181.88 1087.52C189.313 1090.65 201.107 1090.62 213.522 1087.52C225.936 1084.43 250.764 1077.59 256.339 1077.59C261.913 1077.59 277.451 1080.68 280.575 1073.25C283.698 1065.82 275.62 1039.72 275 1033.53C274.381 1027.34 278.097 1006.22 278.097 1006.22L242.713 1003.72Z" fill="#9DA3A5" stroke="#263238" stroke-linecap="round" stroke-linejoin="round"/>
<path d="M176.953 1078.8C173.856 1080.66 174.475 1084.37 181.907 1087.5C189.34 1090.62 201.135 1090.59 213.549 1087.5C225.963 1084.4 250.792 1077.56 256.366 1077.56C261.94 1077.56 277.478 1080.66 280.602 1073.22C282.379 1068.91 280.602 1058.41 278.394 1048.99C269.642 1055.1 248.961 1055.1 248.961 1055.1C248.572 1052.28 247.255 1049.66 245.217 1047.67C242.376 1044.86 238.662 1043.1 234.688 1042.69C234.688 1042.69 206.144 1064.42 199.923 1066.92C192.07 1070.49 184.403 1074.45 176.953 1078.8Z" fill="#263238" stroke="#263238" stroke-linecap="round" stroke-linejoin="round"/>
<path d="M215.407 1079.42C215.407 1079.42 194.321 1076.32 183.092 1073.22C171.863 1070.13 163.245 1068.86 148.973 1061.43C134.701 1054 119.809 1047.16 112.969 1052.11C106.129 1057.07 111.111 1074.46 120.429 1083.13C128.871 1091.3 138.761 1097.83 149.593 1102.39C158.264 1105.48 170.059 1109.82 179.376 1108.58C188.693 1107.34 197.364 1101.74 205.443 1101.74C211.886 1101.55 218.31 1100.93 224.67 1099.88L215.407 1079.42Z" fill="#9DA3A5" stroke="#263238" stroke-linecap="round" stroke-linejoin="round"/>
<path d="M113.023 1052.11C106.21 1057.07 111.165 1074.46 120.482 1083.13C128.924 1091.3 138.814 1097.83 149.646 1102.39C158.317 1105.48 170.112 1109.82 179.429 1108.58C183.954 1107.78 188.384 1106.51 192.652 1104.81C188.721 1104.42 184.881 1103.38 181.287 1101.74C177.046 1098.17 173.101 1094.26 169.493 1090.05C171.619 1090.54 173.826 1090.58 175.966 1090.15C178.106 1089.72 180.131 1088.84 181.907 1087.58C188.127 1083.21 183.146 1073.3 183.146 1073.3C171.97 1070.18 163.299 1068.94 149.027 1061.51C134.754 1054.08 119.863 1047.16 113.023 1052.11Z" fill="#263238" stroke="#263238" stroke-linecap="round" stroke-linejoin="round"/>
<path d="M456.179 886.444L443.145 896.354C443.145 896.354 370.437 780.937 336.426 758.613C302.414 736.288 274.354 740.005 267.541 753.658C260.728 767.311 235.9 1011.15 235.9 1011.15L292.451 1014.9L317.872 878.985L398.658 985.219C398.658 985.219 332.171 1031.64 315.421 1040.94C298.671 1050.23 209.94 1075.7 209.94 1075.7L218.638 1110.44C218.638 1110.44 288.654 1098.64 335.914 1087.5C383.174 1076.35 411.611 1071.34 420.929 1064.53C430.246 1057.71 444.491 1044.06 448.827 1042.79C453.163 1041.53 464.338 1033.5 517.092 1027.28C569.846 1021.06 608.919 1008.06 616.379 993.163C623.838 978.272 618.856 942.295 618.856 939.306C618.856 936.316 619.476 920.078 615.14 916.982C610.804 913.885 538.823 913.885 520.889 908.284C502.954 902.682 456.179 886.444 456.179 886.444Z" fill="#263238" stroke="#263238" stroke-linecap="round" stroke-linejoin="round"/>
<path d="M461.348 648.231C461.348 648.231 386.405 665.789 383.012 672.467C379.619 679.145 310.762 785.999 312.889 789.366C315.016 792.732 323.661 825.827 323.661 825.827C323.661 825.827 339.818 814.356 352.717 814.356C365.616 814.356 376.334 815.029 376.334 815.029L374.314 786.673L422.194 745.364C422.194 745.364 462.587 816.941 465.28 824.373C467.973 831.806 464.607 853.43 461.887 862.208C459.167 870.987 452.435 872.334 451.762 880.439L451.088 888.518C451.088 888.518 496.868 909.442 504.435 911.461C512.002 913.481 520.592 915.528 520.592 915.528C521.324 920.221 521.324 924.999 520.592 929.692C518.657 935.114 516.166 940.321 513.16 945.23C513.16 945.23 533.41 923.687 562.466 922.287C591.523 920.886 597.474 920.24 602.86 923.633C608.246 927.026 619.017 943.211 619.017 943.211L621.71 953.336C621.41 937.537 622.311 921.738 624.403 906.076C627.769 883.778 627.769 853.403 631.162 839.884C634.555 826.366 646 718.327 646.673 706.182C647.346 694.037 640.614 665.654 634.528 660.241C628.442 654.829 549.783 632.774 537.126 633.312C524.47 633.851 461.348 648.231 461.348 648.231Z" fill="white" stroke="#263238" stroke-linecap="round" stroke-linejoin="round"/>
<path d="M533.114 885.205C533.114 885.205 581.586 879.604 602.618 835.548" stroke="#263238" stroke-linecap="round" stroke-linejoin="round"/>
<path d="M593.92 862.234C593.92 862.234 569.118 885.824 543.051 893.257" stroke="#263238" stroke-linecap="round" stroke-linejoin="round"/>
<path d="M471.07 826.15C471.07 826.15 479.768 840.423 487.82 846.616" stroke="#263238" stroke-linecap="round" stroke-linejoin="round"/>
<path d="M403.263 721.154L422.194 745.471L400.57 729.933" stroke="#263238" stroke-linecap="round" stroke-linejoin="round"/>
<path d="M374.234 786.672C374.234 786.672 356.676 775.901 340.465 773.827" stroke="#263238" stroke-linecap="round" stroke-linejoin="round"/>
<path d="M347.224 767.095C353.645 768.709 359.637 771.705 364.781 775.874" stroke="#263238" stroke-linecap="round" stroke-linejoin="round"/>
<path d="M609.242 784.652L585.599 759.662" stroke="#263238" stroke-linecap="round" stroke-linejoin="round"/>
<path d="M611.262 790.711L576.82 772.48" stroke="#263238" stroke-linecap="round" stroke-linejoin="round"/>
<path d="M512.002 750.884L538.338 703.597L507.262 741.432L497.137 737.366L474.867 698.211V710.356L493.098 750.211L501.877 788.692L498.484 888.652L472.82 927.134L476.213 944.018L514.695 926.461L516.041 886.606L509.982 790.039L512.002 750.884Z" fill="white" stroke="#263238" stroke-linecap="round" stroke-linejoin="round"/>
<path d="M460.002 667.808C460.002 667.808 455.963 688.085 456.636 698.884C457.309 709.682 464.042 737.285 464.042 737.285C464.042 737.285 470.801 714.341 474.813 710.356C478.826 706.37 482.892 700.23 484.939 700.904C486.985 701.577 514.56 700.634 514.56 700.634C514.56 700.634 532.953 712.375 537.019 718.461C541.085 724.547 551.184 740.005 551.184 740.005C551.184 740.005 551.184 698.13 550.51 682.592C549.837 667.054 546.363 633.393 537.531 633.393C528.698 633.393 468.781 622.567 460.002 667.808Z" fill="white" stroke="#263238" stroke-linecap="round" stroke-linejoin="round"/>
<path d="M478.906 686.712C478.906 686.712 486.339 702.25 491.078 711.702C495.818 721.154 502.55 730.552 505.243 727.24C507.936 723.928 514.022 706.316 516.714 689.54C519.407 672.763 478.906 686.712 478.906 686.712Z" stroke="#263238" stroke-linecap="round" stroke-linejoin="round"/>
<path d="M445.003 656.497C445.003 656.497 460.325 684.773 464.446 689.485C474.345 698.788 484.991 707.263 496.276 714.826C499.291 716.08 502.597 716.47 505.821 715.952C509.046 715.433 512.063 714.027 514.533 711.89C519.246 707.178 537.504 672.412 538.096 663.58C538.394 657.291 538.196 650.988 537.504 644.73C537.504 644.73 541.624 642.36 543.994 629.407C546.363 616.454 548.114 611.149 535.726 604.067C523.339 596.985 501.554 607.595 489.193 619.389C476.833 631.184 442.148 648.176 442.148 648.176L445.003 656.497Z" fill="white" stroke="#263238" stroke-linecap="round" stroke-linejoin="round"/>
<path d="M504.516 553.333C504.516 553.333 494.498 539.869 463.853 545.658C433.208 551.448 402.59 585.136 400.812 593.969C399.858 601.596 399.858 609.312 400.812 616.939L412.527 606.949C412.527 606.949 403.694 626.957 407.814 635.79C410.76 641.901 414.106 647.811 417.832 653.482L426.664 643.464C426.664 643.464 436.089 661.13 439.617 662.907L456.717 655.232L459.06 663.499C459.06 663.499 468.485 658.114 478.502 652.889C488.52 647.665 496.195 631.669 496.195 631.669L495.602 652.297C495.602 652.297 508.555 650.52 513.268 645.807C517.98 641.095 522.1 625.206 522.1 625.206L528.59 644.649C528.59 644.649 533.303 626.364 533.976 619.901C534.649 613.439 535.134 609.884 535.134 609.884C537.235 611.186 539.05 612.9 540.471 614.922C541.892 616.945 542.889 619.234 543.401 621.652C544.207 625.57 544.003 629.629 542.809 633.447C542.809 633.447 551.049 619.309 550.457 608.107C549.864 596.904 548.114 591.034 538.689 578.081C533.344 570.578 527.002 563.837 519.838 558.046C519.838 558.046 516.876 548.028 512.756 543.908C508.636 539.788 505.701 540.353 505.701 540.353L508.636 553.818L504.516 553.333Z" fill="#263238" stroke="#263238" stroke-linecap="round" stroke-linejoin="round"/>
<path d="M492.102 695.841C492.102 695.841 496.276 700.365 499.749 699.314C503.223 698.264 507.047 695.841 507.37 693.417" stroke="#263238" stroke-linecap="round" stroke-linejoin="round"/>
<path d="M495.926 704.862L507.047 703.139" stroke="#263238" stroke-linecap="round" stroke-linejoin="round"/>
<path d="M465.361 676.748C467.687 678.465 470.516 679.362 473.406 679.299C476.295 679.236 479.082 678.216 481.33 676.398" stroke="#263238" stroke-linecap="round" stroke-linejoin="round"/>
<path d="M463.691 673.275C468.215 668.401 481.761 669.451 481.761 669.451L488.708 674.998L492.182 690.967" stroke="#263238" stroke-linecap="round" stroke-linejoin="round"/>
<path d="M502.873 670.824C502.873 670.824 513.295 674.648 517.792 665.977" stroke="#263238" stroke-linecap="round" stroke-linejoin="round"/>
<path d="M502.523 664.227C506.552 662.279 510.73 660.658 515.018 659.38C517.885 658.761 520.85 658.761 523.716 659.38" stroke="#263238" stroke-linecap="round" stroke-linejoin="round"/>
<path d="M665.281 883.347C665.281 883.347 665.901 918.085 665.901 950.346C665.738 967.981 666.782 985.607 669.024 1003.1C669.024 1003.1 691.348 1006.82 696.923 1006.82C705.702 1007.38 714.314 1009.48 722.371 1013.01C730.449 1016.75 741.625 1017.99 737.262 1021.09C732.9 1024.19 727.972 1022.95 719.893 1022.33C711.815 1021.71 704.382 1021.71 704.382 1021.71C704.382 1021.71 713.7 1028.52 711.195 1030.41C708.691 1032.29 705.621 1029.79 700.047 1028.52C694.472 1027.25 695.065 1026.04 688.252 1026.04C681.439 1026.04 674.599 1026.66 666.52 1023.57C658.441 1020.47 650.363 1005.58 649.77 1001.24C649.178 996.906 621.226 883.966 621.226 883.966L665.281 883.347Z" fill="white" stroke="#263238" stroke-linecap="round" stroke-linejoin="round"/>
<path d="M704.382 1021.71L683.916 1016.75" stroke="#263238" stroke-linecap="round" stroke-linejoin="round"/>
<path d="M599.79 746.817L618.64 873.787L665.928 869.048C665.928 869.048 659.842 825.827 661.188 797.471C662.534 769.114 655.102 672.547 652.409 665.788C649.716 659.029 611.881 655.017 611.881 655.017" fill="white"/>
<path d="M599.79 746.817L618.64 873.787L665.928 869.048C665.928 869.048 659.842 825.827 661.188 797.471C662.534 769.114 655.102 672.547 652.409 665.788C649.716 659.029 611.881 655.017 611.881 655.017" stroke="#263238" stroke-linecap="round" stroke-linejoin="round"/>
<path d="M378.3 825.827C378.3 825.827 396.531 921.048 398.55 925.788C400.57 930.527 406.629 991.279 406.629 993.325C406.629 995.372 405.282 1012.18 405.282 1012.18H399.897L399.223 997.984L398.55 985.166L393.999 1017.75L387.509 1018.77V999.6C387.509 998.038 386.998 983.442 386.998 983.442L381.046 1009.89L379.485 1014.03L374.826 1013.76L375.607 1002.99L375.849 980.696H371.702C371.702 980.696 370.41 993.918 370.679 995.749C370.948 997.58 370.679 1009.99 370.679 1009.99L366.262 1008.19L364.458 992.033L363.92 970.005L374.691 921.775L327.512 829.49C327.512 829.49 343.4 791.789 378.3 825.827Z" fill="white" stroke="#263238" stroke-linecap="round" stroke-linejoin="round"/>
<path d="M312.89 811.662L326.354 838.591C330.946 832.241 337.615 827.697 345.204 825.746C357.349 823.053 378.3 825.746 378.3 825.746L380.993 799.41C380.993 799.41 333.032 789.365 312.89 811.662Z" fill="white" stroke="#263238" stroke-linecap="round" stroke-linejoin="round"/>
<path d="M610.696 865.332L619.879 894.496C626.864 895.609 633.919 896.23 640.991 896.354C650.901 896.354 672.013 888.922 672.013 888.922V853.537C672.013 853.537 637.356 861.616 610.696 865.332Z" fill="white" stroke="#263238" stroke-linecap="round" stroke-linejoin="round"/>
<path d="M416.458 981.368C416.458 981.368 519.461 947.33 537.477 936.693C555.492 926.056 597.043 923.659 602.618 941.028" stroke="#949494" stroke-linecap="round" stroke-linejoin="round"/>
<path d="M446.241 901.336C446.241 901.336 461.752 914.989 468.592 928.022" stroke="#263238" stroke-linecap="round" stroke-linejoin="round"/>
<path d="M601.919 1080.25L512.138 1110.84L652.922 1152.69L725.361 1108.82L601.919 1080.25Z" fill="white" stroke="#263238" stroke-linecap="round" stroke-linejoin="round"/>
<path d="M519.273 1075.13L614.144 1109.82C614.144 1109.82 546.822 1138.39 532.522 1142.48C522.022 1145.74 511.793 1149.82 501.931 1154.68L410.104 1109.77C410.104 1109.77 507.021 1081.27 519.273 1075.13Z" fill="white" stroke="#263238" stroke-linecap="round" stroke-linejoin="round"/>
<path d="M908.559 1097.81L1003.43 1132.49C1003.43 1132.49 936.107 1161.06 921.808 1165.13C911.31 1168.42 901.082 1172.52 891.216 1177.38L799.389 1132.49C799.389 1132.49 896.306 1103.92 908.559 1097.81Z" fill="white" stroke="#263238" stroke-linecap="round" stroke-linejoin="round"/>
<path d="M352.96 1100.64C352.96 1100.64 412.204 1136.37 448.854 1144.53C448.854 1144.53 385.598 1184.3 355.007 1192.46C355.007 1192.46 269.292 1164.92 244.813 1148.6C244.813 1148.6 321.319 1116.98 352.96 1100.64Z" fill="white" stroke="#263238" stroke-linecap="round" stroke-linejoin="round"/>
<path d="M142.78 833.34C136.096 848.633 127.52 863.027 117.251 876.184C99.909 898.615 85.6367 915.015 85.6367 915.015C99.9527 921.61 115.031 926.404 130.527 929.288C146.68 932.384 163.067 934.096 179.511 934.404C179.511 934.404 211.126 905.832 221.332 887.467C228.396 875.08 236.239 863.153 244.814 851.759C244.814 851.759 160.122 846.589 142.78 833.34Z" fill="white" stroke="#263238" stroke-linecap="round" stroke-linejoin="round"/>
<path d="M989.318 371.967C982.634 387.26 974.058 401.654 963.789 414.811C946.447 437.243 932.175 453.588 932.175 453.588C946.491 460.183 961.569 464.977 977.065 467.861C993.218 470.957 1009.61 472.669 1026.05 472.977C1026.05 472.977 1057.66 444.406 1067.87 426.04C1074.93 413.653 1082.78 401.726 1091.35 390.332C1091.35 390.332 1006.66 385.216 989.318 371.967Z" fill="white" stroke="#263238" stroke-linecap="round" stroke-linejoin="round"/>
<path d="M264.687 578.754C264.687 578.754 237.085 606.383 225.587 633.985C218.134 652.607 212.357 671.856 208.325 691.505L302.576 719.107C302.576 719.107 306.023 681.137 317.549 653.535C329.075 625.933 356.65 593.726 356.65 593.726C356.65 593.726 304.973 568.413 264.687 578.754Z" fill="white" stroke="#263238" stroke-linecap="round" stroke-linejoin="round"/>
<path d="M767.262 22.6445C767.262 22.6445 739.66 50.2467 728.161 77.8488C720.696 96.4756 714.919 115.735 710.899 135.396L805.151 162.998C805.151 162.998 808.598 125.028 820.096 97.4261C831.595 69.824 859.224 37.5901 859.224 37.5901C859.224 37.5901 807.52 12.2769 767.262 22.6445Z" fill="white" stroke="#263238" stroke-linecap="round" stroke-linejoin="round"/>
<path d="M64.444 389.497C57.7706 404.79 49.203 419.184 38.9423 432.341C21.6 454.8 7.30078 471.119 7.30078 471.119C21.6261 477.72 36.7132 482.523 52.2182 485.418C68.3636 488.498 84.7414 490.2 101.175 490.507C101.175 490.507 132.817 461.936 143.023 443.57C150.083 431.187 157.917 419.261 166.478 407.863C166.478 407.863 81.7862 402.773 64.444 389.497Z" fill="white" stroke="#263238" stroke-linecap="round" stroke-linejoin="round"/>
</svg>
