<svg width="1253" height="1166" viewBox="0 0 1253 1166" fill="none" xmlns="http://www.w3.org/2000/svg">
<path d="M1015.04 912.668H1178.89" stroke="#263238" stroke-linecap="round" stroke-linejoin="round"/>
<path d="M151.229 912.668H264.228" stroke="#263238" stroke-linecap="round" stroke-linejoin="round"/>
<path d="M160.237 779.819C160.237 779.819 154.788 754.548 124.999 754.548C95.2109 754.548 60.6787 772.28 60.6787 772.28C60.6787 772.28 92.8391 781.739 109.385 789.08C125.931 796.421 151.484 798.737 160.237 779.819Z" fill="white"/>
<path d="M196.577 792.271C196.295 792.271 177.01 780.073 181.979 762.341C186.949 744.609 210.61 722.811 212.502 709.371C212.502 709.371 244.069 786.257 196.577 792.271Z" fill="white"/>
<path d="M243.843 818.926C243.843 818.926 235.626 801.052 253.612 787.386C271.598 773.72 328.098 772.28 328.098 772.28C328.098 772.28 304.69 788.826 296.869 801.363C289.048 813.9 260.135 834.625 243.843 818.926Z" fill="white"/>
<path d="M282.018 730.661C282.018 730.661 275.383 711.545 301.783 702.425C328.183 693.305 358.056 696.496 372.711 688.448C372.57 688.335 318.668 768.722 282.018 730.661Z" fill="white"/>
<path d="M157.47 744.073C157.47 744.073 166.958 693.474 111.446 672.919C111.446 672.919 120.877 682.886 119.917 703.555C118.957 724.223 118.985 746.557 157.47 744.073Z" fill="white"/>
<path opacity="0.2" d="M160.237 779.819C160.237 779.819 154.788 754.548 124.999 754.548C95.2109 754.548 60.6787 772.28 60.6787 772.28C60.6787 772.28 92.8391 781.739 109.385 789.08C125.931 796.421 151.484 798.737 160.237 779.819Z" fill="black"/>
<path opacity="0.2" d="M196.577 792.271C196.295 792.271 177.01 780.073 181.979 762.341C186.949 744.609 210.61 722.811 212.502 709.371C212.502 709.371 244.069 786.257 196.577 792.271Z" fill="black"/>
<path opacity="0.2" d="M243.843 818.926C243.843 818.926 235.626 801.052 253.612 787.386C271.598 773.72 328.098 772.28 328.098 772.28C328.098 772.28 304.69 788.826 296.869 801.363C289.048 813.9 260.135 834.625 243.843 818.926Z" fill="black"/>
<path opacity="0.2" d="M282.018 730.661C282.018 730.661 275.383 711.545 301.783 702.425C328.183 693.305 358.056 696.496 372.711 688.448C372.57 688.335 318.668 768.722 282.018 730.661Z" fill="black"/>
<path opacity="0.2" d="M157.47 744.073C157.47 744.073 166.958 693.474 111.446 672.919C111.446 672.919 120.877 682.886 119.917 703.555C118.957 724.223 118.985 746.557 157.47 744.073Z" fill="black"/>
<path d="M172.294 853.203H252.088L238.93 914.249H187.456L172.294 853.203Z" fill="#263238"/>
<path d="M220.831 855.773L246.328 768.299L280.832 702.312" stroke="#263238" stroke-linecap="round" stroke-linejoin="round"/>
<path d="M256.831 811.781L229.217 827.028" stroke="#263238" stroke-linecap="round" stroke-linejoin="round"/>
<path d="M151.371 728.797L202.845 855.772" stroke="#263238" stroke-linecap="round" stroke-linejoin="round"/>
<path d="M202.845 772.28L188.106 819.406" stroke="#263238" stroke-linecap="round" stroke-linejoin="round"/>
<path d="M145.357 772.28L175.118 787.386" stroke="#263238" stroke-linecap="round" stroke-linejoin="round"/>
<path d="M256.831 748.195L304.521 722.077" stroke="#263238" stroke-linecap="round" stroke-linejoin="round"/>
<path d="M1011.57 122.353C1002.34 96.9409 979.324 86.296 960.208 98.6068C954.31 102.523 949.463 107.826 946.091 114.052C931.21 81.1007 899.05 70.3994 874.231 90.1643C866.035 96.9711 859.652 105.702 855.652 115.576H853.873C847.106 115.605 840.438 117.2 834.39 120.235C824.028 87.5666 800.79 65.3452 774.164 62.6628C760.329 24.9683 726.163 9.32576 697.758 27.7071C689.17 33.4769 682.092 41.2232 677.118 50.2956C655.066 1.30685 607.32 -14.6463 570.472 14.7188C558.275 24.8036 548.768 37.7546 542.801 52.4133H540.317C506.095 52.4133 475.375 80.6489 463.262 123.002C462.217 122.805 461.172 122.607 460.127 122.494C450.838 97.0821 427.826 86.4654 408.682 98.8044C402.779 102.703 397.93 107.999 394.564 114.221C379.656 81.2419 347.496 70.5688 322.705 90.362C314.521 97.1808 308.141 105.908 304.126 115.774H302.347C271.683 115.774 246.892 149.007 246.977 189.78C247.061 230.552 271.994 263.475 302.657 263.362C317.989 263.362 332.644 254.891 343.091 239.898C355.769 258.251 376.55 261.78 392.277 248.368C406.621 269.178 430.932 270.59 446.603 251.503C447.252 250.684 447.93 249.808 448.551 248.933C454.517 250.217 460.703 250.059 466.596 248.473C472.488 246.887 477.918 243.918 482.434 239.813C514.679 282.477 566.83 282.308 598.905 239.446C599.47 238.712 600.035 237.95 600.571 237.159C619.376 264.406 650.238 269.658 673.617 249.583C694.935 280.642 731.105 282.534 754.342 254.157C755.331 252.971 756.263 251.729 757.166 250.43C775.717 254.609 794.748 248.848 810.108 234.42C828.743 266.722 863.558 272.821 887.869 248.03C890.296 245.535 892.524 242.854 894.532 240.011C907.21 258.364 927.992 261.893 943.719 248.481C958.034 269.291 982.317 270.703 997.959 251.672C998.637 250.825 999.315 249.95 999.964 249.046C1026.03 255.089 1050.79 231.879 1055.39 197.234C1059.99 162.589 1042.49 129.468 1016.43 123.539C1014.83 123.107 1013.21 122.777 1011.57 122.551V122.353Z" fill="#263238"/>
<mask id="mask0_1270_177976" style="mask-type:luminance" maskUnits="userSpaceOnUse" x="246" y="0" width="811" height="275">
<path d="M1011.57 122.353C1002.34 96.9409 979.324 86.296 960.208 98.6068C954.31 102.523 949.463 107.826 946.091 114.052C931.21 81.1007 899.05 70.3994 874.231 90.1643C866.035 96.9711 859.652 105.702 855.652 115.576H853.873C847.106 115.605 840.438 117.2 834.39 120.235C824.028 87.5666 800.79 65.3452 774.164 62.6628C760.329 24.9683 726.163 9.32576 697.758 27.7071C689.17 33.4769 682.092 41.2232 677.118 50.2956C655.066 1.30685 607.32 -14.6463 570.472 14.7188C558.275 24.8036 548.768 37.7546 542.801 52.4133H540.317C506.095 52.4133 475.375 80.6489 463.262 123.002C462.217 122.805 461.172 122.607 460.127 122.494C450.838 97.0821 427.826 86.4654 408.682 98.8044C402.779 102.703 397.93 107.999 394.564 114.221C379.656 81.2419 347.496 70.5688 322.705 90.362C314.521 97.1808 308.141 105.908 304.126 115.774H302.347C271.683 115.774 246.892 149.007 246.977 189.78C247.061 230.552 271.994 263.475 302.657 263.362C317.989 263.362 332.644 254.891 343.091 239.898C355.769 258.251 376.55 261.78 392.277 248.368C406.621 269.178 430.932 270.59 446.603 251.503C447.252 250.684 447.93 249.808 448.551 248.933C454.517 250.217 460.703 250.059 466.596 248.473C472.488 246.887 477.918 243.918 482.434 239.813C514.679 282.477 566.83 282.308 598.905 239.446C599.47 238.712 600.035 237.95 600.571 237.159C619.376 264.406 650.238 269.658 673.617 249.583C694.935 280.642 731.105 282.534 754.342 254.157C755.331 252.971 756.263 251.729 757.166 250.43C775.717 254.609 794.748 248.848 810.108 234.42C828.743 266.722 863.558 272.821 887.869 248.03C890.296 245.535 892.524 242.854 894.532 240.011C907.21 258.364 927.992 261.893 943.719 248.481C958.034 269.291 982.317 270.703 997.959 251.672C998.637 250.825 999.315 249.95 999.964 249.046C1026.03 255.089 1050.79 231.879 1055.39 197.234C1059.99 162.589 1042.49 129.468 1016.43 123.539C1014.83 123.107 1013.21 122.777 1011.57 122.551V122.353Z" fill="white"/>
</mask>
<g mask="url(#mask0_1270_177976)">
<path opacity="0.2" d="M1011.57 122.353C1002.34 96.9409 979.324 86.296 960.208 98.6068C954.31 102.523 949.463 107.826 946.091 114.052C931.21 81.1007 899.05 70.3994 874.231 90.1643C866.035 96.9711 859.652 105.702 855.652 115.576H853.873C847.106 115.605 840.438 117.2 834.39 120.235C824.028 87.5666 800.79 65.3452 774.164 62.6628C760.329 24.9683 726.163 9.32576 697.758 27.7071C689.17 33.4769 682.092 41.2232 677.118 50.2956C655.066 1.30685 607.32 -14.6463 570.472 14.7188C558.275 24.8036 548.768 37.7546 542.801 52.4133H540.317C506.095 52.4133 475.375 80.6489 463.262 123.002C462.217 122.805 461.172 122.607 460.127 122.494C450.838 97.0821 427.826 86.4654 408.682 98.8044C402.779 102.703 397.93 107.999 394.564 114.221C379.656 81.2419 347.496 70.5688 322.705 90.362C314.521 97.1808 308.141 105.908 304.126 115.774H302.347C271.683 115.774 246.892 149.007 246.977 189.78C247.061 230.552 271.994 263.475 302.657 263.362C317.989 263.362 332.644 254.891 343.091 239.898C355.769 258.251 376.55 261.78 392.277 248.368C406.621 269.178 430.932 270.59 446.603 251.503C447.252 250.684 447.93 249.808 448.551 248.933C454.517 250.217 460.703 250.059 466.596 248.473C472.488 246.887 477.918 243.918 482.434 239.813C514.679 282.477 566.83 282.308 598.905 239.446C599.47 238.712 600.035 237.95 600.571 237.159C619.376 264.406 650.238 269.658 673.617 249.583C694.935 280.642 731.105 282.534 754.342 254.157C755.331 252.971 756.263 251.729 757.166 250.43C775.717 254.609 794.748 248.848 810.108 234.42C828.743 266.722 863.558 272.821 887.869 248.03C890.296 245.535 892.524 242.854 894.532 240.011C907.21 258.364 927.992 261.893 943.719 248.481C958.034 269.291 982.317 270.703 997.959 251.672C998.637 250.825 999.315 249.95 999.964 249.046C1026.03 255.089 1050.79 231.879 1055.39 197.234C1059.99 162.589 1042.49 129.468 1016.43 123.539C1014.83 123.107 1013.21 122.777 1011.57 122.551V122.353Z" fill="white"/>
</g>
<path d="M442.226 185.798L425.539 244.952H449.652L420.005 343.522L484.89 240.039L458.942 225.243L488.589 173.487L442.226 185.798Z" fill="white"/>
<path d="M1011.57 150.504C1002.31 125.092 979.296 114.475 960.18 126.786C954.292 130.726 949.448 136.036 946.063 142.259C931.182 109.28 899.022 98.5788 874.203 118.344C865.997 125.142 859.612 133.875 855.624 143.756H853.845C847.078 143.785 840.41 145.379 834.362 148.415C824 115.746 800.762 93.5246 774.136 90.8423C760.3 53.1477 726.135 37.5052 697.73 55.8866C689.142 61.6563 682.064 69.4027 677.09 78.4751C655.038 29.5145 607.292 13.5332 570.472 42.87C558.258 52.9449 548.739 65.8982 542.773 80.5645H540.317C506.208 80.5645 475.685 108.8 463.516 151.154C462.463 151.03 461.416 150.851 460.382 150.617C451.064 125.205 428.052 114.617 408.908 126.956C403.025 130.877 398.18 136.167 394.79 142.372C379.91 109.28 347.722 98.6071 322.903 118.4C314.737 125.16 308.365 133.831 304.352 143.643H302.573C284.107 143.643 266.855 155.812 256.549 176.17C273.688 210.053 308.164 218.834 333.576 196.076C337.091 192.894 340.244 189.334 342.978 185.46C355.628 203.813 376.409 207.342 392.136 193.93C406.48 214.74 430.819 216.124 446.462 197.065C447.139 196.218 447.789 195.371 448.41 194.495C454.376 195.774 460.561 195.614 466.453 194.028C472.345 192.442 477.774 189.476 482.293 185.375C514.566 228.011 566.745 227.729 598.821 184.895C599.357 184.189 599.894 183.455 600.402 182.721C619.235 209.94 650.069 215.164 673.448 195.116C694.766 226.006 730.879 228.096 754.145 199.775C755.133 198.561 756.093 197.291 756.969 195.992C760.874 196.844 764.859 197.28 768.856 197.291C784.271 197.002 798.979 190.771 809.91 179.897C828.602 212.199 863.417 218.27 887.728 193.45C890.151 190.988 892.362 188.324 894.335 185.488C907.013 203.841 927.794 207.371 943.521 193.959C957.837 214.768 982.119 216.18 997.762 197.149C998.468 196.302 999.117 195.427 999.767 194.523C1016.43 198.307 1033.37 190.119 1044.29 172.98C1036.05 159.85 1024.28 151.831 1011.57 150.504Z" fill="#263238"/>
<path d="M1244.06 560.203C1232.94 554.104 1227.85 559.186 1223.82 554.104C1219.78 549.022 1234.94 535.892 1204.59 522.734C1204.59 522.734 1202.56 494.499 1161.05 493.397C1119.54 492.296 1130.67 521.633 1119.54 528.805C1108.42 535.977 1105.42 524.767 1094.13 531.854C1082.84 538.941 1088.06 553.116 1078.97 555.149C1069.88 557.182 1057.68 546.029 1046.55 553.116C1035.43 560.203 1035.43 566.273 1030.37 566.273C1025.32 566.273 1015.16 562.236 1009.08 566.273C1003.01 570.311 995.955 575.365 995.955 575.365H1252.08C1252.08 575.365 1255.19 566.217 1244.06 560.203Z" fill="white"/>
<path opacity="0.2" d="M1244.06 560.203C1232.94 554.104 1227.85 559.186 1223.82 554.104C1219.78 549.022 1234.94 535.892 1204.59 522.734C1204.59 522.734 1202.56 494.499 1161.05 493.397C1119.54 492.296 1130.67 521.633 1119.54 528.805C1108.42 535.977 1105.42 524.767 1094.13 531.854C1082.84 538.941 1088.06 553.116 1078.97 555.149C1069.88 557.182 1057.68 546.029 1046.55 553.116C1035.43 560.203 1035.43 566.273 1030.37 566.273C1025.32 566.273 1015.16 562.236 1009.08 566.273C1003.01 570.311 995.955 575.365 995.955 575.365H1252.08C1252.08 575.365 1255.19 566.217 1244.06 560.203Z" fill="black"/>
<path d="M266.431 523.496C254.459 516.945 249.01 522.395 244.662 516.945C240.313 511.496 256.633 497.378 223.993 483.232C223.993 483.232 221.819 452.766 177.207 451.693C132.594 450.62 144.623 482.103 132.651 489.613C120.679 497.124 117.432 485.378 105.488 493.001C93.5446 500.625 98.9941 515.844 89.1963 518.018C79.3985 520.192 66.3537 508.22 54.3818 515.844C42.4099 523.468 42.4099 529.962 36.9604 529.962C31.5109 529.962 20.6402 525.614 14.1178 529.962C7.59538 534.31 0 539.731 0 539.731H275.184C275.184 539.731 278.431 529.792 266.431 523.496Z" fill="white"/>
<path opacity="0.2" d="M266.431 523.496C254.459 516.945 249.01 522.395 244.662 516.945C240.313 511.496 256.633 497.378 223.993 483.232C223.993 483.232 221.819 452.766 177.207 451.693C132.594 450.62 144.623 482.103 132.651 489.613C120.679 497.124 117.432 485.378 105.488 493.001C93.5446 500.625 98.9941 515.844 89.1963 518.018C79.3985 520.192 66.3537 508.22 54.3818 515.844C42.4099 523.468 42.4099 529.962 36.9604 529.962C31.5109 529.962 20.6402 525.614 14.1178 529.962C7.59538 534.31 0 539.731 0 539.731H275.184C275.184 539.731 278.431 529.792 266.431 523.496Z" fill="black"/>
<path d="M513.691 387.626H769.816C769.816 387.626 762.729 382.544 756.686 378.506C750.644 374.468 740.479 378.506 735.397 378.506C730.314 378.506 730.343 372.435 719.218 365.348C708.093 358.261 695.923 369.386 686.803 367.381C677.683 365.376 682.766 351.174 671.641 344.087C660.516 337 657.523 348.125 646.229 341.037C634.934 333.95 646.229 304.642 604.722 305.63C563.216 306.618 561.183 334.967 561.183 334.967C530.801 348.124 545.992 361.282 541.955 366.336C537.917 371.391 532.834 366.336 521.71 372.435C510.585 378.534 513.691 387.626 513.691 387.626Z" fill="white"/>
<path opacity="0.2" d="M513.691 387.626H769.816C769.816 387.626 762.729 382.544 756.686 378.506C750.644 374.468 740.479 378.506 735.397 378.506C730.314 378.506 730.343 372.435 719.218 365.348C708.093 358.261 695.923 369.386 686.803 367.381C677.683 365.376 682.766 351.174 671.641 344.087C660.516 337 657.523 348.125 646.229 341.037C634.934 333.95 646.229 304.642 604.722 305.63C563.216 306.618 561.183 334.967 561.183 334.967C530.801 348.124 545.992 361.282 541.955 366.336C537.917 371.391 532.834 366.336 521.71 372.435C510.585 378.534 513.691 387.626 513.691 387.626Z" fill="black"/>
<path d="M334.648 218.438L322.281 304.105" stroke="#263238" stroke-linecap="round" stroke-linejoin="round"/>
<path d="M468.429 274.684L456.062 360.35" stroke="#263238" stroke-linecap="round" stroke-linejoin="round"/>
<path d="M304.719 425.998L296.757 481.199" stroke="#263238" stroke-linecap="round" stroke-linejoin="round"/>
<path d="M375.28 354.506L367.317 409.763" stroke="#263238" stroke-linecap="round" stroke-linejoin="round"/>
<path d="M285.208 561.19L272.841 646.886" stroke="#263238" stroke-linecap="round" stroke-linejoin="round"/>
<path d="M871.888 307.606L859.521 393.302" stroke="#263238" stroke-linecap="round" stroke-linejoin="round"/>
<path d="M337.19 972.471L330.301 1020.05" stroke="#263238" stroke-linecap="round" stroke-linejoin="round"/>
<path d="M837.187 234.448L830.354 282.054" stroke="#263238" stroke-linecap="round" stroke-linejoin="round"/>
<path d="M361.162 546.875L354.272 594.48" stroke="#263238" stroke-linecap="round" stroke-linejoin="round"/>
<path d="M644.647 803.961L637.786 851.538" stroke="#263238" stroke-linecap="round" stroke-linejoin="round"/>
<path d="M499.545 1001.61L492.712 1049.21" stroke="#263238" stroke-linecap="round" stroke-linejoin="round"/>
<path d="M846.222 585.275L839.36 632.881" stroke="#263238" stroke-linecap="round" stroke-linejoin="round"/>
<path d="M910.655 429.811L903.766 477.416" stroke="#263238" stroke-linecap="round" stroke-linejoin="round"/>
<path d="M232.831 363.626L225.97 411.203" stroke="#263238" stroke-linecap="round" stroke-linejoin="round"/>
<path d="M754.089 699.573L747.228 747.179" stroke="#263238" stroke-linecap="round" stroke-linejoin="round"/>
<path d="M865.337 730.435L858.476 778.04" stroke="#263238" stroke-linecap="round" stroke-linejoin="round"/>
<path d="M787.181 962.108L780.319 1009.71" stroke="#263238" stroke-linecap="round" stroke-linejoin="round"/>
<path d="M658.313 256.161L651.424 303.795" stroke="#263238" stroke-linecap="round" stroke-linejoin="round"/>
<path d="M994.063 309.668L987.202 357.301" stroke="#263238" stroke-linecap="round" stroke-linejoin="round"/>
<path d="M965.206 509.633L958.373 557.21" stroke="#263238" stroke-linecap="round" stroke-linejoin="round"/>
<path d="M912.717 621.05L905.827 668.655" stroke="#263238" stroke-linecap="round" stroke-linejoin="round"/>
<path d="M758.465 298.995L751.604 346.6" stroke="#263238" stroke-linecap="round" stroke-linejoin="round"/>
<path d="M651.509 410.469L644.647 458.074" stroke="#263238" stroke-linecap="round" stroke-linejoin="round"/>
<path d="M538.397 488.201L531.508 535.806" stroke="#263238" stroke-linecap="round" stroke-linejoin="round"/>
<path d="M782.099 398.073L775.237 445.678" stroke="#263238" stroke-linecap="round" stroke-linejoin="round"/>
<path d="M778.174 523.072L771.312 570.706" stroke="#263238" stroke-linecap="round" stroke-linejoin="round"/>
<path d="M427.063 480.578L420.202 528.183" stroke="#263238" stroke-linecap="round" stroke-linejoin="round"/>
<path d="M502.989 398.073L496.1 445.678" stroke="#263238" stroke-linecap="round" stroke-linejoin="round"/>
<path d="M396.315 680.26L389.454 727.837" stroke="#263238" stroke-linecap="round" stroke-linejoin="round"/>
<path d="M516.203 751.979L509.37 799.584" stroke="#263238" stroke-linecap="round" stroke-linejoin="round"/>
<path d="M929.996 794.162L915.737 893.184" stroke="#263238" stroke-linecap="round" stroke-linejoin="round"/>
<path d="M1047.8 397.509L1033.51 496.531" stroke="#263238" stroke-linecap="round" stroke-linejoin="round"/>
<path d="M463.629 789.362L449.37 888.385" stroke="#263238" stroke-linecap="round" stroke-linejoin="round"/>
<path d="M321.011 838.492L314.149 886.097" stroke="#263238" stroke-linecap="round" stroke-linejoin="round"/>
<path d="M719.867 1163.12C741.374 1161.33 762.776 1158.45 783.99 1154.48C845.713 1142.79 911.05 1121.61 955.408 1074.99C1007.59 1020.3 1018.51 933.167 990.42 864.216C968.651 810.85 921.61 767.65 865.647 753.73C826.908 744.073 785.147 747.941 747.848 733.682C690.078 711.602 656.054 651.63 603.846 618.453C551.639 585.276 482.433 582.17 425.2 606.114C367.966 630.058 322.761 679.047 298.535 736.167C274.309 793.288 270.102 857.891 281.424 918.795C293.142 982.071 319.316 1042.16 372.879 1080.73C418.621 1113.68 486.838 1149.17 539.921 1156.68C599.477 1165.51 659.832 1167.67 719.867 1163.12Z" fill="white"/>
<path opacity="0.5" d="M719.867 1163.12C741.374 1161.33 762.776 1158.45 783.99 1154.48C845.713 1142.79 911.05 1121.61 955.408 1074.99C1007.59 1020.3 1018.51 933.167 990.42 864.216C968.651 810.85 921.61 767.65 865.647 753.73C826.908 744.073 785.147 747.941 747.848 733.682C690.078 711.602 656.054 651.63 603.846 618.453C551.639 585.276 482.433 582.17 425.2 606.114C367.966 630.058 322.761 679.047 298.535 736.167C274.309 793.288 270.102 857.891 281.424 918.795C293.142 982.071 319.316 1042.16 372.879 1080.73C418.621 1113.68 486.838 1149.17 539.921 1156.68C599.477 1165.51 659.832 1167.67 719.867 1163.12Z" fill="white"/>
<path opacity="0.1" d="M623.78 849.985C623.78 849.985 719.443 900.47 723.142 874.606C726.84 848.743 819.566 774.116 819.566 774.116C776.563 831.095 803.133 900.64 803.133 900.64C864.207 861.844 917.826 866.249 917.826 866.249C852.094 883.19 784.498 961.685 784.498 961.685L654.416 1003.5C654.416 1003.5 503.045 990.909 487.515 913.148C471.986 835.387 379.994 745.852 379.994 745.852L452.475 796.253C486.894 767.452 448.24 690.99 448.24 690.99C513.549 713.861 521.652 786.794 521.652 786.794L623.78 849.985Z" fill="black"/>
<path d="M350.234 734.812C350.234 734.812 473.737 765.504 510.697 897.053" stroke="#2E353A" stroke-width="2" stroke-linecap="round" stroke-linejoin="round"/>
<path d="M430.479 680.346C430.479 680.346 517.417 714.228 491.977 849.985" stroke="#2E353A" stroke-width="2" stroke-linecap="round" stroke-linejoin="round"/>
<path d="M748.61 947.031C748.61 947.031 829.11 852.074 942.984 867.971" stroke="#2E353A" stroke-width="2" stroke-linecap="round" stroke-linejoin="round"/>
<path d="M751.462 912.668C751.462 912.668 763.575 781.203 852.743 758.981" stroke="#2E353A" stroke-width="2" stroke-linecap="round" stroke-linejoin="round"/>
<path d="M583.009 880.141C583.009 880.141 551.95 881.073 506.603 870.964C461.257 860.856 424.212 868.141 417.181 907.671C410.151 947.201 525.719 987.465 606.106 1002.18C686.493 1016.89 767.049 1023.24 806.127 1007.82C845.205 992.406 844.301 936.273 829.224 910.579C814.146 884.885 763.915 881.242 737.768 885.167C711.622 889.092 583.009 880.141 583.009 880.141Z" fill="#263238"/>
<path d="M741.015 1018.04C694.794 1018.04 641.146 1009.94 605.823 1003.47C524.872 988.707 408.456 947.963 415.656 907.473C418.48 892.31 425.652 881.044 437.228 874.07C452.984 864.498 477.125 863.058 506.97 869.665C551.442 879.576 582.642 878.814 582.952 878.785C584.251 878.785 711.735 887.03 737.373 883.416C760.752 880.112 814.23 882.258 830.409 909.788C839.812 925.826 844.527 954.598 835.407 978.598C833.023 985.399 829.219 991.615 824.249 996.834C819.278 1002.05 813.255 1006.15 806.578 1008.87C790.004 1015.53 766.625 1018.04 741.015 1018.04ZM473.37 868.395C459.393 868.395 447.732 871.218 438.894 876.385C428.024 882.964 421.219 893.581 418.649 907.953C412.042 945.026 523.46 985.714 606.416 1000.88C660.967 1010.84 759.425 1024.79 805.421 1006.38C811.717 1003.8 817.392 999.911 822.07 994.97C826.748 990.029 830.322 984.15 832.555 977.723C841.308 954.683 836.621 926.165 827.755 911.059C812.339 884.828 760.498 882.823 737.881 886.07C711.961 889.741 589.051 881.92 582.84 881.524C556.997 881.287 531.26 878.2 506.095 872.319C495.363 869.816 484.39 868.491 473.37 868.366V868.395Z" fill="#263238"/>
<path d="M774.333 628.251C773.091 620.599 772.075 612.636 771.03 604.928C769.206 587.519 766.063 570.274 761.627 553.342C756.376 532.504 747.877 511.384 726.756 499.92C714.206 493.292 700.208 489.883 686.015 489.996C671.823 490.109 657.881 493.742 645.438 500.569C631.598 508.452 620.696 520.622 614.379 535.243C607.828 550.744 612.995 568.928 613.729 585.163C614.604 606.725 612.167 628.294 606.501 649.117C636.177 665.437 713.486 698.699 777.411 646.293L774.333 628.251Z" fill="#263238"/>
<path d="M676.722 652.703C676.722 652.703 626.971 658.887 603.592 664.393C580.213 669.899 571.94 677.72 563.526 692.261C555.112 706.803 542.603 760.874 530.547 783.575C518.49 806.277 496.664 812.291 492.796 836.348C488.927 860.404 510.132 868.677 525.973 871.445C537.699 873.27 549.521 874.42 561.38 874.889C561.38 874.889 587.018 929.92 636.769 934.043C686.52 938.165 723.452 906.513 746.069 894.824C768.686 883.134 770.182 856.31 770.945 825.364C771.707 794.418 791.754 724.789 786.474 705.532C781.194 686.275 773.288 683.113 739.038 667.019C724.384 660.214 697.814 651.32 676.722 652.703Z" fill="white"/>
<path d="M765.609 682.096C765.609 682.096 750.079 699.546 749.063 717.447C748.046 735.348 746.098 836.262 746.098 836.262C746.098 836.262 722.38 769.457 712.978 756.61C712.978 756.61 737.74 710.67 738.39 668.204C748.529 670.354 757.919 675.147 765.609 682.096Z" fill="white"/>
<path d="M645.719 935.737C642.704 935.793 639.687 935.68 636.684 935.398C589.926 931.501 563.864 883.105 560.448 876.103C548.826 875.615 537.24 874.474 525.746 872.687C511.148 870.145 487.318 862.013 491.355 835.98C493.614 821.665 502.057 813.392 510.979 804.921C518.253 798.584 524.426 791.084 529.248 782.728C535.629 770.699 542.292 749.353 548.222 730.464C553.389 713.946 558.302 698.19 562.34 691.329C570.641 676.901 579.281 668.543 603.423 662.839C626.576 657.333 676.186 651.178 676.694 651.122C697.391 649.738 723.678 658.124 739.829 665.663L742.822 667.047C774.276 681.757 782.747 685.71 787.999 704.995C791.02 716.289 786.022 742.803 780.686 771.038C776.817 791.199 772.864 812.036 772.526 825.307C771.848 853.853 771.114 883.416 746.916 895.896C742.342 898.24 737.316 901.402 731.471 904.96C710.125 918.202 681.494 935.737 645.719 935.737ZM676.779 654.03C674.971 654.256 626.576 660.355 603.903 665.691C580.721 671.197 572.843 678.793 564.711 692.769C560.9 699.376 556.071 714.906 550.904 731.283C544.862 750.229 538.283 771.716 531.761 783.97C526.796 792.578 520.452 800.314 512.984 806.869C503.92 815.538 496.24 822.992 494.151 836.432C490.621 859.02 509.567 867.096 526.085 869.976C537.746 871.792 549.502 872.933 561.295 873.392C561.569 873.397 561.838 873.475 562.071 873.619C562.305 873.763 562.495 873.968 562.622 874.211C562.876 874.776 588.514 928.537 636.74 932.546C675.932 935.793 706.906 916.649 729.551 902.701C735.593 899.03 740.535 895.896 745.165 893.496C766.285 882.513 768.488 858.315 769.278 825.222C769.617 811.754 773.599 790.803 777.467 770.53C782.521 743.932 787.773 716.431 784.836 705.758C779.895 687.658 772.469 684.214 741.212 669.588L738.191 668.176C722.69 660.919 697.024 652.759 676.863 654.058L676.779 654.03Z" fill="#263238"/>
<path d="M573.437 847.359C573.253 847.416 573.056 847.416 572.872 847.359C572.698 847.306 572.536 847.217 572.399 847.098C572.261 846.978 572.15 846.831 572.073 846.666C571.995 846.501 571.954 846.322 571.95 846.139C571.947 845.957 571.982 845.776 572.054 845.608C572.223 845.269 587.131 811.359 587.131 802.097C587.131 795.603 583.884 789.024 580.101 781.4C578.463 778.097 576.769 774.68 575.159 770.953C569.964 758.699 581.795 739.499 583.432 737.071C584.167 732.073 592.27 676.844 600.091 666.482C600.335 666.184 600.679 665.986 601.058 665.923C601.438 665.861 601.827 665.939 602.153 666.143C602.311 666.237 602.448 666.363 602.555 666.514C602.662 666.664 602.737 666.835 602.774 667.016C602.811 667.196 602.81 667.383 602.771 667.563C602.732 667.743 602.656 667.913 602.548 668.063C594.953 678.058 586.425 737.099 586.369 737.664C586.323 737.853 586.247 738.035 586.143 738.2C586.143 738.398 573.042 758.417 577.983 770.022C579.508 773.664 581.202 777.052 582.839 780.356C586.736 788.234 590.124 795.095 590.124 802.154C590.124 811.923 575.555 845.269 575.046 846.681C574.886 846.952 574.643 847.163 574.353 847.285C574.064 847.407 573.742 847.433 573.437 847.359Z" fill="#263238"/>
<path d="M561.38 856.987C561.38 856.987 579.338 866.7 592.778 869.439Z" fill="white"/>
<path d="M579.479 877.628C585.211 879.58 591.191 880.711 597.24 880.988Z" fill="white"/>
<path d="M563.667 863.99C573.271 870.113 583.881 874.491 595.008 876.922Z" fill="white"/>
<path d="M649.983 644.515C649.983 644.515 643.235 680.289 642.557 702.313C641.88 724.337 660.063 746.587 685.673 718.294C711.283 690.002 707.245 643.272 707.245 643.272C689.017 650.985 668.529 651.43 649.983 644.515Z" fill="white"/>
<path d="M653.739 680.966L653.485 659.846L647.612 656.43L633.296 657.954L630.868 666.397L653.739 680.966Z" fill="white"/>
<path d="M651.31 690.792H651.056C650.869 690.775 650.687 690.72 650.521 690.63C650.356 690.54 650.211 690.417 650.095 690.269C649.978 690.121 649.893 689.951 649.845 689.769C649.797 689.587 649.786 689.397 649.814 689.211C651.79 679.018 650.491 660.213 650.491 660.016C650.484 659.83 650.513 659.645 650.577 659.471C650.641 659.297 650.739 659.137 650.865 659C650.991 658.864 651.142 658.754 651.311 658.676C651.479 658.598 651.661 658.555 651.847 658.547C652.229 658.522 652.607 658.641 652.905 658.882C653.204 659.123 653.4 659.467 653.456 659.846C653.456 660.609 654.812 679.103 652.75 689.691C652.683 690.017 652.5 690.308 652.236 690.511C651.971 690.713 651.643 690.813 651.31 690.792Z" fill="#263238"/>
<path d="M500.561 1003.19C500.561 1003.19 485.511 1010.53 457.36 1011.44C429.209 1012.34 406.112 998.589 419.157 987.578C426.264 981.785 434.474 977.499 443.289 974.98C452.104 972.461 461.339 971.761 470.433 972.923C488.504 975.747 515.61 982.072 515.61 982.072L500.561 1003.19Z" fill="white"/>
<path d="M454.734 1012.74C435.901 1012.74 418.565 1006.33 414.696 997.657C413.855 995.67 413.74 993.45 414.369 991.385C414.999 989.321 416.334 987.543 418.141 986.363C425.414 980.411 433.826 976.007 442.863 973.424C451.899 970.841 461.368 970.132 470.688 971.342C488.787 974.165 515.865 980.49 515.865 980.547C516.085 980.598 516.291 980.698 516.467 980.839C516.643 980.981 516.784 981.161 516.881 981.366C516.978 981.57 517.016 981.796 516.991 982.021C516.966 982.245 516.879 982.458 516.74 982.636L501.662 1003.7C501.526 1003.9 501.341 1004.07 501.126 1004.18C500.476 1004.46 485.398 1011.69 457.247 1012.65L454.734 1012.74ZM461.793 973.516C446.633 973.61 431.959 978.88 420.202 988.453C418.8 989.247 417.738 990.527 417.218 992.052C416.697 993.577 416.755 995.24 417.379 996.726C420.372 1003.64 436.607 1010.84 457.163 1010.02C482.349 1009.21 497.06 1003.14 499.516 1002.09L513.21 982.834C506.575 981.309 485.144 976.453 470.151 974.165C467.386 973.738 464.592 973.521 461.793 973.516Z" fill="#263238"/>
<path d="M504.627 980.123C505.982 980.123 507.45 980.349 508.862 980.405C499.629 978.316 482.914 974.758 470.433 972.782C461.34 971.629 452.107 972.334 443.293 974.853C434.48 977.372 426.269 981.652 419.158 987.436C412.522 992.942 415.289 999.38 423.252 1004.12C422.844 1000.12 423.822 996.104 426.022 992.738C428.221 989.372 431.509 986.862 435.337 985.629C452.334 978.429 487.516 978.429 504.627 980.123Z" fill="white"/>
<path d="M423.252 1005.51C422.975 1005.49 422.704 1005.42 422.461 1005.28C417.238 1002.2 414.301 998.589 413.991 994.862C413.932 993.215 414.284 991.579 415.013 990.101C415.742 988.622 416.827 987.348 418.169 986.392C425.442 980.439 433.855 976.036 442.891 973.453C451.927 970.869 461.396 970.161 470.716 971.37C483.196 973.262 500.25 976.876 509.258 978.994C509.609 979.062 509.922 979.259 510.137 979.547C510.351 979.834 510.45 980.19 510.415 980.547C510.317 980.89 510.109 981.191 509.824 981.405C509.538 981.619 509.191 981.734 508.834 981.733C507.37 981.718 505.909 981.614 504.458 981.422C486.358 979.502 452.109 979.841 435.93 986.928C432.38 988.05 429.33 990.369 427.301 993.49C425.272 996.611 424.39 1000.34 424.805 1004.04C424.829 1004.31 424.772 1004.58 424.641 1004.81C424.51 1005.05 424.311 1005.24 424.071 1005.37C423.812 1005.47 423.532 1005.52 423.252 1005.51ZM461.794 973.516C446.633 973.61 431.959 978.88 420.202 988.453C419.19 989.139 418.363 990.066 417.797 991.15C417.23 992.234 416.941 993.441 416.955 994.665C417.258 996.041 417.834 997.342 418.649 998.491C419.464 999.641 420.501 1000.61 421.699 1001.36C421.904 997.565 423.244 993.922 425.545 990.901C427.846 987.88 431.002 985.621 434.603 984.415C448.579 978.401 472.947 977.356 490.481 977.864C483.591 976.481 476.363 975.041 470.179 974.165C467.405 973.737 464.601 973.52 461.794 973.516Z" fill="#263238"/>
<path d="M815.19 926.927C815.19 926.927 785.034 968.179 754.907 984.697C724.78 1001.21 587.046 1003.19 558.924 1003.19H500.561V983.935C500.561 983.935 593.06 971.878 644.308 945.393C695.556 918.908 722.69 889.458 762.898 877.628C803.105 865.797 838.259 885.901 837.27 935.426" fill="#263238"/>
<path d="M558.896 1004.43H500.561C500.372 1004.44 500.183 1004.41 500.005 1004.35C499.828 1004.28 499.665 1004.18 499.526 1004.05C499.387 1003.92 499.275 1003.77 499.195 1003.6C499.116 1003.43 499.072 1003.24 499.064 1003.05V983.737C499.077 983.391 499.217 983.062 499.456 982.812C499.695 982.562 500.018 982.409 500.363 982.382C501.295 982.382 593.146 970.156 643.546 944.038C662.363 933.993 680.56 922.829 698.041 910.607C719.952 895.783 738.898 883.077 762.446 876.046C782.635 870.032 801.496 871.952 815.529 881.552C831.002 891.999 839.275 911.059 838.795 935.2C838.781 935.565 838.626 935.909 838.362 936.162C838.099 936.415 837.748 936.556 837.384 936.555C837.196 936.563 837.009 936.533 836.833 936.467C836.657 936.401 836.495 936.301 836.359 936.172C836.222 936.043 836.112 935.888 836.036 935.717C835.96 935.545 835.919 935.36 835.915 935.172C836.395 911.934 828.546 893.665 813.863 883.726C800.621 874.804 782.804 872.997 763.519 878.729C740.451 885.59 721.702 898.24 699.961 912.894C682.402 925.174 664.119 936.385 645.212 946.466C597.55 971.229 513.69 983.426 502.227 985.008V1001.69H559.037C560.618 1001.69 721.448 1001.5 754.23 983.539C783.736 967.389 813.75 926.616 814.061 926.193C814.3 925.891 814.64 925.686 815.018 925.613C815.396 925.54 815.788 925.606 816.122 925.798C816.284 925.881 816.425 925.998 816.537 926.141C816.65 926.284 816.73 926.45 816.773 926.626C816.815 926.803 816.82 926.987 816.786 927.165C816.751 927.344 816.679 927.513 816.574 927.661C816.292 928.056 785.91 969.365 755.783 985.855C722.154 1004.21 560.505 1004.43 558.896 1004.43Z" fill="#263238"/>
<path d="M482.772 887.736L479.469 887.426Z" fill="#263238"/>
<path d="M482.772 889.176H482.631L479.355 888.894C479.166 888.887 478.98 888.842 478.808 888.763C478.637 888.684 478.482 888.571 478.353 888.432C478.225 888.293 478.125 888.13 478.06 887.953C477.994 887.775 477.964 887.586 477.972 887.397C478.034 887.023 478.234 886.686 478.531 886.451C478.829 886.216 479.203 886.1 479.581 886.127L482.97 886.437C483.155 886.45 483.336 886.5 483.502 886.583C483.669 886.666 483.817 886.78 483.939 886.921C484.061 887.061 484.154 887.224 484.213 887.4C484.272 887.576 484.295 887.763 484.283 887.948C484.27 888.133 484.22 888.314 484.137 888.481C484.054 888.647 483.939 888.795 483.799 888.917C483.659 889.039 483.496 889.132 483.32 889.191C483.143 889.25 482.957 889.274 482.772 889.261V889.176Z" fill="#263238"/>
<path d="M765.919 1006.69C781.024 1001.83 796.488 998.153 812.169 995.709C833.261 992.886 850.343 995.709 856.357 1007.65C862.372 1019.6 858.39 1034.22 837.27 1037.92C816.15 1041.62 777.975 1034.22 773.966 1034.22C770.484 1033.83 767.089 1032.88 763.914 1031.4L765.919 1006.69Z" fill="white"/>
<path d="M823.011 1040.21C808.976 1039.87 794.978 1038.6 781.109 1036.42C777.552 1035.92 774.756 1035.52 773.966 1035.52C770.259 1035.18 766.633 1034.22 763.236 1032.7C762.972 1032.6 762.748 1032.41 762.599 1032.17C762.451 1031.93 762.387 1031.65 762.418 1031.37L764.394 1006.61C764.432 1006.34 764.545 1006.08 764.72 1005.87C764.894 1005.67 765.124 1005.51 765.382 1005.42C780.589 1000.53 796.158 996.852 811.943 994.41C836.084 991.248 851.924 995.652 857.741 1007.12C859.445 1010.16 860.363 1013.59 860.413 1017.08C860.462 1020.57 859.641 1024.01 858.023 1027.11C855.567 1031.48 850.033 1037.13 837.552 1039.3C832.739 1040.02 827.875 1040.32 823.011 1040.21ZM765.495 1030.61C768.181 1031.79 771.042 1032.54 773.966 1032.81C776.507 1033.01 779.048 1033.32 781.561 1033.74C794.352 1035.58 820.922 1039.25 837.016 1036.57C846.051 1034.98 852.263 1031.29 855.341 1025.81C856.747 1023.08 857.453 1020.04 857.393 1016.97C857.334 1013.9 856.513 1010.89 855.002 1008.22C848.451 995.257 828.207 995.003 812.366 997.064C797.109 999.447 782.061 1003.02 767.359 1007.74L765.495 1030.61Z" fill="#263238"/>
<path d="M832.018 995.031C838.456 997.29 850.569 1003.5 848.339 1017.76C845.317 1037.02 820.103 1037.02 803.162 1037.02C801.904 1037.05 800.654 1037.22 799.435 1037.53C812.084 1038.88 826.851 1039.78 837.327 1037.98C858.447 1034.28 862.457 1019.62 856.414 1007.71C852.348 999.775 843.623 995.935 832.018 995.031Z" fill="white"/>
<path d="M822.983 1040.21C815.038 1040.14 807.101 1039.65 799.209 1038.74C798.872 1038.72 798.553 1038.58 798.31 1038.35C798.067 1038.12 797.915 1037.81 797.881 1037.47C797.872 1037.14 797.977 1036.82 798.177 1036.55C798.377 1036.29 798.662 1036.11 798.983 1036.03C800.331 1035.69 801.715 1035.52 803.105 1035.52C820.357 1035.52 843.99 1035.52 846.842 1017.42C848.875 1004.38 838.089 998.505 831.482 996.161C831.164 996.052 830.895 995.832 830.724 995.542C830.553 995.253 830.491 994.911 830.55 994.58C830.648 994.242 830.865 993.95 831.16 993.758C831.456 993.566 831.81 993.487 832.159 993.535C845.148 994.58 853.76 999.041 857.741 1006.98C859.445 1010.03 860.363 1013.45 860.413 1016.95C860.462 1020.44 859.641 1023.9 858.023 1026.99C855.567 1031.37 850.033 1036.99 837.552 1039.16C832.736 1039.94 827.861 1040.29 822.983 1040.21ZM822.672 1037.39C827.472 1037.42 832.267 1037.09 837.016 1036.4C846.051 1034.82 852.263 1031.12 855.341 1025.64C856.747 1022.91 857.453 1019.87 857.393 1016.8C857.334 1013.73 856.513 1010.72 855.002 1008.05C853.528 1005.41 851.505 1003.12 849.07 1001.33C846.634 999.545 843.842 998.301 840.884 997.686C844.236 999.728 846.894 1002.73 848.511 1006.31C850.128 1009.89 850.629 1013.87 849.948 1017.73C847.717 1031.4 835.661 1035.97 822.672 1037.55V1037.39Z" fill="#263238"/>
<path d="M471.45 867.322C471.45 867.322 437.256 861.816 415.148 877.374C393.039 892.931 396.061 909.506 417.181 933.365C438.301 957.224 492.542 999.38 610.143 1018.64C727.744 1037.89 763.914 1031.48 763.914 1031.48L765.919 1006.69C715.991 1007.03 667.065 992.681 625.221 965.44C559.404 921.421 530.067 892.48 482.772 887.793" fill="#263238"/>
<path d="M743.613 1033.91C721.815 1033.91 680.676 1031.57 609.974 1019.99C485.483 999.606 432.937 953.215 416.108 934.212C402.753 919.134 397.388 907.925 398.687 897.816C399.675 890.08 404.701 883.021 414.329 876.301C436.748 860.517 470.377 865.712 471.789 865.967C471.969 865.977 472.146 866.024 472.308 866.104C472.471 866.184 472.615 866.296 472.734 866.433C472.852 866.57 472.942 866.729 472.998 866.901C473.054 867.073 473.075 867.254 473.059 867.435C472.971 867.808 472.744 868.133 472.423 868.343C472.103 868.553 471.714 868.632 471.337 868.564C471.026 868.564 437.454 863.341 416.249 878.362C407.383 884.63 402.64 891.068 401.736 898.127C400.55 907.303 405.887 918.202 418.508 932.433C435.111 951.21 487.064 997.008 610.51 1017.28C715.264 1034.42 755.613 1031.03 762.616 1030.27L764.394 1008.1C714.727 1007.91 666.156 993.483 624.43 966.542C609.522 956.575 596.336 947.285 584.703 939.012C545.173 911.115 518.886 892.649 482.744 889.063C482.553 889.053 482.367 889.004 482.196 888.919C482.025 888.834 481.872 888.716 481.748 888.571C481.624 888.426 481.531 888.257 481.474 888.075C481.417 887.892 481.398 887.7 481.417 887.51C481.48 887.13 481.689 886.789 482.001 886.562C482.313 886.335 482.701 886.239 483.083 886.296C520.072 889.995 546.387 908.602 586.538 936.81C598.171 945.083 611.357 954.288 626.068 964.339C667.701 991.259 716.257 1005.5 765.834 1005.34C766.04 1005.32 766.246 1005.35 766.44 1005.42C766.635 1005.49 766.813 1005.59 766.964 1005.73C767.109 1005.87 767.222 1006.04 767.295 1006.22C767.369 1006.41 767.4 1006.61 767.387 1006.81L765.411 1031.57C765.361 1031.88 765.214 1032.17 764.991 1032.39C764.768 1032.61 764.48 1032.76 764.169 1032.81C757.357 1033.72 750.483 1034.09 743.613 1033.91Z" fill="#263238"/>
<path d="M458.885 890.701C458.544 890.711 458.21 890.605 457.938 890.4C457.665 890.194 457.472 889.902 457.388 889.572C457.356 889.391 457.361 889.206 457.402 889.028C457.444 888.849 457.521 888.681 457.629 888.534C457.737 888.386 457.874 888.261 458.032 888.168C458.189 888.075 458.364 888.014 458.546 887.99C462.178 887.358 465.847 886.953 469.529 886.776C469.915 886.745 470.297 886.867 470.593 887.115C470.889 887.364 471.075 887.719 471.111 888.103C471.111 888.291 471.073 888.477 471.001 888.65C470.928 888.823 470.821 888.98 470.687 889.112C470.553 889.243 470.394 889.347 470.22 889.416C470.045 889.485 469.858 889.519 469.671 889.515C466.121 889.688 462.585 890.075 459.082 890.673L458.885 890.701Z" fill="white"/>
<path d="M750.672 606.284C732.177 615.206 729.58 597.305 729.721 586.519C729.902 586.42 730.042 586.26 730.116 586.067C731.443 581.098 730.116 556.391 714.53 546.537C700.779 537.812 682.567 530.302 665.569 530.273C659.827 530.451 654.206 531.975 649.16 534.721C644.114 537.467 639.783 541.36 636.515 546.085C628.891 556.617 629.541 568.843 628.92 580.985C628.298 593.126 627.028 606.594 629.682 618.764C633.24 634.999 649.842 669.108 670.031 669.108C688.327 669.108 720.855 644.119 731.98 629.38C734.477 628.639 736.807 627.421 738.841 625.795C742.992 622.519 751.293 617.126 750.672 606.284Z" fill="white"/>
<path d="M670.031 670.322C648.289 670.322 631.517 634.039 628.214 618.877C625.842 608.119 626.52 596.712 627.141 585.644L627.423 580.787L627.592 575.959C628.016 565.483 628.411 554.641 635.301 545.154C638.682 540.233 643.173 536.176 648.411 533.311C653.65 530.447 659.489 528.855 665.456 528.664C680.506 528.664 698.774 534.706 715.264 545.154C731.754 555.601 732.911 580.928 731.443 586.18C731.388 586.43 731.271 586.663 731.104 586.858C731.104 592.928 732.036 603.037 737.683 606.114C740.714 607.752 744.733 607.328 749.74 604.844C749.968 604.732 750.219 604.673 750.474 604.673C750.728 604.673 750.98 604.732 751.208 604.844C751.42 604.949 751.6 605.11 751.729 605.308C751.858 605.507 751.932 605.737 751.942 605.973C752.563 616.646 745.053 622.491 740.648 625.738L739.631 626.472C737.597 628.132 735.27 629.397 732.77 630.199C722.125 644.458 689.767 670.322 670.031 670.322ZM665.4 531.488C659.912 531.674 654.545 533.146 649.729 535.784C644.913 538.422 640.784 542.154 637.673 546.678C631.291 555.516 630.924 565.512 630.501 576.072L630.303 580.928L630.049 585.785C629.4 596.797 628.75 607.78 631.037 618.369C634.821 635.536 651.48 667.583 669.918 667.583C687.057 667.583 718.935 643.922 730.624 628.449C730.826 628.199 731.104 628.021 731.415 627.94C733.715 627.261 735.856 626.128 737.711 624.609L738.728 623.818C742.709 620.797 748.582 616.307 749.062 608.373C747.061 609.378 744.86 609.919 742.622 609.958C740.383 609.998 738.165 609.533 736.13 608.599C729.438 604.872 728.055 594.481 728.111 586.406C728.115 586.209 728.163 586.016 728.251 585.84C728.339 585.665 728.465 585.511 728.62 585.389C729.834 580.787 728.224 556.843 713.542 547.497C697.56 537.361 679.998 531.516 665.541 531.488H665.4Z" fill="#263238"/>
<path d="M621.381 591.431C621.156 591.421 620.935 591.366 620.731 591.269C620.527 591.172 620.345 591.035 620.195 590.867C620.077 590.726 619.991 590.562 619.941 590.386C619.891 590.21 619.879 590.025 619.905 589.843C619.932 589.662 619.997 589.488 620.095 589.334C620.194 589.179 620.324 589.047 620.477 588.947L627.593 584.062C627.921 583.848 628.315 583.758 628.704 583.81C629.093 583.862 629.45 584.052 629.71 584.344C629.823 584.488 629.904 584.654 629.949 584.831C629.995 585.008 630.003 585.192 629.974 585.372C629.945 585.552 629.879 585.725 629.78 585.878C629.681 586.032 629.552 586.163 629.4 586.264L622.2 591.262C621.946 591.388 621.664 591.447 621.381 591.431Z" fill="#263238"/>
<path d="M644.788 538.462C644.788 538.462 665.88 526.744 673.25 537.841C680.619 548.937 714.417 622.83 750.7 606.284C786.983 589.738 750.446 535.384 715.208 518.076C679.97 500.767 650.435 515.591 644.788 538.462Z" fill="#263238"/>
<path d="M739.885 610.068C712.017 610.068 687.706 566.5 676.581 546.509C674.577 542.951 672.995 540.1 671.951 538.575C671.31 537.596 670.48 536.755 669.51 536.101C668.541 535.447 667.451 534.992 666.303 534.763C657.833 532.9 645.804 539.591 645.691 539.648C645.347 539.835 644.946 539.893 644.563 539.81C644.179 539.727 643.838 539.509 643.602 539.196C643.506 539.047 643.441 538.88 643.412 538.705C643.383 538.531 643.39 538.352 643.433 538.18C644.879 532.466 647.667 527.18 651.566 522.76C655.465 518.34 660.363 514.915 665.852 512.768C680.506 506.612 698.323 508.024 716.055 516.749C740.591 528.834 767.782 560.26 767.33 584.345C767.332 589.341 765.819 594.22 762.991 598.338C760.163 602.456 756.153 605.621 751.49 607.413C747.867 609.147 743.903 610.054 739.885 610.068ZM662.972 531.685C664.29 531.676 665.606 531.808 666.896 532.081C668.434 532.377 669.898 532.977 671.202 533.844C672.506 534.712 673.624 535.831 674.492 537.135C675.565 538.744 677.315 541.624 679.235 545.38C691.49 567.404 720.205 618.792 750.022 605.155C754.191 603.56 757.774 600.733 760.296 597.051C762.819 593.369 764.159 589.006 764.14 584.543C764.535 561.418 738.22 531.093 714.445 519.375C697.504 511.13 680.562 509.718 666.925 515.506C662.39 517.322 658.287 520.07 654.883 523.572C651.478 527.074 648.847 531.252 647.16 535.836C652.107 533.429 657.48 532.019 662.972 531.685Z" fill="#263238"/>
<path d="M723.848 816.074C700.685 815.705 678.605 806.207 662.407 789.646C662.304 789.487 662.236 789.309 662.208 789.123C662.179 788.936 662.191 788.746 662.241 788.564C662.292 788.382 662.381 788.214 662.502 788.069C662.623 787.924 662.774 787.807 662.944 787.725C663.23 787.562 663.56 787.491 663.888 787.521C664.216 787.552 664.527 787.682 664.779 787.895C680.349 803.821 701.579 812.954 723.848 813.307C724.223 813.307 724.582 813.456 724.846 813.72C725.111 813.985 725.26 814.344 725.26 814.719C725.26 815.093 725.111 815.452 724.846 815.717C724.582 815.982 724.223 816.131 723.848 816.131V816.074Z" fill="#263238"/>
<path d="M654.586 599.563C649.567 599.681 644.691 597.884 640.948 594.537C640.758 594.378 640.606 594.18 640.501 593.955C640.396 593.731 640.342 593.486 640.342 593.238C640.342 592.991 640.396 592.746 640.501 592.522C640.606 592.297 640.758 592.099 640.948 591.94C641.336 591.592 641.839 591.4 642.36 591.4C642.881 591.4 643.384 591.592 643.772 591.94C652.045 599.479 663.537 593.973 664.045 593.747C664.523 593.497 665.076 593.434 665.598 593.57C666.12 593.706 666.573 594.03 666.869 594.481C666.993 594.697 667.07 594.936 667.096 595.184C667.122 595.432 667.095 595.683 667.018 595.92C666.941 596.156 666.815 596.375 666.648 596.56C666.481 596.745 666.277 596.893 666.05 596.994C662.463 598.682 658.55 599.559 654.586 599.563Z" fill="#2E353A"/>
<path d="M698.238 602.895C693.767 602.806 689.419 601.412 685.729 598.886C685.524 598.747 685.351 598.566 685.221 598.356C685.091 598.145 685.008 597.909 684.976 597.663C684.944 597.418 684.964 597.168 685.036 596.931C685.107 596.694 685.228 596.475 685.39 596.288C685.742 595.902 686.221 595.655 686.739 595.593C687.258 595.531 687.781 595.658 688.214 595.95C688.666 596.26 698.746 603.206 706.765 595.95C707.161 595.619 707.661 595.438 708.177 595.438C708.693 595.438 709.192 595.619 709.588 595.95C709.775 596.114 709.924 596.316 710.026 596.542C710.128 596.769 710.181 597.014 710.181 597.262C710.181 597.511 710.128 597.756 710.026 597.983C709.924 598.209 709.775 598.411 709.588 598.575C706.5 601.42 702.436 602.966 698.238 602.895Z" fill="#2E353A"/>
<path d="M675.283 627.714C671.626 627.644 668.145 626.132 665.598 623.507C665.416 623.34 665.27 623.138 665.171 622.912C665.071 622.685 665.02 622.441 665.02 622.194C665.02 621.947 665.071 621.703 665.171 621.477C665.27 621.251 665.416 621.048 665.598 620.881C665.994 620.55 666.494 620.369 667.01 620.369C667.526 620.369 668.026 620.55 668.422 620.881C673.448 625.709 677.852 623.479 678.332 623.196C678.797 622.936 679.342 622.855 679.862 622.97C680.383 623.084 680.843 623.386 681.156 623.818C681.296 624.021 681.392 624.252 681.437 624.495C681.482 624.738 681.474 624.988 681.416 625.228C681.357 625.468 681.248 625.693 681.096 625.888C680.945 626.083 680.753 626.243 680.535 626.359C678.923 627.238 677.119 627.704 675.283 627.714Z" fill="#2E353A"/>
<path d="M508.862 982.269C508.396 982.28 507.941 982.128 507.576 981.839C507.21 981.55 506.956 981.144 506.857 980.688C506.826 980.437 506.845 980.183 506.914 979.939C506.983 979.696 507.099 979.469 507.257 979.271C507.415 979.074 507.611 978.91 507.833 978.79C508.056 978.669 508.3 978.595 508.552 978.57C509.314 978.57 584.308 967.869 624.12 950.758C653.626 938.081 685.758 917.243 707.02 903.464C714.926 898.353 721.73 893.92 726.474 891.181C726.931 890.908 727.473 890.815 727.995 890.92C728.516 891.024 728.981 891.318 729.298 891.746C729.434 891.953 729.527 892.186 729.569 892.43C729.612 892.674 729.604 892.925 729.546 893.166C729.487 893.407 729.38 893.633 729.231 893.831C729.081 894.029 728.892 894.194 728.676 894.315C724.018 896.998 717.382 901.402 709.391 906.485C687.989 920.349 655.744 941.299 625.871 954.118C585.494 971.455 509.935 982.128 509.173 982.354L508.862 982.269Z" fill="white"/>
<path d="M611.188 958.325C610.879 958.326 610.572 958.268 610.284 958.155C594.416 950.927 581.907 939.746 569.766 928.932C566.66 926.108 563.526 923.284 560.364 920.63C539.062 903.012 512.068 893.767 484.438 894.625C483.926 894.643 483.427 894.466 483.039 894.131C482.652 893.796 482.405 893.327 482.349 892.818C482.363 892.304 482.578 891.816 482.947 891.457C483.316 891.098 483.811 890.898 484.325 890.898C513.009 890.035 541.024 899.651 563.131 917.948C566.35 920.772 569.484 923.595 572.618 926.277C584.505 936.894 596.816 947.878 612.148 954.824C612.379 954.917 612.588 955.058 612.761 955.237C612.934 955.417 613.067 955.631 613.153 955.865C613.238 956.099 613.273 956.349 613.255 956.597C613.238 956.846 613.168 957.088 613.051 957.308C612.864 957.633 612.592 957.9 612.263 958.079C611.934 958.259 611.562 958.344 611.188 958.325Z" fill="white"/>
<path d="M648.12 582.594C647.638 582.6 647.17 582.432 646.801 582.121C646.433 581.809 646.189 581.376 646.115 580.9C646.1 580.648 646.134 580.395 646.217 580.156C646.299 579.917 646.428 579.697 646.596 579.508C646.764 579.319 646.968 579.165 647.195 579.055C647.423 578.945 647.67 578.881 647.922 578.867C654.148 578.306 660.093 576.017 665.089 572.26C665.509 571.954 666.025 571.808 666.543 571.85C667.061 571.891 667.547 572.117 667.913 572.486C668.084 572.665 668.214 572.879 668.295 573.113C668.376 573.347 668.405 573.596 668.381 573.843C668.357 574.089 668.28 574.328 668.155 574.542C668.031 574.756 667.861 574.941 667.659 575.083C662.028 579.339 655.318 581.931 648.289 582.566L648.12 582.594Z" fill="#2E353A"/>
<path d="M708.939 584.965H708.572C706.624 584.626 704.676 584.457 702.615 584.259C700.553 584.062 698.436 583.892 696.346 583.525C691.855 582.998 687.66 581.015 684.403 577.878C684.229 577.698 684.097 577.484 684.013 577.248C683.93 577.013 683.898 576.763 683.92 576.514C683.941 576.265 684.015 576.024 684.138 575.806C684.26 575.589 684.427 575.4 684.628 575.252C685.047 574.948 685.56 574.801 686.076 574.837C686.593 574.874 687.08 575.09 687.452 575.45C690.105 577.906 693.484 579.432 697.08 579.798C699 580.137 700.92 580.306 702.982 580.476C705.043 580.645 707.16 580.871 709.278 581.21C709.53 581.241 709.774 581.322 709.994 581.449C710.213 581.576 710.406 581.746 710.559 581.949C710.711 582.152 710.822 582.384 710.883 582.63C710.945 582.877 710.956 583.133 710.916 583.384C710.818 583.835 710.569 584.238 710.209 584.526C709.849 584.814 709.4 584.969 708.939 584.965Z" fill="#2E353A"/>
<path d="M690.84 643.498H690.445C682.19 642.002 673.741 641.916 665.457 643.244C664.948 643.346 664.42 643.247 663.983 642.968C663.546 642.689 663.234 642.251 663.113 641.747C663.073 641.498 663.085 641.243 663.146 640.999C663.208 640.754 663.319 640.524 663.472 640.323C663.625 640.123 663.817 639.955 664.037 639.831C664.257 639.707 664.5 639.629 664.751 639.601C673.53 638.189 682.485 638.275 691.236 639.856C691.488 639.89 691.731 639.974 691.95 640.105C692.169 640.235 692.359 640.408 692.509 640.614C692.66 640.82 692.767 641.054 692.825 641.302C692.882 641.55 692.889 641.807 692.845 642.058C692.72 642.487 692.454 642.862 692.091 643.123C691.728 643.384 691.287 643.516 690.84 643.498Z" fill="#2E353A"/>
<path d="M677.175 772.14C671.95 772.115 666.746 771.47 661.673 770.22C655.313 768.957 649.289 766.371 643.992 762.631C638.694 758.89 634.243 754.078 630.925 748.507C611.611 715.471 632.393 660.27 633.296 657.955C633.498 657.472 633.875 657.083 634.352 656.868C634.83 656.654 635.371 656.628 635.866 656.797C636.11 656.861 636.339 656.975 636.537 657.131C636.735 657.288 636.899 657.483 637.019 657.706C637.138 657.929 637.21 658.174 637.23 658.425C637.25 658.677 637.219 658.93 637.136 659.169C636.911 659.734 616.044 715.16 634.539 746.7C637.597 751.789 641.691 756.179 646.555 759.584C651.42 762.989 656.945 765.333 662.774 766.464C678.304 770.163 691.688 768.13 702.587 760.479C735.792 737.099 736.328 668.741 736.328 668.035C736.387 667.534 736.628 667.071 737.006 666.736C737.383 666.4 737.87 666.215 738.375 666.215C738.88 666.215 739.368 666.4 739.745 666.736C740.122 667.071 740.363 667.534 740.422 668.035C740.422 670.859 739.858 738.906 705.071 763.387C696.932 769.181 687.165 772.246 677.175 772.14Z" fill="#263238"/>
<path d="M745.759 848.376C745.759 848.376 732.629 727.499 621.296 660.27C621.296 660.27 623.894 629.578 614.068 626.783C604.242 623.988 585.832 653.099 585.832 653.099C585.832 653.099 503.61 689.155 468.033 747.942C468.033 747.942 452.702 739.161 446.066 750.088C438.301 762.822 470.038 776.629 470.038 776.629C470.038 776.629 480.796 846.738 560.392 877.515" fill="white"/>
<path d="M560.363 879.265C560.094 879.259 559.827 879.212 559.573 879.124C485.002 850.267 469.953 786.455 468.23 777.758C463.91 775.753 446.828 767.368 443.411 757.626C442.898 756.242 442.71 754.758 442.862 753.289C443.013 751.82 443.501 750.406 444.287 749.156C445.162 747.633 446.344 746.31 447.759 745.27C449.173 744.229 450.789 743.495 452.503 743.113C457.534 742.314 462.69 743.114 467.242 745.4C501.577 690.284 576.966 655.046 584.279 651.63C588.147 645.644 604.044 621.982 614.66 624.975C625.277 627.968 623.922 652.082 623.385 659.31C733.504 726.369 747.622 846.936 747.763 848.15C747.782 848.403 747.75 848.657 747.669 848.898C747.588 849.138 747.459 849.36 747.291 849.549C747.122 849.739 746.917 849.893 746.688 850.002C746.458 850.11 746.209 850.172 745.956 850.183C745.441 850.248 744.92 850.111 744.504 849.8C744.088 849.489 743.809 849.029 743.725 848.517C743.725 847.331 729.382 727.753 620.166 661.795C619.869 661.628 619.626 661.38 619.466 661.08C619.306 660.78 619.235 660.44 619.263 660.1C620.279 647.959 619.263 630.142 613.446 628.533C607.63 626.924 594.839 642.453 587.498 653.945C587.282 654.268 586.978 654.523 586.622 654.679C585.803 655.046 504.598 691.188 469.812 748.76C469.669 748.984 469.484 749.177 469.265 749.327C469.047 749.477 468.801 749.582 468.541 749.636C468.008 749.769 467.444 749.699 466.96 749.438C466.96 749.438 459.506 745.231 453.491 746.614C452.309 746.883 451.195 747.396 450.223 748.121C449.25 748.845 448.44 749.765 447.844 750.822C447.313 751.653 446.987 752.598 446.894 753.58C446.801 754.562 446.942 755.552 447.308 756.469C450.583 765.871 470.715 774.709 470.913 774.794C471.204 774.92 471.46 775.115 471.662 775.36C471.863 775.605 472.003 775.895 472.07 776.205C472.07 776.911 486.555 846.794 564.09 876.781C565.107 877.176 564.09 877.769 563.667 878.701C563.243 879.632 561.154 879.265 560.363 879.265Z" fill="#2E353A"/>
<path d="M747.566 757.852L746.069 836.262C746.069 836.262 701.598 858.851 676.722 865.176C662.949 868.917 648.778 870.993 634.51 871.359C632.251 871.359 622.454 856.903 617.174 852.102C611.894 847.302 607.63 847.189 598.002 842.785C584.533 836.658 578.717 835.585 579.479 838.352C580.241 841.119 580.976 843.829 587.78 847.274C594.585 850.719 599.075 853.486 599.075 853.486L600.599 856.31C600.599 856.31 583.997 854.248 577.22 852.865C570.444 851.481 553.107 840.498 553.107 840.498C553.107 840.498 545.709 840.074 550.989 848.319C556.269 856.564 561.38 856.987 561.38 856.987C562.443 862.034 565.083 866.613 568.919 870.06C572.29 872.785 575.816 875.311 579.479 877.627C579.479 877.627 565.164 874.183 566.66 877.627C568.157 881.072 577.22 882.456 588.514 887.256C599.809 892.056 625.475 892.762 639.79 894.823C665.816 897.897 692.083 898.36 718.201 896.206C748.356 893.383 793.59 874.889 801.891 868.677C810.192 862.465 804.884 793.034 802.625 777.193C800.366 761.353 795.849 731.791 792.827 717.899C789.806 704.007 777.75 684.891 770.239 680.769C762.728 676.646 749.09 689.832 747.566 757.852Z" fill="white"/>
<path d="M746.012 758.022C747.001 713.607 753.58 685.089 764.112 679.809C765.156 679.225 766.332 678.919 767.528 678.919C768.724 678.919 769.9 679.225 770.944 679.809C779.048 684.242 791.274 704.148 794.239 717.842C797.204 731.537 801.863 761.664 804.093 777.137C805.081 784.168 812.761 862.437 802.794 869.863C794.126 876.329 748.243 894.964 718.37 897.703C707.612 898.691 696.826 898.946 686.52 898.946C670.823 899.023 655.138 898.079 639.564 896.122C635.244 895.501 629.766 894.993 623.978 894.484C610.877 893.27 595.968 891.887 587.808 888.442C583.714 886.72 579.959 885.449 576.655 884.32C570.472 882.202 566.406 880.818 565.192 878.079C564.984 877.699 564.908 877.26 564.974 876.831C565.04 876.403 565.246 876.008 565.559 875.708C566.66 874.522 569.625 874.493 572.956 874.945C571.46 873.844 569.738 872.545 567.846 871.02C563.987 867.613 561.275 863.096 560.081 858.089C555.637 856.406 551.948 853.178 549.69 848.997C547.488 845.524 547.008 842.954 548.25 841.119C548.851 840.41 549.614 839.855 550.474 839.502C551.333 839.148 552.265 839.005 553.191 839.086C553.467 839.079 553.737 839.169 553.954 839.34C554.123 839.34 571.121 850.211 577.559 851.481C582.5 852.498 592.919 853.881 597.945 854.559C596.815 853.853 592.721 851.453 587.102 848.601C579.733 844.903 578.829 841.656 578.067 838.804C577.891 838.356 577.87 837.862 578.008 837.401C578.147 836.94 578.436 836.539 578.829 836.262C579.846 835.528 581.851 834.032 598.594 841.74C601.87 843.265 604.637 844.253 606.867 845.1C611.034 846.336 614.887 848.455 618.162 851.312C621.297 854.477 624.221 857.844 626.915 861.392C629.215 864.587 631.836 867.539 634.736 870.202C648.773 869.751 662.711 867.676 676.27 864.018C698.859 858.371 738.558 838.606 744.488 835.641M568.354 877.515C571.177 879.576 574.398 881.028 577.813 881.778C581.201 882.908 584.985 884.207 589.107 885.985C596.703 889.232 611.329 890.588 624.204 891.774C630.021 892.338 635.498 892.818 639.959 893.468C665.854 896.516 691.989 896.97 717.975 894.823C747.396 892 792.375 873.929 800.818 867.604C807.905 862.324 803.839 797.664 801.044 777.25C798.841 761.833 794.324 732.073 791.274 718.181C788.225 704.289 776.196 685.682 769.363 681.983C768.779 681.649 768.117 681.473 767.443 681.473C766.77 681.473 766.108 681.649 765.523 681.983C762.022 683.762 750.445 694.463 749.034 757.852L747.509 836.262C747.511 836.509 747.44 836.751 747.304 836.957C747.168 837.164 746.974 837.325 746.747 837.42C746.323 837.674 701.852 860.291 677.061 866.446C663.156 870.214 648.854 872.318 634.454 872.715C632.675 872.715 630.839 870.71 624.515 862.804C621.892 859.379 619.063 856.116 616.044 853.034C613.021 850.482 609.488 848.605 605.681 847.529C603.31 846.625 600.627 845.637 597.211 844.084C585.917 838.86 582.133 838.437 580.947 838.437C581.653 841.006 582.5 843.237 588.401 846.23C595.178 849.674 599.696 852.47 599.837 852.498C600.051 852.615 600.228 852.791 600.345 853.006L601.87 855.83C601.993 856.05 602.058 856.297 602.058 856.55C602.058 856.802 601.993 857.05 601.87 857.27C601.695 857.484 601.468 857.649 601.211 857.748C600.953 857.847 600.674 857.877 600.401 857.834C599.752 857.834 583.714 855.745 576.938 854.39C570.161 853.034 555.394 843.745 552.796 842.023C552.455 842.021 552.117 842.088 551.802 842.219C551.487 842.35 551.201 842.542 550.961 842.785C550.707 843.152 550.34 844.451 552.429 847.783C557.173 855.18 561.662 855.802 561.69 855.802C562.002 855.813 562.301 855.927 562.542 856.126C562.782 856.325 562.949 856.598 563.017 856.903C564.047 861.627 566.513 865.917 570.076 869.185C573.395 871.879 576.875 874.368 580.495 876.639C580.656 876.731 580.796 876.856 580.906 877.005C581.015 877.154 581.093 877.325 581.132 877.506C581.172 877.686 581.174 877.874 581.137 878.055C581.1 878.237 581.026 878.408 580.919 878.559C580.731 878.811 580.471 879 580.174 879.1C579.876 879.201 579.555 879.21 579.253 879.124C575.661 878.11 571.945 877.597 568.213 877.599L568.354 877.515Z" fill="#263238"/>
<path d="M592.778 870.794H592.44C578.943 867.971 561.38 858.596 560.646 858.201C560.478 858.122 560.328 858.007 560.207 857.866C560.086 857.725 559.995 857.56 559.942 857.381C559.889 857.203 559.874 857.015 559.898 856.83C559.922 856.646 559.984 856.468 560.082 856.309C560.304 855.996 560.633 855.774 561.007 855.686C561.382 855.598 561.775 855.649 562.115 855.829C562.284 855.829 580.016 865.458 593.174 868.112C593.363 868.123 593.548 868.171 593.719 868.253C593.889 868.336 594.042 868.451 594.168 868.593C594.294 868.734 594.391 868.9 594.452 869.079C594.514 869.258 594.54 869.447 594.529 869.637C594.466 870.017 594.257 870.358 593.945 870.585C593.633 870.812 593.245 870.908 592.863 870.851L592.778 870.794Z" fill="#263238"/>
<path d="M597.239 882.371C591.005 882.099 584.843 880.929 578.943 878.898C578.768 878.844 578.606 878.755 578.467 878.637C578.327 878.519 578.213 878.373 578.131 878.21C578.05 878.046 578.002 877.868 577.991 877.685C577.98 877.503 578.006 877.32 578.067 877.148C578.229 876.79 578.519 876.508 578.881 876.356C579.242 876.204 579.647 876.194 580.016 876.329C585.574 878.225 591.373 879.328 597.239 879.604C597.614 879.604 597.973 879.753 598.238 880.018C598.502 880.282 598.651 880.641 598.651 881.016C598.651 881.39 598.502 881.749 598.238 882.014C597.973 882.279 597.614 882.428 597.239 882.428V882.371Z" fill="#263238"/>
<path d="M595.009 878.305H594.642C583.363 875.847 572.615 871.391 562.905 865.147C562.748 865.05 562.614 864.919 562.513 864.765C562.412 864.61 562.345 864.435 562.318 864.253C562.291 864.07 562.305 863.883 562.357 863.706C562.41 863.529 562.5 863.366 562.623 863.227C562.884 862.934 563.243 862.746 563.633 862.699C564.023 862.652 564.417 862.75 564.74 862.973C574.169 868.966 584.576 873.257 595.489 875.651C595.671 875.678 595.845 875.742 596.002 875.838C596.158 875.935 596.294 876.062 596.399 876.213C596.505 876.363 596.579 876.534 596.616 876.714C596.654 876.894 596.655 877.08 596.618 877.26C596.51 877.592 596.291 877.877 595.998 878.068C595.706 878.258 595.356 878.342 595.009 878.305Z" fill="#263238"/>
<path d="M544.1 792.357H543.14C546.387 779.086 539.836 776.234 539.836 776.234L535.827 766.662C527.836 782.163 504.768 803.82 504.768 803.82C505.784 791.792 518.885 781.232 507.168 785.665C495.45 790.098 473.285 822.004 473.285 822.004C463.911 834.512 469.84 850.974 490.876 855.491C511.911 860.009 533.766 837.308 543.987 819.971C554.208 802.634 544.1 792.357 544.1 792.357Z" fill="white"/>
<path d="M496.58 857.948C494.548 857.954 492.521 857.736 490.537 857.298C479.638 854.955 471.873 849.449 468.598 841.769C467.209 838.337 466.767 834.596 467.318 830.935C467.87 827.275 469.394 823.829 471.732 820.959C472.636 819.689 494.49 788.545 506.519 783.942C509.173 782.954 511.855 782.107 513.38 783.603C514.905 785.1 513.832 787.274 511.912 790.804C510.659 792.947 509.555 795.173 508.608 797.467C515.78 790.182 528.599 776.46 534.02 765.872C534.264 765.411 534.68 765.066 535.178 764.912C535.686 764.713 536.251 764.713 536.759 764.912C537.859 765.496 538.83 766.298 539.611 767.269C540.393 768.239 540.969 769.359 541.305 770.559C543.084 776.206 536.505 789.448 530.208 798.794C529.891 799.221 529.429 799.517 528.909 799.627C528.389 799.736 527.846 799.651 527.385 799.387C527.162 799.277 526.965 799.12 526.807 798.927C526.65 798.734 526.535 798.51 526.471 798.27C526.407 798.029 526.395 797.778 526.435 797.533C526.476 797.287 526.569 797.053 526.707 796.846C533.681 786.371 538.34 774.794 537.437 771.66C537.213 770.913 536.87 770.207 536.42 769.57C527.526 784.846 507.224 804.103 506.321 804.95C506.02 805.231 505.643 805.418 505.236 805.489C504.83 805.559 504.412 805.509 504.034 805.345C503.66 805.215 503.341 804.963 503.126 804.631C502.911 804.298 502.813 803.904 502.848 803.51C503.597 798.34 505.425 793.386 508.213 788.968C508.608 788.234 509.06 787.415 509.399 786.709L508.043 787.218C499.008 790.634 481.191 814.098 475.064 822.823C473.074 825.206 471.762 828.081 471.265 831.147C470.768 834.212 471.105 837.354 472.24 840.244C475.064 846.767 481.756 851.538 491.3 853.515C511.064 857.807 532.552 835.19 542.124 818.926C551.696 802.663 542.491 793.514 542.406 793.514C542.224 793.343 542.081 793.133 541.988 792.901C541.895 792.668 541.854 792.418 541.868 792.169C541.881 791.919 541.949 791.675 542.066 791.453C542.184 791.232 542.348 791.04 542.547 790.888C542.935 790.541 543.438 790.349 543.959 790.349C544.48 790.349 544.982 790.541 545.371 790.888C545.851 791.34 556.439 802.38 545.653 820.649C537.888 834.428 518.095 857.948 496.58 857.948Z" fill="#2E353A"/>
<path d="M536.448 808.677C536.193 808.654 535.945 808.588 535.714 808.479C535.482 808.382 535.272 808.239 535.099 808.057C534.926 807.875 534.792 807.658 534.707 807.422C534.622 807.186 534.587 806.934 534.605 806.683C534.623 806.433 534.693 806.188 534.81 805.966C544.89 787.613 539.921 777.73 539.864 777.73C539.647 777.614 539.456 777.454 539.304 777.259C539.152 777.065 539.042 776.842 538.98 776.603C538.919 776.364 538.909 776.115 538.949 775.871C538.989 775.628 539.08 775.396 539.215 775.189C539.515 774.742 539.976 774.427 540.502 774.311C541.028 774.196 541.578 774.288 542.038 774.568C542.49 774.822 550.509 785.862 538.537 807.745C538.325 808.095 538.012 808.372 537.638 808.538C537.265 808.705 536.849 808.753 536.448 808.677Z" fill="#2E353A"/>
<path d="M598.595 843.604C598.251 843.609 597.912 843.529 597.607 843.372C597.301 843.214 597.039 842.984 596.844 842.701C596.393 842.023 551.865 773.241 581.795 701.071C582.017 700.594 582.411 700.219 582.898 700.02C583.385 699.822 583.928 699.814 584.421 699.998C584.662 700.064 584.887 700.18 585.081 700.338C585.274 700.497 585.432 700.695 585.544 700.919C585.656 701.142 585.719 701.387 585.73 701.637C585.741 701.887 585.699 702.137 585.607 702.37C556.383 772.818 599.894 840.131 600.346 840.724C600.479 840.934 600.566 841.17 600.602 841.415C600.638 841.661 600.623 841.912 600.556 842.151C600.49 842.391 600.374 842.614 600.216 842.805C600.058 842.997 599.862 843.154 599.64 843.265C599.326 843.465 598.966 843.581 598.595 843.604Z" fill="#2E353A"/>
<path d="M634.454 763.5C634.021 763.504 633.598 763.376 633.24 763.133C633.029 763.001 632.848 762.825 632.71 762.618C632.572 762.41 632.48 762.176 632.44 761.93C632.4 761.684 632.413 761.432 632.478 761.192C632.542 760.951 632.658 760.727 632.816 760.535C639.371 752.63 647.266 745.939 656.139 740.77C656.596 740.497 657.138 740.404 657.66 740.508C658.181 740.613 658.646 740.907 658.963 741.335C659.103 741.54 659.199 741.773 659.244 742.018C659.289 742.264 659.282 742.515 659.224 742.758C659.165 743 659.056 743.227 658.904 743.425C658.752 743.622 658.561 743.786 658.341 743.904C649.852 748.85 642.316 755.276 636.092 762.879C635.877 763.09 635.62 763.254 635.338 763.361C635.056 763.468 634.755 763.515 634.454 763.5Z" fill="#2E353A"/>
<path d="M612.43 849.251C611.958 849.265 611.498 849.111 611.13 848.816C610.762 848.521 610.512 848.104 610.425 847.641C610.227 846.173 605.484 811.471 621.154 779C621.397 778.537 621.804 778.182 622.295 778.004C622.786 777.827 623.326 777.84 623.809 778.04C624.046 778.124 624.263 778.255 624.446 778.427C624.629 778.599 624.775 778.807 624.873 779.038C624.971 779.269 625.02 779.518 625.017 779.77C625.013 780.021 624.958 780.268 624.853 780.497C609.663 811.98 614.406 846.794 614.463 847.161C614.49 847.413 614.466 847.667 614.391 847.909C614.317 848.151 614.194 848.375 614.03 848.568C613.866 848.761 613.665 848.918 613.439 849.031C613.212 849.143 612.965 849.208 612.712 849.222L612.43 849.251Z" fill="#2E353A"/>
<path d="M751.152 597.756C741.216 597.505 731.716 593.628 724.441 586.857C716.196 579.431 711.029 570.085 706.059 560.372L705.043 558.339C701.073 549.576 695.924 541.396 689.739 534.028C687.367 531.252 684.419 529.026 681.099 527.506C679.534 526.813 677.841 526.455 676.129 526.455C674.418 526.455 672.725 526.813 671.16 527.506C670.687 527.776 670.126 527.85 669.599 527.713C669.071 527.576 668.618 527.238 668.336 526.772C668.207 526.559 668.124 526.32 668.094 526.073C668.064 525.825 668.087 525.574 668.162 525.336C668.237 525.098 668.362 524.879 668.528 524.693C668.694 524.507 668.899 524.359 669.127 524.259C671.264 523.306 673.578 522.814 675.918 522.814C678.257 522.814 680.571 523.306 682.708 524.259C686.568 525.996 690 528.56 692.76 531.769C699.173 539.397 704.521 547.861 708.657 556.927L709.673 558.932C714.473 568.334 719.443 577.37 727.208 584.344C735.678 591.883 746.606 595.497 755.98 593.746C756.492 593.635 757.028 593.725 757.475 593.998C757.922 594.272 758.246 594.708 758.38 595.215C758.424 595.464 758.417 595.72 758.359 595.966C758.301 596.212 758.193 596.444 758.042 596.648C757.892 596.851 757.701 597.022 757.483 597.149C757.264 597.277 757.022 597.358 756.77 597.389C754.912 597.676 753.032 597.799 751.152 597.756Z" fill="white"/>
<path d="M750.784 542.951C742.82 542.502 735.309 539.099 729.721 533.407C727.575 531.459 725.598 529.342 723.65 527.309C720.29 523.504 716.5 520.102 712.356 517.172C700.892 509.661 683.922 509.21 669.183 516.071C668.697 516.319 668.134 516.373 667.609 516.221C667.085 516.069 666.638 515.722 666.36 515.252C666.243 515.032 666.173 514.79 666.156 514.541C666.138 514.292 666.173 514.043 666.258 513.808C666.344 513.574 666.477 513.36 666.65 513.181C666.823 513.002 667.032 512.861 667.263 512.767C683.358 505.285 701.965 505.85 714.643 514.151C719.036 517.251 723.053 520.852 726.615 524.88C728.506 526.857 730.455 528.918 732.488 530.782C736.441 534.396 744.347 540.297 752.958 539.083C753.474 538.99 754.005 539.1 754.442 539.389C754.879 539.678 755.187 540.125 755.302 540.636C755.333 540.887 755.314 541.141 755.245 541.385C755.177 541.628 755.06 541.855 754.902 542.052C754.744 542.25 754.548 542.413 754.326 542.534C754.104 542.654 753.86 542.729 753.608 542.753C752.672 542.885 751.729 542.951 750.784 542.951Z" fill="white"/>
<path d="M615.31 1016.43C604.312 1016.6 593.321 1015.77 582.472 1013.95C582.221 1013.92 581.98 1013.83 581.764 1013.7C581.547 1013.57 581.36 1013.39 581.214 1013.19C581.068 1012.98 580.967 1012.75 580.916 1012.5C580.865 1012.25 580.867 1011.99 580.919 1011.75C581.059 1011.25 581.387 1010.82 581.834 1010.56C582.282 1010.29 582.814 1010.21 583.319 1010.33C584.477 1010.56 698.182 1031.51 803.557 940.819C803.948 940.477 804.45 940.289 804.969 940.289C805.488 940.289 805.99 940.477 806.381 940.819C806.566 940.98 806.715 941.18 806.817 941.404C806.919 941.628 806.972 941.872 806.972 942.118C806.972 942.364 806.919 942.607 806.817 942.831C806.715 943.055 806.566 943.255 806.381 943.417C763.415 980.979 710.522 1005.34 654.05 1013.58C641.219 1015.44 628.274 1016.39 615.31 1016.43Z" fill="white"/>
<path d="M1026.25 990.683C1026.25 990.683 1023.71 980.518 1015.24 983.906C1006.77 987.295 1007.64 1009.74 1009.31 1022.45C1010.98 1035.15 1022.44 1029.22 1022.44 1029.22V1021.6C1022.44 1021.6 1018.2 1024.96 1016.09 1020.33C1013.97 1015.7 1014.39 992.377 1016.51 992.801C1018.63 993.224 1022.86 1000.4 1022.86 1000.4C1022.86 1000.4 1024.13 999.605 1026.25 990.683Z" fill="white" stroke="#263238" stroke-linecap="round" stroke-linejoin="round"/>
<path d="M1020.15 992.377V1048C1020.15 1054.55 1035.2 1059.86 1053.78 1059.86C1072.36 1059.86 1087.38 1054.55 1087.38 1048V992.377H1020.15Z" fill="white" stroke="#263238" stroke-linecap="round" stroke-linejoin="round"/>
<path d="M1087.38 992.378C1087.38 998.025 1072.33 1002.6 1053.78 1002.6C1035.23 1002.6 1020.15 998.025 1020.15 992.378C1020.15 986.73 1035.2 982.156 1053.78 982.156C1072.36 982.156 1087.38 986.759 1087.38 992.378Z" fill="white" stroke="#263238" stroke-linecap="round" stroke-linejoin="round"/>
<path d="M1082.98 992.378C1082.98 997.291 1069.9 1001.27 1053.78 1001.27C1037.66 1001.27 1024.56 997.291 1024.56 992.378C1024.56 987.465 1037.66 983.483 1053.78 983.483C1069.9 983.483 1082.98 987.465 1082.98 992.378Z" fill="white" stroke="#263238" stroke-linecap="round" stroke-linejoin="round"/>
<path d="M1031.25 998.025C1045.95 1002.32 1061.58 1002.32 1076.28 998.025C1061.58 993.734 1045.95 993.734 1031.25 998.025Z" fill="#263238" stroke="#263238" stroke-linecap="round" stroke-linejoin="round"/>
<path d="M1044.15 977.638C1044.15 977.638 1067.7 963.521 1060.02 947.313C1052.34 931.106 1026.37 920.433 1026.37 895.219C1026.37 873.505 1049.46 865.458 1064.54 856.762" stroke="#263238" stroke-linecap="round" stroke-linejoin="round"/>
<path d="M1065.9 977.187C1065.9 977.187 1079.02 968.462 1079.02 954.598C1079.02 945.309 1069.09 939.21 1055.96 924.245" stroke="#263238" stroke-linecap="round" stroke-linejoin="round"/>
</svg>
