<svg width="1253" height="1336" viewBox="0 0 1253 1336" fill="none" xmlns="http://www.w3.org/2000/svg">
<path d="M1185.85 781.544C1190.81 770.811 1193.3 759.105 1193.15 747.284C1193 735.463 1190.21 723.825 1184.99 713.22C1179.76 702.616 1172.23 693.313 1162.95 685.993C1153.67 678.672 1142.87 673.519 1131.33 670.91C1129.52 631.073 1112.89 593.351 1084.7 565.144C1056.51 536.937 1018.8 520.279 978.96 518.438C939.124 516.596 900.038 529.704 869.366 555.19C838.695 580.677 818.652 616.703 813.169 656.202C807.952 654.996 802.616 654.383 797.262 654.375C781.152 654.353 765.525 659.868 752.997 669.996C751.206 659.047 746.102 648.91 738.372 640.951C730.643 632.993 720.659 627.595 709.767 625.485C698.875 623.375 687.598 624.654 677.456 629.151C667.314 633.648 658.794 641.145 653.044 650.634C651.217 615.18 636.943 581.508 612.733 555.543C588.524 529.579 555.931 512.987 520.692 508.687C485.453 504.388 449.827 512.658 420.085 532.04C390.343 551.423 368.392 580.676 358.096 614.65C353.701 613.974 349.262 613.63 344.816 613.622C326.141 613.654 307.988 619.787 293.12 631.088C278.253 642.388 267.484 658.237 262.454 676.222C255.315 672.014 247.379 669.336 239.15 668.358C230.921 667.38 222.579 668.123 214.652 670.539C206.726 672.956 199.388 676.994 193.104 682.397C186.821 687.799 181.729 694.449 178.151 701.924C172.711 694.032 164.736 688.239 155.55 685.504C146.363 682.769 136.518 683.258 127.648 686.89C118.777 690.521 111.416 697.077 106.784 705.468C102.153 713.86 100.531 723.583 102.186 733.024C99.9853 728.241 96.2147 724.355 91.5006 722.01C86.7865 719.665 81.4123 719.003 76.2701 720.134C71.1279 721.264 66.527 724.119 63.2309 728.225C59.9349 732.331 58.142 737.44 58.1498 742.705C58.1562 744.366 58.3381 746.022 58.6924 747.645C57.2244 748.061 55.7995 748.615 54.4372 749.302C52.3202 746.892 49.7493 744.923 46.8713 743.507C43.9933 742.091 40.8646 741.256 37.6638 741.049C31.1995 740.631 24.834 742.799 19.9676 747.074C17.558 749.191 15.589 751.762 14.173 754.64C12.7571 757.518 11.9218 760.647 11.7149 763.848C11.2972 770.312 13.4645 776.678 17.7401 781.544H1185.85Z" fill="white" stroke="#A8A8A8" stroke-linecap="round" stroke-linejoin="round"/>
<path d="M460.676 465.405C462.151 462.223 462.895 458.751 462.853 455.243C462.812 451.736 461.986 448.282 460.436 445.136C458.886 441.989 456.651 439.23 453.896 437.059C451.14 434.889 447.934 433.362 444.512 432.592C444.034 420.754 439.135 409.525 430.782 401.122C422.429 392.719 411.23 387.753 399.394 387.204C387.559 386.656 375.948 390.564 366.853 398.158C357.759 405.752 351.842 416.479 350.27 428.223C348.725 427.867 347.144 427.685 345.558 427.68C340.78 427.68 336.145 429.312 332.422 432.306C331.886 429.065 330.371 426.065 328.079 423.711C325.787 421.357 322.829 419.761 319.603 419.139C316.377 418.517 313.038 418.898 310.035 420.231C307.032 421.564 304.509 423.785 302.807 426.595C302.27 416.084 298.04 406.1 290.864 398.401C283.688 390.703 274.025 385.784 263.578 384.511C253.131 383.238 242.569 385.692 233.754 391.442C224.939 397.192 218.436 405.868 215.39 415.943C209.247 414.967 202.959 416.288 197.728 419.654C192.497 423.02 188.689 428.196 187.032 434.191C184.915 432.942 182.56 432.148 180.119 431.859C177.677 431.57 175.203 431.793 172.852 432.513C170.501 433.233 168.326 434.434 166.465 436.041C164.605 437.648 163.099 439.624 162.044 441.845C160.52 439.672 158.342 438.042 155.827 437.194C153.313 436.346 150.592 436.324 148.064 437.13C145.535 437.937 143.331 439.53 141.772 441.678C140.213 443.826 139.381 446.416 139.397 449.07C139.396 449.721 139.454 450.371 139.569 451.012C138.906 449.61 137.788 448.473 136.396 447.789C135.004 447.104 133.421 446.912 131.906 447.244C130.391 447.575 129.033 448.411 128.054 449.614C127.075 450.817 126.534 452.317 126.518 453.868C126.474 454.352 126.474 454.84 126.518 455.324C126.084 455.444 125.663 455.606 125.261 455.81C123.963 454.478 122.204 453.696 120.346 453.624C118.488 453.553 116.673 454.197 115.276 455.425C113.88 456.653 113.008 458.37 112.842 460.222C112.675 462.074 113.226 463.919 114.38 465.377L460.676 465.405Z" fill="white" stroke="#A8A8A8" stroke-linecap="round" stroke-linejoin="round"/>
<path d="M1024.96 984.677C1052.83 934.358 1103.43 904.972 1141.85 863.991C1163.69 840.407 1181.03 813.026 1193.02 783.2L43.7861 782.058C44.6429 784.913 45.4711 787.769 46.3564 790.625C67.8892 861.563 84.767 938.528 111.469 1010.29C150.736 1010.95 186.748 1011.09 212.793 1010.29C316.116 1006.75 501.573 985.506 618.118 981.964C675.92 980.194 846.583 984.82 1022.73 989.018C1023.33 987.476 1024.04 986.077 1024.96 984.677Z" fill="#919191"/>
<path d="M11.9434 781.829H1252.48" stroke="#263238" stroke-linecap="round" stroke-linejoin="round"/>
<path d="M87.5654 1015.41C87.5654 1015.41 336.763 1026.49 448.768 1015.41C560.773 1004.33 692.369 993.216 809.971 998.756C922.919 1004.1 1035.87 1020.66 1124.11 1020" stroke="#263238" stroke-linecap="round" stroke-linejoin="round"/>
<path d="M58.1504 1007.72C58.1504 1007.72 221.788 1012.84 431.719 993.644C622.059 976.224 704.249 977.509 810.628 980.85C906.155 983.706 1054.06 990.217 1120.43 991.074" stroke="#263238" stroke-linecap="round" stroke-linejoin="round"/>
<path d="M871.571 801.448H1050.77" stroke="white" stroke-linecap="round" stroke-linejoin="round"/>
<path d="M983.576 829.436H952.762" stroke="white" stroke-linecap="round" stroke-linejoin="round"/>
<path d="M865.974 821.039H905.155" stroke="white" stroke-linecap="round" stroke-linejoin="round"/>
<path d="M389.967 798.649H196.771" stroke="white" stroke-linecap="round" stroke-linejoin="round"/>
<path d="M149.165 809.845H305.949" stroke="white" stroke-linecap="round" stroke-linejoin="round"/>
<path d="M241.551 835.033H319.971" stroke="white" stroke-linecap="round" stroke-linejoin="round"/>
<path d="M409.558 851.825H328.367" stroke="white" stroke-linecap="round" stroke-linejoin="round"/>
<path d="M773.56 905.028H893.961" stroke="white" stroke-linecap="round" stroke-linejoin="round"/>
<path d="M798.776 882.64H753.969" stroke="white" stroke-linecap="round" stroke-linejoin="round"/>
<path d="M403.961 882.64H454.366" stroke="white" stroke-linecap="round" stroke-linejoin="round"/>
<path d="M375.974 882.64H205.168" stroke="white" stroke-linecap="round" stroke-linejoin="round"/>
<path d="M902.356 851.825H983.576" stroke="white" stroke-linecap="round" stroke-linejoin="round"/>
<path d="M1014.36 851.825H1059.17" stroke="white" stroke-linecap="round" stroke-linejoin="round"/>
<path d="M846.354 801.448H818.367" stroke="white" stroke-linecap="round" stroke-linejoin="round"/>
<path d="M322.77 815.442H378.772" stroke="white" stroke-linecap="round" stroke-linejoin="round"/>
<path d="M171.555 837.831H202.369" stroke="white" stroke-linecap="round" stroke-linejoin="round"/>
<path d="M921.976 905.028H952.761" stroke="white" stroke-linecap="round" stroke-linejoin="round"/>
<path d="M720.355 947.038H829.562" stroke="white" stroke-linecap="round" stroke-linejoin="round"/>
<path d="M417.954 944.239H378.772" stroke="white" stroke-linecap="round" stroke-linejoin="round"/>
<path d="M358.467 944.239H270.251" stroke="white" stroke-linecap="round" stroke-linejoin="round"/>
<path d="M587.132 1276.54C587.132 1276.54 630.683 1267.37 669.665 1267.37C708.647 1267.37 710.817 1266.49 733.835 1267.37C756.853 1268.26 788.866 1269.66 841.585 1271.97" stroke="#263238" stroke-linecap="round" stroke-linejoin="round"/>
<path d="M468.473 1290.82C489.638 1289.04 510.909 1288.87 532.1 1290.31" stroke="#263238" stroke-linecap="round" stroke-linejoin="round"/>
<path d="M167.584 1283.42C167.584 1283.42 259.284 1274.26 307.519 1287.99C350.499 1300.27 400.789 1296.13 433.917 1293.45" stroke="#263238" stroke-linecap="round" stroke-linejoin="round"/>
<path d="M884.793 1220.8C902.727 1223.19 910.352 1223.97 910.352 1223.97" stroke="#263238" stroke-linecap="round" stroke-linejoin="round"/>
<path d="M376.201 1221.51C376.201 1221.51 444.998 1198.66 502.285 1205.49C559.573 1212.31 644.419 1226.11 683.401 1226.11C722.383 1226.11 768.218 1203.26 827.819 1212.34C841.556 1214.46 853.321 1216.2 863.317 1217.65" stroke="#263238" stroke-linecap="round" stroke-linejoin="round"/>
<path d="M206.88 1165.99C218.789 1164.97 231.011 1164.22 240.95 1164.22C270.764 1164.22 321.198 1177.96 334.934 1175.65C348.671 1173.33 399.133 1164.22 408.3 1164.22" stroke="#263238" stroke-linecap="round" stroke-linejoin="round"/>
<path d="M160.73 1171.08C160.73 1171.08 168.927 1169.96 180.721 1168.62" stroke="#263238" stroke-linecap="round" stroke-linejoin="round"/>
<path d="M897.729 1141.95H896.187C857.234 1141.95 862.46 1142.72 851.008 1142.72C839.556 1142.72 816.481 1143.69 816.481 1143.69" stroke="#263238" stroke-linecap="round" stroke-linejoin="round"/>
<path d="M715.728 1167.16H714.186C675.233 1167.16 680.459 1167.91 669.007 1167.91C657.555 1167.91 634.366 1168.79 634.366 1168.79" stroke="#263238" stroke-linecap="round" stroke-linejoin="round"/>
<path d="M965.897 1268.29H964.355C925.402 1268.29 930.628 1269.03 919.176 1269.03C907.724 1269.03 884.535 1269.92 884.535 1269.92" stroke="#263238" stroke-linecap="round" stroke-linejoin="round"/>
<path d="M439.514 1114.9H437.972C399.019 1114.9 404.245 1115.65 392.793 1115.65C381.342 1115.65 358.152 1116.53 358.152 1116.53" stroke="#263238" stroke-linecap="round" stroke-linejoin="round"/>
<path d="M261.169 1082.49H260.141C234.153 1082.49 237.637 1083 230.012 1083C222.387 1083 206.938 1083.57 206.938 1083.57" stroke="#263238" stroke-linecap="round" stroke-linejoin="round"/>
<path d="M188.346 1107.68H187.318C161.359 1107.68 164.843 1108.19 157.218 1108.19C149.593 1108.19 134.114 1108.76 134.114 1108.76" stroke="#263238" stroke-linecap="round" stroke-linejoin="round"/>
<path d="M815.911 1095.54H814.882C788.923 1095.54 792.407 1096.05 784.754 1096.05C777.1 1096.05 761.679 1096.63 761.679 1096.63" stroke="#263238" stroke-linecap="round" stroke-linejoin="round"/>
<path d="M1078.76 1173.96H1076.53C1019.87 1173.96 1027.5 1174.47 1010.85 1174.47C994.198 1174.47 960.528 1175.05 960.528 1175.05" stroke="#263238" stroke-linecap="round" stroke-linejoin="round"/>
<path d="M545.865 1129.84C545.865 1129.84 582.534 1127.53 610.035 1127.53H681.116" stroke="#263238" stroke-linecap="round" stroke-linejoin="round"/>
<path d="M1003.97 1068.52H1003.25C985.031 1068.52 987.487 1068.87 982.118 1068.87C976.749 1068.87 965.926 1069.3 965.926 1069.3" stroke="#263238" stroke-linecap="round" stroke-linejoin="round"/>
<path d="M918.891 1080.29H918.177C899.957 1080.29 902.384 1080.66 897.044 1080.66C891.704 1080.66 880.852 1081.06 880.852 1081.06" stroke="#263238" stroke-linecap="round" stroke-linejoin="round"/>
<path d="M839.471 1062.84C839.471 1062.84 856.606 1061.79 869.485 1061.79H902.698" stroke="#263238" stroke-linecap="round" stroke-linejoin="round"/>
<path d="M1184.31 1102.31H1183.6C1165.38 1102.31 1167.83 1102.65 1162.46 1102.65C1157.09 1102.65 1146.27 1103.08 1146.27 1103.08" stroke="#263238" stroke-linecap="round" stroke-linejoin="round"/>
<path d="M1099.21 1114.07H1098.49C1080.27 1114.07 1082.73 1114.45 1077.36 1114.45C1071.99 1114.45 1061.17 1114.85 1061.17 1114.85" stroke="#263238" stroke-linecap="round" stroke-linejoin="round"/>
<path d="M1019.82 1096.63C1019.82 1096.63 1036.95 1095.57 1049.83 1095.57H1083.04" stroke="#263238" stroke-linecap="round" stroke-linejoin="round"/>
<path d="M251.345 1050.16H250.631C232.411 1050.16 234.838 1050.53 229.498 1050.53C224.158 1050.53 213.306 1050.93 213.306 1050.93" stroke="#263238" stroke-linecap="round" stroke-linejoin="round"/>
<path d="M166.271 1061.96H165.528C147.308 1061.96 149.764 1062.3 144.395 1062.3C139.026 1062.3 128.231 1062.7 128.231 1062.7" stroke="#263238" stroke-linecap="round" stroke-linejoin="round"/>
<path d="M86.8506 1044.51C86.8506 1044.51 103.985 1043.42 116.837 1043.42H150.078" stroke="#263238" stroke-linecap="round" stroke-linejoin="round"/>
<path d="M516.051 1322.41C537.135 1315.89 558.568 1310.57 580.249 1306.47C607.751 1301.87 651.302 1311.04 697.166 1311.04H759.052" stroke="#263238" stroke-linecap="round" stroke-linejoin="round"/>
<path opacity="0.29" d="M465.475 1331.23C576.101 1331.23 665.781 1318.33 665.781 1302.41C665.781 1286.5 576.101 1273.6 465.475 1273.6C354.848 1273.6 265.168 1286.5 265.168 1302.41C265.168 1318.33 354.848 1331.23 465.475 1331.23Z" fill="black"/>
<path d="M463.476 1043.96C463.476 1043.96 493.176 1076.29 493.176 1082.4C493.176 1088.51 480.953 1124.33 478.326 1150.51C475.698 1176.7 477.469 1266.69 473.956 1286.79C470.444 1306.9 477.469 1316.49 489.692 1314.75C501.915 1313.01 503.657 1302.5 506.284 1299.02C508.912 1295.53 513.281 1291.16 514.138 1283.28C514.994 1275.4 507.17 1278.05 503.657 1271.86C500.144 1265.66 508.912 1209.83 515.08 1187.13C521.249 1164.42 533.414 1117.24 537.784 1098.02C542.153 1078.81 537.784 1042.99 537.784 1042.99L463.476 1043.96Z" fill="white" stroke="#263238" stroke-linecap="round" stroke-linejoin="round"/>
<path d="M503.656 1271.94C503.656 1271.94 506.284 1284.17 504.542 1287.65C503.496 1289.76 502.333 1291.81 501.058 1293.79" stroke="#263238" stroke-linecap="round" stroke-linejoin="round"/>
<path d="M543.838 1040.45C543.838 1040.45 526.389 1083.29 530.73 1103.28C535.071 1123.27 569.169 1194.12 578.793 1231.79C588.417 1269.46 590.216 1276.34 590.216 1276.34C590.216 1276.34 579.736 1278.97 576.252 1276.34C572.767 1273.71 570.997 1281.57 573.624 1288.56C575.95 1293.48 579.537 1297.69 584.019 1300.76C584.019 1300.76 586.647 1312.98 593.643 1315.61C600.64 1318.24 605.866 1317.35 608.494 1297.28C611.121 1277.2 604.124 1248.36 604.124 1216.03C604.124 1183.7 598.87 1135.66 591.016 1114.7C583.163 1093.74 580.535 1084.15 580.535 1084.15C580.535 1084.15 611.092 1059.67 619.831 1043.08L543.838 1040.45Z" fill="white" stroke="#263238" stroke-linecap="round" stroke-linejoin="round"/>
<path d="M590.131 1276.31C590.131 1276.31 588.389 1285.05 591.016 1290.28L593.643 1295.53" stroke="#263238" stroke-linecap="round" stroke-linejoin="round"/>
<path d="M449.568 765.58C449.568 765.58 446.17 781.487 447.883 786.599C449.597 791.711 454.109 777.518 455.822 772.32C457.536 767.123 454.109 759.897 449.568 765.58Z" fill="white" stroke="#263238" stroke-linecap="round" stroke-linejoin="round"/>
<path d="M451.281 757.641C450.995 757.97 450.737 758.324 450.51 758.697C449.392 760.295 448.809 762.206 448.845 764.156C448.881 766.106 449.534 767.994 450.71 769.549C455.251 775.804 459.278 780.344 459.278 780.344L462.705 758.783L451.281 757.641Z" fill="white" stroke="#263238" stroke-linecap="round" stroke-linejoin="round"/>
<path d="M456.964 744.019C456.964 744.019 450.71 753.671 451.252 757.641C451.795 761.61 461.504 766.722 461.504 766.722L464.36 750.815L456.964 744.019Z" fill="white" stroke="#263238" stroke-linecap="round" stroke-linejoin="round"/>
<path d="M466.617 733.224C466.617 733.224 456.393 738.336 456.964 744.019C458.108 749.202 460.034 754.18 462.676 758.783L466.617 733.224Z" fill="white" stroke="#263238" stroke-linecap="round" stroke-linejoin="round"/>
<path d="M550.206 670.281C550.206 670.281 512.881 663.028 492.862 664.827C478.583 666.141 470.015 686.674 469.187 714.889C468.359 743.105 452.052 802.277 452.823 825.038C453.594 847.799 464.646 857.794 472.814 855.966C479.592 853.889 486.029 850.829 491.919 846.885C491.919 846.885 467.359 899.66 453.708 927.876C440.058 956.091 431.862 976.11 437.316 1001.61C442.771 1027.11 472.814 1037.11 481.924 1037.11H618.432C618.432 1037.11 647.561 1025.26 650.302 994.273C653.044 963.288 632.996 923.278 627.456 906.885C621.916 890.493 614.719 859.565 615.633 852.282C615.633 852.282 628.37 871.388 637.48 865.019C646.59 858.651 653.844 818.612 655.671 794.938C657.499 771.263 658.527 707.55 651.131 690.272C643.734 672.994 587.418 677.507 574.652 674.794C561.887 672.081 550.206 670.281 550.206 670.281Z" fill="white" stroke="#263238" stroke-linecap="round" stroke-linejoin="round"/>
<path d="M650.331 994.33C653.044 963.373 633.025 923.335 627.484 906.942C621.944 890.55 614.747 859.622 615.661 852.339L630.226 683.846L613.833 680.991L605.637 759.268L512.795 732.881L524.732 666.769L523.933 666.34C519.335 665.798 514.537 665.312 509.853 664.998C506.798 679.277 498.687 718.687 496.517 744.961C493.661 777.717 495.603 819.583 493.661 833.262L491.833 846.913C491.833 846.913 467.273 899.689 453.623 927.904C439.972 956.119 431.776 976.139 437.23 1001.64C442.685 1027.14 472.728 1037.14 481.838 1037.14H618.346C618.346 1037.14 647.589 1025.26 650.331 994.33Z" fill="white" stroke="#263238" stroke-linecap="round" stroke-linejoin="round"/>
<path d="M602.297 832.406C602.297 832.406 551.806 888.494 521.506 909.827" stroke="#263238" stroke-linecap="round" stroke-linejoin="round"/>
<path d="M470.586 932.987C467.73 934.815 464.703 936.5 462.019 937.985" stroke="#263238" stroke-linecap="round" stroke-linejoin="round"/>
<path d="M552.805 866.162C552.805 866.162 515.994 901.488 482.952 924.763" stroke="#263238" stroke-linecap="round" stroke-linejoin="round"/>
<path opacity="0.2" d="M541.525 676.478C541.525 676.478 515.422 663.427 495.089 683.732C474.756 704.037 483.494 753.385 477.697 780.973C471.9 808.56 466.074 836.09 471.986 841.887C477.897 847.684 493.89 833.32 493.89 833.32L499.601 827.465C491.922 851.729 482.708 875.48 472.014 898.575C456.079 931.931 438.658 985.62 448.825 1004.5C458.992 1023.37 501.058 1074.12 501.058 1074.12C501.058 1074.12 509.625 1072.69 503.914 1095.91C498.202 1119.13 489.406 1190.15 483.609 1227.94C477.811 1265.72 477.897 1297.59 485.065 1288.88C492.233 1280.17 496.66 1190.21 506.826 1151.03C516.993 1111.85 527.131 1091.54 528.588 1082.83C530.044 1074.12 537.327 1090.91 541.639 1110.42C545.951 1129.92 575.023 1175.7 582.277 1204.66C589.531 1233.62 592.415 1277.2 596.785 1267.06C601.154 1256.92 595.328 1178.53 585.161 1139.38C574.995 1100.22 561.972 1081.35 567.769 1074.06C573.567 1066.78 606.951 1043.62 624.343 1023.29C641.735 1002.95 643.22 969.599 634.51 947.838C625.8 926.076 604.038 853.596 604.038 846.285C604.362 841.402 606.383 836.785 609.75 833.234C609.75 833.234 628.513 869.103 635.766 857.508C643.02 845.914 647.475 756.327 632.911 715.689C618.346 675.051 541.525 676.478 541.525 676.478Z" fill="black"/>
<path d="M289.157 1037.57V96.8633" stroke="#263238" stroke-width="3" stroke-linecap="round" stroke-linejoin="round"/>
<path d="M655.043 1037.57V88.6387" stroke="#263238" stroke-width="3" stroke-linecap="round" stroke-linejoin="round"/>
<path d="M584.79 524.663C584.79 524.663 552.034 531.032 550.206 566.53C548.379 602.027 549.292 640.267 535.642 667.568C521.991 694.87 521.077 731.281 550.206 746.76C579.336 762.238 602.096 781.344 602.096 811.387C602.096 841.43 648.503 863.248 688.542 865.076C728.58 866.904 742.231 837.774 765.934 829.55C789.637 821.325 774.102 834.09 785.04 838.66C795.977 843.229 808.714 808.617 804.145 785.856C799.576 763.095 754.997 756.755 751.37 729.596C747.743 702.438 762.279 674.079 747.714 657.687C733.15 641.295 683.087 651.319 674.891 634.841C666.695 618.363 675.805 614.85 684.001 595.716C692.197 576.582 687.656 543.826 668.523 523.807C649.389 503.787 614.833 486.424 584.79 524.663Z" fill="#263238" stroke="#263238" stroke-linecap="round" stroke-linejoin="round"/>
<path d="M586.618 529.205C586.618 529.205 557.488 565.617 571.139 592.033C584.79 618.449 622.115 634.87 610.264 669.397C598.412 703.924 575.68 734.909 593.9 753.129C612.12 771.349 680.374 765.866 685.828 791.34C691.283 816.814 697.652 845.058 724.953 831.321C752.255 817.585 780.499 802.192 784.126 818.584" stroke="#616161" stroke-linecap="round" stroke-linejoin="round"/>
<path d="M601.183 528.291C601.183 528.291 649.417 559.248 643.049 597.487C636.68 635.727 628.484 645.722 640.193 653.004C651.902 660.287 677.518 673.937 668.408 695.841C659.298 717.745 649.303 736.794 668.408 744.076C687.514 751.358 724.839 731.339 732.122 753.186C739.404 775.033 742.231 789.569 759.537 788.627C776.844 787.684 802.374 792.254 796.863 813.187" stroke="#616161" stroke-linecap="round" stroke-linejoin="round"/>
<path d="M603.011 518.267C603.011 518.267 664.896 516.439 672.178 552.851C679.461 589.263 639.422 603.941 656.7 639.354C673.978 674.766 705.849 652.09 728.609 666.655C751.37 681.22 743.174 701.239 743.174 725.827C743.174 750.416 757.739 761.325 777.758 768.665" stroke="#616161" stroke-linecap="round" stroke-linejoin="round"/>
<path d="M667.18 1036.62H276.105V1049.7H667.18V1036.62Z" fill="#263238" stroke="#263238" stroke-linecap="round" stroke-linejoin="round"/>
<path d="M791.665 285.775C791.665 285.775 772.16 297.484 785.154 303.995C798.148 310.507 812.455 311.792 811.17 300.083C809.885 288.374 798.148 275.523 791.665 285.775Z" fill="#263238"/>
<path d="M1057.06 91.3513C1038.78 84.0405 1029.61 84.0405 1013.16 85.8682C996.712 87.6959 976.55 100.518 969.239 87.6959C961.928 74.8733 971.067 63.907 967.411 52.9407C963.756 41.9744 932.656 30.9795 925.345 54.7684C925.345 54.7684 857.634 -0.120268 832.017 34.7777C830.789 36.4912 829.733 38.119 828.762 39.7468C745.686 16.215 614.348 -10.8867 486.065 4.50614C300.551 26.6101 222.473 92.0653 196.057 127.02C178.964 139.545 165.854 156.741 158.303 176.54C158.303 176.54 156.989 211.638 175.209 206.44C193.43 201.243 207.709 183.023 209.022 190.848C210.336 198.673 203.825 218.149 222.016 215.551C240.208 212.952 251.945 198.644 253.23 209.039C254.515 219.434 237.638 219.434 248.033 233.742C258.428 248.05 271.45 254.561 285.758 250.648C300.066 246.736 298.752 241.567 300.037 224.661C301.322 207.754 327.339 203.842 336.449 203.842C345.559 203.842 353.355 185.622 348.157 179.139C345.971 176.5 343.094 174.523 339.847 173.427C346.958 165.774 352.812 159.691 354.469 158.463L362.408 152.037C361.351 166.602 360.066 188.192 360.923 196.017C361.78 203.842 362.065 211.581 362.151 215.808C360.384 216.442 358.911 217.702 358.01 219.349C358.01 219.349 338.505 231.058 351.527 237.569C364.55 244.08 378.829 245.365 377.515 233.656C376.952 229.242 375.271 225.045 372.632 221.462C373.012 221.646 373.403 221.808 373.803 221.948C385.483 225.86 402.361 236.227 406.302 225.86C410.243 215.493 405.017 215.465 405.017 215.465C405.017 215.465 403.931 213.037 402.161 209.753C404.178 211.194 406.49 212.169 408.929 212.609C431.347 217.407 453.765 180.595 452.166 198.33C450.567 216.065 439.343 220.748 444.141 231.943C448.939 243.138 480.981 235.141 480.981 235.141C480.981 235.141 460.162 257.56 469.758 263.985C479.353 270.411 501.8 283.205 509.739 268.783C517.678 254.361 503.342 238.34 511.338 231.943C516.479 227.859 522.248 231.572 528.245 231.486C531.101 233.171 533.956 234.713 536.355 235.97C522.962 240.31 514.08 253.361 525.218 264.528C538.24 277.55 546.065 267.126 556.632 255.418C567.198 243.709 581.363 263.214 586.589 250.192C591.815 237.169 593.1 218.949 585.275 212.438C577.45 205.926 555.318 200.7 552.719 218.949C552.719 218.949 557.86 228.373 550.777 232.628L545.066 230.629C542.404 229.593 539.818 228.371 537.326 226.974C537.726 226.517 538.155 226.06 538.583 225.517C548.178 212.695 548.178 196.674 538.583 187.078C528.987 177.483 511.338 196.674 508.14 177.483C504.941 158.292 538.583 140.643 540.182 153.437C541.781 166.231 548.178 183.88 564.2 174.256C580.221 164.631 586.618 153.437 583.419 140.643C580.221 127.849 586.618 108.6 591.415 121.423C596.213 134.246 589.816 137.444 594.614 153.437C599.412 169.429 610.635 177.483 625.057 175.855C639.479 174.227 650.759 159.862 653.872 172.656C656.985 185.45 645.876 224.061 674.691 219.092C703.506 214.123 684.315 195.074 682.687 177.483C681.059 159.891 690.712 159.862 697.109 147.04C703.506 134.217 690.826 124.736 684.315 116.74C677.804 108.743 689.113 97.5199 690.712 87.8958C691.169 85.04 688.085 82.1842 683.401 79.5569C691.055 78.7572 698.108 79.7568 700.536 82.8981C704.204 86.3722 708.743 88.7898 713.673 89.8949C703.763 97.7769 698.394 113.827 713.673 121.966C733.178 132.361 729.294 99.8617 742.231 95.9492C755.168 92.0367 750.027 108.972 756.51 116.768C758.529 119.263 761.043 121.313 763.894 122.788C766.745 124.262 769.87 125.13 773.073 125.335C764.249 126.392 755.053 130.276 751.198 138.615C743.402 155.521 764.192 172.428 779.756 173.741C791.551 174.712 800.346 170.486 801.717 163.318C812.084 169.543 818.852 174.17 809.885 177.14C799.747 180.538 786.581 186.193 784.497 194.275C783.645 193.667 782.918 192.901 782.355 192.019C777.157 184.222 757.652 172.513 753.797 193.332C749.941 214.151 769.39 197.216 774.616 210.239C776.5 218.806 774.987 228.602 778.985 235.37C774.444 240.51 769.504 245.822 764.706 250.477C761.507 251.362 756.995 250.477 751.227 244.052C738.233 229.772 717.414 244.052 722.668 253.133C727.209 261.101 738.661 262.1 741.517 266.555C735.843 269.026 730.014 271.125 724.068 272.838C720.755 266.698 714.558 257.045 708.361 257.045C700.793 257.045 688.741 273.209 691.626 280.92C683.69 282.46 675.589 282.968 667.523 282.434C666.973 282.383 666.419 282.441 665.892 282.605C665.365 282.768 664.876 283.034 664.451 283.386C664.027 283.739 663.676 284.172 663.419 284.66C663.162 285.148 663.004 285.682 662.953 286.232C662.903 286.781 662.961 287.335 663.124 287.862C663.288 288.389 663.554 288.879 663.906 289.303C664.259 289.727 664.692 290.078 665.18 290.335C665.668 290.592 666.202 290.751 666.752 290.801C667.009 290.801 669.608 291.058 673.72 291.058C681.357 291.11 688.972 290.228 696.395 288.431C698.137 287.974 700.165 287.517 702.278 287.031C712.873 291.401 724.696 296.741 727.98 288.259C729.219 285.738 729.648 282.895 729.208 280.12C732.492 279.092 735.805 277.95 739.061 276.693C736.748 281.177 735.634 285.261 746.2 286.974C763.107 289.573 764.392 267.441 774.758 264.842C781.67 263.128 783.326 252.191 779.956 246.964C781.812 244.965 783.64 242.938 785.411 240.939L786.439 241.453C799.461 246.65 817.653 237.54 825.478 229.744C826.171 228.986 826.749 228.129 827.191 227.202C835.13 228.887 840.014 225.689 842.355 215.436C843.203 216.749 844.394 217.804 845.798 218.489C847.202 219.173 848.767 219.461 850.323 219.32C855.664 219.32 862.603 218.978 868.886 218.606C870.885 222.462 871.228 225.889 866.801 226.631C855.806 228.459 822.879 222.976 830.19 244.908C836.215 262.957 855.892 267.412 867.687 265.356C873.067 268.116 878.688 270.382 884.479 272.124C893.874 286.86 908.068 299.054 899.729 305.309C885.078 316.275 863.146 323.586 879.738 334.581C883.941 337.458 888.514 339.754 893.332 341.406C886.896 348.584 879.427 354.763 871.171 359.74L867.001 361.939C860.975 361.397 855.578 362.453 854.121 367.508C854.01 368.008 853.925 368.513 853.864 369.022L840.671 376.333C838.843 372.249 835.302 369.764 826.677 372.991C826.677 372.991 808.4 382.13 812.055 387.613C815.711 393.096 830.333 400.436 835.844 398.608C841.356 396.78 844.983 393.125 843.155 385.785L842.898 384.7L856.149 377.361C861.175 384.729 872.427 389.441 872.427 389.441L879.138 396.181C878.313 397.439 877.417 398.65 876.454 399.807C869.962 407.26 863.06 414.344 855.778 421.026C848.695 418.17 840.414 416.885 835.787 422.397C826.62 433.363 817.481 451.669 835.787 448.099C846.63 445.967 857.105 442.273 866.887 437.133L868.715 427.994C868.715 427.994 866.801 426.681 863.86 425.139C870.502 418.925 876.812 412.367 882.765 405.491C883.6 404.514 884.382 403.494 885.107 402.435L886.992 404.32C887.536 405.149 888.147 405.932 888.819 406.661C889.101 412.644 889.865 418.594 891.104 424.453C892.732 432.221 894.474 439.075 896.045 445.129C897.615 451.183 899.043 456.952 899.9 461.721C899.95 462.839 900.112 463.949 900.386 465.034C900.603 466.796 900.698 468.571 900.671 470.346C895.531 472.202 873.455 471.545 867.858 486.11C861.347 503.045 860.033 508.271 869.143 512.155C878.253 516.039 882.194 522.579 891.304 526.434C900.414 530.289 914.75 534.259 916.035 518.638C917.32 503.016 910.838 502.988 922.547 493.878C934.255 484.768 945.993 489.965 934.284 473.03C922.575 456.096 918.663 452.212 910.838 452.212C909.407 452.199 907.979 452.352 906.583 452.669C905.869 449.641 905.04 446.443 904.184 442.987C902.642 437.019 900.9 430.25 899.3 422.683C898.548 419.05 897.995 415.38 897.644 411.688C898.967 411.913 900.319 411.913 901.642 411.688C910.781 409.86 914.436 400.721 914.436 395.238C914.436 389.755 914.436 393.41 912.608 380.588C911.209 370.821 909.753 358.941 899.5 361.14C900.643 354.514 901.299 348.774 901.642 345.033C902.185 344.462 902.727 343.891 903.241 343.291C909.96 343.098 916.446 340.789 921.776 336.694C934.57 327.527 951.048 316.561 952.875 327.527C954.703 338.493 956.531 349.488 969.325 345.833C982.119 342.177 987.631 344.005 985.803 323.871C983.975 303.738 991.286 300.083 996.769 290.944C1001.08 283.747 1012.16 278.835 1010.51 269.925C1010.83 269.632 1011.14 269.318 1011.42 268.983C1020.56 258.016 1026.04 245.194 1009.59 230.572C993.942 216.664 1019.53 207.726 1011.16 194.303C1016.67 185.736 1020.24 178.168 1018.73 162.889C1016.9 144.584 1022.39 133.617 1027.87 129.962C1033.35 126.306 1048 137.273 1055.31 126.278C1062.62 115.283 1075.36 98.6908 1057.06 91.3513ZM889.99 365.509C889.019 366.166 887.991 366.88 886.906 367.708C886.906 367.708 883.651 366.28 879.167 364.852C883.686 361.8 887.946 358.38 891.904 354.629C891.418 357.884 890.733 361.597 889.99 365.423V365.509ZM330.994 170.714C328.138 169.829 324.683 168.829 320.856 167.43C317.547 166.307 314.626 164.266 312.431 161.547C318.543 161.976 324.968 162.261 330.965 162.261C333.821 162.261 336.677 162.261 339.133 162.061C336.706 164.717 333.85 167.659 330.994 170.714ZM359.209 139.3C359.668 140.402 360.202 141.471 360.809 142.499L349.385 152.094C346.33 154.493 328.652 154.436 309.404 153.008C309.083 149.84 309.993 146.67 311.946 144.155C314.757 141.141 316.787 137.484 317.857 133.503C319.872 133.027 321.799 132.236 323.569 131.161C345.673 118.139 354.783 86.9248 373.003 92.151C382.77 95.0068 379.429 99.9759 376.658 105.259C364.807 114.826 354.497 127.363 359.209 139.158V139.3ZM400.847 176.112C400.847 176.112 394.136 191.105 397.02 202.1C393.965 198.13 390.338 194.789 386.711 194.789C380.999 194.789 372.946 203.785 370.347 211.524C370.176 207.097 369.862 201.186 369.205 195.246C368.348 187.621 369.833 164.403 370.89 150.21C383.427 153.351 399.705 143.556 400.847 150.495C401.706 158.965 401.706 167.499 400.847 175.969V176.112ZM734.606 76.444L735.691 77.1865C735.291 77.6435 734.948 78.1004 734.549 78.5288C734.577 77.8434 734.577 77.1294 734.606 76.444ZM912.323 209.982C920.89 212.838 929.086 214.637 933.085 212.838C930.629 218.978 932.228 228.03 934.484 235.684C920.205 223.033 914.836 220.177 912.323 209.982ZM987.545 201.271C987.545 201.271 967.04 204.127 957.416 211.495C955.371 208.976 952.587 207.163 949.456 206.312C946.325 205.462 943.005 205.616 939.967 206.755C939.412 206.929 938.868 207.139 938.339 207.383C941.167 202.997 942.949 198.019 943.548 192.835C944.147 187.651 943.547 182.398 941.795 177.483C936.426 160.89 969.239 144.412 971.067 149.867C972.895 155.322 971.067 168.173 972.895 182.794C973.808 189.991 980.434 196.731 987.83 200.415C987.717 200.694 987.622 200.98 987.545 201.271Z" fill="#263238"/>
<path d="M1031.44 202.957C1031.44 202.957 1011.45 212.095 1013.16 221.263C1014.88 230.43 1035.09 248.707 1038.86 237.712C1042.63 226.717 1049.83 223.09 1044.35 215.779C1038.86 208.469 1040.61 197.474 1031.44 202.957Z" fill="#263238"/>
</svg>
