<svg width="1253" height="1171" viewBox="0 0 1253 1171" fill="none" xmlns="http://www.w3.org/2000/svg">
<path d="M524.021 27.3965V417.301" stroke="#4F4F4F" stroke-width="3" stroke-miterlimit="10"/>
<path d="M443.683 173.347H604.359V336.696H769.365" stroke="#4F4F4F" stroke-width="3" stroke-miterlimit="10"/>
<path d="M847.512 70.96V258.282H769.365V591.555H1220.95" stroke="#4F4F4F" stroke-width="3" stroke-miterlimit="10"/>
<path d="M769.365 423.822H1168.84" stroke="#4F4F4F" stroke-width="3" stroke-miterlimit="10"/>
<path d="M858.362 341.052H1136.29" stroke="#4F4F4F" stroke-width="3" stroke-miterlimit="10"/>
<path d="M934.371 341.052V260.474H1019.04V219.075" stroke="#4F4F4F" stroke-width="3" stroke-miterlimit="10"/>
<path d="M847.512 171.155H930.015" stroke="#4F4F4F" stroke-width="3" stroke-miterlimit="10"/>
<path d="M689.026 173.347H769.365V36.1094" stroke="#4F4F4F" stroke-width="3" stroke-miterlimit="10"/>
<path d="M686.862 33.918V262.639" stroke="#4F4F4F" stroke-width="3" stroke-miterlimit="10"/>
<path d="M610.854 94.9326H689.027" stroke="#4F4F4F" stroke-width="3" stroke-miterlimit="10"/>
<path d="M361.18 121.071V423.823" stroke="#4F4F4F" stroke-width="3" stroke-miterlimit="10"/>
<path d="M120.191 443.439V504.428H191.844V423.822H441.517V510.949H604.359V428.179H691.191V593.719H361.179" stroke="#4F4F4F" stroke-width="3" stroke-miterlimit="10"/>
<path d="M361.179 510.949V672.133H120.191" stroke="#4F4F4F" stroke-width="3" stroke-miterlimit="10"/>
<path d="M196.174 674.325V996.694H361.18" stroke="#4F4F4F" stroke-width="3" stroke-miterlimit="10"/>
<path d="M194.009 835.509H111.506" stroke="#4F4F4F" stroke-width="3" stroke-miterlimit="10"/>
<path d="M24.6465 754.903H113.671" stroke="#4F4F4F" stroke-width="3" stroke-miterlimit="10"/>
<path d="M55.0605 587.198H278.677V508.784" stroke="#4F4F4F" stroke-width="3" stroke-miterlimit="10"/>
<path d="M280.842 913.923V752.739H608.689V674.325H934.371V752.739H1014.68V506.593H1103.71" stroke="#4F4F4F" stroke-width="3" stroke-miterlimit="10"/>
<path d="M854.033 508.784H940.866V423.822" stroke="#4F4F4F" stroke-width="3" stroke-miterlimit="10"/>
<path d="M1184.04 879.072V672.133H1099.38V839.865H610.853V922.635H524.021V1044.61" stroke="#4F4F4F" stroke-width="3" stroke-miterlimit="10"/>
<path d="M521.856 1001.05H439.353" stroke="#4F4F4F" stroke-width="3" stroke-miterlimit="10"/>
<path d="M524.021 839.865H361.18V1070.75" stroke="#4F4F4F" stroke-width="3" stroke-miterlimit="10"/>
<path d="M443.683 842.03V924.801" stroke="#4F4F4F" stroke-width="3" stroke-miterlimit="10"/>
<path d="M445.848 754.903V676.489" stroke="#4F4F4F" stroke-width="3" stroke-miterlimit="10"/>
<path d="M524.021 593.72V676.49" stroke="#4F4F4F" stroke-width="3" stroke-miterlimit="10"/>
<path d="M606.523 1048.97V1003.21H686.862" stroke="#4F4F4F" stroke-width="3" stroke-miterlimit="10"/>
<path d="M691.191 1053.33V922.636" stroke="#4F4F4F" stroke-width="3" stroke-miterlimit="10"/>
<path d="M771.529 839.865V1003.21H936.535V1062.04" stroke="#4F4F4F" stroke-width="3" stroke-miterlimit="10"/>
<path d="M856.197 920.444H1160.15" stroke="#4F4F4F" stroke-width="3" stroke-miterlimit="10"/>
<path d="M1019.04 922.636V1005.41" stroke="#4F4F4F" stroke-width="3" stroke-miterlimit="10"/>
<path d="M851.868 842.03V754.903" stroke="#4F4F4F" stroke-width="3" stroke-miterlimit="10"/>
<path d="M771.529 674.325V754.904" stroke="#4F4F4F" stroke-width="3" stroke-miterlimit="10"/>
<path d="M689.026 837.673V757.095" stroke="#4F4F4F" stroke-width="3" stroke-miterlimit="10"/>
<path d="M524.021 341.052H443.683" stroke="#4F4F4F" stroke-width="3" stroke-miterlimit="10"/>
<path d="M439.353 258.282H365.536" stroke="#4F4F4F" stroke-width="3" stroke-miterlimit="10"/>
<path d="M172.28 341.052H278.676V203.841" stroke="#4F4F4F" stroke-width="3" stroke-miterlimit="10"/>
<path d="M109.314 913.923V981.433" stroke="#4F4F4F" stroke-width="3" stroke-miterlimit="10"/>
<path opacity="0.2" d="M908.901 82.3446C871.485 57.0084 847.298 46.4783 847.298 46.4783C847.298 46.4783 641 -54.3587 438.097 42.9238C394.631 64.0122 354.388 91.1799 318.579 123.609L96.2988 988.728C115.345 1009.7 136.691 1028.47 159.933 1044.67C314.356 1152.61 419.897 1033.15 636.938 1052.52C853.979 1071.9 912.215 1111.11 1092.64 1005.19C1108.69 995.738 1123.75 984.699 1137.6 972.238L908.901 82.3446Z" fill="white"/>
<path d="M295.755 211.351L309.251 158.674" stroke="#263238" stroke-miterlimit="10"/>
<path d="M123.158 885.673L289.233 236.794" stroke="#263238" stroke-miterlimit="10"/>
<path d="M109.314 939.659L114.045 921.245" stroke="#263238" stroke-miterlimit="10"/>
<path d="M1014.76 496.57L1118.27 902.297" stroke="#263238" stroke-miterlimit="10"/>
<path d="M931.432 169.872L1008.16 470.646" stroke="#263238" stroke-miterlimit="10"/>
<path d="M596.448 1169.74C762.015 1169.74 896.233 1154.26 896.233 1135.16C896.233 1116.06 762.015 1100.58 596.448 1100.58C430.881 1100.58 296.663 1116.06 296.663 1135.16C296.663 1154.26 430.881 1169.74 596.448 1169.74Z" fill="#263238" stroke="#263238" stroke-miterlimit="10"/>
<path d="M612.003 1129.79H627.638L659.709 903.82H791.04L802.024 1130.59H814.96L825.65 660.213C825.65 658.087 824.805 656.047 823.302 654.544C821.798 653.04 819.759 652.195 817.632 652.195L623.709 653.959L532.493 904.435L635.415 903.82L612.003 1129.79Z" fill="#263238" stroke="#263238" stroke-miterlimit="10"/>
<path d="M803.948 666.842H624.644L636.349 874.422H796.625L803.948 666.842Z" fill="#8C8C8C" stroke="#263238" stroke-miterlimit="10"/>
<path d="M361.126 673.897L358.079 454.53H644.047L665.214 822.172H376.253L361.126 673.897Z" fill="#CCCCCC" stroke="#263238" stroke-miterlimit="10"/>
<path d="M358.079 454.53C358.079 454.53 380.769 465.221 389.856 552.855C398.943 640.489 401.963 770.725 401.963 770.725L359.896 727.963L358.079 454.53Z" fill="#263238" stroke="#263238" stroke-miterlimit="10"/>
<path d="M777.356 813.086H512.235C507.32 813.086 503.335 817.07 503.335 821.986V884.364C503.335 889.279 507.32 893.264 512.235 893.264H777.356C782.271 893.264 786.256 889.279 786.256 884.364V821.986C786.256 817.07 782.271 813.086 777.356 813.086Z" fill="#B8B8B8" stroke="#263238" stroke-miterlimit="10"/>
<path d="M711.771 813.086H503.335V893.264H711.771V813.086Z" fill="#263238" stroke="#263238" stroke-miterlimit="10"/>
<path d="M588.189 412.25C588.189 412.25 555.022 423.956 540.697 435.021C526.372 446.085 521.187 482.513 530.301 516.348C539.414 550.183 534.203 561.248 526.399 585.301C518.595 609.354 453.517 655.563 437.268 694.61C421.018 733.657 431.415 775.296 456.136 800.659C480.858 826.021 540.697 827.999 558.924 827.999C577.151 827.999 596.661 826.69 596.661 826.69C596.661 826.69 653.908 824.017 697.498 812.364C741.088 800.712 770.38 762.28 759.315 735.608C748.251 708.935 711.823 702.414 696.216 696.561C680.608 690.708 661.712 677.692 655.859 673.149C650.006 668.606 643.512 662.726 643.512 662.726C643.512 662.726 654.577 646.477 664.893 641.906C675.209 637.336 704.581 647.252 725.4 599.626C728.065 589.668 728.969 579.321 728.073 569.051C726.122 554.726 728.073 544.33 728.741 520.25C729.409 496.17 750.122 477.301 746.941 448.678C743.761 420.054 692.287 391.431 646.104 399.876C599.922 408.322 588.189 412.25 588.189 412.25Z" fill="white" stroke="#263238" stroke-miterlimit="10"/>
<path d="M487.727 691.483C487.727 691.483 545.642 662.833 614.381 697.817" stroke="#263238" stroke-miterlimit="10"/>
<path d="M497.562 676.409C518.685 671.493 540.785 672.859 561.143 680.338" stroke="#263238" stroke-miterlimit="10"/>
<path d="M635.949 417.355C634.399 442.638 629.428 530.726 633.891 551.599C639.236 576.027 682.746 584.766 701.962 570.789C721.178 556.811 727.94 494.085 731.628 455.626C732.938 441.782 726.523 426.602 717.276 412.865C695.752 400.478 670.622 395.873 646.105 399.823L641.882 400.624C638.542 406.371 636.377 410.567 636.377 410.567C636.377 410.567 636.19 413.025 635.949 417.355Z" fill="white" stroke="#263238" stroke-miterlimit="10"/>
<path d="M625.152 424.197L614.462 405.97C594.257 410.192 588.27 412.17 588.27 412.17C588.27 412.17 555.103 423.876 540.778 434.941C526.453 446.005 521.268 482.433 530.382 516.268C534.845 532.811 535.727 543.929 534.845 553.684C554.194 563.546 585.624 575.519 597.33 556.758C614.702 528.909 625.152 424.197 625.152 424.197Z" fill="white" stroke="#263238" stroke-miterlimit="10"/>
<path d="M553.072 427.777C553.072 427.777 519.237 436.891 512.742 482.432C506.248 527.973 554.381 602.137 566.194 625.576C578.007 649.015 611.094 703.081 626.702 708.854C642.31 714.627 658.586 685.415 658.586 654.2C658.586 622.984 617.588 562.449 606.524 537.086C595.459 511.724 587.655 472.677 587.655 472.677" fill="white"/>
<path d="M553.072 427.777C553.072 427.777 519.237 436.891 512.742 482.432C506.248 527.973 554.381 602.137 566.194 625.576C578.007 649.015 611.094 703.081 626.702 708.854C642.31 714.627 658.586 685.415 658.586 654.2C658.586 622.984 617.588 562.449 606.524 537.086C595.459 511.724 587.655 472.677 587.655 472.677" stroke="#263238" stroke-miterlimit="10"/>
<path d="M795.102 481.737C795.102 481.737 788.581 553.897 782.728 596.231C776.875 638.565 767.12 678.226 752.153 691.215C737.187 704.204 702.71 693.166 700.118 665.211C697.525 637.256 713.16 607.349 720.937 579.367C728.715 551.385 739.138 500.659 739.806 487.644C740.474 474.628 786.63 457.684 795.102 481.737Z" fill="white" stroke="#263238" stroke-miterlimit="10"/>
<path d="M607.779 309.409C607.779 309.409 607.779 317.426 582.122 334.317C556.466 351.208 527.896 374.62 527.896 401.747C527.896 428.874 540.35 436.197 558.684 437.666C569.998 438.356 581.186 434.971 590.22 428.125C590.22 428.125 584.367 442.771 604.866 461.105C625.365 479.439 642.283 477.969 651.049 474.308C659.815 470.646 733.899 501.408 762.442 498.361C790.986 495.314 809.346 490.343 807.128 458.807C807.128 458.807 833.533 470.513 853.311 447.074C873.088 423.635 859.912 397.978 840.856 377.587C821.801 357.195 813.008 302.754 796.892 273.516C780.776 244.277 725.641 213.81 672.162 234.309C618.684 254.808 618.042 296.954 607.779 309.409Z" fill="#263238" stroke="#263238" stroke-miterlimit="10"/>
<path d="M746.995 305.641C746.995 305.641 778.051 354.656 815.654 366.121" stroke="#8F8F8F" stroke-miterlimit="10"/>
<path d="M818.273 402.147C841.097 418.183 856.037 429.221 844.999 441.274" stroke="#8F8F8F" stroke-miterlimit="10"/>
<path d="M732.536 308.526C742.639 328.277 759.262 355.297 781.338 374.272C788.474 380.419 795.69 385.925 802.718 391.003" stroke="#8F8F8F" stroke-miterlimit="10"/>
<path d="M720.857 282.763C720.857 282.763 722.194 286.397 724.84 292.357" stroke="#8F8F8F" stroke-miterlimit="10"/>
<path d="M647.254 363.796C641.921 365.119 636.468 365.898 630.978 366.121" stroke="#8F8F8F" stroke-miterlimit="10"/>
<path d="M704.528 251.707C704.528 251.707 697.713 319.431 684.911 339.903C678.971 348.795 670.431 355.636 660.457 359.493" stroke="#8F8F8F" stroke-miterlimit="10"/>
<path d="M558.391 417.007C562.923 418.032 567.635 417.949 572.128 416.767" stroke="#8F8F8F" stroke-miterlimit="10"/>
<path d="M683.895 285.114C679.967 301.604 672.537 321.462 658.746 331.778C632.608 351.395 577.045 344.874 555.798 371.011C541.072 389.132 540.217 401.319 545.107 408.695" stroke="#8F8F8F" stroke-miterlimit="10"/>
<path d="M688.171 258.255C688.171 258.255 687.85 263.6 686.567 271.618" stroke="#8F8F8F" stroke-miterlimit="10"/>
<path d="M795.343 426.869C800.585 432.649 803.713 440.035 804.216 447.822" stroke="#8F8F8F" stroke-miterlimit="10"/>
<path d="M709.419 321.996C709.419 321.996 717.437 364.223 735.557 384.08C747.129 396.802 771.343 405.942 787.699 419.466" stroke="#8F8F8F" stroke-miterlimit="10"/>
<path d="M692.795 355.564C692.795 355.564 691.325 376.945 681.062 381.221C670.799 385.498 655.405 379.751 655.405 379.751C655.405 379.751 686.942 371.707 692.795 355.564Z" fill="white" stroke="#263238" stroke-miterlimit="10"/>
<path d="M701.588 351.903C702.855 357.695 702.341 363.735 700.113 369.229C697.886 374.724 694.049 379.417 689.107 382.692C684.126 386.251 678.217 388.285 672.101 388.546C665.984 388.807 659.923 387.284 654.657 384.162C654.657 384.162 648.804 403.217 641.455 432.535C634.105 461.854 653.187 487.484 662.835 501.408C672.484 515.332 689.962 520.437 697.285 516.776C704.608 513.114 712.653 505.07 733.9 488.232C755.147 471.395 766.88 439.858 767.628 437.667C768.376 435.475 703.058 392.206 701.588 351.903Z" fill="white" stroke="#263238" stroke-miterlimit="10"/>
<path d="M727.191 443.065C727.191 443.065 721.846 485.827 714.229 497.159C710.968 502.05 699.075 494.486 699.075 494.486" stroke="#263238" stroke-miterlimit="10"/>
<path d="M697.499 731.892C697.499 731.892 690.122 765.647 680.287 776.231C670.452 786.814 653.107 767.705 653.107 767.705C653.107 767.705 626.381 818.244 630.978 821.291C635.575 824.337 680.234 826.85 708.216 813.273C736.198 799.696 733.312 743.518 725.748 733.683C718.185 723.848 708.109 723.554 697.499 731.892Z" fill="#8F8F8F" stroke="#263238" stroke-miterlimit="10"/>
<path d="M614.461 715.857C614.461 715.857 584.181 731.358 571.7 797.825C559.219 864.293 552.511 1001.69 549.544 1024.6C546.578 1047.5 541.526 1105.84 541.526 1115.46C541.526 1125.08 546.711 1126.55 557.054 1129.49C567.397 1132.43 582.898 1133.93 603.584 1139.12C624.27 1144.3 661.178 1139.12 673.74 1134.68C686.301 1130.24 673.018 1111.78 654.55 1100.71C636.083 1089.65 612.243 1077.73 601.179 1064.36C590.114 1051 593.161 1028.18 593.776 1018.58C594.39 1008.99 644.02 853.228 654.363 825.166C664.706 797.104 681.677 763.108 674.301 735.794C666.924 708.481 631.459 703.296 614.461 715.857Z" fill="white" stroke="#263238" stroke-miterlimit="10"/>
<path d="M654.363 1100.68C635.895 1089.59 612.243 1077.78 601.178 1064.47C595.031 1057.12 593.16 1046.83 592.92 1037.45C566.835 1043.33 554.702 1032.83 549.437 1024.89C546.47 1047.98 541.419 1105.87 541.419 1115.44C541.419 1125 546.604 1126.53 556.947 1129.47C567.29 1132.41 582.791 1133.9 603.477 1139.09C624.162 1144.27 661.071 1139.09 673.632 1134.65C686.193 1130.22 672.83 1111.75 654.363 1100.68Z" fill="white" stroke="#263238" stroke-miterlimit="10"/>
<path d="M556.867 1129.47C557.909 1129.79 559.058 1130.06 560.207 1130.32C560.275 1117.8 556.249 1105.6 548.742 1095.58C547.092 1093.38 545.18 1091.39 543.049 1089.65C542.034 1102.02 541.339 1112.02 541.339 1115.52C541.339 1125.06 546.524 1126.53 556.867 1129.47Z" fill="#ADADAD" stroke="#263238" stroke-miterlimit="10"/>
<path d="M627.637 1141.23C645.73 1140.93 665.053 1137.62 673.579 1134.65C682.104 1131.69 678.603 1121.88 669.463 1112.5C663.583 1114.74 656.1 1117.84 646.265 1122.09C633.303 1127.89 629 1135.83 627.637 1141.23Z" fill="#ADADAD" stroke="#263238" stroke-miterlimit="10"/>
<path d="M714.924 710.672C714.924 710.672 688.198 719.545 695.708 772.73C703.218 825.915 779.921 954.466 789.516 986.912C799.11 1019.36 810.202 1085.16 810.202 1105.84C810.202 1126.53 817.605 1145.72 839.761 1144.25C861.916 1142.78 879.636 1136.23 873.729 1100.68C867.823 1065.14 846.389 1006.88 838.264 983.224C830.139 959.571 818.326 904.943 805.765 836.979C793.204 769.015 785.828 748.356 769.578 725.452C753.329 702.548 723.048 704.766 714.924 710.672Z" fill="white" stroke="#263238" stroke-miterlimit="10"/>
<path d="M838.264 983.223C837.222 980.15 836.073 976.515 834.897 972.399C831.58 979.013 825.95 984.177 819.075 986.912C810.199 990.785 800.508 992.419 790.853 991.669C800.126 1025.42 810.202 1086.12 810.202 1105.84C810.202 1126.53 817.605 1145.72 839.761 1144.25C861.917 1142.78 879.636 1136.23 873.73 1100.68C867.823 1065.14 846.389 1006.88 838.264 983.223Z" fill="white" stroke="#263238" stroke-miterlimit="10"/>
<path d="M874.692 1117.81C849.73 1112.82 824.126 1119.55 812.394 1123.43C815.921 1136.15 824.18 1145.34 839.761 1144.3C857.747 1143.04 872.821 1138.45 874.692 1117.81Z" fill="#ADADAD" stroke="#263238" stroke-miterlimit="10"/>
<path d="M604.492 641.879C605.027 639.661 605.615 637.336 606.283 634.984C613.632 609.327 629.775 545.372 633.436 532.917C637.098 520.463 638.568 499.216 638.568 499.216C638.568 499.216 631.966 444.989 629.775 434.726C628.969 430.479 629.145 426.104 630.289 421.935C631.433 417.766 633.515 413.914 636.376 410.673C640.759 405.542 647.361 382.103 651.744 385.764C656.127 389.426 656.153 400.41 653.962 406.263C651.77 412.116 645.944 423.876 645.944 423.876V430.958L678.924 393.542C678.924 393.542 687.717 385.524 689.908 400.143C689.908 400.143 694.318 389.88 702.363 392.82C710.407 395.76 705.142 406.905 705.142 406.905C705.142 406.905 712.465 404.713 713.935 412.036C715.405 419.359 704.421 457.47 704.421 457.47C704.421 457.47 711.743 440.606 714.683 431.813C717.623 423.02 722.006 421.55 722.701 426.682C723.77 438.41 722.011 450.224 717.57 461.131C711.717 474.334 696.323 493.363 691.191 500.713C686.06 508.062 676.545 516.107 676.545 519.02C676.545 521.933 675.075 656.07 674.327 674.378C673.579 692.685 672.136 698.565 655.271 707.358C638.407 716.15 618.577 708.56 609.837 693.166C607.866 689.769 606.228 686.189 604.947 682.476" fill="white"/>
<path d="M604.492 641.879C605.027 639.661 605.615 637.336 606.283 634.984C613.632 609.327 629.775 545.372 633.436 532.917C637.098 520.463 638.568 499.216 638.568 499.216C638.568 499.216 631.966 444.989 629.775 434.726C628.969 430.479 629.145 426.104 630.289 421.935C631.433 417.766 633.515 413.914 636.376 410.673C640.759 405.542 647.361 382.103 651.744 385.764C656.127 389.426 656.153 400.41 653.962 406.263C651.77 412.116 645.944 423.876 645.944 423.876V430.958L678.924 393.542C678.924 393.542 687.717 385.524 689.908 400.143C689.908 400.143 694.318 389.88 702.363 392.82C710.407 395.76 705.142 406.905 705.142 406.905C705.142 406.905 712.465 404.713 713.935 412.036C715.405 419.359 704.421 457.47 704.421 457.47C704.421 457.47 711.743 440.606 714.683 431.813C717.623 423.02 722.006 421.55 722.701 426.682C723.77 438.41 722.011 450.224 717.57 461.131C711.717 474.334 696.323 493.363 691.191 500.713C686.06 508.062 676.545 516.107 676.545 519.02C676.545 521.933 675.075 656.07 674.327 674.378C673.579 692.685 672.136 698.565 655.271 707.358C638.407 716.15 618.577 708.56 609.837 693.166C607.866 689.769 606.228 686.189 604.947 682.476" stroke="#263238" stroke-miterlimit="10"/>
<path d="M705.249 406.878L686.193 455.973" stroke="#263238" stroke-miterlimit="10"/>
<path d="M689.855 400.277L665.668 448.651" stroke="#263238" stroke-miterlimit="10"/>
<path d="M645.891 430.958C645.891 430.958 639.29 443.412 639.29 446.994" stroke="#263238" stroke-miterlimit="10"/>
<path d="M726.523 500.686C726.523 486.014 724.331 440.58 724.331 437.667C724.331 434.753 725.801 428.125 729.463 428.125C733.124 428.125 735.316 435.448 735.316 437.667V417.141C735.224 416.084 735.471 415.026 736.021 414.119C736.57 413.212 737.394 412.504 738.374 412.096C739.353 411.688 740.436 411.603 741.467 411.851C742.498 412.1 743.423 412.67 744.108 413.48L747.048 417.141C747.048 417.141 744.108 403.938 753.65 403.938C763.191 403.938 766.104 417.863 766.104 417.863C768.174 417.886 770.204 418.438 772 419.467C773.797 420.497 775.3 421.968 776.367 423.742C779.306 429.595 785.881 462.575 788.099 471.368C790.318 480.161 780.082 500.767 772.705 519.742C765.329 538.717 760.972 578.352 764.687 608.392C768.402 638.432 772.01 657.514 764.687 672.882C757.364 688.249 752.955 699.287 728.794 700.009C704.634 700.73 700.198 686.084 695.066 663.367C689.935 640.65 713.4 595.938 722.193 568.089C730.986 540.241 733.178 524.125 730.986 518.272C729.138 512.508 727.647 506.634 726.523 500.686Z" fill="white" stroke="#263238" stroke-miterlimit="10"/>
<path d="M735.289 437.666C735.289 437.666 742.612 464.045 741.89 480.882" stroke="#263238" stroke-miterlimit="10"/>
<path d="M747.022 417.141C747.022 417.141 759.477 449.372 759.477 476.499" stroke="#263238" stroke-miterlimit="10"/>
<path d="M766.077 417.862C766.077 417.862 775.592 454.504 778.531 472.089" stroke="#263238" stroke-miterlimit="10"/>
<path d="M336.646 1129.6H352.36L384.432 903.821H515.763L526.694 1129.6H539.683L550.373 660.321C550.373 658.194 549.528 656.155 548.025 654.651C546.521 653.147 544.482 652.303 542.355 652.303L348.432 654.067L362.222 898.395L336.646 1129.6Z" fill="#263238" stroke="#263238" stroke-miterlimit="10"/>
<path d="M528.59 666.842H349.286L360.992 874.422H521.241L528.59 666.842Z" fill="#8C8C8C" stroke="#263238" stroke-miterlimit="10"/>
</svg>
