<svg width="1254" height="1202" viewBox="0 0 1254 1202" fill="none" xmlns="http://www.w3.org/2000/svg">
<path d="M313.705 287.124C385.09 287.124 442.959 229.255 442.959 157.87C442.959 86.4845 385.09 28.6152 313.705 28.6152C242.319 28.6152 184.45 86.4845 184.45 157.87C184.45 229.255 242.319 287.124 313.705 287.124Z" stroke="#263238" stroke-linecap="round" stroke-linejoin="round"/>
<path d="M313.705 276.679C379.321 276.679 432.514 223.486 432.514 157.87C432.514 92.2532 379.321 39.0605 313.705 39.0605C248.088 39.0605 194.896 92.2532 194.896 157.87C194.896 223.486 248.088 276.679 313.705 276.679Z" stroke="#263238" stroke-linecap="round" stroke-linejoin="round"/>
<path d="M307.973 161.887L233.383 214.14" stroke="#263238" stroke-linecap="round" stroke-linejoin="round"/>
<path d="M286.359 109.74L310.839 152.834" stroke="#263238" stroke-linecap="round" stroke-linejoin="round"/>
<path d="M319.812 157.87C319.812 159.078 319.454 160.259 318.783 161.263C318.112 162.267 317.158 163.05 316.042 163.512C314.926 163.974 313.698 164.095 312.514 163.859C311.329 163.624 310.241 163.042 309.387 162.188C308.533 161.334 307.952 160.246 307.716 159.062C307.48 157.877 307.601 156.649 308.063 155.533C308.526 154.418 309.308 153.464 310.313 152.793C311.317 152.122 312.497 151.764 313.705 151.764C315.325 151.764 316.878 152.407 318.023 153.552C319.168 154.697 319.812 156.251 319.812 157.87Z" stroke="#263238" stroke-linecap="round" stroke-linejoin="round"/>
<path d="M893.77 300.49H820.947V578.551H893.77V300.49Z" fill="#7A7A7A" stroke="#263238" stroke-linecap="round" stroke-linejoin="round"/>
<path d="M822.126 300.49H749.303V578.551H822.126V300.49Z" fill="#C7C7C7" stroke="#263238" stroke-linecap="round" stroke-linejoin="round"/>
<path d="M808.6 321.434H762.801V557.606H808.6V321.434Z" fill="white" stroke="#263238" stroke-linecap="round" stroke-linejoin="round"/>
<path d="M749.302 300.49H676.479V578.551H749.302V300.49Z" fill="#C7C7C7" stroke="#263238" stroke-linecap="round" stroke-linejoin="round"/>
<path d="M735.804 321.434H690.005V557.606H735.804V321.434Z" fill="white" stroke="#263238" stroke-linecap="round" stroke-linejoin="round"/>
<path d="M676.506 300.49H603.684V578.551H676.506V300.49Z" fill="#C7C7C7" stroke="#263238" stroke-linecap="round" stroke-linejoin="round"/>
<path d="M662.982 321.434H617.183V557.606H662.982V321.434Z" fill="white" stroke="#263238" stroke-linecap="round" stroke-linejoin="round"/>
<path d="M967.771 505.46L931.078 338.281L966.539 434.592L965.2 348.994L981.912 417.88L997.286 265.404L1024.71 443.939L1046.78 399.132L1047.42 431.244L1056.8 415.201L1064.83 448.627L1084.22 320.229L1097.59 447.957L1129.67 378.402L1116.31 423.209L1143.07 376.42L1100.72 505.46H967.771Z" fill="white"/>
<path d="M1126.67 480.766H934.399V579.729H1126.67V480.766Z" fill="white" stroke="#263238" stroke-linecap="round" stroke-linejoin="round"/>
<path d="M1126.67 480.766H1086.98V579.729H1126.67V480.766Z" fill="#D4D4D4" stroke="#263238" stroke-linecap="round" stroke-linejoin="round"/>
<path d="M1079.88 516.281H1118.1" stroke="#263238" stroke-linecap="round" stroke-linejoin="round"/>
<path d="M963.11 516.281H1062.66" stroke="#263238" stroke-linecap="round" stroke-linejoin="round"/>
<path d="M939.622 516.281H956.736" stroke="#263238" stroke-linecap="round" stroke-linejoin="round"/>
<path d="M1061.38 549.115H1106.69" stroke="#263238" stroke-linecap="round" stroke-linejoin="round"/>
<path d="M998.169 549.115H1044.8" stroke="#263238" stroke-linecap="round" stroke-linejoin="round"/>
<path d="M1127.56 880.395H1197.3V579.113H1127.56V880.395Z" fill="#D4D4D4" stroke="#263238" stroke-linecap="round" stroke-linejoin="round"/>
<path d="M1127.53 579.086H570.365V880.367H1127.53V579.086Z" fill="white" stroke="#263238" stroke-linecap="round" stroke-linejoin="round"/>
<path d="M1127.56 624.725H1197.3V579.113H1127.56V624.725Z" fill="#263238" stroke="#263238" stroke-linecap="round" stroke-linejoin="round"/>
<path d="M1127.53 579.086H570.365V624.697H1127.53V579.086Z" fill="#263238" stroke="#263238" stroke-linecap="round" stroke-linejoin="round"/>
<path d="M1113.82 631.902H584.104V727.812H1113.82V631.902Z" fill="white" stroke="#263238" stroke-linecap="round" stroke-linejoin="round"/>
<path d="M913.08 671.889H784.843V687.798H913.08V671.889Z" fill="#D4D4D4" stroke="#263238" stroke-linecap="round" stroke-linejoin="round"/>
<path d="M1113.82 751.836H584.104V847.746H1113.82V751.836Z" fill="white" stroke="#263238" stroke-linecap="round" stroke-linejoin="round"/>
<path d="M913.08 791.26H784.843V807.169H913.08V791.26Z" fill="#D4D4D4" stroke="#263238" stroke-linecap="round" stroke-linejoin="round"/>
<path d="M1138.08 579.086H559.812V609.083H1138.08V579.086Z" fill="#878787" stroke="#263238" stroke-linecap="round" stroke-linejoin="round"/>
<path d="M1138.08 609.082H1212.51V579.085H1138.08V609.082Z" fill="#404040" stroke="#263238" stroke-linecap="round" stroke-linejoin="round"/>
<path d="M1250.3 880.957H571.677L17.1094 1124.36" stroke="#263238" stroke-linecap="round" stroke-linejoin="round"/>
<path d="M978.136 918.21V913.148L642.465 986.159V991.221H902.768L978.136 918.21Z" fill="#C7C7C7" stroke="#263238" stroke-linecap="round" stroke-linejoin="round"/>
<path d="M978.136 913.148H760.256L642.465 986.159H902.768L978.136 913.148Z" fill="#C7C7C7" stroke="#263238" stroke-linecap="round" stroke-linejoin="round"/>
<path d="M784.655 947.217H803.028L812.402 940.066H794.485L784.655 947.217Z" fill="#263238"/>
<path d="M784.254 961.574L798.663 950.539H780.129L764.997 961.574H784.254Z" fill="#263238"/>
<path d="M873.307 940.066H857.478L849.31 947.217H865.674L873.307 940.066Z" fill="#263238"/>
<path d="M808.492 947.217H824.026L832.463 940.066H817.866L808.492 947.217Z" fill="#263238"/>
<path d="M822.205 936.745H836.373L846.122 928.469H833.025L822.205 936.745Z" fill="#263238"/>
<path d="M862.139 950.539H845.507L832.919 961.574H850.408L862.139 950.539Z" fill="#263238"/>
<path d="M820.116 950.539H804.154L789.718 961.574H807.127L820.116 950.539Z" fill="#263238"/>
<path d="M840.471 950.539H825.232L812.242 961.574H827.883L840.471 950.539Z" fill="#263238"/>
<path d="M829.143 947.217H844.275L852.444 940.066H837.606L829.143 947.217Z" fill="#263238"/>
<path d="M835.356 922.496H818.509L814.894 925.148H831.901L835.356 922.496Z" fill="#263238"/>
<path d="M932.444 925.148L935.096 922.496H918.089L915.464 925.148H932.444Z" fill="#263238"/>
<path d="M903.947 936.745H920.794L929.096 928.469H912.17L903.947 936.745Z" fill="#263238"/>
<path d="M744.133 964.895L731.144 973.599H742.901L754.82 964.895H744.133Z" fill="#263238"/>
<path d="M895.939 940.066H878.128L870.521 947.217H888.814L895.939 940.066Z" fill="#263238"/>
<path d="M841.489 936.745H856.22L865.674 928.469H851.238L841.489 936.745Z" fill="#263238"/>
<path d="M881.663 936.745H899.26L907.482 928.469H890.448L881.663 936.745Z" fill="#263238"/>
<path d="M861.281 936.745H876.815L885.627 928.469H870.709L861.281 936.745Z" fill="#263238"/>
<path d="M770.515 947.217H779.032L788.861 940.066H781.201L770.515 947.217Z" fill="#263238"/>
<path d="M885.521 950.539H866.987L855.256 961.574H874.54L885.521 950.539Z" fill="#263238"/>
<path d="M851.721 964.895L842.48 973.599H862.568L871.219 964.895H851.721Z" fill="#263238"/>
<path d="M846.9 964.895H829.143L819.206 973.599H837.633L846.9 964.895Z" fill="#263238"/>
<path d="M808.332 964.895L798.074 973.599H814.171L824.107 964.895H808.332Z" fill="#263238"/>
<path d="M875.905 964.895L867.228 973.599H883.726L892.484 964.895H875.905Z" fill="#263238"/>
<path d="M803.216 964.895H785.378L773.969 973.599H792.958L803.216 964.895Z" fill="#263238"/>
<path d="M906.92 950.539H890.18L879.199 961.574H895.831L906.92 950.539Z" fill="#263238"/>
<path d="M809.269 925.148L812.885 922.496H807.368L803.431 925.148H809.269Z" fill="#263238"/>
<path d="M759.373 961.574L774.478 950.539H765.559L749.088 961.574H759.373Z" fill="#263238"/>
<path d="M889.136 925.148L891.948 922.496H877.512L874.485 925.148H889.136Z" fill="#263238"/>
<path d="M850.033 925.148L853.113 922.496H840.819L837.364 925.148H850.033Z" fill="#263238"/>
<path d="M760.471 964.895L748.525 973.599H768.505L779.915 964.895H760.471Z" fill="#263238"/>
<path d="M893.983 925.148H910.803L913.401 922.496H896.796L893.983 925.148Z" fill="#263238"/>
<path d="M855.148 925.148H869.451L872.477 922.496H858.255L855.148 925.148Z" fill="#263238"/>
<path d="M917.446 940.066H900.626L893.502 947.217H910.241L917.446 940.066Z" fill="#263238"/>
<path d="M799.038 936.745H816.742L827.562 928.469H810.367L799.038 936.745Z" fill="#263238"/>
<path d="M786.155 936.745H793.387L804.716 928.469H798.475L786.155 936.745Z" fill="#263238"/>
<path d="M902.769 986.16L968.735 699.957L1032.32 665.809L978.136 913.149L902.769 986.16Z" fill="#A3A3A3" stroke="#263238" stroke-linecap="round" stroke-linejoin="round"/>
<path d="M635.474 1049.98H634.939C627.868 1049.98 591.925 1049.47 579.337 1039.27C566.749 1029.07 548.457 991.623 557.402 973.545C565.919 956.404 603.415 962.644 619.003 966.099L615.494 982.008C596.237 977.777 574.998 977.241 571.784 980.91C568.222 988.168 578.453 1017.71 589.434 1026.58C594.791 1030.89 616.78 1033.57 634.323 1033.62L641.554 1032.79L643.402 1048.99L635.474 1049.98Z" fill="white" stroke="#263238" stroke-linecap="round" stroke-linejoin="round"/>
<path d="M598.166 964.412L621.039 1111.1C621.039 1118.2 640.215 1123.96 663.891 1123.96C687.568 1123.96 706.744 1118.2 706.744 1111.1L729.59 964.412H598.166Z" fill="white" stroke="#263238" stroke-linecap="round" stroke-linejoin="round"/>
<path d="M729.617 964.412C729.617 971.509 700.156 977.268 663.891 977.268C627.627 977.268 598.166 971.509 598.166 964.412C598.166 957.314 627.627 951.529 663.891 951.529C700.156 951.529 729.617 957.288 729.617 964.412Z" fill="white" stroke="#263238" stroke-linecap="round" stroke-linejoin="round"/>
<path d="M636.6 936.183C636.6 936.183 623.021 907.338 638.287 886.983C653.553 866.627 670.909 835.693 667.534 811.99" stroke="#263238" stroke-miterlimit="10"/>
<path d="M704.575 880.18C704.575 880.18 677.444 902.249 687.621 931.067" stroke="#263238" stroke-miterlimit="10"/>
<path d="M710.199 873.965C710.199 873.965 718.877 865.314 721.528 856.637" stroke="#263238" stroke-miterlimit="10"/>
<path d="M61.3017 1104.25L1.41496 792.305C0.840907 789.318 0.862659 786.247 1.47897 783.269C2.09529 780.291 3.29401 777.463 5.00628 774.95C6.71855 772.436 8.91061 770.285 11.4565 768.622C14.0025 766.958 16.8521 765.813 19.8416 765.254L179.254 735.418C184.355 734.463 189.628 735.504 193.984 738.325C198.34 741.146 201.446 745.532 202.662 750.577L265.87 1015.11L61.3017 1104.25Z" fill="#263238" stroke="#263238" stroke-linecap="round" stroke-linejoin="round"/>
<path d="M507.908 297.598C507.908 297.598 555.823 317.765 563.375 330.996C570.928 344.227 550.145 372.59 540.074 377.652C534.795 380.378 529.315 382.697 523.683 384.589C523.683 384.589 538.173 377.009 543.208 368.198C545.812 364.128 547.73 359.658 548.886 354.967C548.886 354.967 533.137 368.198 523.04 368.198C512.943 368.198 495.32 345.512 496.579 325.961C497.837 306.409 507.908 297.598 507.908 297.598Z" fill="#263238" stroke="#263238" stroke-linecap="round" stroke-linejoin="round"/>
<path d="M206.412 584.523C206.412 584.523 169.344 627.375 159.836 727.115C150.328 826.855 159.836 952.386 167.443 983.749C175.049 1015.11 171.246 1056.92 171.246 1056.92L407.498 952.869L406.963 939.075C406.963 939.075 429.782 895.339 433.585 876.323C437.388 857.307 451.637 841.157 444.057 778.431C436.477 715.705 429.782 676.656 406.025 631.125C382.269 585.594 351.843 558.811 318.579 546.544C285.314 534.278 206.412 584.523 206.412 584.523Z" fill="white" stroke="#263238" stroke-linecap="round" stroke-linejoin="round"/>
<path d="M529.708 388.391C529.708 388.391 544.305 407.139 552.822 417.584C561.339 428.03 563.16 454.09 566.214 466.276C569.267 478.462 553.438 504.602 551.001 513.119C548.564 521.636 539.431 570.328 539.431 570.328C539.431 570.328 589.408 684.102 594.764 726.097C600.121 768.093 586.729 835.613 583.194 846.621C579.659 857.628 573.445 865.369 560.08 869.118C546.716 872.868 529.039 889.822 507.13 861.833C485.222 833.845 444.458 765.093 412.212 706.68C379.965 648.266 352.03 606.833 331.354 589.879C310.677 572.926 289.438 558.141 289.438 558.141C289.438 558.141 364.886 558.141 389.848 556.936C414.81 555.731 420.862 557.552 430.022 570.917C439.182 584.282 464.84 645.909 482.945 678.049C501.051 710.188 507.907 724.276 507.907 724.276C507.907 724.276 507.907 624.51 506.086 602.601C504.265 580.693 500.006 572.176 496.953 560.605C493.9 549.035 491.596 528.975 492.078 526.538C492.56 524.1 501.211 477.257 501.211 477.257L505.47 420.048C505.47 420.048 493.203 362.84 529.708 388.391Z" fill="white" stroke="#263238" stroke-linecap="round" stroke-linejoin="round"/>
<path d="M507.8 724.25C507.8 724.25 486.508 780.842 493.793 799.698" stroke="#263238" stroke-linecap="round" stroke-linejoin="round"/>
<path d="M503.542 734.508C503.542 734.508 481.634 753.256 477.991 766.138" stroke="#263238" stroke-linecap="round" stroke-linejoin="round"/>
<path d="M471.911 750.417C471.911 750.417 485.892 735.82 497.462 732.178" stroke="#263238" stroke-linecap="round" stroke-linejoin="round"/>
<path d="M443.923 670.096L453.645 750.418" stroke="#263238" stroke-linecap="round" stroke-linejoin="round"/>
<path d="M539.432 570.328C539.432 570.328 548.565 521.637 551.002 513.12C553.439 504.603 569.241 478.302 566.214 466.276C563.188 454.251 561.34 427.95 552.823 417.585C544.306 407.22 529.709 388.391 529.709 388.391C493.204 362.84 505.364 420.022 505.364 420.022L501.025 477.231C501.025 477.231 492.508 524.074 491.892 526.511C491.276 528.948 493.713 549.036 496.766 560.579C499.82 572.123 504.078 580.666 505.899 602.575C507.721 624.483 507.721 724.25 507.721 724.25C507.721 724.25 505.283 747.979 511.979 759.55C518.675 771.12 539.351 793.028 560.644 789.975C577.758 787.538 588.712 781.083 595.595 763.781C596.407 751.219 596.12 738.61 594.738 726.098C589.409 684.102 539.432 570.328 539.432 570.328Z" fill="white" stroke="#263238" stroke-linecap="round" stroke-linejoin="round"/>
<path d="M529.388 401.221C529.388 401.221 550.332 428.004 553.198 435.878C556.064 443.752 560.429 472.678 558.983 479.186" fill="white"/>
<path d="M529.388 401.221C529.388 401.221 550.332 428.004 553.198 435.878C556.064 443.752 560.429 472.678 558.983 479.186" stroke="#263238" stroke-linecap="round" stroke-linejoin="round"/>
<path d="M512.97 319.023C512.97 319.023 533.753 371.973 533.753 386.462C533.753 400.952 533.137 411.049 527.459 423.664C521.781 436.279 524.942 453.286 531.879 460.223C538.815 467.159 540.074 469.677 537.53 481.649C534.986 493.621 528.075 513.789 512.327 536.474C496.579 559.159 490.312 563.096 478.929 561.061C467.546 559.025 448.048 550.347 448.048 550.347C448.048 550.347 425.336 568.613 420.944 595.718C418.062 615.552 417.639 635.666 419.685 655.604C420.301 665.702 399.517 661.898 382.483 639.856C371.905 625.896 362.423 611.139 354.12 595.718C352.861 593.843 393.839 583.746 384.385 545.312C374.93 506.879 349.085 512.53 337.113 477.23C325.141 441.93 321.338 425.539 352.245 390.239C383.153 354.939 437.335 340.449 458.761 323.442C480.188 306.435 512.97 319.023 512.97 319.023Z" fill="white" stroke="#263238" stroke-linecap="round" stroke-linejoin="round"/>
<path d="M480.429 397.925C486.706 391.637 494.575 387.175 503.194 385.016C516.13 382.338 520.282 397.417 520.282 397.417C520.282 397.417 504.748 382.418 480.429 397.925Z" fill="#263238"/>
<path d="M448.047 550.349L435.245 542.662L425.121 581.337L448.047 550.349Z" fill="#263238" stroke="#263238" stroke-linecap="round" stroke-linejoin="round"/>
<path d="M498.882 507.068C502.526 505.794 506.389 505.268 510.241 505.521C514.092 505.774 517.853 506.801 521.299 508.541" stroke="#263238" stroke-linecap="round" stroke-linejoin="round"/>
<path d="M501.4 412.926C501.4 412.926 499.123 428.219 502.176 434.352" stroke="#263238" stroke-linecap="round" stroke-linejoin="round"/>
<path d="M470.813 429.744C470.813 429.744 499.873 432.797 508.31 429.744L507.56 435.101L512.916 435.877C512.916 435.877 490.686 452.697 470.813 429.744Z" fill="#263238"/>
<path d="M506.648 472.195C506.648 472.195 506.648 482.266 510.425 483.524C514.201 484.783 518.62 484.783 525.557 482.266" stroke="#263238" stroke-linecap="round" stroke-linejoin="round"/>
<path d="M521.781 306.409C521.781 306.409 507.907 349.262 480.803 375.75C453.699 402.238 405.168 395.302 405.168 395.302C405.168 395.302 402.034 417.344 393.196 421.763C384.358 426.182 380.608 419.246 371.77 416.085C362.931 412.925 332.693 434.378 356.637 465.259C380.581 496.14 394.455 474.07 410.203 514.406C425.951 554.741 423.434 579.97 399.49 605.173C375.546 630.376 349.674 618.564 313.784 595.719C277.895 572.873 245.086 567.998 223.017 586.907C200.948 605.816 178.905 641.732 173.87 652.445C168.835 663.158 166.933 668.22 166.933 668.22C166.933 668.22 129.116 653.088 117.76 621.564C106.404 590.041 106.431 556.642 141.088 555.383C175.745 554.125 180.78 556.642 172.611 519.468C164.443 482.293 187.663 440.056 225.535 449.51C263.406 458.965 265.334 442.574 265.87 388.365C266.405 334.156 290.456 276.171 356.021 257.878C421.586 239.586 517.362 276.171 521.781 306.409Z" fill="#263238" stroke="#263238" stroke-linecap="round" stroke-linejoin="round"/>
<path d="M194.306 787.912C194.306 787.912 265.87 776.288 307.437 751.166" stroke="#263238" stroke-linecap="round" stroke-linejoin="round"/>
<path d="M313.249 768.576C313.249 768.576 280.359 801.439 261.986 814.107" stroke="#263238" stroke-linecap="round" stroke-linejoin="round"/>
<path d="M204.938 984.206C204.938 984.206 270.691 934.898 315.177 881.814" stroke="#263238" stroke-linecap="round" stroke-linejoin="round"/>
<path d="M547.359 855.7L579.499 853.852C582.807 846.667 585.253 839.115 586.784 831.354C588.605 820.4 592.14 799.67 592.14 799.67C592.14 799.67 601.461 814.909 613.004 820.4C624.548 825.89 630.038 838.05 631.27 847.772C632.502 857.494 632.476 880.635 627.601 890.973C622.727 901.311 592.971 927.478 576.017 937.227C559.064 946.976 554.591 948.771 554.591 948.771C554.591 948.771 564.34 896.464 560.671 881.813C558.033 872.303 553.505 863.422 547.359 855.7Z" fill="white" stroke="#263238" stroke-linecap="round" stroke-linejoin="round"/>
<path d="M579.605 853.853L618.548 842.898" stroke="#263238" stroke-linecap="round" stroke-linejoin="round"/>
<path d="M226.071 688.978C242.77 703.893 258.615 719.738 273.53 736.437C295.439 761.372 387.84 900.027 387.84 900.027C387.84 900.027 393.92 906.107 399.999 911.598C406.079 917.088 411.57 919.499 418.265 926.194C424.961 932.89 419.47 939.586 428.603 949.308C437.736 959.03 464.76 962.485 485.437 966.744C506.113 971.002 548.564 954.879 558.903 946.951C569.241 939.023 579.606 914.089 571.678 883.69C563.75 853.291 549.18 854.47 541.869 853.854C537.602 853.486 533.305 853.693 529.093 854.47C529.093 854.47 523.013 847.158 519.371 842.31C518.338 840.945 516.878 839.963 515.223 839.522C513.569 839.08 511.814 839.204 510.238 839.873C507.46 835.036 504.41 830.359 501.105 825.865C496.846 820.509 493.204 822.223 493.204 822.223C493.204 822.223 437.817 729.741 404.365 676.202C382.939 641.786 362.101 612.887 350.022 596.657C339.134 581.804 324.952 569.675 308.589 561.223C298.693 555.812 287.712 552.682 276.449 552.063C215.599 550.858 180.325 609.272 173.014 660.374" fill="white"/>
<path d="M226.071 688.978C242.77 703.893 258.615 719.738 273.53 736.437C295.439 761.372 387.84 900.027 387.84 900.027C387.84 900.027 393.92 906.107 399.999 911.598C406.079 917.088 411.57 919.499 418.265 926.194C424.961 932.89 419.47 939.586 428.603 949.308C437.736 959.03 464.76 962.485 485.437 966.744C506.113 971.002 548.564 954.879 558.903 946.951C569.241 939.023 579.606 914.089 571.678 883.69C563.75 853.291 549.18 854.47 541.869 853.854C537.602 853.486 533.305 853.693 529.093 854.47C529.093 854.47 523.013 847.158 519.371 842.31C518.338 840.945 516.878 839.963 515.223 839.522C513.569 839.08 511.814 839.204 510.238 839.873C507.46 835.036 504.41 830.359 501.105 825.865C496.846 820.509 493.204 822.223 493.204 822.223C493.204 822.223 437.817 729.741 404.365 676.202C382.939 641.786 362.101 612.887 350.022 596.657C339.134 581.804 324.952 569.675 308.589 561.223C298.693 555.812 287.712 552.682 276.449 552.063C215.599 550.858 180.325 609.272 173.014 660.374" stroke="#263238" stroke-linecap="round" stroke-linejoin="round"/>
<path d="M491.382 829.533C491.382 829.533 478.58 834.89 457.903 828.917C456.698 828.569 455.466 828.14 454.181 827.658" stroke="#263238" stroke-linecap="round" stroke-linejoin="round"/>
<path d="M421.265 840.113C416.887 837.702 412.665 835.018 408.623 832.078" stroke="#263238" stroke-linecap="round" stroke-linejoin="round"/>
<path d="M510.854 847.773C510.854 847.773 495.641 859.344 465.323 855.808C452.726 854.007 440.516 850.124 429.192 844.318" stroke="#263238" stroke-linecap="round" stroke-linejoin="round"/>
<path d="M527.807 858.727C527.807 858.727 528.396 898.901 509.541 913.498" stroke="#263238" stroke-linecap="round" stroke-linejoin="round"/>
<path d="M545.993 504.174C548.412 494.108 549.909 483.844 550.466 473.507C550.466 461.562 539.244 445.84 534.771 434.645C528.691 419.486 521.379 421.923 523.549 432.395C525.718 442.867 531.878 460.33 531.878 460.33C531.878 460.33 536.271 489.229 529.548 501.924C522.826 514.619 504.854 541.563 502.631 555.008C500.408 568.453 504.426 568.399 504.426 568.399" fill="white"/>
<path d="M545.993 504.174C548.412 494.108 549.909 483.844 550.466 473.507C550.466 461.562 539.244 445.84 534.771 434.645C528.691 419.486 521.379 421.923 523.549 432.395C525.718 442.867 531.878 460.33 531.878 460.33C531.878 460.33 536.271 489.229 529.548 501.924C522.826 514.619 504.854 541.563 502.631 555.008C500.408 568.453 504.426 568.399 504.426 568.399" stroke="#263238" stroke-linecap="round" stroke-linejoin="round"/>
</svg>
