<svg xmlns="http://www.w3.org/2000/svg" xmlns:xlink="http://www.w3.org/1999/xlink" viewBox="0 0 500 500"><defs><clipPath id="freepik--clip-path--inject-27"><path d="M214.38,477.17c.37-6.59,1.47-84.16-.73-90s-2.2-2.93-11.35-15-32.22-35.52-45.77-51.64S144.44,296,132,274.73s-26.73-38.45-36.62-50.9-9.15-16.11,2.57-19.41,18.67.74,27.83,5.86,20.87,18.31,30.76,32.23,19.77,20.5,24.16,22.33,7.33.37,7.33.37,11.72-23.8,13.91-31.13,3.67-26.73,3.3-30-2.56-16.85-5.13-34.79-4.76-50.53-5.12-61.52-3.3-35.52,2.56-43.94,18.31-6.23,21.24.36,6.22,32.59,7,50.17,11.71,75.44,13.18,78,7.69-.37,9.52-2.2,0-7-.37-19.41,0-40.28.74-56.39S253.2,72.6,255,64.17s5.13-14.64,11-15.74,14.64,2.93,14.64,10.62,1.1,57.49,1.1,74.7-1.1,51.27-.73,54.19,4.39,3.3,6.23,2.2,3.29-9.89,4-24.9S299,122.4,299.71,96.4s2.93-27.47,11.71-28.2,13.55,3.66,15,14.28-1.1,44.31-1.1,64.82S318,202.23,318,202.23l7.68,4.39s9.53-35.15,11.72-46.87,5.5-40.28,10.26-45.78,15-1.83,17.21,6.6,1.1,17.94.36,39.91S355,222,355,222s4,21.61-.37,58.22-15.74,81.66-22.33,94.85-11.36,13.18-12.45,21.24-.74,82.69-.74,82.69" style="fill:#fff;stroke:#263238;stroke-linecap:round;stroke-linejoin:round"></path></clipPath></defs><g id="freepik--background-simple--inject-27"><path d="M453.08,248.23a235.35,235.35,0,0,0-2.77-57,192,192,0,0,0-15.72-48.75C397.36,64.74,309.06,14.88,223.25,32.17c-47.34,9.54-105.31,42.68-120.31,91.59-10.61,34.59-6.13,72.44-23,105.29C62.59,262.89,45,292.86,49.6,332.74c4.91,42.72,33.84,80,69.88,103.46,44.74,29.09,103.75,45.22,157,41.49C381.15,470.35,446.31,351.05,453.08,248.23Z" style="fill:#8E8E8E"></path><path d="M453.08,248.23a235.35,235.35,0,0,0-2.77-57,192,192,0,0,0-15.72-48.75C397.36,64.74,309.06,14.88,223.25,32.17c-47.34,9.54-105.31,42.68-120.31,91.59-10.61,34.59-6.13,72.44-23,105.29C62.59,262.89,45,292.86,49.6,332.74c4.91,42.72,33.84,80,69.88,103.46,44.74,29.09,103.75,45.22,157,41.49C381.15,470.35,446.31,351.05,453.08,248.23Z" style="fill:#fff;opacity:0.8"></path></g><g id="freepik--Hand--inject-27"><path d="M214.38,477.17c.37-6.59,1.47-84.16-.73-90s-2.2-2.93-11.35-15-32.22-35.52-45.77-51.64S144.44,296,132,274.73s-26.73-38.45-36.62-50.9-9.15-16.11,2.57-19.41,18.67.74,27.83,5.86,20.87,18.31,30.76,32.23,19.77,20.5,24.16,22.33,7.33.37,7.33.37,11.72-23.8,13.91-31.13,3.67-26.73,3.3-30-2.56-16.85-5.13-34.79-4.76-50.53-5.12-61.52-3.3-35.52,2.56-43.94,18.31-6.23,21.24.36,6.22,32.59,7,50.17,11.71,75.44,13.18,78,7.69-.37,9.52-2.2,0-7-.37-19.41,0-40.28.74-56.39S253.2,72.6,255,64.17s5.13-14.64,11-15.74,14.64,2.93,14.64,10.62,1.1,57.49,1.1,74.7-1.1,51.27-.73,54.19,4.39,3.3,6.23,2.2,3.29-9.89,4-24.9S299,122.4,299.71,96.4s2.93-27.47,11.71-28.2,13.55,3.66,15,14.28-1.1,44.31-1.1,64.82S318,202.23,318,202.23l7.68,4.39s9.53-35.15,11.72-46.87,5.5-40.28,10.26-45.78,15-1.83,17.21,6.6,1.1,17.94.36,39.91S355,222,355,222s4,21.61-.37,58.22-15.74,81.66-22.33,94.85-11.36,13.18-12.45,21.24-.74,82.69-.74,82.69" style="fill:#fff"></path><g style="clip-path:url(#freepik--clip-path--inject-27)"><path d="M322.12,377.78c-7.73,3.09-27.05-17-43.29-18.56s-24.73,18.56-50.24,11.6S168.3,319,156.7,298.16c-9.41-17-23.92-27.27-29-30.55,1.46,2.32,2.91,4.69,4.33,7.12A165.29,165.29,0,0,1,142.79,297c3.82,6.3,8,12.86,12.37,18.93,15.46,21.64,38.65,38.65,47.92,52.56s24,29.37,34,30.15,18.56-6.19,34.79-11.6,38.65,6.19,46.38.77S329.85,374.68,322.12,377.78Z" style="fill:#8E8E8E"></path><path d="M356.56,239.7c-.88,3.76-3.73,12.31-12,16-10.79,4.72-24.74,3.09-17,6.18s16.23,40.19,14.69,58c-1.09,12.56-1.41,23.56-.42,26.5a516.42,516.42,0,0,0,12.83-66.08A264.48,264.48,0,0,0,356.56,239.7Z" style="fill:#8E8E8E"></path><path d="M283.82,190.6c2.16,6.4,13.57,6.63,13.57,2.43,0-4.63-6.11-27.79.77-39.42s2.32-10.05,2.32-18.55,7.73-31.69,7.73-31.69a60.65,60.65,0,0,1-3.09-18.55,54.57,54.57,0,0,1,2.5-16.09c-5.66,1.34-7.3,5.92-7.91,27.67-.74,26-7.69,53.83-8.43,68.84s-2.19,23.8-4,24.9A5.09,5.09,0,0,1,283.82,190.6Z" style="fill:#8E8E8E"></path><path d="M349.67,112.35a7.46,7.46,0,0,0-2,1.62c-4.76,5.5-8.06,34.06-10.26,45.78C335.87,168,330.65,188,327.73,199c1,14.58,5.28,16.13,11.4,14.09,6.95-2.32,0-3.86,0-17.78s5.79-20,7.73-36.33-2.48-12.45-2.32-18.55C344.67,135.22,348.58,117.25,349.67,112.35Z" style="fill:#8E8E8E"></path><path d="M260.28,67.81c0-11.59,7.73-17,7.73-17a7.68,7.68,0,0,0-2.85-2.17c-5.33,1.53-8.39,7.53-10.13,15.53-1.83,8.43-5.49,34.06-6.22,50.17s-1.1,43.94-.74,56.39,2.2,17.58.37,19.41a12.34,12.34,0,0,1-3.38,2.15c2.07,8.68,16,6.15,16,6.15S256,192,258,186.08s2.32-13.14-2.31-32.47S258,124.24,258,124.24s-1.54-3.09-3.09-14.69,5.41-30.14,5.41-30.14Z" style="fill:#8E8E8E"></path><path d="M118.61,206.46c3.24,2.69,6.9,5.9,11,9.76,23.19,21.65,27.83,43.29,48.7,51.79s35.55-13.14,50.24-12.36,37.88,41,37.88,41-4.64-23.19-9.28-34.78-29.37-21.64-29.37-21.64,29.37,8.5,41.74,16.23a85.39,85.39,0,0,0,24.56,10c-3-1.55-41.89-27.89-52.39-32.39-10.82-4.64-27-7.73-29.37-17s3.09-20.1,3.09-20.1-7-22.42-9.28-34,.78-17,.78-17-3.87-6.95-3.87-17.78a101.2,101.2,0,0,1,3.09-22.41s-9.27-6.19-7.73-20.1,13.15-13.91,13.15-13.91c10,3.86,12.36,30.14,12.36,30.14l.27-7.19L224,92.16v0c-.08-.75-.17-1.49-.26-2.24,0-.12,0-.24,0-.36-.09-.72-.18-1.44-.27-2.14v-.14c-.11-.78-.21-1.56-.31-2.33v-.07c-.1-.7-.19-1.38-.29-2.06l-.06-.44-.27-1.8c0-.1,0-.2,0-.3-.11-.7-.22-1.39-.33-2.06,0,0,0-.09,0-.14-.1-.6-.2-1.19-.3-1.76,0-.16,0-.31-.08-.46-.08-.49-.17-1-.26-1.45,0-.13,0-.26-.07-.39-.11-.59-.22-1.16-.34-1.72l0-.15q-.15-.73-.3-1.41l-.09-.44c-.08-.37-.17-.73-.25-1.08l-.09-.39c-.12-.45-.23-.89-.34-1.3,0,0,0,0,0-.08-.1-.38-.21-.73-.31-1.07,0-.11-.07-.22-.1-.32-.08-.26-.16-.5-.24-.73s-.07-.19-.1-.28c-.11-.3-.22-.58-.33-.83-2.93-6.59-15.38-8.79-21.24-.36s-2.93,33-2.56,43.94,2.56,43.58,5.12,61.52,4.76,31.49,5.13,34.79-1.1,22.7-3.3,30S188,265.21,188,265.21s-2.93,1.46-7.33-.37-14.28-8.42-24.16-22.33-21.61-27.1-30.76-32.23c-2.51-1.4-4.85-2.71-7.16-3.82Z" style="fill:#8E8E8E"></path><g style="opacity:0.5"><path d="M322.12,377.78c-7.73,3.09-27.05-17-43.29-18.56s-24.73,18.56-50.24,11.6S168.3,319,156.7,298.16c-9.41-17-23.92-27.27-29-30.55,1.46,2.32,2.91,4.69,4.33,7.12A165.29,165.29,0,0,1,142.79,297c3.82,6.3,8,12.86,12.37,18.93,15.46,21.64,38.65,38.65,47.92,52.56s24,29.37,34,30.15,18.56-6.19,34.79-11.6,38.65,6.19,46.38.77S329.85,374.68,322.12,377.78Z" style="fill:#fff"></path><path d="M356.56,239.7c-.88,3.76-3.73,12.31-12,16-10.79,4.72-24.74,3.09-17,6.18s16.23,40.19,14.69,58c-1.09,12.56-1.41,23.56-.42,26.5a516.42,516.42,0,0,0,12.83-66.08A264.48,264.48,0,0,0,356.56,239.7Z" style="fill:#fff"></path><path d="M283.82,190.6c2.16,6.4,13.57,6.63,13.57,2.43,0-4.63-6.11-27.79.77-39.42s2.32-10.05,2.32-18.55,7.73-31.69,7.73-31.69a60.65,60.65,0,0,1-3.09-18.55,54.57,54.57,0,0,1,2.5-16.09c-5.66,1.34-7.3,5.92-7.91,27.67-.74,26-7.69,53.83-8.43,68.84s-2.19,23.8-4,24.9A5.09,5.09,0,0,1,283.82,190.6Z" style="fill:#fff"></path><path d="M349.67,112.35a7.46,7.46,0,0,0-2,1.62c-4.76,5.5-8.06,34.06-10.26,45.78C335.87,168,330.65,188,327.73,199c1,14.58,5.28,16.13,11.4,14.09,6.95-2.32,0-3.86,0-17.78s5.79-20,7.73-36.33-2.48-12.45-2.32-18.55C344.67,135.22,348.58,117.25,349.67,112.35Z" style="fill:#fff"></path><path d="M260.28,67.81c0-11.59,7.73-17,7.73-17a7.68,7.68,0,0,0-2.85-2.17c-5.33,1.53-8.39,7.53-10.13,15.53-1.83,8.43-5.49,34.06-6.22,50.17s-1.1,43.94-.74,56.39,2.2,17.58.37,19.41a12.34,12.34,0,0,1-3.38,2.15c2.07,8.68,16,6.15,16,6.15S256,192,258,186.08s2.32-13.14-2.31-32.47S258,124.24,258,124.24s-1.54-3.09-3.09-14.69,5.41-30.14,5.41-30.14Z" style="fill:#fff"></path><path d="M118.61,206.46c3.24,2.69,6.9,5.9,11,9.76,23.19,21.65,27.83,43.29,48.7,51.79s35.55-13.14,50.24-12.36,37.88,41,37.88,41-4.64-23.19-9.28-34.78-29.37-21.64-29.37-21.64,29.37,8.5,41.74,16.23a85.39,85.39,0,0,0,24.56,10c-3-1.55-41.89-27.89-52.39-32.39-10.82-4.64-27-7.73-29.37-17s3.09-20.1,3.09-20.1-7-22.42-9.28-34,.78-17,.78-17-3.87-6.95-3.87-17.78a101.2,101.2,0,0,1,3.09-22.41s-9.27-6.19-7.73-20.1,13.15-13.91,13.15-13.91c10,3.86,12.36,30.14,12.36,30.14l.27-7.19L224,92.16v0c-.08-.75-.17-1.49-.26-2.24,0-.12,0-.24,0-.36-.09-.72-.18-1.44-.27-2.14v-.14c-.11-.78-.21-1.56-.31-2.33v-.07c-.1-.7-.19-1.38-.29-2.06l-.06-.44-.27-1.8c0-.1,0-.2,0-.3-.11-.7-.22-1.39-.33-2.06,0,0,0-.09,0-.14-.1-.6-.2-1.19-.3-1.76,0-.16,0-.31-.08-.46-.08-.49-.17-1-.26-1.45,0-.13,0-.26-.07-.39-.11-.59-.22-1.16-.34-1.72l0-.15q-.15-.73-.3-1.41l-.09-.44c-.08-.37-.17-.73-.25-1.08l-.09-.39c-.12-.45-.23-.89-.34-1.3,0,0,0,0,0-.08-.1-.38-.21-.73-.31-1.07,0-.11-.07-.22-.1-.32-.08-.26-.16-.5-.24-.73s-.07-.19-.1-.28c-.11-.3-.22-.58-.33-.83-2.93-6.59-15.38-8.79-21.24-.36s-2.93,33-2.56,43.94,2.56,43.58,5.12,61.52,4.76,31.49,5.13,34.79-1.1,22.7-3.3,30S188,265.21,188,265.21s-2.93,1.46-7.33-.37-14.28-8.42-24.16-22.33-21.61-27.1-30.76-32.23c-2.51-1.4-4.85-2.71-7.16-3.82Z" style="fill:#fff"></path></g></g><path d="M214.38,477.17c.37-6.59,1.47-84.16-.73-90s-2.2-2.93-11.35-15-32.22-35.52-45.77-51.64S144.44,296,132,274.73s-26.73-38.45-36.62-50.9-9.15-16.11,2.57-19.41,18.67.74,27.83,5.86,20.87,18.31,30.76,32.23,19.77,20.5,24.16,22.33,7.33.37,7.33.37,11.72-23.8,13.91-31.13,3.67-26.73,3.3-30-2.56-16.85-5.13-34.79-4.76-50.53-5.12-61.52-3.3-35.52,2.56-43.94,18.31-6.23,21.24.36,6.22,32.59,7,50.17,11.71,75.44,13.18,78,7.69-.37,9.52-2.2,0-7-.37-19.41,0-40.28.74-56.39S253.2,72.6,255,64.17s5.13-14.64,11-15.74,14.64,2.93,14.64,10.62,1.1,57.49,1.1,74.7-1.1,51.27-.73,54.19,4.39,3.3,6.23,2.2,3.29-9.89,4-24.9S299,122.4,299.71,96.4s2.93-27.47,11.71-28.2,13.55,3.66,15,14.28-1.1,44.31-1.1,64.82S318,202.23,318,202.23l7.68,4.39s9.53-35.15,11.72-46.87,5.5-40.28,10.26-45.78,15-1.83,17.21,6.6,1.1,17.94.36,39.91S355,222,355,222s4,21.61-.37,58.22-15.74,81.66-22.33,94.85-11.36,13.18-12.45,21.24-.74,82.69-.74,82.69" style="fill:none;stroke:#263238;stroke-linecap:round;stroke-linejoin:round"></path><path d="M294.12,266.39l.17.08C294.37,266.47,294.3,266.44,294.12,266.39Z" style="fill:#263238;stroke:#8E8E8E;stroke-miterlimit:10"></path><path d="M333.75,260.37c-13.34-1.73-33.27-5.09-47.59-10.91-23.44-9.52-33-21.23-33-21.23" style="fill:none;stroke:#263238;stroke-linecap:round;stroke-linejoin:round"></path><path d="M348,261.91s-2.1-.16-5.63-.52" style="fill:none;stroke:#263238;stroke-linecap:round;stroke-linejoin:round"></path><path d="M236,389.74A42.66,42.66,0,0,0,253,390c14-3,28-9,35-5s15,9,19,9" style="fill:none;stroke:#263238;stroke-linecap:round;stroke-linejoin:round"></path><path d="M224,386a52,52,0,0,0,5.88,2.18" style="fill:none;stroke:#263238;stroke-linecap:round;stroke-linejoin:round"></path><path d="M272.41,192.54c13.48.79,31.48,2.72,38.59,7.46" style="fill:none;stroke:#263238;stroke-linecap:round;stroke-linejoin:round"></path><path d="M256,192s2.69,0,6.91.13" style="fill:none;stroke:#263238;stroke-linecap:round;stroke-linejoin:round"></path><path d="M296.15,293.34c1.56,1.8,2.89,3.32,3.92,4.46" style="fill:none;stroke:#263238;stroke-linecap:round;stroke-linejoin:round"></path><path d="M204.86,236.65s34.42,1.1,50.17,13.55c11.59,9.16,26.56,26.26,36.57,37.87" style="fill:none;stroke:#263238;stroke-linecap:round;stroke-linejoin:round"></path><path d="M233.79,244.7s20.51,21.24,29.66,47.24A144.93,144.93,0,0,1,269,311.7" style="fill:none;stroke:#263238;stroke-linecap:round;stroke-linejoin:round"></path><path d="M301.81,145.62a15.53,15.53,0,0,0-4.3,1.31" style="fill:none;stroke:#263238;stroke-linecap:round;stroke-linejoin:round"></path><path d="M322.41,149.86s-7.66-3.92-15.64-4.43" style="fill:none;stroke:#263238;stroke-linecap:round;stroke-linejoin:round"></path><path d="M325,108.48s-11.35-7.32-20.87-2.93" style="fill:none;stroke:#263238;stroke-linecap:round;stroke-linejoin:round"></path><path d="M276.27,84.31s-11-4.76-19.77-.36" style="fill:none;stroke:#263238;stroke-linecap:round;stroke-linejoin:round"></path><path d="M277.37,129.72s-19.41-2.93-26,1.1" style="fill:none;stroke:#263238;stroke-linecap:round;stroke-linejoin:round"></path><path d="M220.24,104.45S205.6,103,199,109.21" style="fill:none;stroke:#263238;stroke-linecap:round;stroke-linejoin:round"></path><path d="M218.46,144.69c-5.48.46-12.11,1.54-15.43,4.07" style="fill:none;stroke:#263238;stroke-linecap:round;stroke-linejoin:round"></path><path d="M227.2,144.37s-1.9,0-4.67.07" style="fill:none;stroke:#263238;stroke-linecap:round;stroke-linejoin:round"></path><path d="M362,149.13s-10.62-6.59-17.58-2.56" style="fill:none;stroke:#263238;stroke-linecap:round;stroke-linejoin:round"></path><path d="M344.92,175.39a10.76,10.76,0,0,0-4.93.47" style="fill:none;stroke:#263238;stroke-linecap:round;stroke-linejoin:round"></path><path d="M362,182.45a58.6,58.6,0,0,0-11.15-5.62" style="fill:none;stroke:#263238;stroke-linecap:round;stroke-linejoin:round"></path><path d="M147.74,236.65S135.29,246.53,126.5,248" style="fill:none;stroke:#263238;stroke-linecap:round;stroke-linejoin:round"></path><path d="M345.11,218.34s-9.88-2.57-13.18-5.49-5.13-4.77-5.13-4.77" style="fill:none;stroke:#263238;stroke-linecap:round;stroke-linejoin:round"></path><path d="M229.4,194.54s-16.11,3.66-19.78,7.69" style="fill:none;stroke:#263238;stroke-linecap:round;stroke-linejoin:round"></path><path d="M188,265.21s5.13-2.56,12.82-9.89,9.88-9.15,9.88-9.15" style="fill:none;stroke:#263238;stroke-linecap:round;stroke-linejoin:round"></path><path d="M189.85,265.58s8.42-3.3,21.24-8.79,15-6.59,15-6.59" style="fill:none;stroke:#263238;stroke-linecap:round;stroke-linejoin:round"></path><polyline points="130.54 164.86 156.28 164.86 221.48 224.91" style="fill:none;stroke:#263238;stroke-linecap:round;stroke-linejoin:round"></polyline><line x1="129.69" y1="134.83" x2="158.85" y2="134.83" style="fill:none;stroke:#263238;stroke-linecap:round;stroke-linejoin:round"></line><line x1="129.69" y1="141.25" x2="158.85" y2="141.25" style="fill:none;stroke:#263238;stroke-linecap:round;stroke-linejoin:round"></line><line x1="129.69" y1="147.67" x2="158.85" y2="147.67" style="fill:none;stroke:#263238;stroke-linecap:round;stroke-linejoin:round"></line><line x1="129.69" y1="154.09" x2="158.85" y2="154.09" style="fill:none;stroke:#263238;stroke-linecap:round;stroke-linejoin:round"></line></g></svg>