<svg width="1212" height="1204" viewBox="0 0 1212 1204" fill="none" xmlns="http://www.w3.org/2000/svg">
<path d="M1136.34 666.305C1136.34 666.305 1136.34 655.617 1121.38 640.735C1106.42 625.854 1096.78 617.211 1096.78 617.211C1096.78 617.211 1089.29 641.809 1103.2 656.768C1113.44 667.311 1124.56 676.968 1136.44 685.636L1136.34 666.305Z" fill="white"/>
<path d="M1114.6 733.197C1114.6 733.197 1114.6 722.508 1099.64 707.626C1084.68 692.745 1075.04 684.102 1075.04 684.102C1075.04 684.102 1067.55 708.7 1081.46 723.659C1091.71 734.195 1102.83 743.852 1114.7 752.527L1114.6 733.197Z" fill="white"/>
<path d="M1135.39 684.613C1135.39 684.613 1136.54 673.976 1153.01 660.68C1169.47 647.384 1179.93 639.891 1179.93 639.891C1179.93 639.891 1184.79 665.129 1169.37 678.553C1158.09 687.941 1146.05 696.374 1133.37 703.765L1135.39 684.613Z" fill="white"/>
<path d="M1109.15 763.369C1109.15 763.369 1111.38 752.937 1129.18 741.43C1146.97 729.924 1158.15 723.531 1158.15 723.531C1158.15 723.531 1160.32 749.101 1143.57 760.863C1131.41 769.018 1118.58 776.135 1105.22 782.138L1109.15 763.369Z" fill="white"/>
<path d="M1114.09 849.361C1114.09 849.361 1114.09 838.673 1129.05 823.791C1144.01 808.909 1153.65 800.267 1153.65 800.267C1153.65 800.267 1161.14 824.84 1147.23 839.824C1136.97 850.359 1125.86 860.015 1113.99 868.692L1114.09 849.361Z" fill="white"/>
<path d="M1113.96 870.354C1113.96 870.354 1115.5 859.768 1102.79 842.815C1090.08 825.862 1081.79 816.043 1081.79 816.043C1081.79 816.043 1070.88 839.338 1082.51 856.112C1091.14 867.974 1100.74 879.094 1111.23 889.353L1113.96 870.354Z" fill="white"/>
<path d="M1099.08 932.643C1099.08 932.643 1099.08 921.954 1114.04 907.073C1129 892.191 1138.64 883.548 1138.64 883.548C1138.64 883.548 1146.13 908.147 1132.22 923.105C1121.97 933.653 1110.85 943.318 1098.98 951.999L1099.08 932.643Z" fill="white"/>
<path d="M1109.08 988.897C1109.08 988.897 1106.37 978.669 1117.06 960.284C1127.74 941.899 1134.95 931.313 1134.95 931.313C1134.95 931.313 1148.43 953.201 1138.79 971.202C1131.54 984.002 1123.24 996.174 1113.96 1007.59L1109.08 988.897Z" fill="white"/>
<path d="M1137.69 663.569C1136.94 674.716 1135.57 685.813 1133.6 696.81C1127.67 727.494 1112.89 747.107 1106.96 774.722C1101.02 802.338 1118.03 837.931 1113.48 873.397C1108.92 908.863 1095.14 928.603 1099.08 952.255C1103.02 975.907 1123.73 1040.04 1123.73 1040.04" stroke="#263238" stroke-width="0.5" stroke-linecap="round" stroke-linejoin="round"/>
<path d="M1135.26 691.62L1151.4 679.244" stroke="#263238" stroke-width="0.5" stroke-linecap="round" stroke-linejoin="round"/>
<path d="M1136 677.352L1129.25 665.359" stroke="#263238" stroke-width="0.5" stroke-linecap="round" stroke-linejoin="round"/>
<path d="M1107.85 773.418C1107.85 773.418 1121.38 763.19 1135.26 753.141" stroke="#263238" stroke-width="0.5" stroke-linecap="round" stroke-linejoin="round"/>
<path d="M1114.6 752.323C1114.6 752.323 1103.35 730.256 1090.59 715.63" stroke="#263238" stroke-width="0.5" stroke-linecap="round" stroke-linejoin="round"/>
<path d="M1114.63 864.575C1122.32 850.364 1132.05 837.349 1143.49 825.939" stroke="#263238" stroke-width="0.5" stroke-linecap="round" stroke-linejoin="round"/>
<path d="M1111.99 879.585C1107.89 869.939 1103 860.651 1097.37 851.816C1089.46 840.207 1088.34 838.699 1088.34 838.699" stroke="#263238" stroke-width="0.5" stroke-linecap="round" stroke-linejoin="round"/>
<path d="M1099.08 952.204C1102.49 943.706 1106.56 935.483 1111.23 927.605C1115.92 920.346 1121.2 913.479 1127 907.073" stroke="#263238" stroke-width="0.5" stroke-linecap="round" stroke-linejoin="round"/>
<path d="M1113.96 1007.59C1113.19 999.467 1114.59 991.286 1118.03 983.885C1123.65 973.018 1130.02 958.75 1132.65 953.201" stroke="#263238" stroke-width="0.5" stroke-linecap="round" stroke-linejoin="round"/>
<path d="M1038.3 809.165C1038.3 809.165 1037.15 802.44 1044.9 791.445C1052.64 780.45 1057.68 774.006 1057.68 774.006C1057.68 774.006 1065.05 788.632 1057.94 799.576C1052.67 807.292 1046.77 814.554 1040.29 821.285L1038.3 809.165Z" fill="white"/>
<path d="M1059.19 848.671C1059.19 848.671 1058.01 841.971 1065.79 830.951C1073.56 819.93 1078.57 813.538 1078.57 813.538C1078.57 813.538 1085.94 828.138 1078.85 839.108C1073.58 846.826 1067.67 854.088 1061.18 860.817L1059.19 848.671Z" fill="white"/>
<path d="M1040.88 820.467C1040.88 820.467 1039.02 813.921 1027.23 807.375C1015.44 800.829 1008.08 797.147 1008.08 797.147C1008.08 797.147 1007.79 813.512 1018.92 820.16C1027.01 824.82 1035.48 828.798 1044.23 832.05L1040.88 820.467Z" fill="white"/>
<path d="M1065.89 867.081C1065.89 867.081 1063.33 860.765 1050.96 855.472C1038.58 850.179 1030.86 847.443 1030.86 847.443C1030.86 847.443 1032.26 863.732 1044.03 869.28C1052.58 873.063 1061.43 876.125 1070.49 878.434L1065.89 867.081Z" fill="white"/>
<path d="M1072.13 921.545C1072.13 921.545 1070.98 914.846 1059.96 907.073C1048.94 899.299 1042.06 894.978 1042.06 894.978C1042.06 894.978 1040.04 911.215 1050.37 919.091C1057.92 924.595 1065.93 929.453 1074.3 933.614L1072.13 921.545Z" fill="white"/>
<path d="M1074.56 934.663C1074.56 934.663 1072.46 928.194 1078.6 916.201C1084.74 904.209 1088.83 897.126 1088.83 897.126C1088.83 897.126 1098.19 910.55 1092.71 922.338C1088.59 930.721 1083.78 938.744 1078.32 946.323L1074.56 934.663Z" fill="white"/>
<path d="M1093.35 988.897C1093.35 988.897 1094.14 982.121 1104.68 973.759C1115.21 965.398 1121.94 960.668 1121.94 960.668C1121.94 960.668 1124.91 976.751 1115.01 985.215C1107.8 991.133 1100.1 996.436 1092 1001.07L1093.35 988.897Z" fill="white"/>
<path d="M1090.59 972.072C1090.59 972.072 1089.41 965.372 1078.39 957.599C1067.37 949.826 1060.49 945.53 1060.49 945.53C1060.49 945.53 1058.47 961.767 1068.83 969.643C1076.38 975.136 1084.38 979.986 1092.74 984.141L1090.59 972.072Z" fill="white"/>
<path d="M1090.44 1008.53C1090.44 1008.53 1090.95 1001.68 1082.33 991.454C1073.71 981.226 1067.99 975.217 1067.99 975.217C1067.99 975.217 1061.93 990.405 1069.93 1000.63C1075.84 1007.87 1082.35 1014.59 1089.39 1020.73L1090.44 1008.53Z" fill="white"/>
<path d="M1037.25 807.58C1038.93 814.509 1040.99 821.338 1043.44 828.036C1050.47 846.574 1061.87 857.339 1068.6 874.062C1075.32 890.785 1068.6 914.974 1075.22 936.632C1081.85 958.29 1092.71 969.259 1092.81 984.524C1092.92 999.79 1086.88 1042.26 1086.88 1042.26" stroke="#263238" stroke-width="0.5" stroke-linecap="round" stroke-linejoin="round"/>
<path d="M1041.73 824.916L1030.27 818.907" stroke="#263238" stroke-width="0.5" stroke-linecap="round" stroke-linejoin="round"/>
<path d="M1039.73 816.043L1042.65 807.784" stroke="#263238" stroke-width="0.5" stroke-linecap="round" stroke-linejoin="round"/>
<path d="M1067.78 873.218C1067.78 873.218 1058.22 868.334 1048.43 863.501" stroke="#263238" stroke-width="0.5" stroke-linecap="round" stroke-linejoin="round"/>
<path d="M1061.26 860.74C1064.08 851.866 1067.79 843.299 1072.33 835.17" stroke="#263238" stroke-width="0.5" stroke-linecap="round" stroke-linejoin="round"/>
<path d="M1073.46 931.134C1067.08 923.06 1059.56 915.954 1051.14 910.039" stroke="#263238" stroke-width="0.5" stroke-linecap="round" stroke-linejoin="round"/>
<path d="M1076.73 940.314C1078.25 933.821 1080.32 927.466 1082.89 921.315C1086.58 913.158 1087.11 912.11 1087.11 912.11" stroke="#263238" stroke-width="0.5" stroke-linecap="round" stroke-linejoin="round"/>
<path d="M1092.2 995.98C1095.92 991.36 1100.05 987.081 1104.53 983.195C1107.38 981.098 1110.06 978.772 1112.53 976.24" stroke="#263238" stroke-width="0.5" stroke-linecap="round" stroke-linejoin="round"/>
<path d="M1092.71 984.397C1089.67 979.447 1086.25 974.737 1082.48 970.307C1078.76 966.228 1074.71 962.465 1070.36 959.057" stroke="#263238" stroke-width="0.5" stroke-linecap="round" stroke-linejoin="round"/>
<path d="M1089.39 1020.73C1089 1015.55 1087.23 1010.58 1084.27 1006.31C1079.54 1000.1 1074.05 991.863 1071.75 988.616" stroke="#263238" stroke-width="0.5" stroke-linecap="round" stroke-linejoin="round"/>
<path d="M1138.1 1166.25H1072.21C1070.56 1166.25 1068.98 1165.6 1067.81 1164.43C1066.65 1163.27 1065.99 1161.69 1065.99 1160.04L1056.2 1034.74H1154.13L1144.34 1160.04C1144.34 1160.86 1144.18 1161.67 1143.86 1162.42C1143.55 1163.18 1143.09 1163.86 1142.51 1164.44C1141.93 1165.02 1141.24 1165.47 1140.48 1165.79C1139.73 1166.1 1138.92 1166.25 1138.1 1166.25Z" fill="#263238"/>
<g opacity="0.3">
<path d="M313.543 93.2297H85.5605L87.8618 59.9631H315.87L313.543 93.2297Z" stroke="black" stroke-linecap="round" stroke-linejoin="round"/>
<path d="M313.543 139.793H85.5605L87.8618 106.526H315.87L313.543 139.793Z" stroke="black" stroke-linecap="round" stroke-linejoin="round"/>
<path d="M313.543 186.356H85.5605L87.8618 153.089H315.87L313.543 186.356Z" stroke="black" stroke-linecap="round" stroke-linejoin="round"/>
<path d="M313.543 232.919H85.5605L87.8618 199.652H315.87L313.543 232.919Z" stroke="black" stroke-linecap="round" stroke-linejoin="round"/>
<path d="M313.543 279.482H85.5605L87.8618 246.241H315.87L313.543 279.482Z" stroke="black" stroke-linecap="round" stroke-linejoin="round"/>
<path d="M313.543 326.07H85.5605L87.8618 292.804H315.87L313.543 326.07Z" stroke="black" stroke-linecap="round" stroke-linejoin="round"/>
<path d="M313.543 372.633H85.5605L87.8618 339.367H315.87L313.543 372.633Z" stroke="black" stroke-linecap="round" stroke-linejoin="round"/>
<path d="M313.543 419.196H85.5605L87.8618 385.93H315.87L313.543 419.196Z" stroke="black" stroke-linecap="round" stroke-linejoin="round"/>
<path d="M313.543 465.76H85.5605L87.8618 432.493H315.87L313.543 465.76Z" stroke="black" stroke-linecap="round" stroke-linejoin="round"/>
<path d="M313.543 512.348H85.5605L87.8618 479.081H315.87L313.543 512.348Z" stroke="black" stroke-linecap="round" stroke-linejoin="round"/>
<path d="M313.543 558.911H85.5605L87.8618 525.645H315.87L313.543 558.911Z" stroke="black" stroke-linecap="round" stroke-linejoin="round"/>
<path d="M554.617 93.2297H326.635L328.936 59.9631H556.918L554.617 93.2297Z" stroke="black" stroke-linecap="round" stroke-linejoin="round"/>
<path d="M554.617 139.793H326.635L328.936 106.526H556.918L554.617 139.793Z" stroke="black" stroke-linecap="round" stroke-linejoin="round"/>
<path d="M554.617 186.356H326.635L328.936 153.089H556.918L554.617 186.356Z" stroke="black" stroke-linecap="round" stroke-linejoin="round"/>
<path d="M554.617 232.919H326.635L328.936 199.652H556.918L554.617 232.919Z" stroke="black" stroke-linecap="round" stroke-linejoin="round"/>
<path d="M554.617 279.482H326.635L328.936 246.241H556.918L554.617 279.482Z" stroke="black" stroke-linecap="round" stroke-linejoin="round"/>
<path d="M554.617 326.07H326.635L328.936 292.804H556.918L554.617 326.07Z" stroke="black" stroke-linecap="round" stroke-linejoin="round"/>
<path d="M554.617 372.633H326.635L328.936 339.367H556.918L554.617 372.633Z" stroke="black" stroke-linecap="round" stroke-linejoin="round"/>
<path d="M554.617 419.196H326.635L328.936 385.93H556.918L554.617 419.196Z" stroke="black" stroke-linecap="round" stroke-linejoin="round"/>
<path d="M554.617 465.76H326.635L328.936 432.493H556.918L554.617 465.76Z" stroke="black" stroke-linecap="round" stroke-linejoin="round"/>
<path d="M554.617 512.348H326.635L328.936 479.081H556.918L554.617 512.348Z" stroke="black" stroke-linecap="round" stroke-linejoin="round"/>
<path d="M554.617 558.911H326.635L328.936 525.645H556.918L554.617 558.911Z" stroke="black" stroke-linecap="round" stroke-linejoin="round"/>
</g>
<g opacity="0.3">
<path d="M1079.9 66.1255H832.128V385.188H1079.9V66.1255Z" stroke="black" stroke-linecap="round" stroke-linejoin="round"/>
<path d="M1059.42 92.4882H852.609V358.826H1059.42V92.4882Z" stroke="black" stroke-linecap="round" stroke-linejoin="round"/>
<path d="M998.282 171.244H913.773V280.07H998.282V171.244Z" stroke="black" stroke-linecap="round" stroke-linejoin="round"/>
</g>
<path d="M957.984 507.746L865.42 508.513C865.42 508.513 859.309 507.746 857.749 512.323C857.749 512.323 841.691 552.877 840.924 567.4C840.157 581.924 843.993 579.648 837.856 598.775C831.719 617.901 814.152 663.007 804.206 699.751C790.832 749.076 787.355 801.469 786.511 852.404C786.383 860.561 781.397 930.904 794.182 930.904C804.743 930.904 902.139 943.689 903.289 925.023C907.969 850.205 894.468 777.1 920.447 704.328C930.547 676.201 942.13 646.207 950.696 616.648C959.262 587.089 960.745 556.354 966.345 526.105C970.13 505.444 957.984 507.746 957.984 507.746Z" fill="#757575" stroke="#808080" stroke-miterlimit="10"/>
<path d="M966.933 516.9C966.038 506.237 957.882 507.746 957.882 507.746L865.318 508.513C865.318 508.513 859.207 507.746 857.647 512.323C857.647 512.323 841.589 552.877 840.822 567.4C840.627 571.247 840.738 575.103 841.154 578.933L843.123 581.95C843.123 581.95 846.166 608.722 882.885 610.23C919.603 611.739 940.264 594.888 947.909 578.881C955.555 562.875 958.623 536.819 964.734 521.502C965.374 519.968 966.141 518.408 966.933 516.9Z" fill="white" stroke="#808080" stroke-linecap="round" stroke-linejoin="round"/>
<path d="M945.481 546.791C939.293 569.139 942.924 575.327 936.812 613.81C930.701 652.293 908.251 695.762 899.557 735.472C890.863 775.183 894.596 915.485 895.824 921.699C896.31 924.999 896.498 928.337 896.386 931.671C900.554 930.111 903.06 927.963 903.239 925.023C907.918 850.205 894.417 777.1 920.396 704.328C930.496 676.201 942.08 646.207 950.646 616.648C959.212 587.089 960.695 556.354 966.295 526.105C968.647 513.32 964.939 509.408 961.718 508.206V508.334C954.709 520.419 949.254 533.34 945.481 546.791Z" fill="white" stroke="#808080" stroke-linecap="round" stroke-linejoin="round"/>
<path d="M766.72 1111.63L766.107 1111.12V1024.69H778.508V970.103H732.482V1024.69H744.909V1112.58L634.958 1147.61V1156.3C635.087 1158.85 636.19 1161.25 638.039 1163.01C639.888 1164.77 642.341 1165.75 644.892 1165.75C647.443 1165.75 649.896 1164.77 651.745 1163.01C653.594 1161.25 654.697 1158.85 654.826 1156.3V1155.1L746.673 1144.41V1157.66C746.673 1159.96 747.589 1162.18 749.22 1163.81C750.85 1165.44 753.062 1166.35 755.367 1166.35C757.673 1166.35 759.884 1165.44 761.515 1163.81C763.145 1162.18 764.061 1159.96 764.061 1157.66V1144.06L859.821 1155.1V1156.36C859.95 1158.9 861.053 1161.3 862.902 1163.06C864.751 1164.82 867.204 1165.8 869.755 1165.8C872.306 1165.8 874.759 1164.82 876.608 1163.06C878.456 1161.3 879.56 1158.9 879.689 1156.36V1147.66L766.72 1111.63Z" fill="#757575" stroke="#808080" stroke-miterlimit="10"/>
<path d="M900.043 916.815H622.505C616.857 916.815 612.277 921.394 612.277 927.043V969.949C612.277 975.598 616.857 980.177 622.505 980.177H900.043C905.691 980.177 910.271 975.598 910.271 969.949V927.043C910.271 921.394 905.691 916.815 900.043 916.815Z" fill="#757575" stroke="#808080" stroke-miterlimit="10"/>
<path d="M155.085 737.39H238.444C239.973 737.29 241.407 736.612 242.455 735.494C243.503 734.376 244.086 732.901 244.086 731.368C244.086 729.836 243.503 728.361 242.455 727.242C241.407 726.124 239.973 725.446 238.444 725.347H155.085C153.104 725.338 151.145 724.92 149.332 724.119C147.52 723.318 145.892 722.152 144.551 720.693C142.926 718.908 141.783 716.739 141.228 714.391C140.673 712.042 140.726 709.591 141.38 707.268L170.913 601.434C171.257 599.924 171.006 598.339 170.213 597.008C169.421 595.677 168.146 594.702 166.655 594.285C165.163 593.868 163.568 594.04 162.199 594.766C160.831 595.493 159.795 596.717 159.305 598.187L129.848 704.047C128.784 707.945 128.632 712.035 129.403 716.001C130.175 719.968 131.85 723.703 134.298 726.917C136.746 730.132 139.901 732.74 143.52 734.538C147.138 736.336 151.122 737.277 155.162 737.288L155.085 737.39Z" fill="white" stroke="#808080" stroke-linecap="round" stroke-linejoin="round"/>
<path d="M194.664 705.968L213.527 703.705L184.292 459.98L165.429 462.242L194.664 705.968Z" fill="white" stroke="#808080" stroke-linecap="round" stroke-linejoin="round"/>
<path d="M165.492 462.154C165.492 462.154 132.072 581.72 194.718 705.964L165.492 462.154Z" fill="#757575" stroke="#808080" stroke-miterlimit="10"/>
<path d="M337.834 786.382H101.362V1165.74H337.834V786.382Z" fill="#757575" stroke="#808080" stroke-miterlimit="10"/>
<path d="M84.2822 736.853L89.3962 1166.25H113.279L118.393 810.213H841.104L850.36 1166.25H869.768L873.91 736.853H84.2822Z" fill="white" stroke="#808080" stroke-linecap="round" stroke-linejoin="round"/>
<path d="M873.347 747.158H84.6396V759.048H873.347V747.158Z" fill="#757575" stroke="#808080" stroke-miterlimit="10"/>
<path d="M879.459 729.821H67.6357V748.59H879.459V729.821Z" fill="white" stroke="#808080" stroke-linecap="round" stroke-linejoin="round"/>
<path d="M1 1166.25H1211.03" stroke="#263238" stroke-linecap="round" stroke-linejoin="round"/>
<path d="M411.885 639.968L418.252 643.113L441.06 629.561L455.098 645.389L479.645 628.717L493.76 645.542L514.804 635.084L532.524 646.668" stroke="#263238" stroke-width="2" stroke-linecap="round" stroke-linejoin="round"/>
<path d="M438.989 720.258L445.484 720.079L458.116 699.419L476.194 706.195L488.928 682.261L507.491 689.804L520.021 672.391L539.275 674.206" stroke="#263238" stroke-width="2" stroke-linecap="round" stroke-linejoin="round"/>
<path d="M504.807 1130.43C498.835 1134.33 493.176 1138.69 487.88 1143.47C483.712 1147.99 460.801 1161.14 453.181 1165.79C445.561 1170.44 438.044 1177.76 442.544 1181.9C447.044 1186.04 459.369 1189.01 471.643 1191.1C483.916 1193.2 495.039 1189.24 504.5 1187.09C513.961 1184.94 531.988 1178.98 550.168 1177.32C568.349 1175.66 574.639 1180.65 577.349 1162.26C578.964 1151.25 578.188 1140.01 575.074 1129.33L514.856 1124.06L504.807 1130.43Z" fill="white" stroke="#263238" stroke-linecap="round" stroke-linejoin="round"/>
<path d="M577.349 1162.26C567.325 1172.26 547.048 1165.3 532.448 1169.4C517.847 1173.49 497.34 1182.18 484.402 1184.48C474.711 1186.2 453.436 1178.17 443.336 1174.02C441.035 1176.96 440.294 1179.83 442.544 1181.9C447.07 1186.07 459.369 1189.01 471.642 1191.1C483.916 1193.2 495.039 1189.24 504.5 1187.09C513.961 1184.94 531.988 1178.98 550.168 1177.32C568.348 1175.66 574.638 1180.67 577.349 1162.26Z" fill="white" stroke="#263238" stroke-linecap="round" stroke-linejoin="round"/>
<path d="M796.127 1114.73C796.127 1114.73 797.456 1145.97 795.999 1152.11C794.541 1158.25 771.579 1191.41 779.685 1198.01C787.791 1204.61 825.711 1197.8 839.34 1190.34C846.946 1186.31 853.163 1180.08 857.181 1172.47C861.199 1164.86 862.832 1156.21 861.867 1147.66C860.103 1126.87 851.639 1090.72 851.639 1090.72L796.127 1114.73Z" fill="white" stroke="#263238" stroke-linecap="round" stroke-linejoin="round"/>
<path d="M839.34 1190.26C846.946 1186.23 853.163 1180.01 857.181 1172.39C861.199 1164.78 862.832 1156.14 861.867 1147.58C861.867 1146.59 861.688 1145.54 861.56 1144.49C859.715 1150.43 857.407 1156.22 854.656 1161.8C847.42 1176.02 839.8 1180.7 819.216 1187.65C804.999 1192.46 787.611 1191.59 778.304 1190.59C777.69 1193.94 777.972 1196.6 779.736 1198.01C787.79 1204.63 825.736 1197.8 839.34 1190.26Z" fill="white" stroke="#263238" stroke-linecap="round" stroke-linejoin="round"/>
<path d="M555.691 684.051C555.691 684.051 501.994 865.445 500.639 872.323C499.283 879.201 518.819 1099.13 518.819 1099.13L504.014 1111.63L504.807 1130.38C513.697 1133.86 522.952 1136.32 532.397 1137.71C544.389 1138.92 575.252 1142.83 575.252 1142.83C575.252 1142.83 588.037 1123.52 587.653 1113.32C587.27 1103.12 585.096 1092.86 584.79 1086.14C584.483 1079.41 605.425 890.094 605.425 890.094L655.261 766.821L679.629 909.86L766.951 1078.39L776.539 1103.55L778.738 1115.42L798.044 1128.2C798.044 1128.2 851.945 1112.27 853.224 1101.99C854.502 1091.71 853.556 1069.57 849.695 1059.5C845.834 1049.42 839.467 1056.53 833.458 1038.02C827.449 1019.5 773.522 871.812 773.522 871.812L778.278 673.797C778.278 673.797 664.057 707.626 555.691 684.051Z" fill="#263238" stroke="#263238" stroke-linecap="round" stroke-linejoin="round"/>
<path d="M549.708 370.537C549.708 370.537 510.074 399.431 503.682 407.792C497.289 416.154 484.3 417.483 488.519 437.249C492.738 457.015 499.488 560.548 499.488 560.548C499.488 560.548 504.884 569.599 525.237 567.707C536.401 566.908 547.374 564.381 557.762 560.215L563.311 571.236C563.311 571.236 562.544 620.151 560.984 636.414C559.425 652.676 555.87 684.051 555.87 684.051C555.87 684.051 575.406 703.51 621.79 707.601C668.174 711.692 704.534 718.494 735.423 704.405C766.312 690.316 777.818 675.715 778.457 673.721C779.097 671.726 781.296 636.874 778.815 603.173C776.335 569.472 776.821 543.441 776.821 543.441C776.821 543.441 778.099 420.833 769.406 393.499C760.712 366.164 755.342 368.133 730.539 357.701C710.006 348.824 688.113 343.506 665.796 341.975C649.201 341.233 627.645 342.793 627.645 342.793C627.645 342.793 573.053 350.311 549.708 370.537Z" fill="white" stroke="#263238" stroke-linecap="round" stroke-linejoin="round"/>
<path d="M568.246 575.608C582.484 590.72 600.584 601.65 620.588 607.213" stroke="#263238" stroke-linecap="round" stroke-linejoin="round"/>
<path d="M613.965 597.471C613.965 597.471 624.193 601.843 649.533 604.324" stroke="#263238" stroke-linecap="round" stroke-linejoin="round"/>
<path d="M681.828 668.913C681.828 668.913 714.507 674.027 744.117 669.502" stroke="#263238" stroke-linecap="round" stroke-linejoin="round"/>
<path d="M695.508 662.01C714.921 659.148 733.668 652.844 750.867 643.395" stroke="#263238" stroke-linecap="round" stroke-linejoin="round"/>
<path d="M564.743 393.115C564.743 393.115 568.527 412.548 570.164 424.234C571.8 435.919 581.44 454.483 581.44 454.483L603.507 438.297L624.551 424.541L652.448 428.913L681.01 431.47C681.01 431.47 672.827 368.261 664.773 349.646C656.718 331.031 640.532 336.043 625.574 336.35C610.615 336.656 566.047 357.266 563.132 365.755C560.217 374.244 564.743 393.115 564.743 393.115Z" fill="#263238" stroke="#263238" stroke-linecap="round" stroke-linejoin="round"/>
<path d="M607.675 434.462C607.675 434.462 631.941 459.086 632.759 454.279C633.577 449.471 637.873 411.372 637.873 411.372C637.873 411.372 624.704 432.007 607.675 434.462Z" fill="white" stroke="#263238" stroke-linecap="round" stroke-linejoin="round"/>
<path d="M520.123 343.151C520.123 343.151 525.237 362.891 532.09 366.701C538.943 370.511 541.781 369.923 541.781 369.923L529.814 340.876C529.814 340.876 520.225 333.69 520.123 343.151Z" fill="white" stroke="#263238" stroke-linecap="round" stroke-linejoin="round"/>
<path d="M530.965 346.68C531.528 347.728 549.657 386.697 552.342 391.223C555.027 395.749 592.819 432.774 597.703 435.178C602.587 437.581 615.449 440.573 623.81 436.405C632.171 432.237 642.783 415.719 648.204 392.936C653.625 370.153 656.386 359.695 655.875 351.794C655.311 346.035 654.458 340.309 653.318 334.636C653.318 334.636 663.98 318.885 663.111 307.123C662.242 295.361 658.329 290.145 653.369 286.974C648.408 283.803 637.055 295.642 635.137 296.179C633.22 296.716 631.302 286.999 613.198 281.63C595.095 276.26 585.762 283.65 568.425 299.887C555.813 311.349 542.527 322.048 528.638 331.926C528.638 331.926 525.058 335.301 530.965 346.68Z" fill="white" stroke="#263238" stroke-linecap="round" stroke-linejoin="round"/>
<path d="M592.614 413.085C592.614 413.085 598.598 419.733 603.533 417.023C607.305 414.412 610.535 411.095 613.045 407.255" stroke="#263238" stroke-linecap="round" stroke-linejoin="round"/>
<path d="M622.812 416.793C617.468 408.099 605.629 417.534 600.234 422.572C599.792 423.005 599.496 423.564 599.385 424.172C599.275 424.781 599.355 425.408 599.616 425.969C599.877 426.53 600.305 426.996 600.841 427.303C601.378 427.611 601.996 427.744 602.612 427.686C606.882 426.995 611.638 421.907 616.88 423.492C622.122 425.078 629.077 426.97 622.812 416.793Z" fill="white" stroke="#263238" stroke-linecap="round" stroke-linejoin="round"/>
<path d="M622.813 416.793C622.813 416.793 614.374 419.785 609.721 420.91" stroke="#263238" stroke-linecap="round" stroke-linejoin="round"/>
<path d="M610.743 373.938C610.743 373.938 615.525 362.866 631.532 364.707" stroke="#263238" stroke-linecap="round" stroke-linejoin="round"/>
<path d="M601.896 367.903C601.896 367.903 600.695 359.669 625.037 352.305" stroke="#263238" stroke-width="2" stroke-linecap="round" stroke-linejoin="round"/>
<path d="M581.083 373.119C581.083 373.119 571.801 363.479 555.257 371.994" stroke="#263238" stroke-width="2" stroke-linecap="round" stroke-linejoin="round"/>
<path d="M562.467 382.631C564.858 380.885 567.764 379.987 570.724 380.079C573.684 380.172 576.528 381.25 578.806 383.143" stroke="#263238" stroke-linecap="round" stroke-linejoin="round"/>
<path d="M510.509 323.769C510.509 323.769 484.325 337.5 500.46 347.754C516.594 358.007 568.808 340.083 575.431 333.588C580.464 328.388 585.065 322.787 589.188 316.84C589.188 316.84 590.21 319.908 587.602 327.579C584.994 335.25 596.935 336.759 600.72 318.348C604.504 299.938 607.649 289.096 609.004 286.232C610.36 283.368 607.547 304.131 613.172 310.754C618.798 317.377 630.406 314.999 632.887 316.405C635.367 317.811 639.484 325.764 641.785 325.201C644.086 324.639 648.868 325.073 647.283 319.294C645.697 313.516 644.086 308.095 644.726 305.308C645.365 302.52 646.362 295.335 651.732 293.366C657.102 291.397 658.278 285.695 656.974 278.791C655.67 271.888 651.144 249.667 639.995 237.138C628.847 224.609 605.118 223.1 605.118 223.1C605.118 223.1 589.06 208.116 562.774 214.764C536.488 221.412 491.178 280.275 494.169 300.142C497.161 320.01 510.509 323.769 510.509 323.769Z" fill="#263238" stroke="#263238" stroke-linecap="round" stroke-linejoin="round"/>
<path d="M557.66 560.215C543.023 533.946 531.342 506.135 522.834 477.292" stroke="#263238" stroke-linecap="round" stroke-linejoin="round"/>
<path d="M506.903 566.301C506.903 566.301 512.708 602.508 518.359 609.975C524.01 617.441 565.484 651.04 577.17 659.248C588.855 667.456 610.078 672.979 613.224 672.749C616.369 672.519 666.921 672.749 669.912 672.161C672.904 671.573 692.44 662.623 696.889 658.762C700.444 655.346 703.082 651.09 704.56 646.386C705.839 642.082 706.696 637.663 707.117 633.192C707.117 628.462 709.546 628.692 707.117 628.462C704.688 628.232 703.179 628.462 690.241 629.305C677.302 630.149 653.624 634.726 652.448 634.829C651.272 634.931 646.311 642.755 639.663 647.179C633.015 651.603 598.955 650.963 596.398 642.858C593.841 634.752 575.584 605.781 569.959 593.584L561.802 579.214L563.209 571.236L557.66 560.215C557.66 560.215 532.908 571.875 506.903 566.301Z" fill="white" stroke="#263238" stroke-linecap="round" stroke-linejoin="round"/>
<path d="M696.838 658.762C696.838 658.762 680.627 663.493 675.564 664.26C670.501 665.027 661.475 665.283 661.475 665.283" stroke="#263238" stroke-linecap="round" stroke-linejoin="round"/>
<path d="M666.946 653.929C666.946 653.929 686.022 656.486 689.141 655.847C692.261 655.208 704.483 646.463 704.483 646.463" stroke="#263238" stroke-linecap="round" stroke-linejoin="round"/>
<path d="M672.648 645.952C672.648 645.952 690.547 647.026 693.923 645.952C697.298 644.878 707.168 633.167 707.168 633.167" stroke="#263238" stroke-linecap="round" stroke-linejoin="round"/>
<path d="M522.834 579.316C522.834 579.316 542.727 571.645 559.041 579.035" stroke="#263238" stroke-linecap="round" stroke-linejoin="round"/>
<path d="M755.981 550.447C755.981 550.447 681.674 600.795 667.636 608.133C653.598 615.472 636.952 621.379 635.188 622.325C633.424 623.271 607.956 627.055 604.504 628.487C602.659 629.415 601.025 630.714 599.706 632.302C598.386 633.891 597.408 635.734 596.833 637.718C594.455 643.139 591.081 648.065 586.886 652.242C583.536 655.233 578.32 659.171 586.886 658.916C595.452 658.66 600.566 652.012 602.714 649.097C604.244 647.17 606.138 645.563 608.288 644.366C606.663 648.828 604.74 653.176 602.535 657.381C600.413 660.68 590.261 677.991 592.051 681.008C593.841 684.025 594.608 684.358 598.674 685.253C602.74 686.148 606.575 680.343 606.575 680.343C609.311 685.253 610.641 687.528 614.246 686.864C617.851 686.199 619.36 682.159 621.38 682.005C623.4 681.852 625.727 682.005 631.199 681.698C634.773 681.212 638.028 679.384 640.302 676.584C641.658 676.631 643.002 676.317 644.196 675.674C645.391 675.032 646.394 674.084 647.104 672.928C650.351 668.76 650.453 664.822 650.377 658.123C650.401 653.737 651.27 649.396 652.934 645.338C652.934 645.338 709.827 631.709 737.187 623.399C764.547 615.089 817.349 577.475 827.577 566.48C837.805 555.485 816.684 519.994 816.684 519.994L755.981 550.447Z" fill="white" stroke="#263238" stroke-linecap="round" stroke-linejoin="round"/>
<path d="M724.198 472.791C724.198 472.791 722.459 491.841 723.201 496.904C723.942 501.967 752.274 555.05 752.274 555.05C752.274 555.05 781.475 550.166 800.857 540.475C813.284 534.041 824.756 525.908 834.942 516.311C834.942 516.311 793.211 441.366 789.99 424.259C786.768 407.153 776.463 374.04 768.23 369.13C759.996 364.221 735.525 359.695 733.275 359.874" fill="white"/>
<path d="M724.198 472.791C724.198 472.791 722.459 491.841 723.201 496.904C723.942 501.967 752.274 555.05 752.274 555.05C752.274 555.05 781.475 550.166 800.857 540.475C813.284 534.041 824.756 525.908 834.942 516.311C834.942 516.311 793.211 441.366 789.99 424.259C786.768 407.153 776.463 374.04 768.23 369.13C759.996 364.221 735.525 359.695 733.275 359.874" stroke="#263238" stroke-linecap="round" stroke-linejoin="round"/>
</svg>
