<svg width="1409" height="1408" viewBox="0 0 1409 1408" fill="none" xmlns="http://www.w3.org/2000/svg">
<path d="M142.298 1407.09H1366.72" stroke="#263238" stroke-miterlimit="10"/>
<path d="M332.287 942.018L380.878 1406.48" stroke="#263238" stroke-width="2" stroke-miterlimit="10"/>
<path d="M372.249 1311.19L350.646 1288.37" stroke="#263238" stroke-width="2" stroke-miterlimit="10"/>
<path d="M357.225 1295.22C357.187 1291.73 356.399 1288.28 354.916 1285.11C353.433 1281.94 351.288 1279.13 348.627 1276.86C343.089 1271.91 313.897 1259.64 311.143 1269.92C308.114 1281.12 337.979 1303.09 357.225 1295.22Z" fill="white" stroke="#263238" stroke-miterlimit="10"/>
<path d="M357.225 1295.22L329.441 1277.9" stroke="#263238" stroke-width="0.5" stroke-miterlimit="10"/>
<path d="M377.666 1363.12L356.094 1340.29" stroke="#263238" stroke-width="2" stroke-miterlimit="10"/>
<path d="M362.641 1347.15C362.603 1343.65 361.815 1340.2 360.332 1337.04C358.849 1333.87 356.705 1331.06 354.043 1328.79C348.505 1323.83 319.313 1311.56 316.559 1321.84C313.53 1333.04 343.395 1354.98 362.641 1347.15Z" fill="white" stroke="#263238" stroke-miterlimit="10"/>
<path d="M362.641 1347.15L334.857 1329.83" stroke="#263238" stroke-width="0.5" stroke-miterlimit="10"/>
<path d="M359.031 1184.48L337.428 1161.69" stroke="#263238" stroke-width="2" stroke-miterlimit="10"/>
<path d="M344.007 1168.51C343.968 1165.01 343.181 1161.57 341.697 1158.4C340.214 1155.23 338.07 1152.42 335.408 1150.15C329.87 1145.23 300.679 1132.93 297.925 1143.21C294.895 1154.44 324.76 1176.38 344.007 1168.51Z" fill="white" stroke="#263238" stroke-miterlimit="10"/>
<path d="M344.007 1168.51L316.223 1151.22" stroke="#263238" stroke-width="0.5" stroke-miterlimit="10"/>
<path d="M364.447 1236.41L342.844 1213.61" stroke="#263238" stroke-width="2" stroke-miterlimit="10"/>
<path d="M349.422 1220.44C349.384 1216.94 348.596 1213.49 347.113 1210.33C345.63 1207.16 343.485 1204.35 340.824 1202.08C335.286 1197.12 306.094 1184.85 303.34 1195.13C300.311 1206.33 330.237 1228.3 349.422 1220.44Z" fill="white" stroke="#263238" stroke-miterlimit="10"/>
<path d="M349.423 1220.44L321.639 1203.12" stroke="#263238" stroke-width="0.5" stroke-miterlimit="10"/>
<path d="M350.249 1100.15L328.646 1077.33" stroke="#263238" stroke-width="2" stroke-miterlimit="10"/>
<path d="M335.194 1084.18C335.155 1080.68 334.368 1077.24 332.885 1074.07C331.402 1070.9 329.257 1068.09 326.596 1065.82C321.057 1060.86 291.866 1048.59 289.112 1058.88C286.113 1070.07 315.978 1092.04 335.194 1084.18Z" fill="white" stroke="#263238" stroke-miterlimit="10"/>
<path d="M335.194 1084.18L307.41 1066.86" stroke="#263238" stroke-width="0.5" stroke-miterlimit="10"/>
<path d="M341.406 1015.46L319.803 992.629" stroke="#263238" stroke-width="2" stroke-miterlimit="10"/>
<path d="M326.351 999.361C326.313 995.864 325.525 992.416 324.042 989.249C322.559 986.082 320.414 983.27 317.753 981.001C312.214 976.044 283.054 963.774 280.269 974.055C277.27 985.377 307.135 1007.32 326.351 999.361Z" fill="white" stroke="#263238" stroke-miterlimit="10"/>
<path d="M326.351 999.452L298.567 982.164" stroke="#263238" stroke-width="0.5" stroke-miterlimit="10"/>
<path d="M368.639 1280.47L385.04 1253.7" stroke="#263238" stroke-width="2" stroke-miterlimit="10"/>
<path d="M380.052 1261.75C379.373 1258.32 379.433 1254.79 380.23 1251.39C381.027 1248 382.542 1244.81 384.673 1242.04C389.079 1235.92 415.088 1218.02 419.923 1227.51C425.094 1237.82 400.615 1265.57 380.052 1261.75Z" fill="white" stroke="#263238" stroke-miterlimit="10"/>
<path d="M380.053 1261.75L405.052 1237.82" stroke="#263238" stroke-width="0.5" stroke-miterlimit="10"/>
<path d="M354.38 1143.85L370.781 1117.07" stroke="#263238" stroke-width="2" stroke-miterlimit="10"/>
<path d="M365.793 1125.09C365.118 1121.67 365.182 1118.15 365.978 1114.76C366.775 1111.36 368.287 1108.18 370.414 1105.42C374.82 1099.3 400.829 1081.37 405.664 1090.85C410.927 1101.16 386.234 1128.82 365.793 1125.09Z" fill="white" stroke="#263238" stroke-miterlimit="10"/>
<path d="M365.793 1125.09L390.792 1101.19" stroke="#263238" stroke-width="0.5" stroke-miterlimit="10"/>
<path d="M348.107 1083.78L364.539 1057.01" stroke="#263238" stroke-width="2" stroke-miterlimit="10"/>
<path d="M359.521 1065.06C358.841 1061.63 358.902 1058.1 359.699 1054.7C360.496 1051.31 362.011 1048.12 364.141 1045.35C368.548 1039.38 394.557 1021.33 399.391 1030.82C404.654 1041.13 379.961 1068.79 359.521 1065.06Z" fill="white" stroke="#263238" stroke-miterlimit="10"/>
<path d="M359.521 1065.06L384.52 1041.16" stroke="#263238" stroke-width="0.5" stroke-miterlimit="10"/>
<path d="M338.928 995.781L355.329 969.006" stroke="#263238" stroke-width="2" stroke-miterlimit="10"/>
<path d="M350.341 977.023C349.662 973.599 349.722 970.069 350.519 966.671C351.316 963.272 352.831 960.083 354.962 957.318C359.368 951.351 385.377 933.298 390.212 942.783C395.475 953.095 370.781 980.757 350.341 977.023Z" fill="white" stroke="#263238" stroke-miterlimit="10"/>
<path d="M350.341 977.024L375.34 953.126" stroke="#263238" stroke-width="0.5" stroke-miterlimit="10"/>
<path d="M331.889 939.478C331.214 936.059 331.277 932.535 332.074 929.142C332.871 925.749 334.383 922.565 336.51 919.803C340.916 913.684 366.925 895.753 371.76 905.238C377.023 915.55 352.329 943.212 331.889 939.478Z" fill="white" stroke="#263238" stroke-miterlimit="10"/>
<path d="M331.89 939.478L356.92 915.581" stroke="#263238" stroke-width="0.5" stroke-miterlimit="10"/>
<path d="M333.297 940.519C329.818 940.836 326.311 940.405 323.012 939.254C319.714 938.104 316.7 936.26 314.173 933.848C308.665 928.861 293.457 901.077 303.402 897.283C314.264 893.121 339.172 920.599 333.297 940.519Z" fill="white" stroke="#263238" stroke-miterlimit="10"/>
<path d="M333.358 940.519L312.184 913.133" stroke="#263238" stroke-width="0.5" stroke-miterlimit="10"/>
<path d="M457.958 1004.9L417.781 1406.48" stroke="#263238" stroke-width="2" stroke-miterlimit="10"/>
<path d="M421.055 1374.38L404.623 1347.61" stroke="#263238" stroke-width="2" stroke-miterlimit="10"/>
<path d="M409.795 1355.65C410.47 1352.23 410.404 1348.7 409.602 1345.3C408.8 1341.9 407.28 1338.71 405.144 1335.95C400.737 1329.98 374.728 1311.96 369.894 1321.45C364.478 1331.76 389.202 1359.39 409.795 1355.65Z" fill="white" stroke="#263238" stroke-miterlimit="10"/>
<path d="M409.642 1355.66L386.02 1332.98" stroke="#263238" stroke-width="0.5" stroke-miterlimit="10"/>
<path d="M434.213 1247.67L417.781 1220.9" stroke="#263238" stroke-width="2" stroke-miterlimit="10"/>
<path d="M422.769 1228.85C423.448 1225.43 423.387 1221.9 422.591 1218.5C421.794 1215.1 420.279 1211.91 418.148 1209.15C413.742 1203.18 387.702 1185.16 382.898 1194.64C377.635 1205.05 402.329 1232.68 422.769 1228.85Z" fill="white" stroke="#263238" stroke-miterlimit="10"/>
<path d="M422.769 1228.94L399.177 1206.3" stroke="#263238" stroke-width="0.5" stroke-miterlimit="10"/>
<path d="M428.827 1299.6L412.365 1272.82" stroke="#263238" stroke-width="2" stroke-miterlimit="10"/>
<path d="M417.383 1280.87C418.063 1277.45 418.002 1273.92 417.205 1270.52C416.408 1267.12 414.894 1263.93 412.763 1261.17C408.357 1255.2 382.317 1237.18 377.482 1246.66C372.25 1256.97 396.943 1284.6 417.383 1280.87Z" fill="white" stroke="#263238" stroke-miterlimit="10"/>
<path d="M417.383 1280.87L393.761 1258.23" stroke="#263238" stroke-width="0.5" stroke-miterlimit="10"/>
<path d="M442.964 1163.34L426.532 1136.57" stroke="#263238" stroke-width="2" stroke-miterlimit="10"/>
<path d="M431.52 1144.61C432.199 1141.19 432.138 1137.66 431.342 1134.26C430.545 1130.86 429.03 1127.67 426.899 1124.91C422.493 1118.79 396.3 1100.89 391.649 1110.37C386.386 1120.69 411.08 1148.32 431.52 1144.61Z" fill="white" stroke="#263238" stroke-miterlimit="10"/>
<path d="M431.52 1144.61L407.928 1121.94" stroke="#263238" stroke-width="0.5" stroke-miterlimit="10"/>
<path d="M451.746 1078.61L435.314 1051.84" stroke="#263238" stroke-width="2" stroke-miterlimit="10"/>
<path d="M440.393 1059.89C441.068 1056.46 441.003 1052.93 440.201 1049.53C439.398 1046.13 437.878 1042.94 435.742 1040.18C431.336 1034.21 405.327 1016.19 400.492 1025.68C395.168 1036.08 419.892 1063.62 440.393 1059.89Z" fill="white" stroke="#263238" stroke-miterlimit="10"/>
<path d="M440.332 1059.89L416.71 1037.24" stroke="#263238" stroke-width="0.5" stroke-miterlimit="10"/>
<path d="M423.84 1343.57L445.412 1320.74" stroke="#263238" stroke-width="2" stroke-miterlimit="10"/>
<path d="M438.863 1327.6C438.898 1324.1 439.681 1320.65 441.159 1317.49C442.636 1314.32 444.775 1311.51 447.431 1309.24C452.969 1304.28 482.161 1291.98 484.945 1302.26C487.944 1313.46 458.11 1335.43 438.863 1327.6Z" fill="white" stroke="#263238" stroke-miterlimit="10"/>
<path d="M438.863 1327.6L468.269 1309.36" stroke="#263238" stroke-width="0.5" stroke-miterlimit="10"/>
<path d="M438.007 1206.94L459.61 1184.12" stroke="#263238" stroke-width="2" stroke-miterlimit="10"/>
<path d="M453.031 1190.94C453.07 1187.44 453.857 1184 455.34 1180.83C456.824 1177.66 458.968 1174.85 461.63 1172.58C467.168 1167.62 496.329 1155.35 499.113 1165.6C502.143 1176.83 472.278 1198.8 453.031 1190.94Z" fill="white" stroke="#263238" stroke-miterlimit="10"/>
<path d="M453.031 1190.94L482.437 1172.7" stroke="#263238" stroke-width="0.5" stroke-miterlimit="10"/>
<path d="M444.249 1146.88L465.821 1124.05" stroke="#263238" stroke-width="2" stroke-miterlimit="10"/>
<path d="M459.273 1130.94C459.308 1127.44 460.091 1124 461.569 1120.83C463.047 1117.66 465.185 1114.85 467.841 1112.58C473.38 1107.62 502.571 1095.32 505.355 1105.6C508.354 1116.77 478.52 1138.74 459.273 1130.94Z" fill="white" stroke="#263238" stroke-miterlimit="10"/>
<path d="M459.273 1130.91L488.679 1112.67" stroke="#263238" stroke-width="0.5" stroke-miterlimit="10"/>
<path d="M453.367 1058.85L474.97 1036.02" stroke="#263238" stroke-width="2" stroke-miterlimit="10"/>
<path d="M468.392 1042.87C468.43 1039.38 469.218 1035.93 470.701 1032.76C472.184 1029.59 474.329 1026.78 476.99 1024.51C482.528 1019.56 511.689 1007.26 514.474 1017.54C517.503 1028.74 487.638 1050.71 468.392 1042.87Z" fill="white" stroke="#263238" stroke-miterlimit="10"/>
<path d="M468.392 1042.87L497.797 1024.64" stroke="#263238" stroke-width="0.5" stroke-miterlimit="10"/>
<path d="M458.08 1002.42C458.119 998.924 458.906 995.476 460.389 992.309C461.873 989.142 464.017 986.33 466.678 984.061C472.217 979.104 501.378 966.834 504.162 977.115C507.191 988.223 477.327 1010.19 458.08 1002.42Z" fill="white" stroke="#263238" stroke-miterlimit="10"/>
<path d="M458.08 1002.33L487.486 984.092" stroke="#263238" stroke-width="0.5" stroke-miterlimit="10"/>
<path d="M459.303 1003.64C455.837 1003.24 452.499 1002.09 449.512 1000.29C446.525 998.48 443.958 996.058 441.984 993.18C437.609 987.06 428.46 956.859 438.924 955.176C450.399 953.462 469.126 985.346 459.303 1003.64Z" fill="white" stroke="#263238" stroke-miterlimit="10"/>
<path d="M459.304 1003.64L444.219 972.495" stroke="#263238" stroke-width="0.5" stroke-miterlimit="10"/>
<path d="M403.675 818.98L400.707 1407.18" stroke="#263238" stroke-width="2" stroke-miterlimit="10"/>
<path d="M404.134 1309.54L385.01 1284.6" stroke="#263238" stroke-width="2" stroke-miterlimit="10"/>
<path d="M390.823 1292.07C391.14 1288.6 390.712 1285.1 389.566 1281.81C388.421 1278.51 386.586 1275.5 384.183 1272.98C379.196 1267.47 351.442 1252.23 347.618 1262.14C343.456 1272.98 370.873 1297.88 390.823 1292.07Z" fill="white" stroke="#263238" stroke-miterlimit="10"/>
<path d="M390.824 1292.07L364.998 1271.97" stroke="#263238" stroke-width="0.5" stroke-miterlimit="10"/>
<path d="M404.134 1201.04L385.01 1176.1" stroke="#263238" stroke-width="2" stroke-miterlimit="10"/>
<path d="M390.823 1183.57C391.14 1180.09 390.712 1176.6 389.566 1173.3C388.421 1170.01 386.586 1167 384.183 1164.47C379.196 1158.96 351.442 1143.73 347.618 1153.67C343.456 1164.6 370.873 1189.38 390.823 1183.57Z" fill="white" stroke="#263238" stroke-miterlimit="10"/>
<path d="M390.824 1183.57L364.998 1163.46" stroke="#263238" stroke-width="0.5" stroke-miterlimit="10"/>
<path d="M404.134 1073.65L385.01 1048.72" stroke="#263238" stroke-width="2" stroke-miterlimit="10"/>
<path d="M390.823 1056.18C391.14 1052.71 390.712 1049.21 389.566 1045.92C388.421 1042.63 386.586 1039.62 384.183 1037.09C379.196 1031.58 351.442 1016.34 347.618 1026.29C343.456 1037.09 370.873 1062 390.823 1056.18Z" fill="white" stroke="#263238" stroke-miterlimit="10"/>
<path d="M390.824 1056.18L364.998 1036.08" stroke="#263238" stroke-width="0.5" stroke-miterlimit="10"/>
<path d="M404.134 988.835L385.01 963.927" stroke="#263238" stroke-width="2" stroke-miterlimit="10"/>
<path d="M390.823 971.393C391.145 967.916 390.718 964.411 389.573 961.113C388.428 957.814 386.59 954.799 384.183 952.269C379.196 946.792 351.442 931.553 347.618 941.467C343.456 952.269 370.873 977.207 390.823 971.393Z" fill="white" stroke="#263238" stroke-miterlimit="10"/>
<path d="M390.824 971.393L364.998 951.29" stroke="#263238" stroke-width="0.5" stroke-miterlimit="10"/>
<path d="M404.134 903.678L385.01 878.74" stroke="#263238" stroke-width="2" stroke-miterlimit="10"/>
<path d="M390.823 886.145C391.145 882.668 390.718 879.162 389.573 875.864C388.428 872.565 386.59 869.55 384.183 867.02C379.196 861.512 351.442 846.274 347.618 856.219C343.456 867.112 370.873 892.05 390.823 886.145Z" fill="white" stroke="#263238" stroke-miterlimit="10"/>
<path d="M390.824 886.236L364.998 866.133" stroke="#263238" stroke-width="0.5" stroke-miterlimit="10"/>
<path d="M403.705 1342.65L422.829 1317.74" stroke="#263238" stroke-width="2" stroke-miterlimit="10"/>
<path d="M417.016 1325.21C416.695 1321.73 417.121 1318.23 418.266 1314.93C419.412 1311.63 421.249 1308.61 423.656 1306.08C428.643 1300.61 456.397 1285.37 460.222 1295.28C464.383 1306.08 436.936 1331.02 417.016 1325.21Z" fill="white" stroke="#263238" stroke-miterlimit="10"/>
<path d="M417.016 1325.21L444.371 1304.03" stroke="#263238" stroke-width="0.5" stroke-miterlimit="10"/>
<path d="M403.705 1170.1L422.829 1145.16" stroke="#263238" stroke-width="2" stroke-miterlimit="10"/>
<path d="M417.016 1152.66C416.695 1149.18 417.121 1145.68 418.266 1142.38C419.412 1139.08 421.249 1136.07 423.656 1133.54C428.643 1128.03 456.397 1112.79 460.222 1122.74C464.383 1133.54 436.936 1158.48 417.016 1152.66Z" fill="white" stroke="#263238" stroke-miterlimit="10"/>
<path d="M417.016 1152.66L444.371 1131.46" stroke="#263238" stroke-width="0.5" stroke-miterlimit="10"/>
<path d="M403.705 1084.92L422.829 1060.01" stroke="#263238" stroke-width="2" stroke-miterlimit="10"/>
<path d="M417.016 1067.47C416.695 1064 417.121 1060.49 418.266 1057.19C419.412 1053.89 421.249 1050.88 423.656 1048.35C428.643 1042.87 456.397 1027.63 460.222 1037.55C464.383 1048.32 436.936 1073.29 417.016 1067.47Z" fill="white" stroke="#263238" stroke-miterlimit="10"/>
<path d="M417.016 1067.47L444.371 1046.3" stroke="#263238" stroke-width="0.5" stroke-miterlimit="10"/>
<path d="M403.705 972.342L422.829 947.434" stroke="#263238" stroke-width="2" stroke-miterlimit="10"/>
<path d="M417.016 954.9C416.695 951.424 417.121 947.918 418.266 944.62C419.412 941.321 421.249 938.306 423.656 935.776C428.643 930.299 456.397 915.061 460.222 924.975C464.383 935.776 436.936 960.714 417.016 954.9Z" fill="white" stroke="#263238" stroke-miterlimit="10"/>
<path d="M417.016 954.9L444.371 933.726" stroke="#263238" stroke-width="0.5" stroke-miterlimit="10"/>
<path d="M403.705 883.85L422.829 858.911" stroke="#263238" stroke-width="2" stroke-miterlimit="10"/>
<path d="M417.016 866.408C416.695 862.931 417.121 859.426 418.266 856.127C419.412 852.829 421.249 849.814 423.656 847.284C428.643 841.776 456.397 826.538 460.222 836.482C464.383 847.284 436.936 872.222 417.016 866.408Z" fill="white" stroke="#263238" stroke-miterlimit="10"/>
<path d="M417.016 866.408L444.371 845.234" stroke="#263238" stroke-width="0.5" stroke-miterlimit="10"/>
<path d="M402.574 827.15C402.252 823.673 402.679 820.167 403.824 816.869C404.969 813.57 406.807 810.555 409.213 808.025C414.201 802.518 441.954 787.31 445.779 797.224C449.941 808.025 422.493 832.963 402.574 827.15Z" fill="white" stroke="#263238" stroke-miterlimit="10"/>
<path d="M402.573 827.15L429.929 805.975" stroke="#263238" stroke-width="0.5" stroke-miterlimit="10"/>
<path d="M403.888 828.312C400.392 828.274 396.944 827.486 393.777 826.003C390.61 824.52 387.798 822.376 385.529 819.714C380.572 814.145 368.332 784.954 378.614 782.2C389.844 779.201 411.783 809.096 403.888 828.312Z" fill="white" stroke="#263238" stroke-miterlimit="10"/>
<path d="M403.889 828.313L385.713 798.907" stroke="#263238" stroke-width="0.5" stroke-miterlimit="10"/>
<path d="M1181.01 1407.09L1163.32 1203.21H744.578L721.445 1407.09H1181.01Z" fill="#263238" stroke="#263238" stroke-miterlimit="10"/>
<path d="M924.531 585.265C924.531 585.265 802.135 618.924 748.587 659.437C695.038 699.95 658.014 741.381 666.643 819.867C675.271 898.354 731.329 1113.1 731.329 1113.1C731.329 1113.1 723.557 1200.21 723.557 1205.38C723.557 1210.55 722.7 1225.21 741.671 1226.07C760.643 1226.93 988.329 1236.44 1039.22 1237.3C1090.1 1238.16 1157.39 1232.98 1165.13 1226.96C1168.96 1223.77 1172.09 1219.83 1174.32 1215.37C1176.55 1210.92 1177.83 1206.04 1178.07 1201.07C1178.93 1190.73 1187.56 1063.92 1187.56 1063.92L1188.42 1007.01C1188.42 1007.01 1244.5 820.724 1247.93 760.352C1251.36 699.98 1228.96 680.152 1203.96 661.181C1178.96 642.21 1101.12 610.081 1059.07 597.352C1017.03 584.622 924.531 585.265 924.531 585.265Z" fill="white" stroke="#263238" stroke-miterlimit="10"/>
<path d="M954.731 874.731C948.612 958.725 937.412 1113.4 938.392 1140.05C939.769 1176.77 924.806 1187.64 924.806 1201.25" stroke="#263238" stroke-miterlimit="10"/>
<path d="M958.801 820.54C958.801 820.54 957.7 834.83 956.017 857.443" stroke="#263238" stroke-miterlimit="10"/>
<path d="M1013.45 928.432L1021.28 1020.84L1065.13 1017.72L1013.45 928.432Z" fill="#263238" stroke="#263238" stroke-miterlimit="10"/>
<path d="M971.897 1089.57C971.897 1089.57 1078.99 1072.74 1087.04 1074.51C1095.09 1076.29 1149.92 1102.85 1157.91 1104.62C1163.1 1105.85 1168.15 1107.64 1172.96 1109.95L1184.99 1120.01L1180.89 1089.57C1180.89 1089.57 1164.95 1070.08 1129.51 1055.91C1094.08 1041.74 1076.36 1049.79 1068.31 1052.39C1060.27 1054.99 971.897 1089.57 971.897 1089.57Z" fill="#263238" stroke="#263238" stroke-miterlimit="10"/>
<path d="M807.214 1008.75L1085.66 1007.87C1085.66 1007.87 1175.38 999.269 1178.81 998.382C1182.24 997.494 1217.64 1007.01 1221.1 1009.61C1224.55 1012.21 1224.52 1019.95 1222.81 1027.73L1221.1 1035.47C1222.36 1042.03 1223.22 1048.66 1223.67 1055.33C1223.67 1061.45 1216.78 1063.07 1215.89 1065.67C1215.01 1068.27 1221.1 1077.72 1214.18 1083.78L1207.3 1089.9C1207.3 1089.9 1206.41 1106.3 1202.98 1110.62C1199.55 1114.93 1189.18 1122.67 1184.87 1120.1C1180.55 1117.53 1182.27 1110.62 1182.27 1106.3C1182.27 1101.99 1180.55 1097.68 1175.38 1097.68C1170.21 1097.68 1169.26 1101.99 1142.61 1095.07C1115.96 1088.16 1086.55 1064.9 1083.95 1064.02C1081.35 1063.13 847.635 1126.13 778.635 1134.76C709.634 1143.39 703.606 1133.9 701.005 1122.52C698.404 1111.14 694.12 1084.58 694.12 1084.58L681.881 1031.98L807.214 1008.75Z" fill="white" stroke="#263238" stroke-miterlimit="10"/>
<path d="M988.268 686.364C988.268 686.364 1002.68 671.064 1011.77 678.01C1020.86 684.956 1029.18 721.186 1040.53 718.156C1051.88 715.127 1074.62 644.719 1074.62 616.69C1074.62 588.661 1054.91 572.016 1050.38 570.486C1045.86 568.956 929.977 567.426 916.33 572.781C902.683 578.135 897.42 625.778 892.127 654.541C886.833 683.304 898.919 690.128 906.508 686.364C914.097 682.6 943.594 670.452 950.418 670.452C957.241 670.452 988.268 686.364 988.268 686.364Z" fill="white" stroke="#263238" stroke-miterlimit="10"/>
<path d="M1065.84 526.729C1065.84 526.729 1054.97 580.4 1050.75 593.649C1046.53 606.898 1015.78 647.32 1007.91 655.765C1000.05 664.21 977.161 705.794 971.194 707.018C965.228 708.242 948.337 651.542 948.337 651.542C948.337 651.542 926.612 614.15 922.389 604.512C918.166 594.873 911.618 566.538 911.618 566.538C911.618 566.538 947.174 597.137 985.056 590.65C1022.94 584.163 1042.31 546.037 1042.31 546.037L1065.84 526.729Z" fill="white" stroke="#263238" stroke-miterlimit="10"/>
<path d="M918.625 419.816C918.625 419.816 908.007 408.434 901.949 425.936C895.89 443.439 908.069 474.374 908.069 474.374L918.625 419.816Z" fill="white" stroke="#263238" stroke-miterlimit="10"/>
<path d="M920.522 384.322C920.522 384.322 903.05 508.523 903.05 515.897C903.05 523.272 898.216 547.231 905.468 562.928C912.72 578.625 934.384 597.872 951.886 600.289C969.389 602.706 1003.72 599.096 1023.03 584.01C1042.34 568.925 1064.61 536.398 1064.61 536.398C1064.61 536.398 1088.76 532.757 1104.39 526.148C1120.03 519.538 1132.11 504.423 1131.53 488.756C1130.84 478.725 1127.28 469.104 1121.28 461.033L1112.1 444.143L1136.21 398.917C1136.21 398.917 1122.35 373 1077.74 348.276C1033.13 323.552 993.317 315.719 974.652 315.719C955.987 315.719 932.425 323.552 925.694 338.637C918.962 353.723 920.522 384.322 920.522 384.322Z" fill="white" stroke="#263238" stroke-miterlimit="10"/>
<path d="M977.803 323.552C977.803 323.552 1012.17 380.221 1038.11 377.835C1064.06 375.448 1071.77 363.361 1071.77 363.361L1089.24 386.861C1089.24 386.861 1070.58 394.695 1074.19 404.364C1077.8 414.033 1094.08 435.697 1094.08 435.697L1080.8 492.367C1080.8 492.367 1091.05 494.172 1092.89 490.561C1094.72 486.951 1103.72 464.644 1103.72 464.644C1106.15 463.084 1108.79 461.869 1111.55 461.033C1114.74 460.348 1118.03 460.348 1121.22 461.033C1121.22 461.033 1127.83 438.727 1130.4 438.115C1132.97 437.503 1156.93 430.863 1165.99 407.363C1175.04 383.863 1161.15 346.471 1129.79 316.943C1098.42 287.415 1032.12 279.551 1028.51 274.104C1024.89 268.657 1045.4 276.491 1041.17 264.435C1036.95 252.379 1010.42 236.712 976.671 253.603C942.92 270.493 947.724 289.159 951.335 295.187L954.946 301.307C954.946 301.307 926.611 291.668 906.722 303.724C886.832 315.78 877.194 339.892 886.22 342.309C895.247 344.727 906.722 339.249 906.722 339.249C906.722 339.249 894.666 359.139 898.276 363.361C901.887 367.584 920.583 384.444 920.583 384.444C920.583 384.444 927.835 342.248 942.89 336.22C957.944 330.192 977.803 323.552 977.803 323.552Z" fill="#263238" stroke="#263238" stroke-miterlimit="10"/>
<path d="M966.941 404.945L972.388 422.448L941.636 480.311L974.193 492.979" stroke="#263238" stroke-miterlimit="10"/>
<path d="M960.912 398.305C960.912 398.305 946.47 386.861 934.383 389.891C922.297 392.92 929.579 394.695 938.024 397.724C946.47 400.753 963.33 408.556 960.912 398.305Z" fill="#263238" stroke="#263238" stroke-miterlimit="10"/>
<path d="M1005.56 395.919C1005.56 395.919 991.664 399.529 998.304 402.528C1004.94 405.527 1024.83 399.468 1032.67 402.528C1040.5 405.588 1050.75 415.808 1050.17 410.973C1049.28 406.815 1047.32 402.961 1044.49 399.79C1041.66 396.619 1038.05 394.241 1034.01 392.889C1023.03 389.279 1005.56 395.919 1005.56 395.919Z" fill="#263238" stroke="#263238" stroke-miterlimit="10"/>
<path d="M952.957 425.079C951.886 429.455 948.949 432.484 946.348 431.842C943.747 431.199 942.523 427.191 943.563 422.815C944.604 418.439 947.602 415.41 950.173 416.022C952.743 416.634 953.998 420.704 952.957 425.079Z" fill="#263238"/>
<path d="M1018.71 442.276C1017.64 446.621 1014.67 449.65 1012.1 449.038C1009.53 448.426 1008.28 444.357 1009.32 439.859C1010.36 435.361 1013.33 432.454 1015.93 433.096C1018.53 433.739 1019.72 437.9 1018.71 442.276Z" fill="#263238"/>
<path d="M922.939 500.2L947.663 516.479" stroke="#263238" stroke-miterlimit="10"/>
<path d="M1177.22 646.494C1177.22 646.494 1262.59 679.296 1278.99 728.438C1295.39 777.58 1274.67 839.695 1266.05 865.582C1257.42 891.469 1203.96 992.354 1195.33 1016.5C1186.7 1040.64 1173.76 1069.98 1173.76 1069.98C1173.76 1069.98 1161.7 997.525 1128.87 952.697C1096.04 907.87 1088.33 867.296 1088.33 867.296C1088.33 867.296 1147.84 762.066 1163.36 729.294" fill="white"/>
<path d="M1177.22 646.494C1177.22 646.494 1262.59 679.296 1278.99 728.438C1295.39 777.58 1274.67 839.695 1266.05 865.582C1257.42 891.469 1203.96 992.354 1195.33 1016.5C1186.7 1040.64 1173.76 1069.98 1173.76 1069.98C1173.76 1069.98 1161.7 997.525 1128.87 952.697C1096.04 907.87 1088.33 867.296 1088.33 867.296C1088.33 867.296 1147.84 762.066 1163.36 729.294" stroke="#263238" stroke-miterlimit="10"/>
<path d="M1097.45 849.059C1097.45 849.059 1114.92 840.338 1120.73 843.245C1126.54 846.152 1201.3 886.083 1211 931.584C1218 965.811 1213.21 1001.4 1197.41 1032.56C1188.66 1049.08 1172.17 1081.09 1159.56 1084.98C1146.95 1088.86 1136.24 985.01 1110.05 930.666C1083.86 876.322 1097.45 849.059 1097.45 849.059Z" fill="white" stroke="#263238" stroke-miterlimit="10"/>
<path d="M1126.33 799.152C1126.33 799.152 1141.84 746.552 1147.9 725.867" stroke="#263238" stroke-miterlimit="10"/>
<path d="M970.582 612.345C970.582 612.345 946.47 578.686 927.744 556.288C909.017 533.889 889.74 520.701 883.131 522.629C876.521 524.557 873.951 531.074 878.296 538.908C882.641 546.741 902.408 564.244 906.019 569.078C909.629 573.913 915.198 591.385 915.198 591.385C915.198 591.385 897.726 592.578 894.697 596.189C891.88 600.38 889.462 604.826 887.476 609.469C883.835 611.311 880.688 613.997 878.296 617.302C876.496 619.823 875.264 622.704 874.685 625.747C874.073 628.165 865.506 632.387 866.24 643.219C866.974 654.052 877.102 669.749 880.713 676.878C884.324 684.008 910.853 716.045 915.688 721.492C920.522 726.938 948.245 775.132 955.466 791.41C962.688 807.689 1032.64 996.423 1053.14 1024.76C1073.64 1053.09 1111.61 1080.2 1132.11 1089.87C1152.62 1099.54 1167.09 1083.23 1176.73 1062.73C1186.37 1042.23 1194.81 1001.23 1176.15 954.197C1157.48 907.166 1120.67 866.776 1092.34 842.664C1064 818.552 1010.94 758.272 1004.91 747.409C998.886 736.546 991.175 712.434 991.175 712.434C991.175 712.434 1006.84 666.536 1008.04 655.765C1009.23 644.994 1003.23 625.625 1004.98 617.18C1006.72 608.734 1014 591.844 1017.03 584.622C1020.06 577.401 1030.28 565.315 1024.86 559.899C1019.45 554.482 997.142 561.092 989.309 573.76C982.323 586.247 976.07 599.131 970.582 612.345Z" fill="white" stroke="#263238" stroke-miterlimit="10"/>
<path d="M784.234 742.911C786.04 733.333 787.294 726.724 787.294 726.724Z" fill="white"/>
<path d="M784.234 742.911C786.04 733.333 787.294 726.724 787.294 726.724" stroke="#263238" stroke-miterlimit="10"/>
<path d="M778.757 643.923C778.757 643.923 733.042 650.043 685.614 700.837C638.185 751.632 658.87 872.467 663.185 897.497C667.499 922.527 674.415 999.361 674.415 999.361L796.015 958.817C796.015 958.817 776.187 823.417 774.443 811.33C773.586 805.21 776.891 783.791 780.379 763.902" fill="white"/>
<path d="M778.757 643.923C778.757 643.923 733.042 650.043 685.614 700.837C638.185 751.632 658.87 872.467 663.185 897.497C667.499 922.527 674.415 999.361 674.415 999.361L796.015 958.817C796.015 958.817 776.187 823.417 774.443 811.33C773.586 805.21 776.891 783.791 780.379 763.902" stroke="#263238" stroke-miterlimit="10"/>
<path d="M662.328 972.525C662.328 972.525 674.414 1037.21 680.442 1040.64C686.47 1044.07 780.47 1018.24 790.843 1016.5C801.217 1014.75 807.214 1017.35 807.214 1008.75C807.214 1000.16 798.585 959.582 793.414 952.697C788.243 945.813 676.128 960.439 666.642 963.04C657.157 965.641 662.328 972.525 662.328 972.525Z" fill="white" stroke="#263238" stroke-miterlimit="10"/>
<path d="M731.084 922.527C752.505 931.104 773.293 941.186 793.292 952.697C793.292 952.697 763.978 897.619 751.891 886.267" stroke="#263238" stroke-miterlimit="10"/>
<path d="M714.928 916.468C718.385 917.662 721.813 918.916 725.178 920.171" stroke="#263238" stroke-miterlimit="10"/>
<path d="M997.784 1198.8C1020.09 1190.85 1040.62 1182.1 1052.86 1173.47" stroke="#263238" stroke-miterlimit="10"/>
<path d="M892.616 1229.53C892.616 1229.53 940.259 1218.24 985.484 1203.06" stroke="#263238" stroke-miterlimit="10"/>
<path d="M1093.01 1169.89C1069.57 1181.58 1032.45 1198.65 1002.13 1206.24" stroke="#263238" stroke-miterlimit="10"/>
<path d="M1115.99 1157.96C1115.99 1157.96 1111.18 1160.62 1103.2 1164.72" stroke="#263238" stroke-miterlimit="10"/>
<path d="M309.185 63.4608C103.958 162.326 65.0362 452.588 195.204 627.063C222.407 663.537 257.963 694.381 300.097 712.159C443.913 773.143 559.179 651.879 629.281 540.437C741.212 362.566 755.196 318.595 753.207 348.551C751.218 378.508 803.175 410.514 833.162 252.746C871.502 50.7928 588.89 4.89438 445.84 23.9881C398.494 29.8682 352.374 43.1899 309.185 63.4608Z" fill="#263238" stroke="#263238" stroke-miterlimit="10"/>
<path d="M815.802 430.599C827.838 408.868 827.026 385.396 813.987 378.175C800.948 370.953 780.62 382.716 768.584 404.447C756.548 426.179 757.361 449.65 770.4 456.872C783.439 464.093 803.766 452.331 815.802 430.599Z" fill="#263238" stroke="#263238" stroke-miterlimit="10"/>
<path d="M837.231 435.055C830.132 447.876 830.622 461.768 838.302 466.021C845.982 470.274 858.038 463.328 865.137 450.507C872.236 437.686 871.777 423.794 864.066 419.541C856.355 415.288 844.3 422.203 837.231 435.055Z" fill="#263238" stroke="#263238" stroke-miterlimit="10"/>
<path d="M321.057 44.6731C115.769 143.416 76.8471 433.678 207.015 608.153C234.218 644.627 269.804 675.471 311.908 693.249C455.723 754.233 570.99 632.969 641.092 521.527C753.023 343.656 767.037 299.685 765.018 329.641C762.998 359.598 814.986 391.604 844.973 233.713C883.313 31.7603 600.701 -14.1382 457.651 4.9556C410.313 10.9195 364.213 24.3238 321.057 44.6731Z" fill="white" stroke="#263238" stroke-miterlimit="10"/>
<path d="M780.409 385.546C768.353 407.271 769.18 430.74 782.215 437.962C795.25 445.183 815.568 433.402 827.624 411.677C839.68 389.952 838.823 366.482 825.788 359.261C812.752 352.04 792.435 363.82 780.409 385.546Z" fill="white" stroke="#263238" stroke-miterlimit="10"/>
<path d="M849.073 416.144C841.944 428.996 842.433 442.857 850.144 447.111C857.855 451.364 869.85 444.448 876.949 431.597C884.048 418.745 883.589 404.884 875.878 400.631C868.167 396.378 856.172 403.293 849.073 416.144Z" fill="white" stroke="#263238" stroke-miterlimit="10"/>
<path d="M212.646 263.303V222.881H237.125C238.294 216.193 240.045 209.62 242.357 203.237L221.091 190.997L241.5 155.961L262.92 168.201C267.291 163.003 272.103 158.191 277.301 153.82L265.062 132.4L300.067 112.174L312.306 133.594C318.69 131.281 325.263 129.531 331.951 128.361V103.882H372.372V128.514C379.062 129.659 385.637 131.4 392.017 133.716L404.256 112.45L439.261 132.676L427.022 154.095C432.21 158.467 437.012 163.279 441.373 168.476L462.792 156.237L482.987 191.242L461.568 203.482C463.884 209.862 465.625 216.436 466.77 223.126H491.249V263.547H466.77C465.597 270.244 463.846 276.827 461.537 283.223L482.804 295.462L462.608 330.467L441.189 318.228C436.825 323.423 432.013 328.225 426.808 332.579L439.047 353.998L404.042 374.193L391.802 352.774C385.411 355.087 378.827 356.827 372.127 357.976V382.455H331.706V357.976C325.018 356.806 318.445 355.056 312.062 352.743L299.822 374.163L264.756 353.723L276.995 332.303C271.797 327.931 266.985 323.12 262.614 317.922L241.194 330.161L220.968 295.156L242.388 282.917C240.079 276.521 238.329 269.938 237.155 263.241L212.646 263.303ZM351.963 318.381C366.864 318.381 381.43 313.962 393.819 305.682C406.209 297.403 415.865 285.636 421.566 271.868C427.267 258.101 428.757 242.952 425.847 228.338C422.938 213.723 415.76 200.3 405.221 189.766C394.683 179.231 381.256 172.059 366.641 169.155C352.025 166.252 336.877 167.748 323.112 173.455C309.347 179.161 297.583 188.822 289.309 201.215C281.035 213.607 276.622 228.176 276.628 243.077C276.62 252.974 278.563 262.775 282.345 271.92C286.128 281.066 291.676 289.376 298.673 296.375C305.67 303.375 313.978 308.926 323.121 312.713C332.265 316.499 342.066 318.446 351.963 318.442V318.381Z" fill="#CCCCCC"/>
<path d="M269.988 500.842V468.01H290C290.955 462.563 292.378 457.209 294.253 452.006L276.965 442.031L293.396 413.574L310.746 423.58C314.29 419.347 318.202 415.436 322.435 411.891L312.429 394.572L340.886 378.141L350.861 395.46C356.05 393.574 361.395 392.151 366.834 391.206V371.195H399.697V391.206C405.135 392.158 410.479 393.581 415.67 395.46L425.676 378.171L454.133 394.603L444.127 411.861C448.353 415.413 452.263 419.324 455.816 423.549L473.135 413.544L489.566 442.001L472.247 452.006C474.123 457.198 475.546 462.542 476.501 467.979H496.512V500.904H476.501C475.549 506.341 474.126 511.686 472.247 516.876L489.536 526.852L473.104 555.339L455.693 545.303C452.141 549.528 448.23 553.439 444.005 556.991L453.98 574.31L425.523 590.742L415.548 573.454C410.356 575.329 405.012 576.752 399.575 577.707V597.688H366.956V577.676C361.512 576.754 356.165 575.33 350.984 573.423L340.978 590.742L312.521 574.31L322.527 556.961C318.311 553.408 314.41 549.497 310.868 545.272L293.519 555.278L277.087 526.821L294.406 516.846C292.531 511.643 291.108 506.289 290.153 500.842H269.988ZM383.204 545.67C395.308 545.67 407.14 542.081 417.204 535.356C427.268 528.632 435.112 519.074 439.744 507.891C444.376 496.709 445.588 484.404 443.226 472.533C440.865 460.662 435.037 449.757 426.478 441.198C417.919 432.64 407.015 426.811 395.144 424.45C383.272 422.089 370.967 423.3 359.785 427.932C348.603 432.564 339.045 440.408 332.32 450.472C325.596 460.536 322.007 472.368 322.007 484.472C322.007 492.514 323.591 500.477 326.671 507.906C329.75 515.334 334.263 522.084 339.953 527.767C345.642 533.451 352.396 537.957 359.827 541.029C367.259 544.101 375.224 545.678 383.266 545.67H383.204Z" fill="#CCCCCC"/>
<path d="M478.795 425.753V400.723H494.094C494.807 396.554 495.893 392.458 497.338 388.483L484.15 380.864L496.665 359.2L509.883 366.819C512.586 363.596 515.565 360.617 518.788 357.915L511.169 344.726L532.833 332.212L540.452 345.4C544.426 343.954 548.523 342.869 552.691 342.156V326.857H577.721V342.156C581.888 342.878 585.984 343.963 589.961 345.4L597.58 332.242L619.244 344.757L611.625 357.945C614.847 360.648 617.827 363.627 620.529 366.85L633.717 359.23L646.232 380.894L633.075 388.514C634.444 392.498 635.468 396.593 636.135 400.753H651.434V425.783H636.135C635.422 429.952 634.337 434.048 632.891 438.023L646.018 445.519L633.503 467.214L620.285 459.595C617.582 462.808 614.602 465.777 611.38 468.469L618.999 481.687L597.335 494.202L589.716 481.014C585.737 482.446 581.642 483.531 577.477 484.258V499.557H552.447V484.258C548.285 483.596 544.19 482.572 540.207 481.198L532.588 494.355L510.924 481.84L518.543 468.652C515.328 465.942 512.349 462.963 509.639 459.748L496.451 467.367L484.089 445.519L497.246 437.931C495.825 433.951 494.75 429.856 494.033 425.691L478.795 425.753ZM565.053 459.87C574.277 459.87 583.292 457.135 590.961 452.011C598.63 446.887 604.607 439.604 608.137 431.083C611.666 422.562 612.59 413.186 610.79 404.14C608.991 395.094 604.55 386.785 598.028 380.263C591.506 373.741 583.197 369.3 574.151 367.501C565.105 365.701 555.729 366.625 547.208 370.154C538.687 373.684 531.404 379.661 526.28 387.33C521.156 394.998 518.421 404.014 518.421 413.238C518.421 425.605 523.334 437.467 532.079 446.212C540.824 454.957 552.686 459.87 565.053 459.87Z" fill="#CCCCCC"/>
<path d="M567.93 194.21V169.18H583.229C583.956 165.015 585.041 160.92 586.473 156.941L573.315 149.352L585.83 127.657L599.018 135.277C601.737 132.069 604.715 129.091 607.923 126.372L600.303 113.184L621.998 100.669L629.587 113.857C633.561 112.412 637.658 111.326 641.826 110.614V95.3143H666.826V110.614C670.991 111.341 675.086 112.426 679.065 113.857L686.654 100.7L708.348 113.215L700.484 126.464C703.69 129.175 706.658 132.154 709.358 135.368L722.577 127.749L735.092 149.444L721.904 157.032C723.335 161.011 724.42 165.106 725.147 169.272H740.447V194.302H725.147C724.43 198.467 723.355 202.562 721.934 206.542L735.092 214.13L722.577 235.825L709.389 228.206C706.678 231.411 703.699 234.38 700.484 237.079L708.104 250.298L686.409 262.813L678.82 249.625C674.917 251.001 670.905 252.046 666.826 252.746V268.046H641.796V252.746C637.636 252.079 633.541 251.055 629.556 249.686L621.967 262.844L600.273 250.329L607.892 237.141C604.684 234.422 601.706 231.444 598.988 228.236L585.8 235.855L573.285 214.161L586.473 206.572C585.027 202.598 583.942 198.501 583.229 194.333L567.93 194.21ZM654.188 228.267C663.419 228.273 672.444 225.541 680.121 220.418C687.799 215.294 693.785 208.008 697.321 199.482C700.858 190.956 701.786 181.572 699.989 172.519C698.192 163.465 693.75 155.147 687.226 148.618C680.701 142.089 672.386 137.642 663.334 135.839C654.281 134.036 644.897 134.958 636.369 138.489C627.84 142.02 620.551 148.001 615.422 155.675C610.293 163.35 607.555 172.373 607.555 181.603C607.555 193.974 612.467 205.838 621.212 214.589C629.956 223.339 641.818 228.259 654.188 228.267Z" fill="#CCCCCC"/>
</svg>
