<svg width="1253" height="1113" viewBox="0 0 1253 1113" fill="none" xmlns="http://www.w3.org/2000/svg">
<path d="M62.7393 670.741L109.41 1111.4" stroke="#263238" stroke-linecap="round" stroke-linejoin="round"/>
<path d="M102.574 1053.15L81.8496 1031.38" stroke="#263238" stroke-linecap="round" stroke-linejoin="round"/>
<path d="M88.6858 1038.49C88.6429 1034.85 87.8234 1031.27 86.2822 1027.98C84.741 1024.69 82.5138 1021.76 79.7499 1019.4C73.9631 1014.26 43.5757 1001.48 40.6958 1012.19C37.5736 1023.82 68.6608 1046.67 88.6858 1038.49Z" fill="white" stroke="#263238" stroke-linejoin="round"/>
<path d="M88.6864 1038.49L59.7793 1020.48" stroke="#263238" stroke-linecap="round" stroke-linejoin="round"/>
<path d="M107.715 1102.25L87.502 1085.43" stroke="#263238" stroke-linecap="round" stroke-linejoin="round"/>
<path d="M94.3387 1092.56C94.2959 1088.92 93.4738 1085.34 91.9276 1082.04C90.3815 1078.75 88.1473 1075.83 85.3759 1073.48C79.616 1068.31 49.2286 1055.55 46.3486 1066.32C43.1995 1077.89 74.3137 1100.74 94.3387 1092.56Z" fill="white" stroke="#263238" stroke-linejoin="round"/>
<path d="M94.3383 1092.56L65.4043 1074.53" stroke="#263238" stroke-linecap="round" stroke-linejoin="round"/>
<path d="M88.5245 917.824L68.0957 899.441" stroke="#263238" stroke-linecap="round" stroke-linejoin="round"/>
<path d="M74.8784 906.574C74.8356 902.937 74.0134 899.352 72.4673 896.06C70.9212 892.768 68.687 889.846 65.9156 887.491C60.1557 882.323 29.7683 869.538 26.8883 880.251C23.7392 891.878 54.9072 914.756 74.8784 906.574Z" fill="white" stroke="#263238" stroke-linejoin="round"/>
<path d="M74.932 906.574L45.998 888.541" stroke="#263238" stroke-linecap="round" stroke-linejoin="round"/>
<path d="M94.2033 975.316L73.7207 953.514" stroke="#263238" stroke-linecap="round" stroke-linejoin="round"/>
<path d="M80.5579 960.62C80.5146 956.99 79.6948 953.411 78.1535 950.124C76.6122 946.837 74.3851 943.918 71.622 941.564C65.8352 936.396 35.4747 923.665 32.5678 934.431C29.4457 945.951 60.5329 968.802 80.5579 960.62Z" fill="white" stroke="#263238" stroke-linejoin="round"/>
<path d="M80.5575 960.62L51.6504 942.613" stroke="#263238" stroke-linecap="round" stroke-linejoin="round"/>
<path d="M79.4275 832.503L58.918 811.616" stroke="#263238" stroke-linecap="round" stroke-linejoin="round"/>
<path d="M65.7542 818.695C65.713 815.061 64.8942 811.477 63.3529 808.186C61.8116 804.894 59.5835 801.971 56.8183 799.612C51.0315 794.444 20.6441 781.686 17.7641 792.372C14.6419 804.08 45.7292 826.931 65.7542 818.695Z" fill="white" stroke="#263238" stroke-linejoin="round"/>
<path d="M65.7538 818.749L36.8467 800.716" stroke="#263238" stroke-linecap="round" stroke-linejoin="round"/>
<path d="M69.5495 738.595L49.7129 723.415" stroke="#263238" stroke-linecap="round" stroke-linejoin="round"/>
<path d="M56.5491 730.547C56.5079 726.913 55.6892 723.33 54.1478 720.038C52.6065 716.747 50.3784 713.823 47.6132 711.464C41.8264 706.297 11.439 693.512 8.55904 704.224C5.43686 715.852 36.5241 738.73 56.5491 730.547Z" fill="white" stroke="#263238" stroke-linejoin="round"/>
<path d="M56.5487 730.547L27.6416 712.514" stroke="#263238" stroke-linecap="round" stroke-linejoin="round"/>
<path d="M100.583 1023.14L117.674 995.26" stroke="#263238" stroke-linecap="round" stroke-linejoin="round"/>
<path d="M112.56 1003.63C111.853 1000.07 111.917 996.391 112.748 992.854C113.579 989.316 115.158 985.998 117.378 983.121C121.98 976.876 149.057 958.089 154.09 967.967C159.446 978.707 133.742 1007.51 112.56 1003.63Z" fill="white" stroke="#263238" stroke-linejoin="round"/>
<path d="M112.452 1003.63L132.8 984.521" stroke="#263238" stroke-linecap="round" stroke-linejoin="round"/>
<path d="M85.7256 880.869L102.817 852.985" stroke="#263238" stroke-linecap="round" stroke-linejoin="round"/>
<path d="M97.5951 861.356C96.8883 857.79 96.9551 854.113 97.7909 850.575C98.6267 847.037 100.212 843.719 102.44 840.846C107.016 834.602 128.198 818.991 133.231 828.869C138.695 839.608 118.885 865.232 97.5951 861.356Z" fill="white" stroke="#263238" stroke-linejoin="round"/>
<path d="M97.5947 861.356L123.649 836.459" stroke="#263238" stroke-linecap="round" stroke-linejoin="round"/>
<path d="M79.2119 818.345L96.3032 790.461" stroke="#263238" stroke-linecap="round" stroke-linejoin="round"/>
<path d="M91.0274 798.832C90.3278 795.263 90.4007 791.587 91.241 788.049C92.0814 784.511 93.6696 781.195 95.899 778.322C100.475 772.078 127.578 753.318 132.612 763.169C138.075 773.908 112.371 802.707 91.0274 798.832Z" fill="white" stroke="#263238" stroke-linejoin="round"/>
<path d="M91.0811 798.832L117.135 773.935" stroke="#263238" stroke-linecap="round" stroke-linejoin="round"/>
<path d="M69.6299 726.699L86.7211 698.814" stroke="#263238" stroke-linecap="round" stroke-linejoin="round"/>
<path d="M81.527 707.185C80.84 703.641 80.9142 699.992 81.7448 696.479C82.5754 692.967 84.1435 689.671 86.3449 686.81C90.9205 680.566 117.997 661.779 123.03 671.657C128.521 682.261 102.817 711.034 81.527 707.185Z" fill="white" stroke="#263238" stroke-linejoin="round"/>
<path d="M81.5264 707.185L107.554 682.288" stroke="#263238" stroke-linecap="round" stroke-linejoin="round"/>
<path d="M62.3088 667.969C61.6018 664.405 61.666 660.73 62.497 657.193C63.328 653.655 64.9066 650.337 67.1266 647.46C71.7292 641.242 98.806 622.455 103.839 632.333C109.303 643.18 83.5988 671.953 62.3088 667.969Z" fill="white" stroke="#263238" stroke-linejoin="round"/>
<path d="M62.3086 668.077L88.3626 643.207" stroke="#263238" stroke-linecap="round" stroke-linejoin="round"/>
<path d="M63.816 669.153C60.1971 669.482 56.5497 669.033 53.1189 667.835C49.6881 666.637 46.5535 664.719 43.9256 662.209C38.2195 657.015 22.3933 628.108 32.7288 624.124C43.9794 619.818 69.8989 648.402 63.816 669.153Z" fill="white" stroke="#263238" stroke-linejoin="round"/>
<path d="M63.8166 669.153L41.7998 640.65" stroke="#263238" stroke-linecap="round" stroke-linejoin="round"/>
<path d="M137.053 542.624L138.022 1110.89" stroke="#263238" stroke-linecap="round" stroke-linejoin="round"/>
<path d="M193.575 736.2L154.063 1109.38" stroke="#263238" stroke-linecap="round" stroke-linejoin="round"/>
<path d="M154.064 1109.38L143.271 1101.41" stroke="#263238" stroke-linecap="round" stroke-linejoin="round"/>
<path d="M143.271 1101.31C143.977 1097.74 143.911 1094.06 143.075 1090.53C142.239 1086.99 140.654 1083.67 138.426 1080.8C133.85 1074.58 106.747 1055.82 101.713 1065.7C96.2496 1076.54 121.981 1105.32 143.271 1101.31Z" fill="white" stroke="#263238" stroke-linejoin="round"/>
<path d="M143.271 1101.41L118.67 1077.84" stroke="#263238" stroke-linecap="round" stroke-linejoin="round"/>
<path d="M167.548 976.5L151.668 964.603" stroke="#263238" stroke-linecap="round" stroke-linejoin="round"/>
<path d="M156.943 969.421C157.65 965.852 157.587 962.174 156.756 958.632C155.925 955.09 154.346 951.766 152.125 948.885C147.55 942.667 120.446 923.907 115.413 933.785C109.868 944.605 135.68 973.378 156.943 969.421Z" fill="white" stroke="#263238" stroke-linejoin="round"/>
<path d="M156.944 969.502L132.37 945.897" stroke="#263238" stroke-linecap="round" stroke-linejoin="round"/>
<path d="M163.241 1043.06L146.123 1015.18" stroke="#263238" stroke-linecap="round" stroke-linejoin="round"/>
<path d="M151.345 1023.55C152.052 1019.98 151.988 1016.31 151.157 1012.77C150.326 1009.23 148.747 1005.92 146.527 1003.04C141.924 996.821 114.821 978.034 109.814 987.912C104.485 998.678 130.055 1027.45 151.345 1023.55Z" fill="white" stroke="#263238" stroke-linejoin="round"/>
<path d="M151.345 1023.55L126.744 999.97" stroke="#263238" stroke-linecap="round" stroke-linejoin="round"/>
<path d="M177.183 892.12L160.846 873.28" stroke="#263238" stroke-linecap="round" stroke-linejoin="round"/>
<path d="M166.068 881.65C166.775 878.086 166.711 874.411 165.88 870.874C165.049 867.336 163.47 864.017 161.25 861.14C156.647 854.923 129.544 836.163 124.537 846.041C119.074 856.78 144.858 885.553 166.068 881.65Z" fill="white" stroke="#263238" stroke-linejoin="round"/>
<path d="M166.067 881.65L141.467 858.072" stroke="#263238" stroke-linecap="round" stroke-linejoin="round"/>
<path d="M185.769 809.571L169.997 785.078" stroke="#263238" stroke-linecap="round" stroke-linejoin="round"/>
<path d="M175.219 793.449C175.926 789.884 175.862 786.21 175.031 782.672C174.2 779.135 172.621 775.816 170.401 772.939C165.799 766.695 138.695 747.935 133.689 757.813C128.225 768.552 153.929 797.324 175.219 793.449Z" fill="white" stroke="#263238" stroke-linejoin="round"/>
<path d="M175.219 793.448L150.618 769.844" stroke="#263238" stroke-linecap="round" stroke-linejoin="round"/>
<path d="M158.047 1088.84L180.521 1065.08" stroke="#263238" stroke-linecap="round" stroke-linejoin="round"/>
<path d="M173.685 1072.21C173.714 1068.58 174.519 1065 176.047 1061.71C177.574 1058.42 179.788 1055.49 182.54 1053.13C188.3 1047.96 218.687 1035.15 221.567 1045.86C224.824 1057.49 193.737 1080.37 173.685 1072.21Z" fill="white" stroke="#263238" stroke-linejoin="round"/>
<path d="M173.685 1072.21L204.314 1053.21" stroke="#263238" stroke-linecap="round" stroke-linejoin="round"/>
<path d="M172.823 946.57L195.298 922.804" stroke="#263238" stroke-linecap="round" stroke-linejoin="round"/>
<path d="M188.461 929.909C188.504 926.275 189.323 922.692 190.865 919.401C192.406 916.11 194.633 913.186 197.397 910.826C203.184 905.685 233.544 892.874 236.424 903.586C239.573 915.214 208.486 938.092 188.461 929.909Z" fill="white" stroke="#263238" stroke-linejoin="round"/>
<path d="M188.461 929.909L219.064 910.934" stroke="#263238" stroke-linecap="round" stroke-linejoin="round"/>
<path d="M179.31 884.046L201.784 860.279" stroke="#263238" stroke-linecap="round" stroke-linejoin="round"/>
<path d="M194.948 867.385C194.991 863.751 195.811 860.168 197.352 856.877C198.893 853.585 201.12 850.662 203.884 848.302C209.671 843.161 240.031 830.349 242.911 841.062C246.06 852.689 214.973 875.567 194.948 867.385Z" fill="white" stroke="#263238" stroke-linejoin="round"/>
<path d="M194.948 867.385L225.551 848.41" stroke="#263238" stroke-linecap="round" stroke-linejoin="round"/>
<path d="M188.542 787.689L211.285 768.606" stroke="#263238" stroke-linecap="round" stroke-linejoin="round"/>
<path d="M204.449 775.63C204.526 772.035 205.365 768.496 206.91 765.249C208.455 762.001 210.671 759.118 213.412 756.79C219.172 751.622 249.532 738.837 252.439 749.523C255.588 761.015 224.501 783.893 204.449 775.63Z" fill="white" stroke="#263238" stroke-linejoin="round"/>
<path d="M204.449 775.738L235.079 756.736" stroke="#263238" stroke-linejoin="round"/>
<path d="M193.71 733.535C193.753 729.898 194.575 726.313 196.121 723.021C197.667 719.729 199.901 716.807 202.673 714.452C208.433 709.284 238.793 696.473 241.7 707.185C244.849 718.812 213.762 741.69 193.71 733.535Z" fill="white" stroke="#263238" stroke-linejoin="round"/>
<path d="M193.71 733.535L224.34 714.533" stroke="#263238" stroke-linecap="round" stroke-linejoin="round"/>
<path d="M194.974 734.881C191.376 734.472 187.906 733.3 184.796 731.444C181.686 729.587 179.008 727.088 176.941 724.114C172.419 717.816 162.864 686.271 173.819 684.522C185.715 682.503 205.202 715.825 194.974 734.881Z" fill="white" stroke="#263238" stroke-linejoin="round"/>
<path d="M194.975 734.881L179.283 702.448" stroke="#263238" stroke-linecap="round" stroke-linejoin="round"/>
<path d="M136.246 1052.29L117.62 1027.42" stroke="#263238" stroke-linecap="round" stroke-linejoin="round"/>
<path d="M123.676 1035.23C124.014 1031.61 123.572 1027.96 122.378 1024.52C121.185 1021.08 119.269 1017.94 116.759 1015.31C111.564 1009.61 82.6569 993.779 78.7004 1004.06C74.367 1015.31 102.924 1041.29 123.676 1035.23Z" fill="white" stroke="#263238" stroke-linejoin="round"/>
<path d="M123.676 1035.23L96.7871 1014.29" stroke="#263238" stroke-linecap="round" stroke-linejoin="round"/>
<path d="M136.892 932.386L117.62 914.46" stroke="#263238" stroke-linecap="round" stroke-linejoin="round"/>
<path d="M123.676 922.239C124.015 918.621 123.574 914.973 122.38 911.541C121.187 908.109 119.27 904.974 116.759 902.348C111.564 896.615 82.6569 880.816 78.7004 891.097C74.367 902.348 102.924 928.294 123.676 922.239Z" fill="white" stroke="#263238" stroke-linejoin="round"/>
<path d="M123.676 922.238L96.7871 901.325" stroke="#263238" stroke-linecap="round" stroke-linejoin="round"/>
<path d="M137.537 807.767L117.62 781.821" stroke="#263238" stroke-linecap="round" stroke-linejoin="round"/>
<path d="M123.676 789.6C124.015 785.982 123.574 782.334 122.38 778.902C121.187 775.47 119.27 772.335 116.759 769.709C111.564 763.976 82.6569 748.177 78.7004 758.459C74.367 769.709 102.924 795.656 123.676 789.6Z" fill="white" stroke="#263238" stroke-linejoin="round"/>
<path d="M123.676 789.6L96.7871 768.687" stroke="#263238" stroke-linecap="round" stroke-linejoin="round"/>
<path d="M136.246 710.28L117.62 693.512" stroke="#263238" stroke-linecap="round" stroke-linejoin="round"/>
<path d="M123.676 701.317C124.014 697.696 123.572 694.044 122.378 690.608C121.185 687.172 119.269 684.032 116.759 681.4C111.564 675.667 82.6569 659.868 78.7004 670.149C74.367 681.427 102.924 707.373 123.676 701.317Z" fill="white" stroke="#263238" stroke-linejoin="round"/>
<path d="M123.676 701.317L96.7871 680.377" stroke="#263238" stroke-linecap="round" stroke-linejoin="round"/>
<path d="M137.295 621.944L118.023 607.786" stroke="#263238" stroke-linecap="round" stroke-linejoin="round"/>
<path d="M123.676 612.631C124.014 609.01 123.572 605.358 122.378 601.922C121.185 598.486 119.269 595.346 116.759 592.714C111.564 586.981 82.6569 571.182 78.7004 581.463C74.367 592.606 102.924 618.687 123.676 612.631Z" fill="white" stroke="#263238" stroke-linejoin="round"/>
<path d="M123.676 612.631L96.7871 591.691" stroke="#263238" stroke-linecap="round" stroke-linejoin="round"/>
<path d="M140.956 1082.3L156.998 1061.93" stroke="#263238" stroke-linecap="round" stroke-linejoin="round"/>
<path d="M150.941 1069.73C150.61 1066.11 151.056 1062.46 152.249 1059.03C153.442 1055.59 155.354 1052.45 157.858 1049.82C163.08 1044.08 191.96 1028.28 195.944 1038.57C200.277 1049.82 171.774 1075.79 150.941 1069.73Z" fill="white" stroke="#263238" stroke-linejoin="round"/>
<path d="M150.941 1069.73L179.418 1047.66" stroke="#263238" stroke-linecap="round" stroke-linejoin="round"/>
<path d="M137.106 908.216L156.997 882.242" stroke="#263238" stroke-linecap="round" stroke-linejoin="round"/>
<path d="M150.941 890.048C150.61 886.427 151.056 882.777 152.249 879.342C153.442 875.907 155.354 872.767 157.858 870.13C163.08 864.397 191.96 848.598 195.944 858.88C200.277 870.13 171.774 896.104 150.941 890.048Z" fill="white" stroke="#263238" stroke-linejoin="round"/>
<path d="M150.941 890.048L179.418 867.977" stroke="#263238" stroke-linecap="round" stroke-linejoin="round"/>
<path d="M137.106 819.529L156.997 793.556" stroke="#263238" stroke-linecap="round" stroke-linejoin="round"/>
<path d="M150.941 801.361C150.61 797.74 151.056 794.091 152.249 790.656C153.442 787.221 155.354 784.08 157.858 781.444C163.08 775.63 191.96 759.858 195.997 770.247C200.277 781.444 171.774 807.417 150.941 801.361Z" fill="white" stroke="#263238" stroke-linejoin="round"/>
<path d="M150.941 801.362L179.418 779.291" stroke="#263238" stroke-linecap="round" stroke-linejoin="round"/>
<path d="M137.106 702.313L156.997 676.34" stroke="#263238" stroke-linecap="round" stroke-linejoin="round"/>
<path d="M150.941 684.118C150.61 680.497 151.056 676.848 152.249 673.413C153.442 669.978 155.354 666.837 157.858 664.201C163.08 658.468 191.96 642.669 195.944 652.95C200.277 664.228 171.774 690.201 150.941 684.118Z" fill="white" stroke="#263238" stroke-linejoin="round"/>
<path d="M150.941 684.145L179.418 662.075" stroke="#263238" stroke-linecap="round" stroke-linejoin="round"/>
<path d="M137.941 601.138L157.455 585.931" stroke="#263238" stroke-linecap="round" stroke-linejoin="round"/>
<path d="M150.941 591.987C150.61 588.366 151.056 584.716 152.249 581.281C153.442 577.847 155.354 574.706 157.858 572.07C163.08 566.337 191.96 550.537 195.944 560.819C200.277 572.07 171.774 597.989 150.941 591.987Z" fill="white" stroke="#263238" stroke-linejoin="round"/>
<path d="M150.941 591.987L179.418 569.917" stroke="#263238" stroke-linecap="round" stroke-linejoin="round"/>
<path d="M135.896 551.103C135.563 547.486 136.009 543.84 137.202 540.409C138.395 536.978 140.308 533.843 142.813 531.212C148.035 525.479 176.915 509.68 180.898 519.962C185.232 531.212 156.675 557.159 135.896 551.103Z" fill="white" stroke="#263238" stroke-linejoin="round"/>
<path d="M135.896 551.103L164.399 529.059" stroke="#263238" stroke-linecap="round" stroke-linejoin="round"/>
<path d="M137.295 552.233C133.657 552.182 130.073 551.353 126.781 549.803C123.49 548.252 120.568 546.016 118.212 543.243C113.071 537.484 100.314 507.069 111.026 504.216C122.68 501.094 145.504 532.316 137.295 552.233Z" fill="white" stroke="#263238" stroke-linejoin="round"/>
<path d="M137.295 552.341L118.347 521.684" stroke="#263238" stroke-linecap="round" stroke-linejoin="round"/>
<path d="M676.974 1111.72H280.565L256.341 791.726C256.185 789.702 256.45 787.667 257.118 785.75C257.786 783.833 258.843 782.075 260.223 780.587C261.603 779.098 263.277 777.911 265.137 777.099C266.998 776.288 269.007 775.871 271.037 775.873H637.893C641.612 775.876 645.192 777.284 647.917 779.814C650.642 782.344 652.311 785.811 652.589 789.519L676.813 1111.37L676.974 1111.72Z" fill="#C2C2C2" stroke="#263238" stroke-miterlimit="10"/>
<path d="M337.598 1111.37L363.706 976.984C363.706 976.984 358.808 949.558 347.153 897.315C339.213 861.733 316.793 820.714 302.124 775.873H637.974C641.692 775.876 645.273 777.284 647.998 779.814C650.723 782.344 652.391 785.811 652.67 789.519L676.893 1111.37H337.598Z" fill="#263238" stroke="#263238" stroke-miterlimit="10"/>
<path d="M728.006 415.369C714.893 359.592 692.12 306.54 660.718 258.614C618.972 194.878 571.359 202.091 571.359 202.091C571.359 202.091 517.878 197.704 481.973 225.535C481.973 225.535 446.229 243.568 427.873 319.012C422.49 340.948 379.426 453.804 374.85 477.086C358.539 559.689 379.587 585.043 398.293 610.666C418.211 637.905 473.925 637.232 473.925 637.232L571.359 632.091C571.359 632.091 769.133 653.354 771.34 607.867C773.547 562.38 735.327 447.613 728.006 415.369Z" fill="#263238" stroke="#263238" stroke-miterlimit="10"/>
<path d="M367.905 897.315C379.56 949.558 384.458 976.984 384.458 976.984L358.377 1111.37H774.677L748.569 976.984C748.569 976.984 753.468 949.558 765.122 897.315C776.776 845.072 819.679 781.094 823.367 710.549C827.054 640.004 786.573 630.88 754.706 623.048C722.838 615.215 639.427 609.321 639.427 609.321L566.487 606.629L493.519 609.321C493.519 609.321 410.082 615.215 378.268 623.048C346.454 630.88 305.919 640.031 309.607 710.549C313.294 781.068 356.278 845.072 367.905 897.315Z" fill="white" stroke="#263238" stroke-miterlimit="10"/>
<path d="M625.136 506.8L568.318 529.651L511.499 506.8C511.499 506.8 513.679 583.859 498.445 611.285C498.445 611.285 559.166 803.3 568.425 805.264C577.576 803.3 638.405 611.285 638.405 611.285C622.956 583.859 625.136 506.8 625.136 506.8Z" fill="white" stroke="#263238" stroke-miterlimit="10"/>
<path d="M571.116 554.306L510.476 568.571L511.498 506.8L571.116 554.306Z" fill="#263238" stroke="#263238" stroke-miterlimit="10"/>
<path d="M540.783 278.585C540.783 278.585 497.26 331.123 483.345 345.873C469.43 360.623 463.562 365.656 463.562 365.656C463.562 365.656 478.931 473.317 483.345 485.079C487.759 496.841 540.029 556.243 546.623 559.177C553.218 562.111 584.305 562.595 590.145 556.001C595.986 549.407 643.761 488.013 647.421 474.825C651.082 461.636 650.355 370.797 650.355 370.797C650.355 370.797 597.628 359.062 578.572 331.231C559.516 303.401 544.874 277.697 544.874 277.697L522.157 241.818C522.157 241.818 521.054 242.464 525.441 255.653C528.749 264.362 533.995 272.204 540.783 278.585Z" fill="white" stroke="#263238" stroke-miterlimit="10"/>
<path d="M466.066 375.319C466.066 375.319 513.006 357.608 524.984 326.467C536.961 295.326 533.058 279.85 533.058 279.85L507.166 302.997C507.166 302.997 512.549 325.041 499.495 340.356C486.441 355.67 472.203 369.962 461.813 360.488" fill="#263238"/>
<path d="M466.066 375.319C466.066 375.319 513.006 357.608 524.984 326.467C536.961 295.326 533.058 279.85 533.058 279.85L507.166 302.997C507.166 302.997 512.549 325.041 499.495 340.356C486.441 355.67 472.203 369.962 461.813 360.488" stroke="#263238" stroke-miterlimit="10"/>
<path d="M544.874 277.697C544.874 277.697 578.626 362.453 604.465 373.946C630.303 385.439 646.614 372.035 646.614 372.035L650.355 370.743C645.852 373.709 640.535 375.197 635.147 374.999C629.758 374.802 624.565 372.928 620.291 369.639C604.465 358.147 593.941 342.347 591.061 330.37" fill="#263238"/>
<path d="M544.874 277.697C544.874 277.697 578.626 362.453 604.465 373.946C630.303 385.439 646.614 372.035 646.614 372.035L650.355 370.743C645.852 373.709 640.535 375.197 635.147 374.999C629.758 374.802 624.565 372.928 620.291 369.639C604.465 358.147 593.941 342.347 591.061 330.37" stroke="#263238" stroke-miterlimit="10"/>
<path d="M536.073 435.151C536.073 435.151 514.11 417.576 497.987 429.284" stroke="#263238" stroke-miterlimit="10"/>
<path d="M587.373 433.806C587.373 433.806 612.27 414.777 628.392 426.485" stroke="#263238" stroke-miterlimit="10"/>
<path d="M497.987 398.52C497.987 398.52 525.818 392.652 540.487 407.321" stroke="#263238" stroke-width="2" stroke-miterlimit="10" stroke-linecap="round"/>
<path d="M583.578 406.567C583.578 406.567 605.568 387.538 627.531 393.406" stroke="#263238" stroke-width="2" stroke-miterlimit="10" stroke-linecap="round"/>
<path d="M550.741 471.057C550.741 471.057 560.242 479.131 566.89 477.624C573.539 476.117 579.352 467.369 579.352 467.369" stroke="#263238" stroke-miterlimit="10"/>
<path d="M548.588 501.821C548.588 501.821 569.097 488.632 582.286 501.067" stroke="#263238" stroke-miterlimit="10"/>
<path d="M813.893 651.82C813.893 651.82 837.39 657.714 834.134 692.974C830.877 728.233 814.539 794.202 790.369 845.799C766.199 897.396 737.48 933.328 726.364 943.125C715.248 952.922 680.608 926.787 680.608 926.787C680.608 926.787 634.233 838.612 664.271 775.927C694.308 713.241 735.462 671.414 753.091 652.493C770.721 633.571 813.893 651.82 813.893 651.82Z" fill="white" stroke="#263238" stroke-miterlimit="10"/>
<path d="M685.533 476.87C685.533 476.87 677.459 564.776 639.373 623.397C601.288 682.019 587.373 728.879 618.864 756.709C650.355 784.54 703.836 788.2 728.006 769.171C752.176 750.142 746.335 745.728 737.534 719.351C728.732 692.974 760.25 697.388 786.627 681.265C813.004 665.143 837.174 656.342 829.1 616.05C821.025 575.757 813.731 550.134 776.345 498.86C738.96 447.586 722.138 408.748 722.138 408.748" fill="#263238"/>
<path d="M685.533 476.87C685.533 476.87 677.459 564.776 639.373 623.397C601.288 682.019 587.373 728.879 618.864 756.709C650.355 784.54 703.836 788.2 728.006 769.171C752.176 750.142 746.335 745.728 737.534 719.351C728.732 692.974 760.25 697.388 786.627 681.265C813.004 665.143 837.174 656.342 829.1 616.05C821.025 575.757 813.731 550.134 776.345 498.86C738.96 447.586 722.138 408.748 722.138 408.748" stroke="#263238" stroke-miterlimit="10"/>
<path d="M679.989 512.022C679.989 512.022 659.103 480.019 653.208 457.141C647.314 434.263 638.863 389.853 661.068 407.509C683.273 425.166 702.867 492.427 699.584 497.003C696.3 501.578 679.989 512.022 679.989 512.022Z" fill="white" stroke="#263238" stroke-miterlimit="10"/>
<path d="M679.343 582.54C675.414 594.302 682.035 634.136 682.035 634.136L636.979 638.712C636.979 638.712 630.438 588.434 635.66 564.264C640.881 540.094 670.273 510.703 670.273 510.703C670.273 510.703 668.981 481.984 665.051 464.947C661.122 447.909 653.962 427.723 653.962 417.926C653.962 408.128 653.962 393.11 657.219 392.437C660.476 391.764 665.697 395.128 672.238 405.518C678.778 415.907 710.78 481.93 717.294 493.665C723.807 505.4 724.48 511.968 719.259 523.057C714.037 534.146 679.343 582.54 679.343 582.54Z" fill="white" stroke="#263238" stroke-miterlimit="10"/>
<path d="M668.254 520.5C668.254 520.5 659.103 458.46 659.748 445.406C660.394 432.352 666.289 422.528 670.865 430.387C675.44 438.247 676.086 469.576 681.308 483.276C686.529 496.976 691.105 507.5 689.786 517.243" fill="white"/>
<path d="M668.254 520.5C668.254 520.5 659.103 458.46 659.748 445.406C660.394 432.352 666.289 422.528 670.865 430.387C675.44 438.247 676.086 469.576 681.308 483.276C686.529 496.976 691.105 507.5 689.786 517.243" stroke="#263238" stroke-miterlimit="10"/>
<path d="M654.527 409.582C654.527 409.582 658.457 397.174 668.9 414.158C679.343 431.141 692.397 481.446 699.584 497.111C699.584 497.111 706.77 503.624 704.805 511.457L702.867 519.316" stroke="#263238" stroke-miterlimit="10"/>
<path d="M440.093 512.022C440.093 512.022 460.979 480.019 466.874 457.141C472.768 434.263 481.246 389.853 459.041 407.509C436.836 425.166 417.242 492.427 420.498 497.003C423.755 501.578 440.093 512.022 440.093 512.022Z" fill="white" stroke="#263238" stroke-miterlimit="10"/>
<path d="M440.738 582.54C444.668 594.302 438.046 634.136 438.046 634.136L483.103 638.712C483.103 638.712 489.643 588.434 484.422 564.264C479.2 540.094 449.808 510.703 449.808 510.703C449.808 510.703 451.1 481.984 455.03 464.947C458.96 447.909 466.146 427.723 466.146 417.926C466.146 408.128 466.146 393.11 462.862 392.437C459.579 391.764 454.384 395.128 447.844 405.518C441.303 415.907 409.328 481.93 402.787 493.665C396.247 505.4 395.601 511.968 400.823 523.057C406.044 534.146 440.738 582.54 440.738 582.54Z" fill="white" stroke="#263238" stroke-miterlimit="10"/>
<path d="M451.855 520.5C451.855 520.5 460.979 458.46 460.333 445.406C459.687 432.352 453.82 422.528 449.244 430.387C444.668 438.247 444.023 469.576 438.774 483.276C433.526 496.976 428.977 507.5 430.296 517.243" fill="white"/>
<path d="M451.855 520.5C451.855 520.5 460.979 458.46 460.333 445.406C459.687 432.352 453.82 422.528 449.244 430.387C444.668 438.247 444.023 469.576 438.774 483.276C433.526 496.976 428.977 507.5 430.296 517.243" stroke="#263238" stroke-miterlimit="10"/>
<path d="M465.555 409.582C465.555 409.582 461.652 397.174 451.182 414.158C440.712 431.141 427.685 481.446 420.498 497.111C420.498 497.111 413.312 503.624 415.277 511.457L417.242 519.316" stroke="#263238" stroke-miterlimit="10"/>
<path d="M751.826 900.598C742.028 935.211 708.761 960.7 693.069 966.568C677.378 972.435 638.189 942.344 629.065 907.785C619.94 873.225 623.17 867.412 623.17 798.078C623.17 728.744 627.1 622.401 627.1 622.401L683.164 610.639C683.164 610.639 735.407 816.353 743.24 839.204C747.494 851.163 750.982 863.38 753.683 875.782" fill="white"/>
<path d="M751.826 900.598C742.028 935.211 708.761 960.7 693.069 966.568C677.378 972.435 638.189 942.344 629.065 907.785C619.94 873.225 623.17 867.412 623.17 798.078C623.17 728.744 627.1 622.401 627.1 622.401L683.164 610.639C683.164 610.639 735.407 816.353 743.24 839.204C747.494 851.163 750.982 863.38 753.683 875.782" stroke="#263238" stroke-miterlimit="10"/>
<path d="M358.028 630.288C358.028 630.288 308.396 638.766 304.466 685.141C300.536 731.516 314.263 773.262 333.265 810.62C352.268 847.979 393.341 918.282 420.767 945.197C448.194 972.113 460.602 928.214 461.921 872.068C463.24 815.923 412.935 708.127 412.935 708.127" fill="white"/>
<path d="M358.028 630.288C358.028 630.288 308.396 638.766 304.466 685.141C300.536 731.516 314.263 773.262 333.265 810.62C352.268 847.979 393.341 918.282 420.767 945.197C448.194 972.113 460.602 928.214 461.921 872.068C463.24 815.923 412.935 708.127 412.935 708.127" stroke="#263238" stroke-miterlimit="10"/>
<path d="M382.305 857.265C382.305 857.265 393.071 832.045 410.216 817.645" stroke="#263238" stroke-miterlimit="10"/>
<path d="M380.879 826.608C380.879 826.608 401.658 806.341 415.008 800.904" stroke="#263238" stroke-miterlimit="10"/>
<path d="M402.438 924.768C406.34 930.663 429.838 966.729 462.459 975.073C476.67 978.707 477.612 971.601 489.886 947.62C516.666 895.377 508.726 826.151 508.726 826.151L498.929 618.472L438.235 612.604C438.235 612.604 422.57 776.519 412.127 806.556C401.684 836.594 389.249 880.358 402.33 899.952" fill="white"/>
<path d="M402.438 924.768C406.34 930.663 429.838 966.729 462.459 975.073C476.67 978.707 477.612 971.601 489.886 947.62C516.666 895.377 508.726 826.151 508.726 826.151L498.929 618.472L438.235 612.604C438.235 612.604 422.57 776.519 412.127 806.556C401.684 836.594 389.249 880.358 402.33 899.952" stroke="#263238" stroke-miterlimit="10"/>
<path d="M730.939 794.148C749.371 805.458 763.945 822.086 772.739 841.842" stroke="#263238" stroke-miterlimit="10"/>
<path d="M742.028 815.708C742.028 815.708 754.463 830.08 757.72 845.099" stroke="#263238" stroke-miterlimit="10"/>
<path d="M539.841 976.204L595.017 936.073" stroke="#263238" stroke-miterlimit="10"/>
<path d="M516.479 993.187L528.779 984.224" stroke="#263238" stroke-miterlimit="10"/>
<path d="M607.236 940.137L567.482 973.808" stroke="#263238" stroke-miterlimit="10"/>
<path d="M858.788 165.944V520.877H1205.48V165.944H858.788Z" stroke="#263238" stroke-miterlimit="10"/>
<path d="M872.596 178.567V508.253H1191.68V178.567H872.596Z" stroke="#263238" stroke-miterlimit="10"/>
<path d="M1191.92 336.237H872.946V353.571H1191.92V336.237Z" stroke="#263238" stroke-miterlimit="10"/>
<path d="M1157.95 271.748L1154 275.705L1139.68 290.051H1129.5L1115.18 275.732L1111.12 271.748C1108.55 269.171 1107.1 265.678 1107.1 262.036C1107.11 258.394 1108.56 254.902 1111.13 252.329C1113.71 249.755 1117.2 248.311 1120.85 248.314C1124.49 248.316 1127.98 249.765 1130.55 252.342L1134.51 256.299L1138.47 252.342C1141.06 249.88 1144.52 248.528 1148.09 248.575C1151.67 248.622 1155.09 250.064 1157.62 252.594C1160.15 255.124 1161.59 258.542 1161.64 262.12C1161.69 265.698 1160.33 269.153 1157.87 271.748H1157.95Z" stroke="#263238" stroke-miterlimit="10"/>
<path d="M1158.89 290.051V335.968H1108.02V290.051H1129.5H1139.68H1158.89Z" stroke="#263238" stroke-miterlimit="10"/>
<path d="M910.439 196.439H872.946V336.238H910.439V196.439Z" stroke="#263238" stroke-miterlimit="10"/>
<path d="M902.606 254.98H880.805V336.237H902.606V254.98Z" stroke="#263238" stroke-miterlimit="10"/>
<path d="M890.871 228.845C893.978 228.845 896.497 226.327 896.497 223.22C896.497 220.113 893.978 217.594 890.871 217.594C887.765 217.594 885.246 220.113 885.246 223.22C885.246 226.327 887.765 228.845 890.871 228.845Z" stroke="#263238" stroke-miterlimit="10"/>
<path d="M956.088 196.439H918.595V336.238H956.088V196.439Z" stroke="#263238" stroke-miterlimit="10"/>
<path d="M948.254 254.98H926.453V336.237H948.254V254.98Z" stroke="#263238" stroke-miterlimit="10"/>
<path d="M936.52 228.845C939.627 228.845 942.145 226.327 942.145 223.22C942.145 220.113 939.627 217.594 936.52 217.594C933.413 217.594 930.895 220.113 930.895 223.22C930.895 226.327 933.413 228.845 936.52 228.845Z" stroke="#263238" stroke-miterlimit="10"/>
<path d="M1149.74 370.211L1112.67 364.54L1091.53 502.73L1128.59 508.401L1149.74 370.211Z" stroke="#263238" stroke-miterlimit="10"/>
<path d="M1133.16 426.93L1111.61 423.632L1099.32 503.954L1120.87 507.252L1133.16 426.93Z" stroke="#263238" stroke-miterlimit="10"/>
<path d="M1131.93 394.563C1131.74 395.656 1131.23 396.669 1130.46 397.475C1129.7 398.28 1128.72 398.841 1127.64 399.088C1126.55 399.336 1125.42 399.258 1124.39 398.864C1123.35 398.47 1122.45 397.779 1121.81 396.876C1121.16 395.973 1120.8 394.9 1120.76 393.791C1120.72 392.682 1121.01 391.587 1121.6 390.644C1122.18 389.701 1123.03 388.951 1124.04 388.489C1125.05 388.028 1126.17 387.875 1127.27 388.05C1128 388.167 1128.71 388.429 1129.34 388.821C1129.98 389.213 1130.53 389.727 1130.96 390.333C1131.39 390.939 1131.7 391.625 1131.87 392.351C1132.03 393.077 1132.05 393.829 1131.93 394.563Z" stroke="#263238" stroke-miterlimit="10"/>
<path d="M1188.34 367.89H1150.85V507.688H1188.34V367.89Z" stroke="#263238" stroke-miterlimit="10"/>
<path d="M1180.51 426.431H1158.71V507.688H1180.51V426.431Z" stroke="#263238" stroke-miterlimit="10"/>
<path d="M1168.77 400.296C1171.88 400.296 1174.4 397.778 1174.4 394.671C1174.4 391.564 1171.88 389.045 1168.77 389.045C1165.67 389.045 1163.15 391.564 1163.15 394.671C1163.15 397.778 1165.67 400.296 1168.77 400.296Z" stroke="#263238" stroke-miterlimit="10"/>
<path d="M951.054 117.012H867.374V165.002H951.054V117.012Z" stroke="#263238" stroke-miterlimit="10"/>
<path d="M867.993 116.366L844.631 93.3264L875.584 105.95L875.261 95.8565L887.588 103.743L884.116 49.7505L900.83 86.3823L915.041 57.0176L917.571 81.9681L944.729 61.7547L938.108 86.3823L946.613 84.7943L940.934 99.0056L958.617 89.8543L954.526 98.3865L974.094 90.4734L951.054 117.012H867.374" stroke="#263238" stroke-miterlimit="10"/>
<path d="M874.318 520.877H858.788V536.568H874.318V520.877Z" stroke="#263238" stroke-miterlimit="10"/>
<path d="M1205.65 520.877H1190.12V536.568H1205.65V520.877Z" stroke="#263238" stroke-miterlimit="10"/>
<path d="M959.425 1050.87C959.425 1050.87 1023.86 1069.47 1026.58 1071.27C1029.3 1073.07 1026.12 1103.03 1024.32 1107.12C1022.51 1111.21 1017.97 1112.5 1017.97 1110.3C1017.97 1108.09 1022.49 1078.99 1022.49 1076.73C1022.49 1074.47 994.819 1067.66 994.819 1067.66C994.819 1067.66 986.206 1069.92 983.918 1070.84C981.63 1071.75 958.079 1068.15 958.079 1068.15L959.425 1050.87Z" fill="#263238" stroke="#263238" stroke-miterlimit="10"/>
<path d="M1051.91 1050.87C1051.91 1050.87 1017.16 1037.79 998.075 1039.4C968.118 1042.09 957.702 1048.5 957.702 1050.76C957.702 1053.02 958.16 1056.65 958.16 1056.65C958.16 1056.65 960.421 1092.96 979.477 1102.92C998.533 1112.88 1020.76 1110.65 1031.64 1105.21C1042.51 1099.77 1052.52 1087.04 1052.52 1076.17C1052.52 1065.29 1051.91 1050.87 1051.91 1050.87Z" stroke="#263238" stroke-width="2" stroke-miterlimit="10"/>
<path d="M1064.23 1050.87C1064.23 1050.87 1099.06 1037.79 1118.23 1039.51C1148.18 1042.2 1158.6 1048.61 1158.6 1050.87C1158.6 1053.13 1158.17 1056.76 1158.17 1056.76C1158.17 1056.76 1155.88 1093.07 1136.82 1103.03C1117.77 1112.99 1095.54 1110.75 1084.66 1105.32C1073.79 1099.88 1063.78 1087.15 1063.78 1076.28C1063.78 1065.4 1064.23 1050.87 1064.23 1050.87Z" stroke="#263238" stroke-width="2" stroke-miterlimit="10"/>
<path d="M1051.99 1050.87H1064.23V1062.2H1052.9L1051.99 1050.87Z" fill="#263238" stroke="#263238" stroke-miterlimit="10"/>
<path d="M1158.6 1050.87C1158.6 1050.87 1223.03 1069.47 1225.75 1071.27C1228.47 1073.07 1225.29 1103.03 1223.49 1107.12C1221.69 1111.21 1217.14 1112.5 1217.14 1110.3C1217.14 1108.09 1221.69 1078.99 1221.69 1076.73C1221.69 1074.47 1193.99 1067.66 1193.99 1067.66C1193.99 1067.66 1185.38 1069.92 1183.23 1070.84C1181.07 1071.75 1157.36 1068.15 1157.36 1068.15L1158.6 1050.87Z" fill="#263238" stroke="#263238" stroke-miterlimit="10"/>
<path d="M1146.7 1056.98L1104.31 1079.13" stroke="#263238" stroke-miterlimit="10"/>
<path d="M1115.4 1066.1L1091.93 1078.48" stroke="#263238" stroke-miterlimit="10"/>
<path d="M1037.18 1056.33L994.791 1078.48" stroke="#263238" stroke-miterlimit="10"/>
<path d="M1005.88 1065.45L982.41 1077.84" stroke="#263238" stroke-miterlimit="10"/>
<path d="M963.623 1100.28H395.063V1110.57H963.623V1100.28Z" fill="#263238"/>
<path d="M1006.82 824.966H592.38L548.023 1110.57H962.466L1006.82 824.966Z" fill="#263238"/>
<path opacity="0.43" d="M1006.82 824.966H592.38L548.023 1110.57H962.466L1006.82 824.966Z" fill="white"/>
<path d="M1013.42 824.966H598.947L554.591 1110.57H969.06L1013.42 824.966Z" fill="#263238"/>
<path opacity="0.13" d="M1013.42 824.966H598.921L556.933 1095.47C589.554 1096.89 752.392 1099.48 835.829 1014.34C887.028 962.926 943.802 917.382 1005.1 878.555L1013.42 824.966Z" fill="white"/>
<path d="M802.481 1005.89C821.939 1005.89 837.713 992.009 837.713 974.885C837.713 957.76 821.939 943.878 802.481 943.878C783.023 943.878 767.249 957.76 767.249 974.885C767.249 992.009 783.023 1005.89 802.481 1005.89Z" fill="white"/>
<path d="M0 1111.37H1252.48" stroke="#263238" stroke-miterlimit="10"/>
</svg>
